; NON-PLATED HOLES START AT T1
; THROUGH (PLATED) HOLES START AT T100
M48
INCH
T1C0.031496
T100C0.035000
T101C0.040000
T102C0.028000
T103C0.038000
%
T1
X007724Y008294
X011724Y008294
X009724Y008294
X013724Y005294
X010724Y008294
X008724Y008294
X011724Y002294
T100
X020995Y013294
X016105Y011532
X016105Y012473
X016105Y015032
X019224Y013294
X020995Y010735
X017877Y011532
X019224Y010735
X017877Y008973
X017877Y012473
X016105Y008973
X017877Y015032
T101
X013715Y005296
X002724Y013416
X013715Y004296
X013715Y007296
X013715Y006296
X013715Y003296
X002724Y014794
T102
X009219Y015795
X011224Y015794
X010224Y015794
X008224Y015794
T103
X007724Y008299
X011724Y002294
X006724Y002294
X005724Y015309
X005724Y010794
X002289Y007796
X008724Y002294
X014813Y010794
X010724Y008299
X014813Y016312
X006724Y008299
X005724Y016312
X005724Y002294
X005724Y011797
X007724Y002294
X009724Y008299
X009724Y002294
X010724Y002294
X005724Y008299
X002289Y009356
X011724Y008299
X008724Y008299
X002289Y010916
T00
M30
