G04 MADE WITH FRITZING*
G04 WWW.FRITZING.ORG*
G04 DOUBLE SIDED*
G04 HOLES PLATED*
G04 CONTOUR ON CENTER OF CONTOUR VECTOR*
%ASAXBY*%
%FSLAX23Y23*%
%MOIN*%
%OFA0B0*%
%SFA1.0B1.0*%
%ADD10C,0.010000*%
%ADD11C,0.005000*%
%ADD12C,0.009650*%
%ADD13R,0.001000X0.001000*%
%LNSILK1*%
G90*
G70*
G54D10*
X1266Y183D02*
X1266Y872D01*
D02*
X479Y183D02*
X479Y872D01*
D02*
X448Y418D02*
X448Y646D01*
D02*
X478Y422D02*
X446Y422D01*
D02*
X478Y647D02*
X446Y647D01*
D02*
X184Y1553D02*
X184Y1268D01*
D02*
X184Y1268D02*
X400Y1268D01*
D02*
X400Y1268D02*
X400Y1553D01*
D02*
X400Y1553D02*
X184Y1553D01*
G54D11*
D02*
X360Y1268D02*
X360Y1553D01*
G54D10*
D02*
X413Y713D02*
X413Y1158D01*
D02*
X150Y1127D02*
X93Y1127D01*
G54D12*
D02*
X88Y1132D02*
X88Y739D01*
G54D10*
D02*
X150Y708D02*
X418Y708D01*
D02*
X155Y1158D02*
X155Y713D01*
D02*
X418Y1163D02*
X150Y1163D01*
D02*
X150Y744D02*
X93Y744D01*
G54D13*
X0Y1869D02*
X2216Y1869D01*
X0Y1868D02*
X2216Y1868D01*
X0Y1867D02*
X2216Y1867D01*
X0Y1866D02*
X2216Y1866D01*
X0Y1865D02*
X2216Y1865D01*
X0Y1864D02*
X2216Y1864D01*
X0Y1863D02*
X2216Y1863D01*
X0Y1862D02*
X2216Y1862D01*
X0Y1861D02*
X7Y1861D01*
X2209Y1861D02*
X2216Y1861D01*
X0Y1860D02*
X7Y1860D01*
X2209Y1860D02*
X2216Y1860D01*
X0Y1859D02*
X7Y1859D01*
X2209Y1859D02*
X2216Y1859D01*
X0Y1858D02*
X7Y1858D01*
X2209Y1858D02*
X2216Y1858D01*
X0Y1857D02*
X7Y1857D01*
X2209Y1857D02*
X2216Y1857D01*
X0Y1856D02*
X7Y1856D01*
X2209Y1856D02*
X2216Y1856D01*
X0Y1855D02*
X7Y1855D01*
X2209Y1855D02*
X2216Y1855D01*
X0Y1854D02*
X7Y1854D01*
X2209Y1854D02*
X2216Y1854D01*
X0Y1853D02*
X7Y1853D01*
X2209Y1853D02*
X2216Y1853D01*
X0Y1852D02*
X7Y1852D01*
X2209Y1852D02*
X2216Y1852D01*
X0Y1851D02*
X7Y1851D01*
X2209Y1851D02*
X2216Y1851D01*
X0Y1850D02*
X7Y1850D01*
X2209Y1850D02*
X2216Y1850D01*
X0Y1849D02*
X7Y1849D01*
X2209Y1849D02*
X2216Y1849D01*
X0Y1848D02*
X7Y1848D01*
X2209Y1848D02*
X2216Y1848D01*
X0Y1847D02*
X7Y1847D01*
X2209Y1847D02*
X2216Y1847D01*
X0Y1846D02*
X7Y1846D01*
X2209Y1846D02*
X2216Y1846D01*
X0Y1845D02*
X7Y1845D01*
X2209Y1845D02*
X2216Y1845D01*
X0Y1844D02*
X7Y1844D01*
X2209Y1844D02*
X2216Y1844D01*
X0Y1843D02*
X7Y1843D01*
X2209Y1843D02*
X2216Y1843D01*
X0Y1842D02*
X7Y1842D01*
X2209Y1842D02*
X2216Y1842D01*
X0Y1841D02*
X7Y1841D01*
X2209Y1841D02*
X2216Y1841D01*
X0Y1840D02*
X7Y1840D01*
X2209Y1840D02*
X2216Y1840D01*
X0Y1839D02*
X7Y1839D01*
X2209Y1839D02*
X2216Y1839D01*
X0Y1838D02*
X7Y1838D01*
X2209Y1838D02*
X2216Y1838D01*
X0Y1837D02*
X7Y1837D01*
X2209Y1837D02*
X2216Y1837D01*
X0Y1836D02*
X7Y1836D01*
X2209Y1836D02*
X2216Y1836D01*
X0Y1835D02*
X7Y1835D01*
X2209Y1835D02*
X2216Y1835D01*
X0Y1834D02*
X7Y1834D01*
X2209Y1834D02*
X2216Y1834D01*
X0Y1833D02*
X7Y1833D01*
X2209Y1833D02*
X2216Y1833D01*
X0Y1832D02*
X7Y1832D01*
X2209Y1832D02*
X2216Y1832D01*
X0Y1831D02*
X7Y1831D01*
X2209Y1831D02*
X2216Y1831D01*
X0Y1830D02*
X7Y1830D01*
X2209Y1830D02*
X2216Y1830D01*
X0Y1829D02*
X7Y1829D01*
X2209Y1829D02*
X2216Y1829D01*
X0Y1828D02*
X7Y1828D01*
X2209Y1828D02*
X2216Y1828D01*
X0Y1827D02*
X7Y1827D01*
X2209Y1827D02*
X2216Y1827D01*
X0Y1826D02*
X7Y1826D01*
X2209Y1826D02*
X2216Y1826D01*
X0Y1825D02*
X7Y1825D01*
X2209Y1825D02*
X2216Y1825D01*
X0Y1824D02*
X7Y1824D01*
X2209Y1824D02*
X2216Y1824D01*
X0Y1823D02*
X7Y1823D01*
X2209Y1823D02*
X2216Y1823D01*
X0Y1822D02*
X7Y1822D01*
X2209Y1822D02*
X2216Y1822D01*
X0Y1821D02*
X7Y1821D01*
X2209Y1821D02*
X2216Y1821D01*
X0Y1820D02*
X7Y1820D01*
X2209Y1820D02*
X2216Y1820D01*
X0Y1819D02*
X7Y1819D01*
X2209Y1819D02*
X2216Y1819D01*
X0Y1818D02*
X7Y1818D01*
X2209Y1818D02*
X2216Y1818D01*
X0Y1817D02*
X7Y1817D01*
X2209Y1817D02*
X2216Y1817D01*
X0Y1816D02*
X7Y1816D01*
X2209Y1816D02*
X2216Y1816D01*
X0Y1815D02*
X7Y1815D01*
X2209Y1815D02*
X2216Y1815D01*
X0Y1814D02*
X7Y1814D01*
X2209Y1814D02*
X2216Y1814D01*
X0Y1813D02*
X7Y1813D01*
X2209Y1813D02*
X2216Y1813D01*
X0Y1812D02*
X7Y1812D01*
X2209Y1812D02*
X2216Y1812D01*
X0Y1811D02*
X7Y1811D01*
X2209Y1811D02*
X2216Y1811D01*
X0Y1810D02*
X7Y1810D01*
X2209Y1810D02*
X2216Y1810D01*
X0Y1809D02*
X7Y1809D01*
X2209Y1809D02*
X2216Y1809D01*
X0Y1808D02*
X7Y1808D01*
X2209Y1808D02*
X2216Y1808D01*
X0Y1807D02*
X7Y1807D01*
X2209Y1807D02*
X2216Y1807D01*
X0Y1806D02*
X7Y1806D01*
X2209Y1806D02*
X2216Y1806D01*
X0Y1805D02*
X7Y1805D01*
X2209Y1805D02*
X2216Y1805D01*
X0Y1804D02*
X7Y1804D01*
X2209Y1804D02*
X2216Y1804D01*
X0Y1803D02*
X7Y1803D01*
X2209Y1803D02*
X2216Y1803D01*
X0Y1802D02*
X7Y1802D01*
X2209Y1802D02*
X2216Y1802D01*
X0Y1801D02*
X7Y1801D01*
X2209Y1801D02*
X2216Y1801D01*
X0Y1800D02*
X7Y1800D01*
X2209Y1800D02*
X2216Y1800D01*
X0Y1799D02*
X7Y1799D01*
X2209Y1799D02*
X2216Y1799D01*
X0Y1798D02*
X7Y1798D01*
X2209Y1798D02*
X2216Y1798D01*
X0Y1797D02*
X7Y1797D01*
X2209Y1797D02*
X2216Y1797D01*
X0Y1796D02*
X7Y1796D01*
X2209Y1796D02*
X2216Y1796D01*
X0Y1795D02*
X7Y1795D01*
X2209Y1795D02*
X2216Y1795D01*
X0Y1794D02*
X7Y1794D01*
X2209Y1794D02*
X2216Y1794D01*
X0Y1793D02*
X7Y1793D01*
X2209Y1793D02*
X2216Y1793D01*
X0Y1792D02*
X7Y1792D01*
X2209Y1792D02*
X2216Y1792D01*
X0Y1791D02*
X7Y1791D01*
X2209Y1791D02*
X2216Y1791D01*
X0Y1790D02*
X7Y1790D01*
X2209Y1790D02*
X2216Y1790D01*
X0Y1789D02*
X7Y1789D01*
X2209Y1789D02*
X2216Y1789D01*
X0Y1788D02*
X7Y1788D01*
X2209Y1788D02*
X2216Y1788D01*
X0Y1787D02*
X7Y1787D01*
X2209Y1787D02*
X2216Y1787D01*
X0Y1786D02*
X7Y1786D01*
X2209Y1786D02*
X2216Y1786D01*
X0Y1785D02*
X7Y1785D01*
X2209Y1785D02*
X2216Y1785D01*
X0Y1784D02*
X7Y1784D01*
X2209Y1784D02*
X2216Y1784D01*
X0Y1783D02*
X7Y1783D01*
X2209Y1783D02*
X2216Y1783D01*
X0Y1782D02*
X7Y1782D01*
X2209Y1782D02*
X2216Y1782D01*
X0Y1781D02*
X7Y1781D01*
X2209Y1781D02*
X2216Y1781D01*
X0Y1780D02*
X7Y1780D01*
X2209Y1780D02*
X2216Y1780D01*
X0Y1779D02*
X7Y1779D01*
X2209Y1779D02*
X2216Y1779D01*
X0Y1778D02*
X7Y1778D01*
X2209Y1778D02*
X2216Y1778D01*
X0Y1777D02*
X7Y1777D01*
X2209Y1777D02*
X2216Y1777D01*
X0Y1776D02*
X7Y1776D01*
X2209Y1776D02*
X2216Y1776D01*
X0Y1775D02*
X7Y1775D01*
X2209Y1775D02*
X2216Y1775D01*
X0Y1774D02*
X7Y1774D01*
X2209Y1774D02*
X2216Y1774D01*
X0Y1773D02*
X7Y1773D01*
X2209Y1773D02*
X2216Y1773D01*
X0Y1772D02*
X7Y1772D01*
X2209Y1772D02*
X2216Y1772D01*
X0Y1771D02*
X7Y1771D01*
X2209Y1771D02*
X2216Y1771D01*
X0Y1770D02*
X7Y1770D01*
X2209Y1770D02*
X2216Y1770D01*
X0Y1769D02*
X7Y1769D01*
X2209Y1769D02*
X2216Y1769D01*
X0Y1768D02*
X7Y1768D01*
X2209Y1768D02*
X2216Y1768D01*
X0Y1767D02*
X7Y1767D01*
X2209Y1767D02*
X2216Y1767D01*
X0Y1766D02*
X7Y1766D01*
X2209Y1766D02*
X2216Y1766D01*
X0Y1765D02*
X7Y1765D01*
X2209Y1765D02*
X2216Y1765D01*
X0Y1764D02*
X7Y1764D01*
X2209Y1764D02*
X2216Y1764D01*
X0Y1763D02*
X7Y1763D01*
X2209Y1763D02*
X2216Y1763D01*
X0Y1762D02*
X7Y1762D01*
X2209Y1762D02*
X2216Y1762D01*
X0Y1761D02*
X7Y1761D01*
X2209Y1761D02*
X2216Y1761D01*
X0Y1760D02*
X7Y1760D01*
X2209Y1760D02*
X2216Y1760D01*
X0Y1759D02*
X7Y1759D01*
X2209Y1759D02*
X2216Y1759D01*
X0Y1758D02*
X7Y1758D01*
X2209Y1758D02*
X2216Y1758D01*
X0Y1757D02*
X7Y1757D01*
X2209Y1757D02*
X2216Y1757D01*
X0Y1756D02*
X7Y1756D01*
X2209Y1756D02*
X2216Y1756D01*
X0Y1755D02*
X7Y1755D01*
X2209Y1755D02*
X2216Y1755D01*
X0Y1754D02*
X7Y1754D01*
X2209Y1754D02*
X2216Y1754D01*
X0Y1753D02*
X7Y1753D01*
X2209Y1753D02*
X2216Y1753D01*
X0Y1752D02*
X7Y1752D01*
X2209Y1752D02*
X2216Y1752D01*
X0Y1751D02*
X7Y1751D01*
X2209Y1751D02*
X2216Y1751D01*
X0Y1750D02*
X7Y1750D01*
X2209Y1750D02*
X2216Y1750D01*
X0Y1749D02*
X7Y1749D01*
X2209Y1749D02*
X2216Y1749D01*
X0Y1748D02*
X7Y1748D01*
X2209Y1748D02*
X2216Y1748D01*
X0Y1747D02*
X7Y1747D01*
X2209Y1747D02*
X2216Y1747D01*
X0Y1746D02*
X7Y1746D01*
X2209Y1746D02*
X2216Y1746D01*
X0Y1745D02*
X7Y1745D01*
X2209Y1745D02*
X2216Y1745D01*
X0Y1744D02*
X7Y1744D01*
X2209Y1744D02*
X2216Y1744D01*
X0Y1743D02*
X7Y1743D01*
X2209Y1743D02*
X2216Y1743D01*
X0Y1742D02*
X7Y1742D01*
X2209Y1742D02*
X2216Y1742D01*
X0Y1741D02*
X7Y1741D01*
X2209Y1741D02*
X2216Y1741D01*
X0Y1740D02*
X7Y1740D01*
X2209Y1740D02*
X2216Y1740D01*
X0Y1739D02*
X7Y1739D01*
X2209Y1739D02*
X2216Y1739D01*
X0Y1738D02*
X7Y1738D01*
X2209Y1738D02*
X2216Y1738D01*
X0Y1737D02*
X7Y1737D01*
X2209Y1737D02*
X2216Y1737D01*
X0Y1736D02*
X7Y1736D01*
X2209Y1736D02*
X2216Y1736D01*
X0Y1735D02*
X7Y1735D01*
X2209Y1735D02*
X2216Y1735D01*
X0Y1734D02*
X7Y1734D01*
X2209Y1734D02*
X2216Y1734D01*
X0Y1733D02*
X7Y1733D01*
X2209Y1733D02*
X2216Y1733D01*
X0Y1732D02*
X7Y1732D01*
X2209Y1732D02*
X2216Y1732D01*
X0Y1731D02*
X7Y1731D01*
X2209Y1731D02*
X2216Y1731D01*
X0Y1730D02*
X7Y1730D01*
X2209Y1730D02*
X2216Y1730D01*
X0Y1729D02*
X7Y1729D01*
X2209Y1729D02*
X2216Y1729D01*
X0Y1728D02*
X7Y1728D01*
X2209Y1728D02*
X2216Y1728D01*
X0Y1727D02*
X7Y1727D01*
X2209Y1727D02*
X2216Y1727D01*
X0Y1726D02*
X7Y1726D01*
X2209Y1726D02*
X2216Y1726D01*
X0Y1725D02*
X7Y1725D01*
X2209Y1725D02*
X2216Y1725D01*
X0Y1724D02*
X7Y1724D01*
X2209Y1724D02*
X2216Y1724D01*
X0Y1723D02*
X7Y1723D01*
X2209Y1723D02*
X2216Y1723D01*
X0Y1722D02*
X7Y1722D01*
X2209Y1722D02*
X2216Y1722D01*
X0Y1721D02*
X7Y1721D01*
X2209Y1721D02*
X2216Y1721D01*
X0Y1720D02*
X7Y1720D01*
X2209Y1720D02*
X2216Y1720D01*
X0Y1719D02*
X7Y1719D01*
X2209Y1719D02*
X2216Y1719D01*
X0Y1718D02*
X7Y1718D01*
X2209Y1718D02*
X2216Y1718D01*
X0Y1717D02*
X7Y1717D01*
X2209Y1717D02*
X2216Y1717D01*
X0Y1716D02*
X7Y1716D01*
X2209Y1716D02*
X2216Y1716D01*
X0Y1715D02*
X7Y1715D01*
X2209Y1715D02*
X2216Y1715D01*
X0Y1714D02*
X7Y1714D01*
X2209Y1714D02*
X2216Y1714D01*
X0Y1713D02*
X7Y1713D01*
X2209Y1713D02*
X2216Y1713D01*
X0Y1712D02*
X7Y1712D01*
X2209Y1712D02*
X2216Y1712D01*
X0Y1711D02*
X7Y1711D01*
X2209Y1711D02*
X2216Y1711D01*
X0Y1710D02*
X7Y1710D01*
X2209Y1710D02*
X2216Y1710D01*
X0Y1709D02*
X7Y1709D01*
X2209Y1709D02*
X2216Y1709D01*
X0Y1708D02*
X7Y1708D01*
X2209Y1708D02*
X2216Y1708D01*
X0Y1707D02*
X7Y1707D01*
X2209Y1707D02*
X2216Y1707D01*
X0Y1706D02*
X7Y1706D01*
X2209Y1706D02*
X2216Y1706D01*
X0Y1705D02*
X7Y1705D01*
X2209Y1705D02*
X2216Y1705D01*
X0Y1704D02*
X7Y1704D01*
X2209Y1704D02*
X2216Y1704D01*
X0Y1703D02*
X7Y1703D01*
X2209Y1703D02*
X2216Y1703D01*
X0Y1702D02*
X7Y1702D01*
X2209Y1702D02*
X2216Y1702D01*
X0Y1701D02*
X7Y1701D01*
X2209Y1701D02*
X2216Y1701D01*
X0Y1700D02*
X7Y1700D01*
X2209Y1700D02*
X2216Y1700D01*
X0Y1699D02*
X7Y1699D01*
X2209Y1699D02*
X2216Y1699D01*
X0Y1698D02*
X7Y1698D01*
X2209Y1698D02*
X2216Y1698D01*
X0Y1697D02*
X7Y1697D01*
X2209Y1697D02*
X2216Y1697D01*
X0Y1696D02*
X7Y1696D01*
X2209Y1696D02*
X2216Y1696D01*
X0Y1695D02*
X7Y1695D01*
X2209Y1695D02*
X2216Y1695D01*
X0Y1694D02*
X7Y1694D01*
X2209Y1694D02*
X2216Y1694D01*
X0Y1693D02*
X7Y1693D01*
X2209Y1693D02*
X2216Y1693D01*
X0Y1692D02*
X7Y1692D01*
X2209Y1692D02*
X2216Y1692D01*
X0Y1691D02*
X7Y1691D01*
X2209Y1691D02*
X2216Y1691D01*
X0Y1690D02*
X7Y1690D01*
X2209Y1690D02*
X2216Y1690D01*
X0Y1689D02*
X7Y1689D01*
X2209Y1689D02*
X2216Y1689D01*
X0Y1688D02*
X7Y1688D01*
X2209Y1688D02*
X2216Y1688D01*
X0Y1687D02*
X7Y1687D01*
X2209Y1687D02*
X2216Y1687D01*
X0Y1686D02*
X7Y1686D01*
X2209Y1686D02*
X2216Y1686D01*
X0Y1685D02*
X7Y1685D01*
X2209Y1685D02*
X2216Y1685D01*
X0Y1684D02*
X7Y1684D01*
X2209Y1684D02*
X2216Y1684D01*
X0Y1683D02*
X7Y1683D01*
X2209Y1683D02*
X2216Y1683D01*
X0Y1682D02*
X7Y1682D01*
X2209Y1682D02*
X2216Y1682D01*
X0Y1681D02*
X7Y1681D01*
X2209Y1681D02*
X2216Y1681D01*
X0Y1680D02*
X7Y1680D01*
X2209Y1680D02*
X2216Y1680D01*
X0Y1679D02*
X7Y1679D01*
X2209Y1679D02*
X2216Y1679D01*
X0Y1678D02*
X7Y1678D01*
X2209Y1678D02*
X2216Y1678D01*
X0Y1677D02*
X7Y1677D01*
X2209Y1677D02*
X2216Y1677D01*
X0Y1676D02*
X7Y1676D01*
X2209Y1676D02*
X2216Y1676D01*
X0Y1675D02*
X7Y1675D01*
X2209Y1675D02*
X2216Y1675D01*
X0Y1674D02*
X7Y1674D01*
X2209Y1674D02*
X2216Y1674D01*
X0Y1673D02*
X7Y1673D01*
X2209Y1673D02*
X2216Y1673D01*
X0Y1672D02*
X7Y1672D01*
X2209Y1672D02*
X2216Y1672D01*
X0Y1671D02*
X7Y1671D01*
X2209Y1671D02*
X2216Y1671D01*
X0Y1670D02*
X7Y1670D01*
X2209Y1670D02*
X2216Y1670D01*
X0Y1669D02*
X7Y1669D01*
X2209Y1669D02*
X2216Y1669D01*
X0Y1668D02*
X7Y1668D01*
X2209Y1668D02*
X2216Y1668D01*
X0Y1667D02*
X7Y1667D01*
X2209Y1667D02*
X2216Y1667D01*
X0Y1666D02*
X7Y1666D01*
X2209Y1666D02*
X2216Y1666D01*
X0Y1665D02*
X7Y1665D01*
X2209Y1665D02*
X2216Y1665D01*
X0Y1664D02*
X7Y1664D01*
X2209Y1664D02*
X2216Y1664D01*
X0Y1663D02*
X7Y1663D01*
X2209Y1663D02*
X2216Y1663D01*
X0Y1662D02*
X7Y1662D01*
X2209Y1662D02*
X2216Y1662D01*
X0Y1661D02*
X7Y1661D01*
X2209Y1661D02*
X2216Y1661D01*
X0Y1660D02*
X7Y1660D01*
X2209Y1660D02*
X2216Y1660D01*
X0Y1659D02*
X7Y1659D01*
X2209Y1659D02*
X2216Y1659D01*
X0Y1658D02*
X7Y1658D01*
X2209Y1658D02*
X2216Y1658D01*
X0Y1657D02*
X7Y1657D01*
X2209Y1657D02*
X2216Y1657D01*
X0Y1656D02*
X7Y1656D01*
X2209Y1656D02*
X2216Y1656D01*
X0Y1655D02*
X7Y1655D01*
X2209Y1655D02*
X2216Y1655D01*
X0Y1654D02*
X7Y1654D01*
X2209Y1654D02*
X2216Y1654D01*
X0Y1653D02*
X7Y1653D01*
X2209Y1653D02*
X2216Y1653D01*
X0Y1652D02*
X7Y1652D01*
X2209Y1652D02*
X2216Y1652D01*
X0Y1651D02*
X7Y1651D01*
X2209Y1651D02*
X2216Y1651D01*
X0Y1650D02*
X7Y1650D01*
X2209Y1650D02*
X2216Y1650D01*
X0Y1649D02*
X7Y1649D01*
X2209Y1649D02*
X2216Y1649D01*
X0Y1648D02*
X7Y1648D01*
X2209Y1648D02*
X2216Y1648D01*
X0Y1647D02*
X7Y1647D01*
X2209Y1647D02*
X2216Y1647D01*
X0Y1646D02*
X7Y1646D01*
X2209Y1646D02*
X2216Y1646D01*
X0Y1645D02*
X7Y1645D01*
X2209Y1645D02*
X2216Y1645D01*
X0Y1644D02*
X7Y1644D01*
X2209Y1644D02*
X2216Y1644D01*
X0Y1643D02*
X7Y1643D01*
X2209Y1643D02*
X2216Y1643D01*
X0Y1642D02*
X7Y1642D01*
X2209Y1642D02*
X2216Y1642D01*
X0Y1641D02*
X7Y1641D01*
X2209Y1641D02*
X2216Y1641D01*
X0Y1640D02*
X7Y1640D01*
X2209Y1640D02*
X2216Y1640D01*
X0Y1639D02*
X7Y1639D01*
X2209Y1639D02*
X2216Y1639D01*
X0Y1638D02*
X7Y1638D01*
X2209Y1638D02*
X2216Y1638D01*
X0Y1637D02*
X7Y1637D01*
X2209Y1637D02*
X2216Y1637D01*
X0Y1636D02*
X7Y1636D01*
X2209Y1636D02*
X2216Y1636D01*
X0Y1635D02*
X7Y1635D01*
X2209Y1635D02*
X2216Y1635D01*
X0Y1634D02*
X7Y1634D01*
X2209Y1634D02*
X2216Y1634D01*
X0Y1633D02*
X7Y1633D01*
X2209Y1633D02*
X2216Y1633D01*
X0Y1632D02*
X7Y1632D01*
X2209Y1632D02*
X2216Y1632D01*
X0Y1631D02*
X7Y1631D01*
X2209Y1631D02*
X2216Y1631D01*
X0Y1630D02*
X7Y1630D01*
X2209Y1630D02*
X2216Y1630D01*
X0Y1629D02*
X7Y1629D01*
X2209Y1629D02*
X2216Y1629D01*
X0Y1628D02*
X7Y1628D01*
X2209Y1628D02*
X2216Y1628D01*
X0Y1627D02*
X7Y1627D01*
X2209Y1627D02*
X2216Y1627D01*
X0Y1626D02*
X7Y1626D01*
X2209Y1626D02*
X2216Y1626D01*
X0Y1625D02*
X7Y1625D01*
X2209Y1625D02*
X2216Y1625D01*
X0Y1624D02*
X7Y1624D01*
X2209Y1624D02*
X2216Y1624D01*
X0Y1623D02*
X7Y1623D01*
X2209Y1623D02*
X2216Y1623D01*
X0Y1622D02*
X7Y1622D01*
X2209Y1622D02*
X2216Y1622D01*
X0Y1621D02*
X7Y1621D01*
X2209Y1621D02*
X2216Y1621D01*
X0Y1620D02*
X7Y1620D01*
X2209Y1620D02*
X2216Y1620D01*
X0Y1619D02*
X7Y1619D01*
X2209Y1619D02*
X2216Y1619D01*
X0Y1618D02*
X7Y1618D01*
X2209Y1618D02*
X2216Y1618D01*
X0Y1617D02*
X7Y1617D01*
X2209Y1617D02*
X2216Y1617D01*
X0Y1616D02*
X7Y1616D01*
X2209Y1616D02*
X2216Y1616D01*
X0Y1615D02*
X7Y1615D01*
X2209Y1615D02*
X2216Y1615D01*
X0Y1614D02*
X7Y1614D01*
X2209Y1614D02*
X2216Y1614D01*
X0Y1613D02*
X7Y1613D01*
X2209Y1613D02*
X2216Y1613D01*
X0Y1612D02*
X7Y1612D01*
X2209Y1612D02*
X2216Y1612D01*
X0Y1611D02*
X7Y1611D01*
X2209Y1611D02*
X2216Y1611D01*
X0Y1610D02*
X7Y1610D01*
X2209Y1610D02*
X2216Y1610D01*
X0Y1609D02*
X7Y1609D01*
X2209Y1609D02*
X2216Y1609D01*
X0Y1608D02*
X7Y1608D01*
X2209Y1608D02*
X2216Y1608D01*
X0Y1607D02*
X7Y1607D01*
X2209Y1607D02*
X2216Y1607D01*
X0Y1606D02*
X7Y1606D01*
X2209Y1606D02*
X2216Y1606D01*
X0Y1605D02*
X7Y1605D01*
X2209Y1605D02*
X2216Y1605D01*
X0Y1604D02*
X7Y1604D01*
X2209Y1604D02*
X2216Y1604D01*
X0Y1603D02*
X7Y1603D01*
X2209Y1603D02*
X2216Y1603D01*
X0Y1602D02*
X7Y1602D01*
X2209Y1602D02*
X2216Y1602D01*
X0Y1601D02*
X7Y1601D01*
X2209Y1601D02*
X2216Y1601D01*
X0Y1600D02*
X7Y1600D01*
X2209Y1600D02*
X2216Y1600D01*
X0Y1599D02*
X7Y1599D01*
X2209Y1599D02*
X2216Y1599D01*
X0Y1598D02*
X7Y1598D01*
X2209Y1598D02*
X2216Y1598D01*
X0Y1597D02*
X7Y1597D01*
X2209Y1597D02*
X2216Y1597D01*
X0Y1596D02*
X7Y1596D01*
X2209Y1596D02*
X2216Y1596D01*
X0Y1595D02*
X7Y1595D01*
X2209Y1595D02*
X2216Y1595D01*
X0Y1594D02*
X7Y1594D01*
X2209Y1594D02*
X2216Y1594D01*
X0Y1593D02*
X7Y1593D01*
X2209Y1593D02*
X2216Y1593D01*
X0Y1592D02*
X7Y1592D01*
X2209Y1592D02*
X2216Y1592D01*
X0Y1591D02*
X7Y1591D01*
X2209Y1591D02*
X2216Y1591D01*
X0Y1590D02*
X7Y1590D01*
X2209Y1590D02*
X2216Y1590D01*
X0Y1589D02*
X7Y1589D01*
X2209Y1589D02*
X2216Y1589D01*
X0Y1588D02*
X7Y1588D01*
X2209Y1588D02*
X2216Y1588D01*
X0Y1587D02*
X7Y1587D01*
X2209Y1587D02*
X2216Y1587D01*
X0Y1586D02*
X7Y1586D01*
X2209Y1586D02*
X2216Y1586D01*
X0Y1585D02*
X7Y1585D01*
X2209Y1585D02*
X2216Y1585D01*
X0Y1584D02*
X7Y1584D01*
X2209Y1584D02*
X2216Y1584D01*
X0Y1583D02*
X7Y1583D01*
X2209Y1583D02*
X2216Y1583D01*
X0Y1582D02*
X7Y1582D01*
X2209Y1582D02*
X2216Y1582D01*
X0Y1581D02*
X7Y1581D01*
X2209Y1581D02*
X2216Y1581D01*
X0Y1580D02*
X7Y1580D01*
X2209Y1580D02*
X2216Y1580D01*
X0Y1579D02*
X7Y1579D01*
X2209Y1579D02*
X2216Y1579D01*
X0Y1578D02*
X7Y1578D01*
X2209Y1578D02*
X2216Y1578D01*
X0Y1577D02*
X7Y1577D01*
X2209Y1577D02*
X2216Y1577D01*
X0Y1576D02*
X7Y1576D01*
X2209Y1576D02*
X2216Y1576D01*
X0Y1575D02*
X7Y1575D01*
X2209Y1575D02*
X2216Y1575D01*
X0Y1574D02*
X7Y1574D01*
X2209Y1574D02*
X2216Y1574D01*
X0Y1573D02*
X7Y1573D01*
X2209Y1573D02*
X2216Y1573D01*
X0Y1572D02*
X7Y1572D01*
X2209Y1572D02*
X2216Y1572D01*
X0Y1571D02*
X7Y1571D01*
X2209Y1571D02*
X2216Y1571D01*
X0Y1570D02*
X7Y1570D01*
X2209Y1570D02*
X2216Y1570D01*
X0Y1569D02*
X7Y1569D01*
X2209Y1569D02*
X2216Y1569D01*
X0Y1568D02*
X7Y1568D01*
X2209Y1568D02*
X2216Y1568D01*
X0Y1567D02*
X7Y1567D01*
X2209Y1567D02*
X2216Y1567D01*
X0Y1566D02*
X7Y1566D01*
X2209Y1566D02*
X2216Y1566D01*
X0Y1565D02*
X7Y1565D01*
X2209Y1565D02*
X2216Y1565D01*
X0Y1564D02*
X7Y1564D01*
X2209Y1564D02*
X2216Y1564D01*
X0Y1563D02*
X7Y1563D01*
X2209Y1563D02*
X2216Y1563D01*
X0Y1562D02*
X7Y1562D01*
X2209Y1562D02*
X2216Y1562D01*
X0Y1561D02*
X7Y1561D01*
X2209Y1561D02*
X2216Y1561D01*
X0Y1560D02*
X7Y1560D01*
X2209Y1560D02*
X2216Y1560D01*
X0Y1559D02*
X7Y1559D01*
X2209Y1559D02*
X2216Y1559D01*
X0Y1558D02*
X7Y1558D01*
X2209Y1558D02*
X2216Y1558D01*
X0Y1557D02*
X7Y1557D01*
X2209Y1557D02*
X2216Y1557D01*
X0Y1556D02*
X7Y1556D01*
X2209Y1556D02*
X2216Y1556D01*
X0Y1555D02*
X7Y1555D01*
X2209Y1555D02*
X2216Y1555D01*
X0Y1554D02*
X7Y1554D01*
X2209Y1554D02*
X2216Y1554D01*
X0Y1553D02*
X7Y1553D01*
X2209Y1553D02*
X2216Y1553D01*
X0Y1552D02*
X7Y1552D01*
X2209Y1552D02*
X2216Y1552D01*
X0Y1551D02*
X7Y1551D01*
X2209Y1551D02*
X2216Y1551D01*
X0Y1550D02*
X7Y1550D01*
X2209Y1550D02*
X2216Y1550D01*
X0Y1549D02*
X7Y1549D01*
X2209Y1549D02*
X2216Y1549D01*
X0Y1548D02*
X7Y1548D01*
X2209Y1548D02*
X2216Y1548D01*
X0Y1547D02*
X7Y1547D01*
X2209Y1547D02*
X2216Y1547D01*
X0Y1546D02*
X7Y1546D01*
X2209Y1546D02*
X2216Y1546D01*
X0Y1545D02*
X7Y1545D01*
X2209Y1545D02*
X2216Y1545D01*
X0Y1544D02*
X7Y1544D01*
X2209Y1544D02*
X2216Y1544D01*
X0Y1543D02*
X7Y1543D01*
X2209Y1543D02*
X2216Y1543D01*
X0Y1542D02*
X7Y1542D01*
X2209Y1542D02*
X2216Y1542D01*
X0Y1541D02*
X7Y1541D01*
X2209Y1541D02*
X2216Y1541D01*
X0Y1540D02*
X7Y1540D01*
X2209Y1540D02*
X2216Y1540D01*
X0Y1539D02*
X7Y1539D01*
X2209Y1539D02*
X2216Y1539D01*
X0Y1538D02*
X7Y1538D01*
X2209Y1538D02*
X2216Y1538D01*
X0Y1537D02*
X7Y1537D01*
X2209Y1537D02*
X2216Y1537D01*
X0Y1536D02*
X7Y1536D01*
X2209Y1536D02*
X2216Y1536D01*
X0Y1535D02*
X7Y1535D01*
X2209Y1535D02*
X2216Y1535D01*
X0Y1534D02*
X7Y1534D01*
X2209Y1534D02*
X2216Y1534D01*
X0Y1533D02*
X7Y1533D01*
X2209Y1533D02*
X2216Y1533D01*
X0Y1532D02*
X7Y1532D01*
X2209Y1532D02*
X2216Y1532D01*
X0Y1531D02*
X7Y1531D01*
X2209Y1531D02*
X2216Y1531D01*
X0Y1530D02*
X7Y1530D01*
X2209Y1530D02*
X2216Y1530D01*
X0Y1529D02*
X7Y1529D01*
X2209Y1529D02*
X2216Y1529D01*
X0Y1528D02*
X7Y1528D01*
X2209Y1528D02*
X2216Y1528D01*
X0Y1527D02*
X7Y1527D01*
X2209Y1527D02*
X2216Y1527D01*
X0Y1526D02*
X7Y1526D01*
X2209Y1526D02*
X2216Y1526D01*
X0Y1525D02*
X7Y1525D01*
X2209Y1525D02*
X2216Y1525D01*
X0Y1524D02*
X7Y1524D01*
X2209Y1524D02*
X2216Y1524D01*
X0Y1523D02*
X7Y1523D01*
X2209Y1523D02*
X2216Y1523D01*
X0Y1522D02*
X7Y1522D01*
X2209Y1522D02*
X2216Y1522D01*
X0Y1521D02*
X7Y1521D01*
X2209Y1521D02*
X2216Y1521D01*
X0Y1520D02*
X7Y1520D01*
X2209Y1520D02*
X2216Y1520D01*
X0Y1519D02*
X7Y1519D01*
X2209Y1519D02*
X2216Y1519D01*
X0Y1518D02*
X7Y1518D01*
X2209Y1518D02*
X2216Y1518D01*
X0Y1517D02*
X7Y1517D01*
X2209Y1517D02*
X2216Y1517D01*
X0Y1516D02*
X7Y1516D01*
X2209Y1516D02*
X2216Y1516D01*
X0Y1515D02*
X7Y1515D01*
X2209Y1515D02*
X2216Y1515D01*
X0Y1514D02*
X7Y1514D01*
X2209Y1514D02*
X2216Y1514D01*
X0Y1513D02*
X7Y1513D01*
X2209Y1513D02*
X2216Y1513D01*
X0Y1512D02*
X7Y1512D01*
X2209Y1512D02*
X2216Y1512D01*
X0Y1511D02*
X7Y1511D01*
X2209Y1511D02*
X2216Y1511D01*
X0Y1510D02*
X7Y1510D01*
X2209Y1510D02*
X2216Y1510D01*
X0Y1509D02*
X7Y1509D01*
X2209Y1509D02*
X2216Y1509D01*
X0Y1508D02*
X7Y1508D01*
X2209Y1508D02*
X2216Y1508D01*
X0Y1507D02*
X7Y1507D01*
X2209Y1507D02*
X2216Y1507D01*
X0Y1506D02*
X7Y1506D01*
X2209Y1506D02*
X2216Y1506D01*
X0Y1505D02*
X7Y1505D01*
X2209Y1505D02*
X2216Y1505D01*
X0Y1504D02*
X7Y1504D01*
X2209Y1504D02*
X2216Y1504D01*
X0Y1503D02*
X7Y1503D01*
X2209Y1503D02*
X2216Y1503D01*
X0Y1502D02*
X7Y1502D01*
X2209Y1502D02*
X2216Y1502D01*
X0Y1501D02*
X7Y1501D01*
X2209Y1501D02*
X2216Y1501D01*
X0Y1500D02*
X7Y1500D01*
X2209Y1500D02*
X2216Y1500D01*
X0Y1499D02*
X7Y1499D01*
X2209Y1499D02*
X2216Y1499D01*
X0Y1498D02*
X7Y1498D01*
X2209Y1498D02*
X2216Y1498D01*
X0Y1497D02*
X7Y1497D01*
X2209Y1497D02*
X2216Y1497D01*
X0Y1496D02*
X7Y1496D01*
X2209Y1496D02*
X2216Y1496D01*
X0Y1495D02*
X7Y1495D01*
X2209Y1495D02*
X2216Y1495D01*
X0Y1494D02*
X7Y1494D01*
X2209Y1494D02*
X2216Y1494D01*
X0Y1493D02*
X7Y1493D01*
X2209Y1493D02*
X2216Y1493D01*
X0Y1492D02*
X7Y1492D01*
X2209Y1492D02*
X2216Y1492D01*
X0Y1491D02*
X7Y1491D01*
X2209Y1491D02*
X2216Y1491D01*
X0Y1490D02*
X7Y1490D01*
X2209Y1490D02*
X2216Y1490D01*
X0Y1489D02*
X7Y1489D01*
X2209Y1489D02*
X2216Y1489D01*
X0Y1488D02*
X7Y1488D01*
X2209Y1488D02*
X2216Y1488D01*
X0Y1487D02*
X7Y1487D01*
X2209Y1487D02*
X2216Y1487D01*
X0Y1486D02*
X7Y1486D01*
X2209Y1486D02*
X2216Y1486D01*
X0Y1485D02*
X7Y1485D01*
X2209Y1485D02*
X2216Y1485D01*
X0Y1484D02*
X7Y1484D01*
X2209Y1484D02*
X2216Y1484D01*
X0Y1483D02*
X7Y1483D01*
X2209Y1483D02*
X2216Y1483D01*
X0Y1482D02*
X7Y1482D01*
X2209Y1482D02*
X2216Y1482D01*
X0Y1481D02*
X7Y1481D01*
X2209Y1481D02*
X2216Y1481D01*
X0Y1480D02*
X7Y1480D01*
X2209Y1480D02*
X2216Y1480D01*
X0Y1479D02*
X7Y1479D01*
X2209Y1479D02*
X2216Y1479D01*
X0Y1478D02*
X7Y1478D01*
X2209Y1478D02*
X2216Y1478D01*
X0Y1477D02*
X7Y1477D01*
X2209Y1477D02*
X2216Y1477D01*
X0Y1476D02*
X7Y1476D01*
X2209Y1476D02*
X2216Y1476D01*
X0Y1475D02*
X7Y1475D01*
X2209Y1475D02*
X2216Y1475D01*
X0Y1474D02*
X7Y1474D01*
X2209Y1474D02*
X2216Y1474D01*
X0Y1473D02*
X7Y1473D01*
X2209Y1473D02*
X2216Y1473D01*
X0Y1472D02*
X7Y1472D01*
X2209Y1472D02*
X2216Y1472D01*
X0Y1471D02*
X7Y1471D01*
X2209Y1471D02*
X2216Y1471D01*
X0Y1470D02*
X7Y1470D01*
X2209Y1470D02*
X2216Y1470D01*
X0Y1469D02*
X7Y1469D01*
X2209Y1469D02*
X2216Y1469D01*
X0Y1468D02*
X7Y1468D01*
X2209Y1468D02*
X2216Y1468D01*
X0Y1467D02*
X7Y1467D01*
X2209Y1467D02*
X2216Y1467D01*
X0Y1466D02*
X7Y1466D01*
X2209Y1466D02*
X2216Y1466D01*
X0Y1465D02*
X7Y1465D01*
X2209Y1465D02*
X2216Y1465D01*
X0Y1464D02*
X7Y1464D01*
X2209Y1464D02*
X2216Y1464D01*
X0Y1463D02*
X7Y1463D01*
X2209Y1463D02*
X2216Y1463D01*
X0Y1462D02*
X7Y1462D01*
X2209Y1462D02*
X2216Y1462D01*
X0Y1461D02*
X7Y1461D01*
X2209Y1461D02*
X2216Y1461D01*
X0Y1460D02*
X7Y1460D01*
X2209Y1460D02*
X2216Y1460D01*
X0Y1459D02*
X7Y1459D01*
X2209Y1459D02*
X2216Y1459D01*
X0Y1458D02*
X7Y1458D01*
X2209Y1458D02*
X2216Y1458D01*
X0Y1457D02*
X7Y1457D01*
X2209Y1457D02*
X2216Y1457D01*
X0Y1456D02*
X7Y1456D01*
X2209Y1456D02*
X2216Y1456D01*
X0Y1455D02*
X7Y1455D01*
X2209Y1455D02*
X2216Y1455D01*
X0Y1454D02*
X7Y1454D01*
X2209Y1454D02*
X2216Y1454D01*
X0Y1453D02*
X7Y1453D01*
X2209Y1453D02*
X2216Y1453D01*
X0Y1452D02*
X7Y1452D01*
X2209Y1452D02*
X2216Y1452D01*
X0Y1451D02*
X7Y1451D01*
X2209Y1451D02*
X2216Y1451D01*
X0Y1450D02*
X7Y1450D01*
X2209Y1450D02*
X2216Y1450D01*
X0Y1449D02*
X7Y1449D01*
X2209Y1449D02*
X2216Y1449D01*
X0Y1448D02*
X7Y1448D01*
X2209Y1448D02*
X2216Y1448D01*
X0Y1447D02*
X7Y1447D01*
X2209Y1447D02*
X2216Y1447D01*
X0Y1446D02*
X7Y1446D01*
X2209Y1446D02*
X2216Y1446D01*
X0Y1445D02*
X7Y1445D01*
X2209Y1445D02*
X2216Y1445D01*
X0Y1444D02*
X7Y1444D01*
X2209Y1444D02*
X2216Y1444D01*
X0Y1443D02*
X7Y1443D01*
X2209Y1443D02*
X2216Y1443D01*
X0Y1442D02*
X7Y1442D01*
X2209Y1442D02*
X2216Y1442D01*
X0Y1441D02*
X7Y1441D01*
X2209Y1441D02*
X2216Y1441D01*
X0Y1440D02*
X7Y1440D01*
X2209Y1440D02*
X2216Y1440D01*
X0Y1439D02*
X7Y1439D01*
X2209Y1439D02*
X2216Y1439D01*
X0Y1438D02*
X7Y1438D01*
X2209Y1438D02*
X2216Y1438D01*
X0Y1437D02*
X7Y1437D01*
X2209Y1437D02*
X2216Y1437D01*
X0Y1436D02*
X7Y1436D01*
X2209Y1436D02*
X2216Y1436D01*
X0Y1435D02*
X7Y1435D01*
X2209Y1435D02*
X2216Y1435D01*
X0Y1434D02*
X7Y1434D01*
X2209Y1434D02*
X2216Y1434D01*
X0Y1433D02*
X7Y1433D01*
X2209Y1433D02*
X2216Y1433D01*
X0Y1432D02*
X7Y1432D01*
X2209Y1432D02*
X2216Y1432D01*
X0Y1431D02*
X7Y1431D01*
X2209Y1431D02*
X2216Y1431D01*
X0Y1430D02*
X7Y1430D01*
X2209Y1430D02*
X2216Y1430D01*
X0Y1429D02*
X7Y1429D01*
X2209Y1429D02*
X2216Y1429D01*
X0Y1428D02*
X7Y1428D01*
X535Y1428D02*
X536Y1428D01*
X590Y1428D02*
X591Y1428D01*
X834Y1428D02*
X836Y1428D01*
X889Y1428D02*
X891Y1428D01*
X1133Y1428D02*
X1135Y1428D01*
X1188Y1428D02*
X1190Y1428D01*
X2209Y1428D02*
X2216Y1428D01*
X0Y1427D02*
X7Y1427D01*
X532Y1427D02*
X539Y1427D01*
X587Y1427D02*
X594Y1427D01*
X831Y1427D02*
X838Y1427D01*
X886Y1427D02*
X893Y1427D01*
X1131Y1427D02*
X1137Y1427D01*
X1186Y1427D02*
X1192Y1427D01*
X2209Y1427D02*
X2216Y1427D01*
X0Y1426D02*
X7Y1426D01*
X531Y1426D02*
X540Y1426D01*
X586Y1426D02*
X595Y1426D01*
X830Y1426D02*
X839Y1426D01*
X885Y1426D02*
X894Y1426D01*
X1130Y1426D02*
X1139Y1426D01*
X1185Y1426D02*
X1194Y1426D01*
X2209Y1426D02*
X2216Y1426D01*
X0Y1425D02*
X7Y1425D01*
X530Y1425D02*
X541Y1425D01*
X585Y1425D02*
X596Y1425D01*
X830Y1425D02*
X840Y1425D01*
X885Y1425D02*
X895Y1425D01*
X1129Y1425D02*
X1139Y1425D01*
X1184Y1425D02*
X1194Y1425D01*
X2209Y1425D02*
X2216Y1425D01*
X0Y1424D02*
X7Y1424D01*
X530Y1424D02*
X541Y1424D01*
X585Y1424D02*
X596Y1424D01*
X829Y1424D02*
X841Y1424D01*
X884Y1424D02*
X896Y1424D01*
X1128Y1424D02*
X1140Y1424D01*
X1183Y1424D02*
X1195Y1424D01*
X2209Y1424D02*
X2216Y1424D01*
X0Y1423D02*
X7Y1423D01*
X529Y1423D02*
X542Y1423D01*
X584Y1423D02*
X597Y1423D01*
X829Y1423D02*
X841Y1423D01*
X884Y1423D02*
X896Y1423D01*
X1128Y1423D02*
X1140Y1423D01*
X1183Y1423D02*
X1195Y1423D01*
X2209Y1423D02*
X2216Y1423D01*
X0Y1422D02*
X7Y1422D01*
X529Y1422D02*
X542Y1422D01*
X584Y1422D02*
X597Y1422D01*
X828Y1422D02*
X841Y1422D01*
X883Y1422D02*
X896Y1422D01*
X1128Y1422D02*
X1141Y1422D01*
X1183Y1422D02*
X1196Y1422D01*
X2209Y1422D02*
X2216Y1422D01*
X0Y1421D02*
X7Y1421D01*
X529Y1421D02*
X542Y1421D01*
X584Y1421D02*
X597Y1421D01*
X828Y1421D02*
X841Y1421D01*
X883Y1421D02*
X896Y1421D01*
X1128Y1421D02*
X1141Y1421D01*
X1183Y1421D02*
X1196Y1421D01*
X2209Y1421D02*
X2216Y1421D01*
X0Y1420D02*
X7Y1420D01*
X529Y1420D02*
X542Y1420D01*
X584Y1420D02*
X597Y1420D01*
X828Y1420D02*
X841Y1420D01*
X883Y1420D02*
X896Y1420D01*
X1128Y1420D02*
X1141Y1420D01*
X1183Y1420D02*
X1196Y1420D01*
X2209Y1420D02*
X2216Y1420D01*
X0Y1419D02*
X7Y1419D01*
X529Y1419D02*
X542Y1419D01*
X584Y1419D02*
X597Y1419D01*
X828Y1419D02*
X841Y1419D01*
X883Y1419D02*
X896Y1419D01*
X1128Y1419D02*
X1141Y1419D01*
X1183Y1419D02*
X1196Y1419D01*
X2209Y1419D02*
X2216Y1419D01*
X0Y1418D02*
X7Y1418D01*
X529Y1418D02*
X542Y1418D01*
X584Y1418D02*
X597Y1418D01*
X828Y1418D02*
X841Y1418D01*
X883Y1418D02*
X896Y1418D01*
X1128Y1418D02*
X1141Y1418D01*
X1183Y1418D02*
X1196Y1418D01*
X2209Y1418D02*
X2216Y1418D01*
X0Y1417D02*
X7Y1417D01*
X529Y1417D02*
X542Y1417D01*
X584Y1417D02*
X597Y1417D01*
X828Y1417D02*
X841Y1417D01*
X883Y1417D02*
X896Y1417D01*
X1128Y1417D02*
X1141Y1417D01*
X1183Y1417D02*
X1196Y1417D01*
X2209Y1417D02*
X2216Y1417D01*
X0Y1416D02*
X7Y1416D01*
X529Y1416D02*
X542Y1416D01*
X584Y1416D02*
X597Y1416D01*
X828Y1416D02*
X841Y1416D01*
X883Y1416D02*
X896Y1416D01*
X1128Y1416D02*
X1141Y1416D01*
X1183Y1416D02*
X1196Y1416D01*
X2209Y1416D02*
X2216Y1416D01*
X0Y1415D02*
X7Y1415D01*
X529Y1415D02*
X542Y1415D01*
X584Y1415D02*
X597Y1415D01*
X828Y1415D02*
X841Y1415D01*
X883Y1415D02*
X896Y1415D01*
X1128Y1415D02*
X1141Y1415D01*
X1183Y1415D02*
X1196Y1415D01*
X2209Y1415D02*
X2216Y1415D01*
X0Y1414D02*
X7Y1414D01*
X529Y1414D02*
X542Y1414D01*
X584Y1414D02*
X597Y1414D01*
X828Y1414D02*
X841Y1414D01*
X883Y1414D02*
X896Y1414D01*
X1128Y1414D02*
X1141Y1414D01*
X1183Y1414D02*
X1196Y1414D01*
X2209Y1414D02*
X2216Y1414D01*
X0Y1413D02*
X7Y1413D01*
X529Y1413D02*
X542Y1413D01*
X584Y1413D02*
X597Y1413D01*
X828Y1413D02*
X841Y1413D01*
X883Y1413D02*
X896Y1413D01*
X1128Y1413D02*
X1141Y1413D01*
X1183Y1413D02*
X1196Y1413D01*
X2209Y1413D02*
X2216Y1413D01*
X0Y1412D02*
X7Y1412D01*
X529Y1412D02*
X542Y1412D01*
X584Y1412D02*
X597Y1412D01*
X828Y1412D02*
X841Y1412D01*
X883Y1412D02*
X896Y1412D01*
X1128Y1412D02*
X1141Y1412D01*
X1183Y1412D02*
X1196Y1412D01*
X2209Y1412D02*
X2216Y1412D01*
X0Y1411D02*
X7Y1411D01*
X529Y1411D02*
X542Y1411D01*
X584Y1411D02*
X597Y1411D01*
X828Y1411D02*
X841Y1411D01*
X883Y1411D02*
X896Y1411D01*
X1128Y1411D02*
X1141Y1411D01*
X1183Y1411D02*
X1196Y1411D01*
X2209Y1411D02*
X2216Y1411D01*
X0Y1410D02*
X7Y1410D01*
X529Y1410D02*
X542Y1410D01*
X584Y1410D02*
X597Y1410D01*
X828Y1410D02*
X841Y1410D01*
X883Y1410D02*
X896Y1410D01*
X1128Y1410D02*
X1141Y1410D01*
X1183Y1410D02*
X1196Y1410D01*
X2209Y1410D02*
X2216Y1410D01*
X0Y1409D02*
X7Y1409D01*
X529Y1409D02*
X542Y1409D01*
X584Y1409D02*
X597Y1409D01*
X828Y1409D02*
X841Y1409D01*
X883Y1409D02*
X896Y1409D01*
X1128Y1409D02*
X1141Y1409D01*
X1183Y1409D02*
X1196Y1409D01*
X2209Y1409D02*
X2216Y1409D01*
X0Y1408D02*
X7Y1408D01*
X529Y1408D02*
X542Y1408D01*
X584Y1408D02*
X597Y1408D01*
X828Y1408D02*
X841Y1408D01*
X883Y1408D02*
X896Y1408D01*
X1128Y1408D02*
X1141Y1408D01*
X1183Y1408D02*
X1196Y1408D01*
X2209Y1408D02*
X2216Y1408D01*
X0Y1407D02*
X7Y1407D01*
X529Y1407D02*
X542Y1407D01*
X584Y1407D02*
X597Y1407D01*
X828Y1407D02*
X841Y1407D01*
X883Y1407D02*
X896Y1407D01*
X1128Y1407D02*
X1141Y1407D01*
X1183Y1407D02*
X1196Y1407D01*
X2209Y1407D02*
X2216Y1407D01*
X0Y1406D02*
X7Y1406D01*
X529Y1406D02*
X542Y1406D01*
X584Y1406D02*
X597Y1406D01*
X828Y1406D02*
X841Y1406D01*
X883Y1406D02*
X896Y1406D01*
X1128Y1406D02*
X1141Y1406D01*
X1183Y1406D02*
X1196Y1406D01*
X2209Y1406D02*
X2216Y1406D01*
X0Y1405D02*
X7Y1405D01*
X529Y1405D02*
X542Y1405D01*
X584Y1405D02*
X597Y1405D01*
X828Y1405D02*
X841Y1405D01*
X883Y1405D02*
X896Y1405D01*
X1128Y1405D02*
X1141Y1405D01*
X1183Y1405D02*
X1196Y1405D01*
X2209Y1405D02*
X2216Y1405D01*
X0Y1404D02*
X7Y1404D01*
X529Y1404D02*
X542Y1404D01*
X584Y1404D02*
X597Y1404D01*
X828Y1404D02*
X841Y1404D01*
X883Y1404D02*
X896Y1404D01*
X1128Y1404D02*
X1141Y1404D01*
X1183Y1404D02*
X1196Y1404D01*
X2209Y1404D02*
X2216Y1404D01*
X0Y1403D02*
X7Y1403D01*
X529Y1403D02*
X542Y1403D01*
X584Y1403D02*
X597Y1403D01*
X828Y1403D02*
X841Y1403D01*
X883Y1403D02*
X896Y1403D01*
X1128Y1403D02*
X1141Y1403D01*
X1183Y1403D02*
X1196Y1403D01*
X2209Y1403D02*
X2216Y1403D01*
X0Y1402D02*
X7Y1402D01*
X529Y1402D02*
X542Y1402D01*
X584Y1402D02*
X597Y1402D01*
X828Y1402D02*
X841Y1402D01*
X883Y1402D02*
X896Y1402D01*
X1128Y1402D02*
X1141Y1402D01*
X1183Y1402D02*
X1196Y1402D01*
X2209Y1402D02*
X2216Y1402D01*
X0Y1401D02*
X7Y1401D01*
X529Y1401D02*
X542Y1401D01*
X584Y1401D02*
X597Y1401D01*
X828Y1401D02*
X841Y1401D01*
X883Y1401D02*
X896Y1401D01*
X1128Y1401D02*
X1141Y1401D01*
X1183Y1401D02*
X1196Y1401D01*
X2209Y1401D02*
X2216Y1401D01*
X0Y1400D02*
X7Y1400D01*
X529Y1400D02*
X542Y1400D01*
X584Y1400D02*
X597Y1400D01*
X828Y1400D02*
X841Y1400D01*
X883Y1400D02*
X896Y1400D01*
X1128Y1400D02*
X1141Y1400D01*
X1183Y1400D02*
X1196Y1400D01*
X2209Y1400D02*
X2216Y1400D01*
X0Y1399D02*
X7Y1399D01*
X529Y1399D02*
X542Y1399D01*
X584Y1399D02*
X597Y1399D01*
X828Y1399D02*
X841Y1399D01*
X883Y1399D02*
X896Y1399D01*
X1128Y1399D02*
X1141Y1399D01*
X1183Y1399D02*
X1196Y1399D01*
X2209Y1399D02*
X2216Y1399D01*
X0Y1398D02*
X7Y1398D01*
X529Y1398D02*
X542Y1398D01*
X584Y1398D02*
X597Y1398D01*
X646Y1398D02*
X680Y1398D01*
X732Y1398D02*
X738Y1398D01*
X787Y1398D02*
X793Y1398D01*
X828Y1398D02*
X841Y1398D01*
X883Y1398D02*
X896Y1398D01*
X946Y1398D02*
X979Y1398D01*
X1032Y1398D02*
X1037Y1398D01*
X1087Y1398D02*
X1092Y1398D01*
X1128Y1398D02*
X1141Y1398D01*
X1183Y1398D02*
X1196Y1398D01*
X1245Y1398D02*
X1278Y1398D01*
X1331Y1398D02*
X1336Y1398D01*
X1386Y1398D02*
X1391Y1398D01*
X2209Y1398D02*
X2216Y1398D01*
X0Y1397D02*
X7Y1397D01*
X529Y1397D02*
X542Y1397D01*
X584Y1397D02*
X597Y1397D01*
X645Y1397D02*
X683Y1397D01*
X731Y1397D02*
X739Y1397D01*
X786Y1397D02*
X794Y1397D01*
X828Y1397D02*
X841Y1397D01*
X883Y1397D02*
X896Y1397D01*
X944Y1397D02*
X982Y1397D01*
X1030Y1397D02*
X1038Y1397D01*
X1085Y1397D02*
X1093Y1397D01*
X1128Y1397D02*
X1141Y1397D01*
X1183Y1397D02*
X1196Y1397D01*
X1243Y1397D02*
X1281Y1397D01*
X1330Y1397D02*
X1338Y1397D01*
X1384Y1397D02*
X1393Y1397D01*
X2209Y1397D02*
X2216Y1397D01*
X0Y1396D02*
X7Y1396D01*
X529Y1396D02*
X542Y1396D01*
X584Y1396D02*
X597Y1396D01*
X644Y1396D02*
X684Y1396D01*
X730Y1396D02*
X740Y1396D01*
X785Y1396D02*
X795Y1396D01*
X828Y1396D02*
X841Y1396D01*
X883Y1396D02*
X896Y1396D01*
X943Y1396D02*
X984Y1396D01*
X1029Y1396D02*
X1039Y1396D01*
X1084Y1396D02*
X1094Y1396D01*
X1128Y1396D02*
X1141Y1396D01*
X1183Y1396D02*
X1196Y1396D01*
X1243Y1396D02*
X1283Y1396D01*
X1329Y1396D02*
X1339Y1396D01*
X1384Y1396D02*
X1394Y1396D01*
X2209Y1396D02*
X2216Y1396D01*
X0Y1395D02*
X7Y1395D01*
X529Y1395D02*
X542Y1395D01*
X584Y1395D02*
X597Y1395D01*
X643Y1395D02*
X686Y1395D01*
X729Y1395D02*
X741Y1395D01*
X784Y1395D02*
X796Y1395D01*
X828Y1395D02*
X841Y1395D01*
X883Y1395D02*
X896Y1395D01*
X943Y1395D02*
X985Y1395D01*
X1029Y1395D02*
X1040Y1395D01*
X1084Y1395D02*
X1095Y1395D01*
X1128Y1395D02*
X1141Y1395D01*
X1183Y1395D02*
X1196Y1395D01*
X1242Y1395D02*
X1285Y1395D01*
X1328Y1395D02*
X1339Y1395D01*
X1383Y1395D02*
X1394Y1395D01*
X2209Y1395D02*
X2216Y1395D01*
X0Y1394D02*
X7Y1394D01*
X529Y1394D02*
X542Y1394D01*
X584Y1394D02*
X597Y1394D01*
X643Y1394D02*
X687Y1394D01*
X729Y1394D02*
X741Y1394D01*
X784Y1394D02*
X796Y1394D01*
X828Y1394D02*
X841Y1394D01*
X883Y1394D02*
X896Y1394D01*
X942Y1394D02*
X987Y1394D01*
X1028Y1394D02*
X1040Y1394D01*
X1083Y1394D02*
X1095Y1394D01*
X1128Y1394D02*
X1141Y1394D01*
X1183Y1394D02*
X1196Y1394D01*
X1241Y1394D02*
X1286Y1394D01*
X1328Y1394D02*
X1340Y1394D01*
X1382Y1394D02*
X1395Y1394D01*
X2209Y1394D02*
X2216Y1394D01*
X0Y1393D02*
X7Y1393D01*
X529Y1393D02*
X542Y1393D01*
X584Y1393D02*
X597Y1393D01*
X643Y1393D02*
X688Y1393D01*
X729Y1393D02*
X741Y1393D01*
X784Y1393D02*
X796Y1393D01*
X828Y1393D02*
X841Y1393D01*
X883Y1393D02*
X896Y1393D01*
X942Y1393D02*
X988Y1393D01*
X1028Y1393D02*
X1041Y1393D01*
X1083Y1393D02*
X1096Y1393D01*
X1128Y1393D02*
X1141Y1393D01*
X1183Y1393D02*
X1196Y1393D01*
X1241Y1393D02*
X1287Y1393D01*
X1327Y1393D02*
X1340Y1393D01*
X1382Y1393D02*
X1395Y1393D01*
X2209Y1393D02*
X2216Y1393D01*
X0Y1392D02*
X7Y1392D01*
X529Y1392D02*
X542Y1392D01*
X560Y1392D02*
X566Y1392D01*
X584Y1392D02*
X597Y1392D01*
X642Y1392D02*
X689Y1392D01*
X729Y1392D02*
X741Y1392D01*
X783Y1392D02*
X796Y1392D01*
X828Y1392D02*
X841Y1392D01*
X859Y1392D02*
X865Y1392D01*
X883Y1392D02*
X896Y1392D01*
X942Y1392D02*
X989Y1392D01*
X1028Y1392D02*
X1041Y1392D01*
X1083Y1392D02*
X1096Y1392D01*
X1128Y1392D02*
X1141Y1392D01*
X1159Y1392D02*
X1164Y1392D01*
X1183Y1392D02*
X1196Y1392D01*
X1241Y1392D02*
X1288Y1392D01*
X1327Y1392D02*
X1340Y1392D01*
X1382Y1392D02*
X1395Y1392D01*
X2209Y1392D02*
X2216Y1392D01*
X0Y1391D02*
X7Y1391D01*
X529Y1391D02*
X542Y1391D01*
X559Y1391D02*
X567Y1391D01*
X584Y1391D02*
X597Y1391D01*
X643Y1391D02*
X690Y1391D01*
X728Y1391D02*
X742Y1391D01*
X783Y1391D02*
X797Y1391D01*
X828Y1391D02*
X841Y1391D01*
X858Y1391D02*
X866Y1391D01*
X883Y1391D02*
X896Y1391D01*
X942Y1391D02*
X990Y1391D01*
X1028Y1391D02*
X1041Y1391D01*
X1083Y1391D02*
X1096Y1391D01*
X1128Y1391D02*
X1141Y1391D01*
X1157Y1391D02*
X1166Y1391D01*
X1183Y1391D02*
X1196Y1391D01*
X1241Y1391D02*
X1289Y1391D01*
X1327Y1391D02*
X1340Y1391D01*
X1382Y1391D02*
X1395Y1391D01*
X2209Y1391D02*
X2216Y1391D01*
X0Y1390D02*
X7Y1390D01*
X529Y1390D02*
X542Y1390D01*
X558Y1390D02*
X568Y1390D01*
X584Y1390D02*
X597Y1390D01*
X643Y1390D02*
X691Y1390D01*
X728Y1390D02*
X742Y1390D01*
X783Y1390D02*
X797Y1390D01*
X828Y1390D02*
X841Y1390D01*
X857Y1390D02*
X867Y1390D01*
X883Y1390D02*
X896Y1390D01*
X942Y1390D02*
X990Y1390D01*
X1028Y1390D02*
X1041Y1390D01*
X1083Y1390D02*
X1096Y1390D01*
X1128Y1390D02*
X1141Y1390D01*
X1156Y1390D02*
X1167Y1390D01*
X1183Y1390D02*
X1196Y1390D01*
X1241Y1390D02*
X1290Y1390D01*
X1327Y1390D02*
X1340Y1390D01*
X1382Y1390D02*
X1395Y1390D01*
X2209Y1390D02*
X2216Y1390D01*
X0Y1389D02*
X7Y1389D01*
X529Y1389D02*
X542Y1389D01*
X557Y1389D02*
X569Y1389D01*
X584Y1389D02*
X597Y1389D01*
X643Y1389D02*
X692Y1389D01*
X728Y1389D02*
X742Y1389D01*
X783Y1389D02*
X797Y1389D01*
X828Y1389D02*
X841Y1389D01*
X856Y1389D02*
X868Y1389D01*
X883Y1389D02*
X896Y1389D01*
X942Y1389D02*
X991Y1389D01*
X1028Y1389D02*
X1041Y1389D01*
X1083Y1389D02*
X1096Y1389D01*
X1128Y1389D02*
X1141Y1389D01*
X1156Y1389D02*
X1167Y1389D01*
X1183Y1389D02*
X1196Y1389D01*
X1242Y1389D02*
X1290Y1389D01*
X1327Y1389D02*
X1340Y1389D01*
X1382Y1389D02*
X1395Y1389D01*
X2209Y1389D02*
X2216Y1389D01*
X0Y1388D02*
X7Y1388D01*
X529Y1388D02*
X542Y1388D01*
X557Y1388D02*
X569Y1388D01*
X584Y1388D02*
X597Y1388D01*
X644Y1388D02*
X692Y1388D01*
X728Y1388D02*
X742Y1388D01*
X783Y1388D02*
X797Y1388D01*
X828Y1388D02*
X841Y1388D01*
X856Y1388D02*
X868Y1388D01*
X883Y1388D02*
X896Y1388D01*
X943Y1388D02*
X992Y1388D01*
X1028Y1388D02*
X1041Y1388D01*
X1083Y1388D02*
X1096Y1388D01*
X1128Y1388D02*
X1141Y1388D01*
X1155Y1388D02*
X1168Y1388D01*
X1183Y1388D02*
X1196Y1388D01*
X1242Y1388D02*
X1291Y1388D01*
X1327Y1388D02*
X1340Y1388D01*
X1382Y1388D02*
X1395Y1388D01*
X2209Y1388D02*
X2216Y1388D01*
X0Y1387D02*
X7Y1387D01*
X529Y1387D02*
X542Y1387D01*
X556Y1387D02*
X569Y1387D01*
X584Y1387D02*
X597Y1387D01*
X644Y1387D02*
X693Y1387D01*
X728Y1387D02*
X742Y1387D01*
X783Y1387D02*
X797Y1387D01*
X828Y1387D02*
X841Y1387D01*
X856Y1387D02*
X869Y1387D01*
X883Y1387D02*
X896Y1387D01*
X944Y1387D02*
X992Y1387D01*
X1028Y1387D02*
X1041Y1387D01*
X1083Y1387D02*
X1096Y1387D01*
X1128Y1387D02*
X1141Y1387D01*
X1155Y1387D02*
X1168Y1387D01*
X1183Y1387D02*
X1196Y1387D01*
X1243Y1387D02*
X1292Y1387D01*
X1327Y1387D02*
X1340Y1387D01*
X1382Y1387D02*
X1395Y1387D01*
X2209Y1387D02*
X2216Y1387D01*
X0Y1386D02*
X7Y1386D01*
X529Y1386D02*
X542Y1386D01*
X556Y1386D02*
X569Y1386D01*
X584Y1386D02*
X597Y1386D01*
X645Y1386D02*
X693Y1386D01*
X728Y1386D02*
X742Y1386D01*
X783Y1386D02*
X797Y1386D01*
X828Y1386D02*
X841Y1386D01*
X856Y1386D02*
X869Y1386D01*
X883Y1386D02*
X896Y1386D01*
X945Y1386D02*
X993Y1386D01*
X1028Y1386D02*
X1041Y1386D01*
X1083Y1386D02*
X1096Y1386D01*
X1128Y1386D02*
X1141Y1386D01*
X1155Y1386D02*
X1168Y1386D01*
X1183Y1386D02*
X1196Y1386D01*
X1244Y1386D02*
X1292Y1386D01*
X1327Y1386D02*
X1340Y1386D01*
X1382Y1386D02*
X1395Y1386D01*
X2209Y1386D02*
X2216Y1386D01*
X0Y1385D02*
X7Y1385D01*
X529Y1385D02*
X542Y1385D01*
X556Y1385D02*
X569Y1385D01*
X584Y1385D02*
X597Y1385D01*
X648Y1385D02*
X694Y1385D01*
X728Y1385D02*
X742Y1385D01*
X783Y1385D02*
X797Y1385D01*
X828Y1385D02*
X841Y1385D01*
X856Y1385D02*
X869Y1385D01*
X883Y1385D02*
X896Y1385D01*
X947Y1385D02*
X993Y1385D01*
X1028Y1385D02*
X1041Y1385D01*
X1083Y1385D02*
X1096Y1385D01*
X1128Y1385D02*
X1141Y1385D01*
X1155Y1385D02*
X1168Y1385D01*
X1183Y1385D02*
X1196Y1385D01*
X1246Y1385D02*
X1292Y1385D01*
X1327Y1385D02*
X1340Y1385D01*
X1382Y1385D02*
X1395Y1385D01*
X2209Y1385D02*
X2216Y1385D01*
X0Y1384D02*
X7Y1384D01*
X529Y1384D02*
X542Y1384D01*
X556Y1384D02*
X569Y1384D01*
X584Y1384D02*
X597Y1384D01*
X679Y1384D02*
X694Y1384D01*
X728Y1384D02*
X742Y1384D01*
X783Y1384D02*
X797Y1384D01*
X828Y1384D02*
X841Y1384D01*
X856Y1384D02*
X869Y1384D01*
X883Y1384D02*
X896Y1384D01*
X978Y1384D02*
X993Y1384D01*
X1028Y1384D02*
X1041Y1384D01*
X1083Y1384D02*
X1096Y1384D01*
X1128Y1384D02*
X1141Y1384D01*
X1155Y1384D02*
X1168Y1384D01*
X1183Y1384D02*
X1196Y1384D01*
X1277Y1384D02*
X1293Y1384D01*
X1327Y1384D02*
X1340Y1384D01*
X1382Y1384D02*
X1395Y1384D01*
X2209Y1384D02*
X2216Y1384D01*
X0Y1383D02*
X7Y1383D01*
X529Y1383D02*
X542Y1383D01*
X556Y1383D02*
X569Y1383D01*
X584Y1383D02*
X597Y1383D01*
X680Y1383D02*
X694Y1383D01*
X728Y1383D02*
X742Y1383D01*
X783Y1383D02*
X797Y1383D01*
X828Y1383D02*
X841Y1383D01*
X856Y1383D02*
X869Y1383D01*
X883Y1383D02*
X896Y1383D01*
X979Y1383D02*
X994Y1383D01*
X1028Y1383D02*
X1041Y1383D01*
X1083Y1383D02*
X1096Y1383D01*
X1128Y1383D02*
X1141Y1383D01*
X1155Y1383D02*
X1168Y1383D01*
X1183Y1383D02*
X1196Y1383D01*
X1278Y1383D02*
X1293Y1383D01*
X1327Y1383D02*
X1340Y1383D01*
X1382Y1383D02*
X1395Y1383D01*
X2209Y1383D02*
X2216Y1383D01*
X0Y1382D02*
X7Y1382D01*
X529Y1382D02*
X542Y1382D01*
X556Y1382D02*
X569Y1382D01*
X584Y1382D02*
X597Y1382D01*
X680Y1382D02*
X695Y1382D01*
X728Y1382D02*
X742Y1382D01*
X783Y1382D02*
X797Y1382D01*
X828Y1382D02*
X841Y1382D01*
X856Y1382D02*
X869Y1382D01*
X883Y1382D02*
X896Y1382D01*
X980Y1382D02*
X994Y1382D01*
X1028Y1382D02*
X1041Y1382D01*
X1083Y1382D02*
X1096Y1382D01*
X1128Y1382D02*
X1141Y1382D01*
X1155Y1382D02*
X1168Y1382D01*
X1183Y1382D02*
X1196Y1382D01*
X1279Y1382D02*
X1293Y1382D01*
X1327Y1382D02*
X1340Y1382D01*
X1382Y1382D02*
X1395Y1382D01*
X2209Y1382D02*
X2216Y1382D01*
X0Y1381D02*
X7Y1381D01*
X529Y1381D02*
X542Y1381D01*
X556Y1381D02*
X569Y1381D01*
X584Y1381D02*
X597Y1381D01*
X681Y1381D02*
X695Y1381D01*
X728Y1381D02*
X742Y1381D01*
X783Y1381D02*
X797Y1381D01*
X828Y1381D02*
X841Y1381D01*
X856Y1381D02*
X869Y1381D01*
X883Y1381D02*
X896Y1381D01*
X980Y1381D02*
X994Y1381D01*
X1028Y1381D02*
X1041Y1381D01*
X1082Y1381D02*
X1096Y1381D01*
X1128Y1381D02*
X1141Y1381D01*
X1155Y1381D02*
X1168Y1381D01*
X1183Y1381D02*
X1196Y1381D01*
X1280Y1381D02*
X1293Y1381D01*
X1327Y1381D02*
X1340Y1381D01*
X1382Y1381D02*
X1395Y1381D01*
X2209Y1381D02*
X2216Y1381D01*
X0Y1380D02*
X7Y1380D01*
X529Y1380D02*
X542Y1380D01*
X556Y1380D02*
X569Y1380D01*
X584Y1380D02*
X597Y1380D01*
X681Y1380D02*
X695Y1380D01*
X729Y1380D02*
X742Y1380D01*
X783Y1380D02*
X797Y1380D01*
X828Y1380D02*
X841Y1380D01*
X856Y1380D02*
X869Y1380D01*
X883Y1380D02*
X896Y1380D01*
X981Y1380D02*
X994Y1380D01*
X1028Y1380D02*
X1041Y1380D01*
X1082Y1380D02*
X1096Y1380D01*
X1128Y1380D02*
X1141Y1380D01*
X1155Y1380D02*
X1168Y1380D01*
X1183Y1380D02*
X1196Y1380D01*
X1280Y1380D02*
X1293Y1380D01*
X1327Y1380D02*
X1341Y1380D01*
X1381Y1380D02*
X1395Y1380D01*
X2209Y1380D02*
X2216Y1380D01*
X0Y1379D02*
X7Y1379D01*
X529Y1379D02*
X542Y1379D01*
X556Y1379D02*
X569Y1379D01*
X584Y1379D02*
X597Y1379D01*
X682Y1379D02*
X695Y1379D01*
X729Y1379D02*
X743Y1379D01*
X782Y1379D02*
X796Y1379D01*
X828Y1379D02*
X841Y1379D01*
X856Y1379D02*
X869Y1379D01*
X883Y1379D02*
X896Y1379D01*
X981Y1379D02*
X994Y1379D01*
X1028Y1379D02*
X1042Y1379D01*
X1082Y1379D02*
X1096Y1379D01*
X1128Y1379D02*
X1141Y1379D01*
X1155Y1379D02*
X1168Y1379D01*
X1183Y1379D02*
X1196Y1379D01*
X1280Y1379D02*
X1294Y1379D01*
X1327Y1379D02*
X1341Y1379D01*
X1381Y1379D02*
X1395Y1379D01*
X2209Y1379D02*
X2216Y1379D01*
X0Y1378D02*
X7Y1378D01*
X529Y1378D02*
X542Y1378D01*
X556Y1378D02*
X569Y1378D01*
X584Y1378D02*
X597Y1378D01*
X682Y1378D02*
X695Y1378D01*
X729Y1378D02*
X743Y1378D01*
X782Y1378D02*
X796Y1378D01*
X828Y1378D02*
X841Y1378D01*
X856Y1378D02*
X869Y1378D01*
X883Y1378D02*
X896Y1378D01*
X981Y1378D02*
X994Y1378D01*
X1028Y1378D02*
X1042Y1378D01*
X1081Y1378D02*
X1095Y1378D01*
X1128Y1378D02*
X1141Y1378D01*
X1155Y1378D02*
X1168Y1378D01*
X1183Y1378D02*
X1196Y1378D01*
X1280Y1378D02*
X1294Y1378D01*
X1327Y1378D02*
X1342Y1378D01*
X1381Y1378D02*
X1395Y1378D01*
X2209Y1378D02*
X2216Y1378D01*
X0Y1377D02*
X7Y1377D01*
X529Y1377D02*
X542Y1377D01*
X556Y1377D02*
X569Y1377D01*
X584Y1377D02*
X597Y1377D01*
X682Y1377D02*
X695Y1377D01*
X729Y1377D02*
X743Y1377D01*
X781Y1377D02*
X796Y1377D01*
X828Y1377D02*
X841Y1377D01*
X856Y1377D02*
X869Y1377D01*
X883Y1377D02*
X896Y1377D01*
X981Y1377D02*
X994Y1377D01*
X1028Y1377D02*
X1043Y1377D01*
X1081Y1377D02*
X1095Y1377D01*
X1128Y1377D02*
X1141Y1377D01*
X1155Y1377D02*
X1168Y1377D01*
X1183Y1377D02*
X1196Y1377D01*
X1280Y1377D02*
X1294Y1377D01*
X1328Y1377D02*
X1342Y1377D01*
X1380Y1377D02*
X1394Y1377D01*
X2209Y1377D02*
X2216Y1377D01*
X0Y1376D02*
X7Y1376D01*
X529Y1376D02*
X542Y1376D01*
X556Y1376D02*
X569Y1376D01*
X584Y1376D02*
X597Y1376D01*
X682Y1376D02*
X695Y1376D01*
X730Y1376D02*
X744Y1376D01*
X781Y1376D02*
X795Y1376D01*
X828Y1376D02*
X841Y1376D01*
X856Y1376D02*
X869Y1376D01*
X883Y1376D02*
X896Y1376D01*
X981Y1376D02*
X994Y1376D01*
X1029Y1376D02*
X1043Y1376D01*
X1080Y1376D02*
X1095Y1376D01*
X1128Y1376D02*
X1141Y1376D01*
X1155Y1376D02*
X1168Y1376D01*
X1183Y1376D02*
X1196Y1376D01*
X1281Y1376D02*
X1294Y1376D01*
X1328Y1376D02*
X1343Y1376D01*
X1380Y1376D02*
X1394Y1376D01*
X2209Y1376D02*
X2216Y1376D01*
X0Y1375D02*
X7Y1375D01*
X529Y1375D02*
X542Y1375D01*
X556Y1375D02*
X569Y1375D01*
X584Y1375D02*
X597Y1375D01*
X682Y1375D02*
X695Y1375D01*
X730Y1375D02*
X744Y1375D01*
X781Y1375D02*
X795Y1375D01*
X828Y1375D02*
X841Y1375D01*
X856Y1375D02*
X869Y1375D01*
X883Y1375D02*
X896Y1375D01*
X981Y1375D02*
X994Y1375D01*
X1029Y1375D02*
X1044Y1375D01*
X1080Y1375D02*
X1094Y1375D01*
X1128Y1375D02*
X1141Y1375D01*
X1155Y1375D02*
X1168Y1375D01*
X1183Y1375D02*
X1196Y1375D01*
X1281Y1375D02*
X1294Y1375D01*
X1329Y1375D02*
X1343Y1375D01*
X1379Y1375D02*
X1394Y1375D01*
X2209Y1375D02*
X2216Y1375D01*
X0Y1374D02*
X7Y1374D01*
X529Y1374D02*
X542Y1374D01*
X556Y1374D02*
X569Y1374D01*
X584Y1374D02*
X597Y1374D01*
X682Y1374D02*
X695Y1374D01*
X730Y1374D02*
X745Y1374D01*
X780Y1374D02*
X794Y1374D01*
X828Y1374D02*
X841Y1374D01*
X856Y1374D02*
X869Y1374D01*
X883Y1374D02*
X896Y1374D01*
X981Y1374D02*
X994Y1374D01*
X1030Y1374D02*
X1044Y1374D01*
X1079Y1374D02*
X1094Y1374D01*
X1128Y1374D02*
X1141Y1374D01*
X1155Y1374D02*
X1168Y1374D01*
X1183Y1374D02*
X1196Y1374D01*
X1281Y1374D02*
X1294Y1374D01*
X1329Y1374D02*
X1343Y1374D01*
X1379Y1374D02*
X1393Y1374D01*
X2209Y1374D02*
X2216Y1374D01*
X0Y1373D02*
X7Y1373D01*
X529Y1373D02*
X542Y1373D01*
X556Y1373D02*
X569Y1373D01*
X584Y1373D02*
X597Y1373D01*
X682Y1373D02*
X695Y1373D01*
X731Y1373D02*
X745Y1373D01*
X780Y1373D02*
X794Y1373D01*
X828Y1373D02*
X841Y1373D01*
X856Y1373D02*
X869Y1373D01*
X883Y1373D02*
X896Y1373D01*
X981Y1373D02*
X994Y1373D01*
X1030Y1373D02*
X1045Y1373D01*
X1079Y1373D02*
X1093Y1373D01*
X1128Y1373D02*
X1141Y1373D01*
X1155Y1373D02*
X1168Y1373D01*
X1183Y1373D02*
X1196Y1373D01*
X1281Y1373D02*
X1294Y1373D01*
X1330Y1373D02*
X1344Y1373D01*
X1378Y1373D02*
X1393Y1373D01*
X2209Y1373D02*
X2216Y1373D01*
X0Y1372D02*
X7Y1372D01*
X529Y1372D02*
X542Y1372D01*
X556Y1372D02*
X569Y1372D01*
X584Y1372D02*
X597Y1372D01*
X682Y1372D02*
X695Y1372D01*
X731Y1372D02*
X746Y1372D01*
X779Y1372D02*
X794Y1372D01*
X828Y1372D02*
X841Y1372D01*
X856Y1372D02*
X869Y1372D01*
X883Y1372D02*
X896Y1372D01*
X981Y1372D02*
X994Y1372D01*
X1031Y1372D02*
X1045Y1372D01*
X1079Y1372D02*
X1093Y1372D01*
X1128Y1372D02*
X1141Y1372D01*
X1155Y1372D02*
X1168Y1372D01*
X1183Y1372D02*
X1196Y1372D01*
X1281Y1372D02*
X1294Y1372D01*
X1330Y1372D02*
X1344Y1372D01*
X1378Y1372D02*
X1392Y1372D01*
X2209Y1372D02*
X2216Y1372D01*
X0Y1371D02*
X7Y1371D01*
X529Y1371D02*
X542Y1371D01*
X556Y1371D02*
X569Y1371D01*
X584Y1371D02*
X597Y1371D01*
X682Y1371D02*
X695Y1371D01*
X732Y1371D02*
X746Y1371D01*
X779Y1371D02*
X793Y1371D01*
X828Y1371D02*
X841Y1371D01*
X856Y1371D02*
X869Y1371D01*
X883Y1371D02*
X896Y1371D01*
X981Y1371D02*
X995Y1371D01*
X1031Y1371D02*
X1045Y1371D01*
X1078Y1371D02*
X1092Y1371D01*
X1128Y1371D02*
X1141Y1371D01*
X1155Y1371D02*
X1168Y1371D01*
X1183Y1371D02*
X1196Y1371D01*
X1281Y1371D02*
X1294Y1371D01*
X1330Y1371D02*
X1345Y1371D01*
X1377Y1371D02*
X1392Y1371D01*
X2209Y1371D02*
X2216Y1371D01*
X0Y1370D02*
X7Y1370D01*
X529Y1370D02*
X542Y1370D01*
X556Y1370D02*
X569Y1370D01*
X584Y1370D02*
X597Y1370D01*
X682Y1370D02*
X695Y1370D01*
X732Y1370D02*
X747Y1370D01*
X778Y1370D02*
X793Y1370D01*
X828Y1370D02*
X841Y1370D01*
X856Y1370D02*
X869Y1370D01*
X883Y1370D02*
X896Y1370D01*
X982Y1370D02*
X995Y1370D01*
X1032Y1370D02*
X1046Y1370D01*
X1078Y1370D02*
X1092Y1370D01*
X1128Y1370D02*
X1141Y1370D01*
X1155Y1370D02*
X1168Y1370D01*
X1183Y1370D02*
X1196Y1370D01*
X1281Y1370D02*
X1294Y1370D01*
X1331Y1370D02*
X1345Y1370D01*
X1377Y1370D02*
X1391Y1370D01*
X2209Y1370D02*
X2216Y1370D01*
X0Y1369D02*
X7Y1369D01*
X529Y1369D02*
X542Y1369D01*
X556Y1369D02*
X569Y1369D01*
X584Y1369D02*
X597Y1369D01*
X645Y1369D02*
X679Y1369D01*
X682Y1369D02*
X695Y1369D01*
X733Y1369D02*
X747Y1369D01*
X778Y1369D02*
X792Y1369D01*
X828Y1369D02*
X841Y1369D01*
X856Y1369D02*
X869Y1369D01*
X883Y1369D02*
X896Y1369D01*
X945Y1369D02*
X978Y1369D01*
X982Y1369D02*
X995Y1369D01*
X1032Y1369D02*
X1046Y1369D01*
X1077Y1369D02*
X1092Y1369D01*
X1128Y1369D02*
X1141Y1369D01*
X1155Y1369D02*
X1168Y1369D01*
X1183Y1369D02*
X1196Y1369D01*
X1244Y1369D02*
X1278Y1369D01*
X1281Y1369D02*
X1294Y1369D01*
X1331Y1369D02*
X1346Y1369D01*
X1377Y1369D02*
X1391Y1369D01*
X2209Y1369D02*
X2216Y1369D01*
X0Y1368D02*
X7Y1368D01*
X529Y1368D02*
X542Y1368D01*
X556Y1368D02*
X569Y1368D01*
X584Y1368D02*
X597Y1368D01*
X642Y1368D02*
X695Y1368D01*
X733Y1368D02*
X747Y1368D01*
X777Y1368D02*
X792Y1368D01*
X828Y1368D02*
X841Y1368D01*
X856Y1368D02*
X869Y1368D01*
X883Y1368D02*
X896Y1368D01*
X941Y1368D02*
X995Y1368D01*
X1032Y1368D02*
X1047Y1368D01*
X1077Y1368D02*
X1091Y1368D01*
X1128Y1368D02*
X1141Y1368D01*
X1155Y1368D02*
X1168Y1368D01*
X1183Y1368D02*
X1196Y1368D01*
X1241Y1368D02*
X1294Y1368D01*
X1332Y1368D02*
X1346Y1368D01*
X1376Y1368D02*
X1390Y1368D01*
X2209Y1368D02*
X2216Y1368D01*
X0Y1367D02*
X7Y1367D01*
X529Y1367D02*
X542Y1367D01*
X556Y1367D02*
X569Y1367D01*
X584Y1367D02*
X597Y1367D01*
X640Y1367D02*
X695Y1367D01*
X734Y1367D02*
X748Y1367D01*
X777Y1367D02*
X791Y1367D01*
X828Y1367D02*
X841Y1367D01*
X856Y1367D02*
X869Y1367D01*
X883Y1367D02*
X896Y1367D01*
X939Y1367D02*
X995Y1367D01*
X1033Y1367D02*
X1047Y1367D01*
X1076Y1367D02*
X1091Y1367D01*
X1128Y1367D02*
X1141Y1367D01*
X1155Y1367D02*
X1168Y1367D01*
X1183Y1367D02*
X1196Y1367D01*
X1239Y1367D02*
X1294Y1367D01*
X1332Y1367D02*
X1346Y1367D01*
X1376Y1367D02*
X1390Y1367D01*
X2209Y1367D02*
X2216Y1367D01*
X0Y1366D02*
X7Y1366D01*
X529Y1366D02*
X542Y1366D01*
X556Y1366D02*
X569Y1366D01*
X584Y1366D02*
X597Y1366D01*
X638Y1366D02*
X695Y1366D01*
X734Y1366D02*
X748Y1366D01*
X777Y1366D02*
X791Y1366D01*
X828Y1366D02*
X841Y1366D01*
X856Y1366D02*
X869Y1366D01*
X883Y1366D02*
X896Y1366D01*
X937Y1366D02*
X995Y1366D01*
X1033Y1366D02*
X1048Y1366D01*
X1076Y1366D02*
X1090Y1366D01*
X1128Y1366D02*
X1141Y1366D01*
X1155Y1366D02*
X1168Y1366D01*
X1183Y1366D02*
X1196Y1366D01*
X1237Y1366D02*
X1294Y1366D01*
X1333Y1366D02*
X1347Y1366D01*
X1375Y1366D02*
X1390Y1366D01*
X2209Y1366D02*
X2216Y1366D01*
X0Y1365D02*
X7Y1365D01*
X529Y1365D02*
X542Y1365D01*
X556Y1365D02*
X569Y1365D01*
X584Y1365D02*
X597Y1365D01*
X637Y1365D02*
X695Y1365D01*
X734Y1365D02*
X749Y1365D01*
X776Y1365D02*
X791Y1365D01*
X828Y1365D02*
X841Y1365D01*
X856Y1365D02*
X869Y1365D01*
X883Y1365D02*
X896Y1365D01*
X936Y1365D02*
X995Y1365D01*
X1034Y1365D02*
X1048Y1365D01*
X1075Y1365D02*
X1090Y1365D01*
X1128Y1365D02*
X1141Y1365D01*
X1155Y1365D02*
X1168Y1365D01*
X1183Y1365D02*
X1196Y1365D01*
X1236Y1365D02*
X1294Y1365D01*
X1333Y1365D02*
X1347Y1365D01*
X1375Y1365D02*
X1389Y1365D01*
X2209Y1365D02*
X2216Y1365D01*
X0Y1364D02*
X7Y1364D01*
X529Y1364D02*
X542Y1364D01*
X556Y1364D02*
X569Y1364D01*
X584Y1364D02*
X597Y1364D01*
X636Y1364D02*
X695Y1364D01*
X735Y1364D02*
X749Y1364D01*
X776Y1364D02*
X790Y1364D01*
X828Y1364D02*
X841Y1364D01*
X856Y1364D02*
X869Y1364D01*
X883Y1364D02*
X896Y1364D01*
X935Y1364D02*
X995Y1364D01*
X1034Y1364D02*
X1048Y1364D01*
X1075Y1364D02*
X1089Y1364D01*
X1128Y1364D02*
X1141Y1364D01*
X1155Y1364D02*
X1168Y1364D01*
X1183Y1364D02*
X1196Y1364D01*
X1234Y1364D02*
X1294Y1364D01*
X1333Y1364D02*
X1348Y1364D01*
X1374Y1364D02*
X1389Y1364D01*
X2209Y1364D02*
X2216Y1364D01*
X0Y1363D02*
X7Y1363D01*
X529Y1363D02*
X542Y1363D01*
X556Y1363D02*
X569Y1363D01*
X584Y1363D02*
X597Y1363D01*
X635Y1363D02*
X695Y1363D01*
X735Y1363D02*
X750Y1363D01*
X775Y1363D02*
X790Y1363D01*
X828Y1363D02*
X841Y1363D01*
X856Y1363D02*
X869Y1363D01*
X883Y1363D02*
X896Y1363D01*
X934Y1363D02*
X995Y1363D01*
X1035Y1363D02*
X1049Y1363D01*
X1075Y1363D02*
X1089Y1363D01*
X1128Y1363D02*
X1141Y1363D01*
X1155Y1363D02*
X1168Y1363D01*
X1183Y1363D02*
X1196Y1363D01*
X1233Y1363D02*
X1294Y1363D01*
X1334Y1363D02*
X1348Y1363D01*
X1374Y1363D02*
X1388Y1363D01*
X2209Y1363D02*
X2216Y1363D01*
X0Y1362D02*
X7Y1362D01*
X529Y1362D02*
X542Y1362D01*
X556Y1362D02*
X569Y1362D01*
X584Y1362D02*
X597Y1362D01*
X634Y1362D02*
X696Y1362D01*
X736Y1362D02*
X750Y1362D01*
X775Y1362D02*
X789Y1362D01*
X828Y1362D02*
X841Y1362D01*
X856Y1362D02*
X869Y1362D01*
X883Y1362D02*
X896Y1362D01*
X933Y1362D02*
X995Y1362D01*
X1035Y1362D02*
X1049Y1362D01*
X1074Y1362D02*
X1089Y1362D01*
X1128Y1362D02*
X1141Y1362D01*
X1155Y1362D02*
X1168Y1362D01*
X1183Y1362D02*
X1196Y1362D01*
X1232Y1362D02*
X1294Y1362D01*
X1334Y1362D02*
X1349Y1362D01*
X1373Y1362D02*
X1388Y1362D01*
X2209Y1362D02*
X2216Y1362D01*
X0Y1361D02*
X7Y1361D01*
X529Y1361D02*
X542Y1361D01*
X556Y1361D02*
X569Y1361D01*
X584Y1361D02*
X597Y1361D01*
X633Y1361D02*
X696Y1361D01*
X736Y1361D02*
X750Y1361D01*
X774Y1361D02*
X789Y1361D01*
X828Y1361D02*
X841Y1361D01*
X856Y1361D02*
X869Y1361D01*
X883Y1361D02*
X896Y1361D01*
X932Y1361D02*
X995Y1361D01*
X1035Y1361D02*
X1050Y1361D01*
X1074Y1361D02*
X1088Y1361D01*
X1128Y1361D02*
X1141Y1361D01*
X1155Y1361D02*
X1168Y1361D01*
X1183Y1361D02*
X1196Y1361D01*
X1232Y1361D02*
X1294Y1361D01*
X1335Y1361D02*
X1349Y1361D01*
X1373Y1361D02*
X1387Y1361D01*
X2209Y1361D02*
X2216Y1361D01*
X0Y1360D02*
X7Y1360D01*
X529Y1360D02*
X542Y1360D01*
X556Y1360D02*
X569Y1360D01*
X584Y1360D02*
X597Y1360D01*
X632Y1360D02*
X696Y1360D01*
X737Y1360D02*
X751Y1360D01*
X774Y1360D02*
X788Y1360D01*
X828Y1360D02*
X841Y1360D01*
X856Y1360D02*
X869Y1360D01*
X883Y1360D02*
X896Y1360D01*
X931Y1360D02*
X995Y1360D01*
X1036Y1360D02*
X1050Y1360D01*
X1073Y1360D02*
X1088Y1360D01*
X1128Y1360D02*
X1141Y1360D01*
X1155Y1360D02*
X1168Y1360D01*
X1183Y1360D02*
X1196Y1360D01*
X1231Y1360D02*
X1294Y1360D01*
X1335Y1360D02*
X1350Y1360D01*
X1373Y1360D02*
X1387Y1360D01*
X2209Y1360D02*
X2216Y1360D01*
X0Y1359D02*
X7Y1359D01*
X529Y1359D02*
X542Y1359D01*
X556Y1359D02*
X569Y1359D01*
X584Y1359D02*
X597Y1359D01*
X632Y1359D02*
X696Y1359D01*
X737Y1359D02*
X751Y1359D01*
X773Y1359D02*
X788Y1359D01*
X828Y1359D02*
X841Y1359D01*
X856Y1359D02*
X869Y1359D01*
X883Y1359D02*
X896Y1359D01*
X931Y1359D02*
X995Y1359D01*
X1036Y1359D02*
X1051Y1359D01*
X1073Y1359D02*
X1087Y1359D01*
X1128Y1359D02*
X1141Y1359D01*
X1155Y1359D02*
X1168Y1359D01*
X1183Y1359D02*
X1196Y1359D01*
X1230Y1359D02*
X1294Y1359D01*
X1336Y1359D02*
X1350Y1359D01*
X1372Y1359D02*
X1387Y1359D01*
X2209Y1359D02*
X2216Y1359D01*
X0Y1358D02*
X7Y1358D01*
X529Y1358D02*
X542Y1358D01*
X556Y1358D02*
X569Y1358D01*
X584Y1358D02*
X597Y1358D01*
X631Y1358D02*
X696Y1358D01*
X737Y1358D02*
X752Y1358D01*
X773Y1358D02*
X787Y1358D01*
X828Y1358D02*
X841Y1358D01*
X856Y1358D02*
X869Y1358D01*
X883Y1358D02*
X896Y1358D01*
X930Y1358D02*
X995Y1358D01*
X1037Y1358D02*
X1051Y1358D01*
X1072Y1358D02*
X1087Y1358D01*
X1128Y1358D02*
X1141Y1358D01*
X1155Y1358D02*
X1168Y1358D01*
X1183Y1358D02*
X1196Y1358D01*
X1230Y1358D02*
X1294Y1358D01*
X1336Y1358D02*
X1350Y1358D01*
X1372Y1358D02*
X1386Y1358D01*
X2209Y1358D02*
X2216Y1358D01*
X0Y1357D02*
X7Y1357D01*
X529Y1357D02*
X542Y1357D01*
X556Y1357D02*
X569Y1357D01*
X584Y1357D02*
X597Y1357D01*
X630Y1357D02*
X696Y1357D01*
X738Y1357D02*
X752Y1357D01*
X773Y1357D02*
X787Y1357D01*
X828Y1357D02*
X841Y1357D01*
X856Y1357D02*
X869Y1357D01*
X883Y1357D02*
X896Y1357D01*
X930Y1357D02*
X995Y1357D01*
X1037Y1357D02*
X1052Y1357D01*
X1072Y1357D02*
X1086Y1357D01*
X1128Y1357D02*
X1141Y1357D01*
X1155Y1357D02*
X1168Y1357D01*
X1183Y1357D02*
X1196Y1357D01*
X1229Y1357D02*
X1294Y1357D01*
X1337Y1357D02*
X1351Y1357D01*
X1371Y1357D02*
X1386Y1357D01*
X2209Y1357D02*
X2216Y1357D01*
X0Y1356D02*
X7Y1356D01*
X529Y1356D02*
X542Y1356D01*
X556Y1356D02*
X569Y1356D01*
X584Y1356D02*
X597Y1356D01*
X630Y1356D02*
X696Y1356D01*
X738Y1356D02*
X753Y1356D01*
X772Y1356D02*
X787Y1356D01*
X828Y1356D02*
X841Y1356D01*
X856Y1356D02*
X869Y1356D01*
X883Y1356D02*
X896Y1356D01*
X929Y1356D02*
X995Y1356D01*
X1038Y1356D02*
X1052Y1356D01*
X1072Y1356D02*
X1086Y1356D01*
X1128Y1356D02*
X1141Y1356D01*
X1155Y1356D02*
X1168Y1356D01*
X1183Y1356D02*
X1196Y1356D01*
X1229Y1356D02*
X1294Y1356D01*
X1337Y1356D02*
X1351Y1356D01*
X1371Y1356D02*
X1385Y1356D01*
X2209Y1356D02*
X2216Y1356D01*
X0Y1355D02*
X7Y1355D01*
X529Y1355D02*
X542Y1355D01*
X556Y1355D02*
X569Y1355D01*
X584Y1355D02*
X597Y1355D01*
X630Y1355D02*
X646Y1355D01*
X678Y1355D02*
X696Y1355D01*
X739Y1355D02*
X753Y1355D01*
X772Y1355D02*
X786Y1355D01*
X828Y1355D02*
X841Y1355D01*
X856Y1355D02*
X869Y1355D01*
X883Y1355D02*
X896Y1355D01*
X929Y1355D02*
X946Y1355D01*
X978Y1355D02*
X995Y1355D01*
X1038Y1355D02*
X1052Y1355D01*
X1071Y1355D02*
X1085Y1355D01*
X1128Y1355D02*
X1141Y1355D01*
X1155Y1355D02*
X1168Y1355D01*
X1183Y1355D02*
X1196Y1355D01*
X1228Y1355D02*
X1245Y1355D01*
X1277Y1355D02*
X1294Y1355D01*
X1337Y1355D02*
X1352Y1355D01*
X1370Y1355D02*
X1385Y1355D01*
X2209Y1355D02*
X2216Y1355D01*
X0Y1354D02*
X7Y1354D01*
X529Y1354D02*
X542Y1354D01*
X556Y1354D02*
X569Y1354D01*
X584Y1354D02*
X597Y1354D01*
X629Y1354D02*
X645Y1354D01*
X680Y1354D02*
X696Y1354D01*
X739Y1354D02*
X753Y1354D01*
X771Y1354D02*
X786Y1354D01*
X828Y1354D02*
X841Y1354D01*
X856Y1354D02*
X869Y1354D01*
X883Y1354D02*
X896Y1354D01*
X929Y1354D02*
X944Y1354D01*
X979Y1354D02*
X995Y1354D01*
X1039Y1354D02*
X1053Y1354D01*
X1071Y1354D02*
X1085Y1354D01*
X1128Y1354D02*
X1141Y1354D01*
X1155Y1354D02*
X1168Y1354D01*
X1183Y1354D02*
X1196Y1354D01*
X1228Y1354D02*
X1243Y1354D01*
X1279Y1354D02*
X1294Y1354D01*
X1338Y1354D02*
X1352Y1354D01*
X1370Y1354D02*
X1384Y1354D01*
X2209Y1354D02*
X2216Y1354D01*
X0Y1353D02*
X7Y1353D01*
X529Y1353D02*
X542Y1353D01*
X556Y1353D02*
X569Y1353D01*
X584Y1353D02*
X597Y1353D01*
X629Y1353D02*
X643Y1353D01*
X681Y1353D02*
X696Y1353D01*
X740Y1353D02*
X754Y1353D01*
X771Y1353D02*
X785Y1353D01*
X828Y1353D02*
X841Y1353D01*
X856Y1353D02*
X869Y1353D01*
X883Y1353D02*
X896Y1353D01*
X929Y1353D02*
X943Y1353D01*
X980Y1353D02*
X995Y1353D01*
X1039Y1353D02*
X1053Y1353D01*
X1070Y1353D02*
X1085Y1353D01*
X1128Y1353D02*
X1141Y1353D01*
X1155Y1353D02*
X1168Y1353D01*
X1183Y1353D02*
X1196Y1353D01*
X1228Y1353D02*
X1242Y1353D01*
X1280Y1353D02*
X1294Y1353D01*
X1338Y1353D02*
X1353Y1353D01*
X1370Y1353D02*
X1384Y1353D01*
X2209Y1353D02*
X2216Y1353D01*
X0Y1352D02*
X7Y1352D01*
X529Y1352D02*
X542Y1352D01*
X556Y1352D02*
X569Y1352D01*
X584Y1352D02*
X597Y1352D01*
X629Y1352D02*
X643Y1352D01*
X682Y1352D02*
X696Y1352D01*
X740Y1352D02*
X754Y1352D01*
X770Y1352D02*
X785Y1352D01*
X828Y1352D02*
X841Y1352D01*
X856Y1352D02*
X869Y1352D01*
X883Y1352D02*
X896Y1352D01*
X928Y1352D02*
X942Y1352D01*
X981Y1352D02*
X995Y1352D01*
X1039Y1352D02*
X1054Y1352D01*
X1070Y1352D02*
X1084Y1352D01*
X1128Y1352D02*
X1141Y1352D01*
X1155Y1352D02*
X1168Y1352D01*
X1183Y1352D02*
X1196Y1352D01*
X1228Y1352D02*
X1241Y1352D01*
X1280Y1352D02*
X1295Y1352D01*
X1339Y1352D02*
X1353Y1352D01*
X1369Y1352D02*
X1383Y1352D01*
X2209Y1352D02*
X2216Y1352D01*
X0Y1351D02*
X7Y1351D01*
X529Y1351D02*
X542Y1351D01*
X556Y1351D02*
X569Y1351D01*
X584Y1351D02*
X597Y1351D01*
X629Y1351D02*
X642Y1351D01*
X682Y1351D02*
X696Y1351D01*
X741Y1351D02*
X755Y1351D01*
X770Y1351D02*
X784Y1351D01*
X828Y1351D02*
X841Y1351D01*
X856Y1351D02*
X869Y1351D01*
X883Y1351D02*
X896Y1351D01*
X928Y1351D02*
X942Y1351D01*
X982Y1351D02*
X995Y1351D01*
X1040Y1351D02*
X1054Y1351D01*
X1069Y1351D02*
X1084Y1351D01*
X1128Y1351D02*
X1141Y1351D01*
X1155Y1351D02*
X1168Y1351D01*
X1183Y1351D02*
X1196Y1351D01*
X1228Y1351D02*
X1241Y1351D01*
X1281Y1351D02*
X1295Y1351D01*
X1339Y1351D02*
X1353Y1351D01*
X1369Y1351D02*
X1383Y1351D01*
X2209Y1351D02*
X2216Y1351D01*
X0Y1350D02*
X7Y1350D01*
X529Y1350D02*
X542Y1350D01*
X556Y1350D02*
X569Y1350D01*
X584Y1350D02*
X597Y1350D01*
X629Y1350D02*
X642Y1350D01*
X683Y1350D02*
X696Y1350D01*
X741Y1350D02*
X755Y1350D01*
X770Y1350D02*
X784Y1350D01*
X828Y1350D02*
X841Y1350D01*
X856Y1350D02*
X869Y1350D01*
X883Y1350D02*
X896Y1350D01*
X928Y1350D02*
X941Y1350D01*
X982Y1350D02*
X995Y1350D01*
X1040Y1350D02*
X1055Y1350D01*
X1069Y1350D02*
X1083Y1350D01*
X1128Y1350D02*
X1141Y1350D01*
X1155Y1350D02*
X1168Y1350D01*
X1183Y1350D02*
X1196Y1350D01*
X1228Y1350D02*
X1241Y1350D01*
X1281Y1350D02*
X1295Y1350D01*
X1340Y1350D02*
X1354Y1350D01*
X1368Y1350D02*
X1383Y1350D01*
X2209Y1350D02*
X2216Y1350D01*
X0Y1349D02*
X7Y1349D01*
X529Y1349D02*
X542Y1349D01*
X556Y1349D02*
X569Y1349D01*
X584Y1349D02*
X597Y1349D01*
X629Y1349D02*
X642Y1349D01*
X683Y1349D02*
X696Y1349D01*
X741Y1349D02*
X756Y1349D01*
X769Y1349D02*
X783Y1349D01*
X828Y1349D02*
X841Y1349D01*
X856Y1349D02*
X869Y1349D01*
X883Y1349D02*
X896Y1349D01*
X928Y1349D02*
X941Y1349D01*
X982Y1349D02*
X995Y1349D01*
X1041Y1349D02*
X1055Y1349D01*
X1068Y1349D02*
X1083Y1349D01*
X1128Y1349D02*
X1141Y1349D01*
X1155Y1349D02*
X1168Y1349D01*
X1183Y1349D02*
X1196Y1349D01*
X1227Y1349D02*
X1240Y1349D01*
X1282Y1349D02*
X1295Y1349D01*
X1340Y1349D02*
X1354Y1349D01*
X1368Y1349D02*
X1382Y1349D01*
X2209Y1349D02*
X2216Y1349D01*
X0Y1348D02*
X7Y1348D01*
X529Y1348D02*
X542Y1348D01*
X556Y1348D02*
X569Y1348D01*
X584Y1348D02*
X597Y1348D01*
X629Y1348D02*
X642Y1348D01*
X683Y1348D02*
X696Y1348D01*
X742Y1348D02*
X756Y1348D01*
X769Y1348D02*
X783Y1348D01*
X828Y1348D02*
X841Y1348D01*
X856Y1348D02*
X869Y1348D01*
X883Y1348D02*
X896Y1348D01*
X928Y1348D02*
X941Y1348D01*
X982Y1348D02*
X995Y1348D01*
X1041Y1348D02*
X1055Y1348D01*
X1068Y1348D02*
X1082Y1348D01*
X1128Y1348D02*
X1141Y1348D01*
X1155Y1348D02*
X1168Y1348D01*
X1183Y1348D02*
X1196Y1348D01*
X1227Y1348D02*
X1240Y1348D01*
X1282Y1348D02*
X1295Y1348D01*
X1341Y1348D02*
X1355Y1348D01*
X1367Y1348D02*
X1382Y1348D01*
X2209Y1348D02*
X2216Y1348D01*
X0Y1347D02*
X7Y1347D01*
X529Y1347D02*
X542Y1347D01*
X556Y1347D02*
X569Y1347D01*
X584Y1347D02*
X597Y1347D01*
X629Y1347D02*
X642Y1347D01*
X683Y1347D02*
X696Y1347D01*
X742Y1347D02*
X757Y1347D01*
X768Y1347D02*
X783Y1347D01*
X828Y1347D02*
X841Y1347D01*
X856Y1347D02*
X869Y1347D01*
X883Y1347D02*
X896Y1347D01*
X928Y1347D02*
X941Y1347D01*
X982Y1347D02*
X995Y1347D01*
X1042Y1347D02*
X1056Y1347D01*
X1068Y1347D02*
X1082Y1347D01*
X1128Y1347D02*
X1141Y1347D01*
X1155Y1347D02*
X1168Y1347D01*
X1183Y1347D02*
X1196Y1347D01*
X1227Y1347D02*
X1240Y1347D01*
X1282Y1347D02*
X1295Y1347D01*
X1341Y1347D02*
X1355Y1347D01*
X1367Y1347D02*
X1381Y1347D01*
X2209Y1347D02*
X2216Y1347D01*
X0Y1346D02*
X7Y1346D01*
X529Y1346D02*
X542Y1346D01*
X556Y1346D02*
X569Y1346D01*
X584Y1346D02*
X597Y1346D01*
X629Y1346D02*
X642Y1346D01*
X683Y1346D02*
X696Y1346D01*
X743Y1346D02*
X757Y1346D01*
X768Y1346D02*
X782Y1346D01*
X828Y1346D02*
X841Y1346D01*
X856Y1346D02*
X869Y1346D01*
X883Y1346D02*
X896Y1346D01*
X928Y1346D02*
X941Y1346D01*
X982Y1346D02*
X995Y1346D01*
X1042Y1346D02*
X1056Y1346D01*
X1067Y1346D02*
X1082Y1346D01*
X1128Y1346D02*
X1141Y1346D01*
X1155Y1346D02*
X1168Y1346D01*
X1183Y1346D02*
X1196Y1346D01*
X1227Y1346D02*
X1240Y1346D01*
X1282Y1346D02*
X1295Y1346D01*
X1341Y1346D02*
X1356Y1346D01*
X1366Y1346D02*
X1381Y1346D01*
X2209Y1346D02*
X2216Y1346D01*
X0Y1345D02*
X7Y1345D01*
X529Y1345D02*
X542Y1345D01*
X556Y1345D02*
X569Y1345D01*
X584Y1345D02*
X597Y1345D01*
X629Y1345D02*
X642Y1345D01*
X683Y1345D02*
X696Y1345D01*
X743Y1345D02*
X757Y1345D01*
X767Y1345D02*
X782Y1345D01*
X828Y1345D02*
X841Y1345D01*
X856Y1345D02*
X869Y1345D01*
X883Y1345D02*
X896Y1345D01*
X928Y1345D02*
X941Y1345D01*
X982Y1345D02*
X995Y1345D01*
X1043Y1345D02*
X1057Y1345D01*
X1067Y1345D02*
X1081Y1345D01*
X1128Y1345D02*
X1141Y1345D01*
X1155Y1345D02*
X1168Y1345D01*
X1183Y1345D02*
X1196Y1345D01*
X1227Y1345D02*
X1240Y1345D01*
X1282Y1345D02*
X1295Y1345D01*
X1342Y1345D02*
X1356Y1345D01*
X1366Y1345D02*
X1380Y1345D01*
X2209Y1345D02*
X2216Y1345D01*
X0Y1344D02*
X7Y1344D01*
X529Y1344D02*
X542Y1344D01*
X556Y1344D02*
X569Y1344D01*
X584Y1344D02*
X597Y1344D01*
X629Y1344D02*
X642Y1344D01*
X683Y1344D02*
X696Y1344D01*
X744Y1344D02*
X758Y1344D01*
X767Y1344D02*
X781Y1344D01*
X828Y1344D02*
X841Y1344D01*
X856Y1344D02*
X869Y1344D01*
X883Y1344D02*
X896Y1344D01*
X928Y1344D02*
X941Y1344D01*
X982Y1344D02*
X995Y1344D01*
X1043Y1344D02*
X1057Y1344D01*
X1066Y1344D02*
X1081Y1344D01*
X1128Y1344D02*
X1141Y1344D01*
X1155Y1344D02*
X1168Y1344D01*
X1183Y1344D02*
X1196Y1344D01*
X1227Y1344D02*
X1240Y1344D01*
X1282Y1344D02*
X1295Y1344D01*
X1342Y1344D02*
X1357Y1344D01*
X1366Y1344D02*
X1380Y1344D01*
X2209Y1344D02*
X2216Y1344D01*
X0Y1343D02*
X7Y1343D01*
X529Y1343D02*
X542Y1343D01*
X556Y1343D02*
X569Y1343D01*
X584Y1343D02*
X597Y1343D01*
X629Y1343D02*
X642Y1343D01*
X683Y1343D02*
X696Y1343D01*
X744Y1343D02*
X758Y1343D01*
X766Y1343D02*
X781Y1343D01*
X828Y1343D02*
X841Y1343D01*
X856Y1343D02*
X869Y1343D01*
X883Y1343D02*
X896Y1343D01*
X928Y1343D02*
X941Y1343D01*
X982Y1343D02*
X996Y1343D01*
X1043Y1343D02*
X1058Y1343D01*
X1066Y1343D02*
X1080Y1343D01*
X1128Y1343D02*
X1141Y1343D01*
X1155Y1343D02*
X1168Y1343D01*
X1183Y1343D02*
X1196Y1343D01*
X1227Y1343D02*
X1240Y1343D01*
X1281Y1343D02*
X1295Y1343D01*
X1343Y1343D02*
X1357Y1343D01*
X1365Y1343D02*
X1380Y1343D01*
X2209Y1343D02*
X2216Y1343D01*
X0Y1342D02*
X7Y1342D01*
X529Y1342D02*
X542Y1342D01*
X556Y1342D02*
X569Y1342D01*
X584Y1342D02*
X597Y1342D01*
X629Y1342D02*
X642Y1342D01*
X682Y1342D02*
X696Y1342D01*
X745Y1342D02*
X759Y1342D01*
X766Y1342D02*
X780Y1342D01*
X828Y1342D02*
X841Y1342D01*
X856Y1342D02*
X869Y1342D01*
X883Y1342D02*
X896Y1342D01*
X928Y1342D02*
X941Y1342D01*
X981Y1342D02*
X996Y1342D01*
X1044Y1342D02*
X1058Y1342D01*
X1065Y1342D02*
X1080Y1342D01*
X1128Y1342D02*
X1141Y1342D01*
X1155Y1342D02*
X1168Y1342D01*
X1183Y1342D02*
X1196Y1342D01*
X1227Y1342D02*
X1240Y1342D01*
X1280Y1342D02*
X1295Y1342D01*
X1343Y1342D02*
X1357Y1342D01*
X1365Y1342D02*
X1379Y1342D01*
X2209Y1342D02*
X2216Y1342D01*
X0Y1341D02*
X7Y1341D01*
X529Y1341D02*
X542Y1341D01*
X556Y1341D02*
X570Y1341D01*
X584Y1341D02*
X597Y1341D01*
X629Y1341D02*
X642Y1341D01*
X680Y1341D02*
X696Y1341D01*
X745Y1341D02*
X759Y1341D01*
X766Y1341D02*
X780Y1341D01*
X828Y1341D02*
X841Y1341D01*
X856Y1341D02*
X869Y1341D01*
X883Y1341D02*
X896Y1341D01*
X928Y1341D02*
X941Y1341D01*
X979Y1341D02*
X996Y1341D01*
X1044Y1341D02*
X1059Y1341D01*
X1065Y1341D02*
X1079Y1341D01*
X1128Y1341D02*
X1141Y1341D01*
X1155Y1341D02*
X1168Y1341D01*
X1183Y1341D02*
X1196Y1341D01*
X1227Y1341D02*
X1240Y1341D01*
X1278Y1341D02*
X1295Y1341D01*
X1344Y1341D02*
X1358Y1341D01*
X1364Y1341D02*
X1379Y1341D01*
X2209Y1341D02*
X2216Y1341D01*
X0Y1340D02*
X7Y1340D01*
X529Y1340D02*
X542Y1340D01*
X556Y1340D02*
X570Y1340D01*
X584Y1340D02*
X597Y1340D01*
X629Y1340D02*
X642Y1340D01*
X678Y1340D02*
X696Y1340D01*
X745Y1340D02*
X760Y1340D01*
X765Y1340D02*
X780Y1340D01*
X828Y1340D02*
X842Y1340D01*
X855Y1340D02*
X869Y1340D01*
X883Y1340D02*
X896Y1340D01*
X928Y1340D02*
X941Y1340D01*
X977Y1340D02*
X996Y1340D01*
X1045Y1340D02*
X1059Y1340D01*
X1064Y1340D02*
X1079Y1340D01*
X1128Y1340D02*
X1141Y1340D01*
X1154Y1340D02*
X1169Y1340D01*
X1182Y1340D02*
X1196Y1340D01*
X1227Y1340D02*
X1240Y1340D01*
X1277Y1340D02*
X1295Y1340D01*
X1344Y1340D02*
X1359Y1340D01*
X1364Y1340D02*
X1378Y1340D01*
X2209Y1340D02*
X2216Y1340D01*
X0Y1339D02*
X7Y1339D01*
X529Y1339D02*
X543Y1339D01*
X555Y1339D02*
X571Y1339D01*
X583Y1339D02*
X597Y1339D01*
X629Y1339D02*
X642Y1339D01*
X676Y1339D02*
X696Y1339D01*
X746Y1339D02*
X779Y1339D01*
X828Y1339D02*
X842Y1339D01*
X855Y1339D02*
X870Y1339D01*
X882Y1339D02*
X896Y1339D01*
X928Y1339D02*
X941Y1339D01*
X976Y1339D02*
X996Y1339D01*
X1045Y1339D02*
X1078Y1339D01*
X1128Y1339D02*
X1142Y1339D01*
X1154Y1339D02*
X1169Y1339D01*
X1182Y1339D02*
X1196Y1339D01*
X1228Y1339D02*
X1241Y1339D01*
X1275Y1339D02*
X1295Y1339D01*
X1344Y1339D02*
X1378Y1339D01*
X2209Y1339D02*
X2216Y1339D01*
X0Y1338D02*
X7Y1338D01*
X529Y1338D02*
X544Y1338D01*
X555Y1338D02*
X571Y1338D01*
X582Y1338D02*
X597Y1338D01*
X629Y1338D02*
X642Y1338D01*
X675Y1338D02*
X696Y1338D01*
X746Y1338D02*
X779Y1338D01*
X828Y1338D02*
X843Y1338D01*
X854Y1338D02*
X870Y1338D01*
X882Y1338D02*
X896Y1338D01*
X928Y1338D02*
X942Y1338D01*
X974Y1338D02*
X996Y1338D01*
X1046Y1338D02*
X1078Y1338D01*
X1128Y1338D02*
X1142Y1338D01*
X1153Y1338D02*
X1170Y1338D01*
X1181Y1338D02*
X1196Y1338D01*
X1228Y1338D02*
X1241Y1338D01*
X1273Y1338D02*
X1295Y1338D01*
X1345Y1338D02*
X1377Y1338D01*
X2209Y1338D02*
X2216Y1338D01*
X0Y1337D02*
X7Y1337D01*
X529Y1337D02*
X544Y1337D01*
X554Y1337D02*
X572Y1337D01*
X582Y1337D02*
X597Y1337D01*
X629Y1337D02*
X643Y1337D01*
X673Y1337D02*
X696Y1337D01*
X747Y1337D02*
X778Y1337D01*
X828Y1337D02*
X843Y1337D01*
X853Y1337D02*
X871Y1337D01*
X881Y1337D02*
X896Y1337D01*
X928Y1337D02*
X942Y1337D01*
X972Y1337D02*
X996Y1337D01*
X1046Y1337D02*
X1078Y1337D01*
X1128Y1337D02*
X1143Y1337D01*
X1153Y1337D02*
X1170Y1337D01*
X1180Y1337D02*
X1196Y1337D01*
X1228Y1337D02*
X1242Y1337D01*
X1272Y1337D02*
X1295Y1337D01*
X1345Y1337D02*
X1377Y1337D01*
X2209Y1337D02*
X2216Y1337D01*
X0Y1336D02*
X7Y1336D01*
X530Y1336D02*
X545Y1336D01*
X554Y1336D02*
X572Y1336D01*
X581Y1336D02*
X596Y1336D01*
X629Y1336D02*
X644Y1336D01*
X671Y1336D02*
X696Y1336D01*
X747Y1336D02*
X778Y1336D01*
X829Y1336D02*
X844Y1336D01*
X853Y1336D02*
X872Y1336D01*
X880Y1336D02*
X896Y1336D01*
X929Y1336D02*
X943Y1336D01*
X971Y1336D02*
X996Y1336D01*
X1046Y1336D02*
X1077Y1336D01*
X1128Y1336D02*
X1143Y1336D01*
X1152Y1336D02*
X1171Y1336D01*
X1180Y1336D02*
X1195Y1336D01*
X1228Y1336D02*
X1242Y1336D01*
X1270Y1336D02*
X1295Y1336D01*
X1346Y1336D02*
X1376Y1336D01*
X2209Y1336D02*
X2216Y1336D01*
X0Y1335D02*
X7Y1335D01*
X530Y1335D02*
X545Y1335D01*
X553Y1335D02*
X573Y1335D01*
X581Y1335D02*
X596Y1335D01*
X630Y1335D02*
X645Y1335D01*
X670Y1335D02*
X696Y1335D01*
X748Y1335D02*
X777Y1335D01*
X829Y1335D02*
X845Y1335D01*
X852Y1335D02*
X872Y1335D01*
X880Y1335D02*
X895Y1335D01*
X929Y1335D02*
X944Y1335D01*
X969Y1335D02*
X996Y1335D01*
X1047Y1335D02*
X1077Y1335D01*
X1129Y1335D02*
X1144Y1335D01*
X1152Y1335D02*
X1171Y1335D01*
X1179Y1335D02*
X1194Y1335D01*
X1228Y1335D02*
X1244Y1335D01*
X1268Y1335D02*
X1295Y1335D01*
X1346Y1335D02*
X1376Y1335D01*
X2209Y1335D02*
X2216Y1335D01*
X0Y1334D02*
X7Y1334D01*
X531Y1334D02*
X595Y1334D01*
X630Y1334D02*
X696Y1334D01*
X748Y1334D02*
X777Y1334D01*
X830Y1334D02*
X895Y1334D01*
X929Y1334D02*
X996Y1334D01*
X1047Y1334D02*
X1076Y1334D01*
X1129Y1334D02*
X1194Y1334D01*
X1229Y1334D02*
X1295Y1334D01*
X1347Y1334D02*
X1376Y1334D01*
X2209Y1334D02*
X2216Y1334D01*
X0Y1333D02*
X7Y1333D01*
X531Y1333D02*
X595Y1333D01*
X630Y1333D02*
X697Y1333D01*
X748Y1333D02*
X776Y1333D01*
X831Y1333D02*
X894Y1333D01*
X930Y1333D02*
X996Y1333D01*
X1048Y1333D02*
X1076Y1333D01*
X1130Y1333D02*
X1193Y1333D01*
X1229Y1333D02*
X1295Y1333D01*
X1347Y1333D02*
X1375Y1333D01*
X2209Y1333D02*
X2216Y1333D01*
X0Y1332D02*
X7Y1332D01*
X532Y1332D02*
X594Y1332D01*
X631Y1332D02*
X697Y1332D01*
X749Y1332D02*
X776Y1332D01*
X831Y1332D02*
X893Y1332D01*
X930Y1332D02*
X996Y1332D01*
X1048Y1332D02*
X1075Y1332D01*
X1130Y1332D02*
X1193Y1332D01*
X1229Y1332D02*
X1295Y1332D01*
X1348Y1332D02*
X1375Y1332D01*
X2209Y1332D02*
X2216Y1332D01*
X0Y1331D02*
X7Y1331D01*
X532Y1331D02*
X593Y1331D01*
X631Y1331D02*
X697Y1331D01*
X749Y1331D02*
X776Y1331D01*
X832Y1331D02*
X893Y1331D01*
X931Y1331D02*
X996Y1331D01*
X1049Y1331D02*
X1075Y1331D01*
X1131Y1331D02*
X1192Y1331D01*
X1230Y1331D02*
X1295Y1331D01*
X1348Y1331D02*
X1374Y1331D01*
X2209Y1331D02*
X2216Y1331D01*
X0Y1330D02*
X7Y1330D01*
X533Y1330D02*
X593Y1330D01*
X632Y1330D02*
X697Y1330D01*
X750Y1330D02*
X775Y1330D01*
X832Y1330D02*
X892Y1330D01*
X931Y1330D02*
X996Y1330D01*
X1049Y1330D02*
X1074Y1330D01*
X1132Y1330D02*
X1192Y1330D01*
X1230Y1330D02*
X1295Y1330D01*
X1348Y1330D02*
X1374Y1330D01*
X2209Y1330D02*
X2216Y1330D01*
X0Y1329D02*
X7Y1329D01*
X534Y1329D02*
X592Y1329D01*
X632Y1329D02*
X697Y1329D01*
X750Y1329D02*
X775Y1329D01*
X833Y1329D02*
X892Y1329D01*
X932Y1329D02*
X996Y1329D01*
X1050Y1329D02*
X1074Y1329D01*
X1132Y1329D02*
X1191Y1329D01*
X1231Y1329D02*
X1295Y1329D01*
X1349Y1329D02*
X1373Y1329D01*
X2209Y1329D02*
X2216Y1329D01*
X0Y1328D02*
X7Y1328D01*
X534Y1328D02*
X592Y1328D01*
X633Y1328D02*
X697Y1328D01*
X751Y1328D02*
X774Y1328D01*
X833Y1328D02*
X891Y1328D01*
X933Y1328D02*
X996Y1328D01*
X1050Y1328D02*
X1074Y1328D01*
X1133Y1328D02*
X1190Y1328D01*
X1232Y1328D02*
X1295Y1328D01*
X1350Y1328D02*
X1373Y1328D01*
X2209Y1328D02*
X2216Y1328D01*
X0Y1327D02*
X7Y1327D01*
X535Y1327D02*
X591Y1327D01*
X634Y1327D02*
X697Y1327D01*
X752Y1327D02*
X774Y1327D01*
X834Y1327D02*
X890Y1327D01*
X933Y1327D02*
X996Y1327D01*
X1052Y1327D02*
X1073Y1327D01*
X1133Y1327D02*
X1190Y1327D01*
X1233Y1327D02*
X1295Y1327D01*
X1351Y1327D02*
X1373Y1327D01*
X2209Y1327D02*
X2216Y1327D01*
X0Y1326D02*
X7Y1326D01*
X535Y1326D02*
X591Y1326D01*
X635Y1326D02*
X681Y1326D01*
X684Y1326D02*
X697Y1326D01*
X755Y1326D02*
X773Y1326D01*
X835Y1326D02*
X890Y1326D01*
X934Y1326D02*
X980Y1326D01*
X983Y1326D02*
X996Y1326D01*
X1055Y1326D02*
X1073Y1326D01*
X1134Y1326D02*
X1189Y1326D01*
X1234Y1326D02*
X1280Y1326D01*
X1282Y1326D02*
X1295Y1326D01*
X1354Y1326D02*
X1372Y1326D01*
X2209Y1326D02*
X2216Y1326D01*
X0Y1325D02*
X7Y1325D01*
X536Y1325D02*
X590Y1325D01*
X636Y1325D02*
X679Y1325D01*
X684Y1325D02*
X696Y1325D01*
X759Y1325D02*
X773Y1325D01*
X835Y1325D02*
X889Y1325D01*
X936Y1325D02*
X979Y1325D01*
X983Y1325D02*
X996Y1325D01*
X1058Y1325D02*
X1072Y1325D01*
X1135Y1325D02*
X1189Y1325D01*
X1235Y1325D02*
X1278Y1325D01*
X1283Y1325D02*
X1295Y1325D01*
X1357Y1325D02*
X1372Y1325D01*
X2209Y1325D02*
X2216Y1325D01*
X0Y1324D02*
X7Y1324D01*
X536Y1324D02*
X562Y1324D01*
X564Y1324D02*
X589Y1324D01*
X637Y1324D02*
X678Y1324D01*
X685Y1324D02*
X696Y1324D01*
X758Y1324D02*
X773Y1324D01*
X836Y1324D02*
X861Y1324D01*
X863Y1324D02*
X889Y1324D01*
X937Y1324D02*
X977Y1324D01*
X984Y1324D02*
X995Y1324D01*
X1057Y1324D02*
X1072Y1324D01*
X1135Y1324D02*
X1160Y1324D01*
X1163Y1324D02*
X1188Y1324D01*
X1236Y1324D02*
X1276Y1324D01*
X1283Y1324D02*
X1295Y1324D01*
X1357Y1324D02*
X1371Y1324D01*
X2209Y1324D02*
X2216Y1324D01*
X0Y1323D02*
X7Y1323D01*
X537Y1323D02*
X561Y1323D01*
X565Y1323D02*
X589Y1323D01*
X639Y1323D02*
X676Y1323D01*
X685Y1323D02*
X695Y1323D01*
X758Y1323D02*
X772Y1323D01*
X836Y1323D02*
X860Y1323D01*
X864Y1323D02*
X888Y1323D01*
X938Y1323D02*
X975Y1323D01*
X985Y1323D02*
X995Y1323D01*
X1057Y1323D02*
X1071Y1323D01*
X1136Y1323D02*
X1160Y1323D01*
X1163Y1323D02*
X1187Y1323D01*
X1238Y1323D02*
X1274Y1323D01*
X1284Y1323D02*
X1294Y1323D01*
X1356Y1323D02*
X1371Y1323D01*
X2209Y1323D02*
X2216Y1323D01*
X0Y1322D02*
X7Y1322D01*
X538Y1322D02*
X560Y1322D01*
X566Y1322D02*
X588Y1322D01*
X641Y1322D02*
X674Y1322D01*
X686Y1322D02*
X694Y1322D01*
X757Y1322D02*
X772Y1322D01*
X837Y1322D02*
X859Y1322D01*
X865Y1322D02*
X887Y1322D01*
X940Y1322D02*
X973Y1322D01*
X985Y1322D02*
X994Y1322D01*
X1057Y1322D02*
X1071Y1322D01*
X1137Y1322D02*
X1159Y1322D01*
X1164Y1322D02*
X1186Y1322D01*
X1239Y1322D02*
X1273Y1322D01*
X1285Y1322D02*
X1293Y1322D01*
X1356Y1322D02*
X1370Y1322D01*
X2209Y1322D02*
X2216Y1322D01*
X0Y1321D02*
X7Y1321D01*
X539Y1321D02*
X559Y1321D01*
X567Y1321D02*
X587Y1321D01*
X644Y1321D02*
X672Y1321D01*
X687Y1321D02*
X693Y1321D01*
X757Y1321D02*
X771Y1321D01*
X839Y1321D02*
X858Y1321D01*
X866Y1321D02*
X886Y1321D01*
X943Y1321D02*
X972Y1321D01*
X987Y1321D02*
X992Y1321D01*
X1056Y1321D02*
X1071Y1321D01*
X1138Y1321D02*
X1157Y1321D01*
X1166Y1321D02*
X1185Y1321D01*
X1242Y1321D02*
X1271Y1321D01*
X1286Y1321D02*
X1292Y1321D01*
X1355Y1321D02*
X1370Y1321D01*
X2209Y1321D02*
X2216Y1321D01*
X0Y1320D02*
X7Y1320D01*
X756Y1320D02*
X771Y1320D01*
X1056Y1320D02*
X1070Y1320D01*
X1355Y1320D02*
X1369Y1320D01*
X2209Y1320D02*
X2216Y1320D01*
X0Y1319D02*
X7Y1319D01*
X756Y1319D02*
X770Y1319D01*
X1055Y1319D02*
X1070Y1319D01*
X1355Y1319D02*
X1369Y1319D01*
X2209Y1319D02*
X2216Y1319D01*
X0Y1318D02*
X7Y1318D01*
X756Y1318D02*
X770Y1318D01*
X1055Y1318D02*
X1069Y1318D01*
X1354Y1318D02*
X1369Y1318D01*
X2209Y1318D02*
X2216Y1318D01*
X0Y1317D02*
X7Y1317D01*
X755Y1317D02*
X769Y1317D01*
X1054Y1317D02*
X1069Y1317D01*
X1354Y1317D02*
X1368Y1317D01*
X2209Y1317D02*
X2216Y1317D01*
X0Y1316D02*
X7Y1316D01*
X755Y1316D02*
X769Y1316D01*
X1054Y1316D02*
X1068Y1316D01*
X1353Y1316D02*
X1368Y1316D01*
X2209Y1316D02*
X2216Y1316D01*
X0Y1315D02*
X7Y1315D01*
X754Y1315D02*
X769Y1315D01*
X1054Y1315D02*
X1068Y1315D01*
X1353Y1315D02*
X1367Y1315D01*
X2209Y1315D02*
X2216Y1315D01*
X0Y1314D02*
X7Y1314D01*
X754Y1314D02*
X768Y1314D01*
X1053Y1314D02*
X1067Y1314D01*
X1352Y1314D02*
X1367Y1314D01*
X2209Y1314D02*
X2216Y1314D01*
X0Y1313D02*
X7Y1313D01*
X753Y1313D02*
X768Y1313D01*
X1053Y1313D02*
X1067Y1313D01*
X1352Y1313D02*
X1366Y1313D01*
X2209Y1313D02*
X2216Y1313D01*
X0Y1312D02*
X7Y1312D01*
X753Y1312D02*
X767Y1312D01*
X1052Y1312D02*
X1067Y1312D01*
X1352Y1312D02*
X1366Y1312D01*
X2209Y1312D02*
X2216Y1312D01*
X0Y1311D02*
X7Y1311D01*
X752Y1311D02*
X767Y1311D01*
X1052Y1311D02*
X1066Y1311D01*
X1351Y1311D02*
X1365Y1311D01*
X2209Y1311D02*
X2216Y1311D01*
X0Y1310D02*
X7Y1310D01*
X752Y1310D02*
X766Y1310D01*
X1051Y1310D02*
X1066Y1310D01*
X1351Y1310D02*
X1365Y1310D01*
X2209Y1310D02*
X2216Y1310D01*
X0Y1309D02*
X7Y1309D01*
X752Y1309D02*
X766Y1309D01*
X1051Y1309D02*
X1065Y1309D01*
X1350Y1309D02*
X1365Y1309D01*
X2209Y1309D02*
X2216Y1309D01*
X0Y1308D02*
X7Y1308D01*
X751Y1308D02*
X766Y1308D01*
X1050Y1308D02*
X1065Y1308D01*
X1350Y1308D02*
X1364Y1308D01*
X2209Y1308D02*
X2216Y1308D01*
X0Y1307D02*
X7Y1307D01*
X751Y1307D02*
X765Y1307D01*
X1050Y1307D02*
X1064Y1307D01*
X1349Y1307D02*
X1364Y1307D01*
X2209Y1307D02*
X2216Y1307D01*
X0Y1306D02*
X7Y1306D01*
X750Y1306D02*
X765Y1306D01*
X1050Y1306D02*
X1064Y1306D01*
X1349Y1306D02*
X1363Y1306D01*
X2209Y1306D02*
X2216Y1306D01*
X0Y1305D02*
X7Y1305D01*
X750Y1305D02*
X764Y1305D01*
X1049Y1305D02*
X1064Y1305D01*
X1348Y1305D02*
X1363Y1305D01*
X2209Y1305D02*
X2216Y1305D01*
X0Y1304D02*
X7Y1304D01*
X732Y1304D02*
X764Y1304D01*
X1032Y1304D02*
X1063Y1304D01*
X1331Y1304D02*
X1362Y1304D01*
X2209Y1304D02*
X2216Y1304D01*
X0Y1303D02*
X7Y1303D01*
X731Y1303D02*
X763Y1303D01*
X1030Y1303D02*
X1063Y1303D01*
X1330Y1303D02*
X1362Y1303D01*
X2209Y1303D02*
X2216Y1303D01*
X0Y1302D02*
X7Y1302D01*
X730Y1302D02*
X763Y1302D01*
X1029Y1302D02*
X1062Y1302D01*
X1329Y1302D02*
X1362Y1302D01*
X2209Y1302D02*
X2216Y1302D01*
X0Y1301D02*
X7Y1301D01*
X729Y1301D02*
X762Y1301D01*
X1029Y1301D02*
X1062Y1301D01*
X1328Y1301D02*
X1361Y1301D01*
X2209Y1301D02*
X2216Y1301D01*
X0Y1300D02*
X7Y1300D01*
X729Y1300D02*
X762Y1300D01*
X1028Y1300D02*
X1061Y1300D01*
X1328Y1300D02*
X1361Y1300D01*
X2209Y1300D02*
X2216Y1300D01*
X0Y1299D02*
X7Y1299D01*
X729Y1299D02*
X762Y1299D01*
X1028Y1299D02*
X1061Y1299D01*
X1327Y1299D02*
X1360Y1299D01*
X2209Y1299D02*
X2216Y1299D01*
X0Y1298D02*
X7Y1298D01*
X729Y1298D02*
X761Y1298D01*
X1028Y1298D02*
X1060Y1298D01*
X1327Y1298D02*
X1360Y1298D01*
X2209Y1298D02*
X2216Y1298D01*
X0Y1297D02*
X7Y1297D01*
X729Y1297D02*
X761Y1297D01*
X1028Y1297D02*
X1060Y1297D01*
X1327Y1297D02*
X1359Y1297D01*
X2209Y1297D02*
X2216Y1297D01*
X0Y1296D02*
X7Y1296D01*
X729Y1296D02*
X760Y1296D01*
X1028Y1296D02*
X1060Y1296D01*
X1327Y1296D02*
X1359Y1296D01*
X2209Y1296D02*
X2216Y1296D01*
X0Y1295D02*
X7Y1295D01*
X729Y1295D02*
X760Y1295D01*
X1028Y1295D02*
X1059Y1295D01*
X1328Y1295D02*
X1358Y1295D01*
X2209Y1295D02*
X2216Y1295D01*
X0Y1294D02*
X7Y1294D01*
X730Y1294D02*
X759Y1294D01*
X1029Y1294D02*
X1059Y1294D01*
X1328Y1294D02*
X1358Y1294D01*
X2209Y1294D02*
X2216Y1294D01*
X0Y1293D02*
X7Y1293D01*
X730Y1293D02*
X759Y1293D01*
X1030Y1293D02*
X1058Y1293D01*
X1329Y1293D02*
X1357Y1293D01*
X2209Y1293D02*
X2216Y1293D01*
X0Y1292D02*
X7Y1292D01*
X731Y1292D02*
X758Y1292D01*
X1031Y1292D02*
X1057Y1292D01*
X1330Y1292D02*
X1356Y1292D01*
X2209Y1292D02*
X2216Y1292D01*
X0Y1291D02*
X7Y1291D01*
X733Y1291D02*
X755Y1291D01*
X1033Y1291D02*
X1055Y1291D01*
X1332Y1291D02*
X1354Y1291D01*
X2209Y1291D02*
X2216Y1291D01*
X0Y1290D02*
X7Y1290D01*
X2209Y1290D02*
X2216Y1290D01*
X0Y1289D02*
X7Y1289D01*
X2209Y1289D02*
X2216Y1289D01*
X0Y1288D02*
X7Y1288D01*
X2209Y1288D02*
X2216Y1288D01*
X0Y1287D02*
X7Y1287D01*
X2209Y1287D02*
X2216Y1287D01*
X0Y1286D02*
X7Y1286D01*
X2209Y1286D02*
X2216Y1286D01*
X0Y1285D02*
X7Y1285D01*
X2209Y1285D02*
X2216Y1285D01*
X0Y1284D02*
X7Y1284D01*
X2209Y1284D02*
X2216Y1284D01*
X0Y1283D02*
X7Y1283D01*
X2209Y1283D02*
X2216Y1283D01*
X0Y1282D02*
X7Y1282D01*
X2209Y1282D02*
X2216Y1282D01*
X0Y1281D02*
X7Y1281D01*
X2209Y1281D02*
X2216Y1281D01*
X0Y1280D02*
X7Y1280D01*
X2209Y1280D02*
X2216Y1280D01*
X0Y1279D02*
X7Y1279D01*
X2209Y1279D02*
X2216Y1279D01*
X0Y1278D02*
X7Y1278D01*
X2209Y1278D02*
X2216Y1278D01*
X0Y1277D02*
X7Y1277D01*
X2209Y1277D02*
X2216Y1277D01*
X0Y1276D02*
X7Y1276D01*
X2209Y1276D02*
X2216Y1276D01*
X0Y1275D02*
X7Y1275D01*
X2209Y1275D02*
X2216Y1275D01*
X0Y1274D02*
X7Y1274D01*
X2209Y1274D02*
X2216Y1274D01*
X0Y1273D02*
X7Y1273D01*
X2209Y1273D02*
X2216Y1273D01*
X0Y1272D02*
X7Y1272D01*
X2209Y1272D02*
X2216Y1272D01*
X0Y1271D02*
X7Y1271D01*
X2209Y1271D02*
X2216Y1271D01*
X0Y1270D02*
X7Y1270D01*
X2209Y1270D02*
X2216Y1270D01*
X0Y1269D02*
X7Y1269D01*
X2209Y1269D02*
X2216Y1269D01*
X0Y1268D02*
X7Y1268D01*
X2209Y1268D02*
X2216Y1268D01*
X0Y1267D02*
X7Y1267D01*
X2209Y1267D02*
X2216Y1267D01*
X0Y1266D02*
X7Y1266D01*
X2209Y1266D02*
X2216Y1266D01*
X0Y1265D02*
X7Y1265D01*
X2209Y1265D02*
X2216Y1265D01*
X0Y1264D02*
X7Y1264D01*
X2209Y1264D02*
X2216Y1264D01*
X0Y1263D02*
X7Y1263D01*
X2209Y1263D02*
X2216Y1263D01*
X0Y1262D02*
X7Y1262D01*
X2209Y1262D02*
X2216Y1262D01*
X0Y1261D02*
X7Y1261D01*
X2209Y1261D02*
X2216Y1261D01*
X0Y1260D02*
X7Y1260D01*
X2209Y1260D02*
X2216Y1260D01*
X0Y1259D02*
X7Y1259D01*
X2209Y1259D02*
X2216Y1259D01*
X0Y1258D02*
X7Y1258D01*
X2209Y1258D02*
X2216Y1258D01*
X0Y1257D02*
X7Y1257D01*
X2209Y1257D02*
X2216Y1257D01*
X0Y1256D02*
X7Y1256D01*
X2209Y1256D02*
X2216Y1256D01*
X0Y1255D02*
X7Y1255D01*
X2209Y1255D02*
X2216Y1255D01*
X0Y1254D02*
X7Y1254D01*
X2209Y1254D02*
X2216Y1254D01*
X0Y1253D02*
X7Y1253D01*
X2209Y1253D02*
X2216Y1253D01*
X0Y1252D02*
X7Y1252D01*
X2209Y1252D02*
X2216Y1252D01*
X0Y1251D02*
X7Y1251D01*
X2209Y1251D02*
X2216Y1251D01*
X0Y1250D02*
X7Y1250D01*
X2209Y1250D02*
X2216Y1250D01*
X0Y1249D02*
X7Y1249D01*
X2209Y1249D02*
X2216Y1249D01*
X0Y1248D02*
X7Y1248D01*
X2209Y1248D02*
X2216Y1248D01*
X0Y1247D02*
X7Y1247D01*
X2209Y1247D02*
X2216Y1247D01*
X0Y1246D02*
X7Y1246D01*
X2209Y1246D02*
X2216Y1246D01*
X0Y1245D02*
X7Y1245D01*
X2209Y1245D02*
X2216Y1245D01*
X0Y1244D02*
X7Y1244D01*
X2209Y1244D02*
X2216Y1244D01*
X0Y1243D02*
X7Y1243D01*
X2209Y1243D02*
X2216Y1243D01*
X0Y1242D02*
X7Y1242D01*
X2209Y1242D02*
X2216Y1242D01*
X0Y1241D02*
X7Y1241D01*
X2209Y1241D02*
X2216Y1241D01*
X0Y1240D02*
X7Y1240D01*
X2209Y1240D02*
X2216Y1240D01*
X0Y1239D02*
X7Y1239D01*
X2209Y1239D02*
X2216Y1239D01*
X0Y1238D02*
X7Y1238D01*
X2209Y1238D02*
X2216Y1238D01*
X0Y1237D02*
X7Y1237D01*
X2209Y1237D02*
X2216Y1237D01*
X0Y1236D02*
X7Y1236D01*
X2209Y1236D02*
X2216Y1236D01*
X0Y1235D02*
X7Y1235D01*
X2209Y1235D02*
X2216Y1235D01*
X0Y1234D02*
X7Y1234D01*
X2209Y1234D02*
X2216Y1234D01*
X0Y1233D02*
X7Y1233D01*
X2209Y1233D02*
X2216Y1233D01*
X0Y1232D02*
X7Y1232D01*
X2209Y1232D02*
X2216Y1232D01*
X0Y1231D02*
X7Y1231D01*
X2209Y1231D02*
X2216Y1231D01*
X0Y1230D02*
X7Y1230D01*
X2209Y1230D02*
X2216Y1230D01*
X0Y1229D02*
X7Y1229D01*
X2209Y1229D02*
X2216Y1229D01*
X0Y1228D02*
X7Y1228D01*
X2209Y1228D02*
X2216Y1228D01*
X0Y1227D02*
X7Y1227D01*
X2209Y1227D02*
X2216Y1227D01*
X0Y1226D02*
X7Y1226D01*
X2209Y1226D02*
X2216Y1226D01*
X0Y1225D02*
X7Y1225D01*
X2209Y1225D02*
X2216Y1225D01*
X0Y1224D02*
X7Y1224D01*
X2209Y1224D02*
X2216Y1224D01*
X0Y1223D02*
X7Y1223D01*
X2209Y1223D02*
X2216Y1223D01*
X0Y1222D02*
X7Y1222D01*
X2209Y1222D02*
X2216Y1222D01*
X0Y1221D02*
X7Y1221D01*
X2209Y1221D02*
X2216Y1221D01*
X0Y1220D02*
X7Y1220D01*
X2209Y1220D02*
X2216Y1220D01*
X0Y1219D02*
X7Y1219D01*
X2209Y1219D02*
X2216Y1219D01*
X0Y1218D02*
X7Y1218D01*
X2209Y1218D02*
X2216Y1218D01*
X0Y1217D02*
X7Y1217D01*
X2209Y1217D02*
X2216Y1217D01*
X0Y1216D02*
X7Y1216D01*
X2209Y1216D02*
X2216Y1216D01*
X0Y1215D02*
X7Y1215D01*
X2209Y1215D02*
X2216Y1215D01*
X0Y1214D02*
X7Y1214D01*
X2209Y1214D02*
X2216Y1214D01*
X0Y1213D02*
X7Y1213D01*
X2209Y1213D02*
X2216Y1213D01*
X0Y1212D02*
X7Y1212D01*
X2209Y1212D02*
X2216Y1212D01*
X0Y1211D02*
X7Y1211D01*
X2209Y1211D02*
X2216Y1211D01*
X0Y1210D02*
X7Y1210D01*
X2209Y1210D02*
X2216Y1210D01*
X0Y1209D02*
X7Y1209D01*
X2209Y1209D02*
X2216Y1209D01*
X0Y1208D02*
X7Y1208D01*
X2209Y1208D02*
X2216Y1208D01*
X0Y1207D02*
X7Y1207D01*
X2209Y1207D02*
X2216Y1207D01*
X0Y1206D02*
X7Y1206D01*
X2209Y1206D02*
X2216Y1206D01*
X0Y1205D02*
X7Y1205D01*
X2209Y1205D02*
X2216Y1205D01*
X0Y1204D02*
X7Y1204D01*
X2209Y1204D02*
X2216Y1204D01*
X0Y1203D02*
X7Y1203D01*
X2209Y1203D02*
X2216Y1203D01*
X0Y1202D02*
X7Y1202D01*
X2209Y1202D02*
X2216Y1202D01*
X0Y1201D02*
X7Y1201D01*
X2209Y1201D02*
X2216Y1201D01*
X0Y1200D02*
X7Y1200D01*
X2209Y1200D02*
X2216Y1200D01*
X0Y1199D02*
X7Y1199D01*
X2209Y1199D02*
X2216Y1199D01*
X0Y1198D02*
X7Y1198D01*
X2209Y1198D02*
X2216Y1198D01*
X0Y1197D02*
X7Y1197D01*
X2209Y1197D02*
X2216Y1197D01*
X0Y1196D02*
X7Y1196D01*
X2209Y1196D02*
X2216Y1196D01*
X0Y1195D02*
X7Y1195D01*
X2209Y1195D02*
X2216Y1195D01*
X0Y1194D02*
X7Y1194D01*
X2209Y1194D02*
X2216Y1194D01*
X0Y1193D02*
X7Y1193D01*
X2209Y1193D02*
X2216Y1193D01*
X0Y1192D02*
X7Y1192D01*
X2209Y1192D02*
X2216Y1192D01*
X0Y1191D02*
X7Y1191D01*
X2209Y1191D02*
X2216Y1191D01*
X0Y1190D02*
X7Y1190D01*
X2209Y1190D02*
X2216Y1190D01*
X0Y1189D02*
X7Y1189D01*
X2209Y1189D02*
X2216Y1189D01*
X0Y1188D02*
X7Y1188D01*
X2209Y1188D02*
X2216Y1188D01*
X0Y1187D02*
X7Y1187D01*
X2209Y1187D02*
X2216Y1187D01*
X0Y1186D02*
X7Y1186D01*
X2209Y1186D02*
X2216Y1186D01*
X0Y1185D02*
X7Y1185D01*
X2209Y1185D02*
X2216Y1185D01*
X0Y1184D02*
X7Y1184D01*
X2209Y1184D02*
X2216Y1184D01*
X0Y1183D02*
X7Y1183D01*
X2209Y1183D02*
X2216Y1183D01*
X0Y1182D02*
X7Y1182D01*
X2209Y1182D02*
X2216Y1182D01*
X0Y1181D02*
X7Y1181D01*
X2209Y1181D02*
X2216Y1181D01*
X0Y1180D02*
X7Y1180D01*
X2209Y1180D02*
X2216Y1180D01*
X0Y1179D02*
X7Y1179D01*
X2209Y1179D02*
X2216Y1179D01*
X0Y1178D02*
X7Y1178D01*
X2209Y1178D02*
X2216Y1178D01*
X0Y1177D02*
X7Y1177D01*
X2209Y1177D02*
X2216Y1177D01*
X0Y1176D02*
X7Y1176D01*
X2209Y1176D02*
X2216Y1176D01*
X0Y1175D02*
X7Y1175D01*
X2209Y1175D02*
X2216Y1175D01*
X0Y1174D02*
X7Y1174D01*
X2209Y1174D02*
X2216Y1174D01*
X0Y1173D02*
X7Y1173D01*
X2209Y1173D02*
X2216Y1173D01*
X0Y1172D02*
X7Y1172D01*
X2209Y1172D02*
X2216Y1172D01*
X0Y1171D02*
X7Y1171D01*
X2209Y1171D02*
X2216Y1171D01*
X0Y1170D02*
X7Y1170D01*
X2209Y1170D02*
X2216Y1170D01*
X0Y1169D02*
X7Y1169D01*
X2209Y1169D02*
X2216Y1169D01*
X0Y1168D02*
X7Y1168D01*
X2209Y1168D02*
X2216Y1168D01*
X0Y1167D02*
X7Y1167D01*
X2209Y1167D02*
X2216Y1167D01*
X0Y1166D02*
X7Y1166D01*
X2209Y1166D02*
X2216Y1166D01*
X0Y1165D02*
X7Y1165D01*
X2209Y1165D02*
X2216Y1165D01*
X0Y1164D02*
X7Y1164D01*
X2209Y1164D02*
X2216Y1164D01*
X0Y1163D02*
X7Y1163D01*
X2209Y1163D02*
X2216Y1163D01*
X0Y1162D02*
X7Y1162D01*
X2209Y1162D02*
X2216Y1162D01*
X0Y1161D02*
X7Y1161D01*
X2209Y1161D02*
X2216Y1161D01*
X0Y1160D02*
X7Y1160D01*
X2209Y1160D02*
X2216Y1160D01*
X0Y1159D02*
X7Y1159D01*
X2209Y1159D02*
X2216Y1159D01*
X0Y1158D02*
X7Y1158D01*
X2209Y1158D02*
X2216Y1158D01*
X0Y1157D02*
X7Y1157D01*
X2209Y1157D02*
X2216Y1157D01*
X0Y1156D02*
X7Y1156D01*
X2209Y1156D02*
X2216Y1156D01*
X0Y1155D02*
X7Y1155D01*
X2209Y1155D02*
X2216Y1155D01*
X0Y1154D02*
X7Y1154D01*
X2209Y1154D02*
X2216Y1154D01*
X0Y1153D02*
X7Y1153D01*
X2209Y1153D02*
X2216Y1153D01*
X0Y1152D02*
X7Y1152D01*
X2209Y1152D02*
X2216Y1152D01*
X0Y1151D02*
X7Y1151D01*
X2209Y1151D02*
X2216Y1151D01*
X0Y1150D02*
X7Y1150D01*
X2209Y1150D02*
X2216Y1150D01*
X0Y1149D02*
X7Y1149D01*
X2209Y1149D02*
X2216Y1149D01*
X0Y1148D02*
X7Y1148D01*
X2209Y1148D02*
X2216Y1148D01*
X0Y1147D02*
X7Y1147D01*
X2209Y1147D02*
X2216Y1147D01*
X0Y1146D02*
X7Y1146D01*
X2209Y1146D02*
X2216Y1146D01*
X0Y1145D02*
X7Y1145D01*
X2209Y1145D02*
X2216Y1145D01*
X0Y1144D02*
X7Y1144D01*
X2209Y1144D02*
X2216Y1144D01*
X0Y1143D02*
X7Y1143D01*
X2209Y1143D02*
X2216Y1143D01*
X0Y1142D02*
X7Y1142D01*
X2209Y1142D02*
X2216Y1142D01*
X0Y1141D02*
X7Y1141D01*
X2209Y1141D02*
X2216Y1141D01*
X0Y1140D02*
X7Y1140D01*
X2209Y1140D02*
X2216Y1140D01*
X0Y1139D02*
X7Y1139D01*
X2209Y1139D02*
X2216Y1139D01*
X0Y1138D02*
X7Y1138D01*
X2209Y1138D02*
X2216Y1138D01*
X0Y1137D02*
X7Y1137D01*
X2209Y1137D02*
X2216Y1137D01*
X0Y1136D02*
X7Y1136D01*
X2209Y1136D02*
X2216Y1136D01*
X0Y1135D02*
X7Y1135D01*
X2209Y1135D02*
X2216Y1135D01*
X0Y1134D02*
X7Y1134D01*
X2209Y1134D02*
X2216Y1134D01*
X0Y1133D02*
X7Y1133D01*
X2209Y1133D02*
X2216Y1133D01*
X0Y1132D02*
X7Y1132D01*
X2209Y1132D02*
X2216Y1132D01*
X0Y1131D02*
X7Y1131D01*
X2209Y1131D02*
X2216Y1131D01*
X0Y1130D02*
X7Y1130D01*
X2209Y1130D02*
X2216Y1130D01*
X0Y1129D02*
X7Y1129D01*
X2209Y1129D02*
X2216Y1129D01*
X0Y1128D02*
X7Y1128D01*
X2209Y1128D02*
X2216Y1128D01*
X0Y1127D02*
X7Y1127D01*
X2209Y1127D02*
X2216Y1127D01*
X0Y1126D02*
X7Y1126D01*
X2209Y1126D02*
X2216Y1126D01*
X0Y1125D02*
X7Y1125D01*
X2209Y1125D02*
X2216Y1125D01*
X0Y1124D02*
X7Y1124D01*
X2209Y1124D02*
X2216Y1124D01*
X0Y1123D02*
X7Y1123D01*
X2209Y1123D02*
X2216Y1123D01*
X0Y1122D02*
X7Y1122D01*
X2209Y1122D02*
X2216Y1122D01*
X0Y1121D02*
X7Y1121D01*
X2209Y1121D02*
X2216Y1121D01*
X0Y1120D02*
X7Y1120D01*
X2209Y1120D02*
X2216Y1120D01*
X0Y1119D02*
X7Y1119D01*
X2209Y1119D02*
X2216Y1119D01*
X0Y1118D02*
X7Y1118D01*
X2209Y1118D02*
X2216Y1118D01*
X0Y1117D02*
X7Y1117D01*
X2209Y1117D02*
X2216Y1117D01*
X0Y1116D02*
X7Y1116D01*
X2209Y1116D02*
X2216Y1116D01*
X0Y1115D02*
X7Y1115D01*
X2209Y1115D02*
X2216Y1115D01*
X0Y1114D02*
X7Y1114D01*
X2209Y1114D02*
X2216Y1114D01*
X0Y1113D02*
X7Y1113D01*
X2209Y1113D02*
X2216Y1113D01*
X0Y1112D02*
X7Y1112D01*
X2209Y1112D02*
X2216Y1112D01*
X0Y1111D02*
X7Y1111D01*
X2209Y1111D02*
X2216Y1111D01*
X0Y1110D02*
X7Y1110D01*
X2209Y1110D02*
X2216Y1110D01*
X0Y1109D02*
X7Y1109D01*
X2209Y1109D02*
X2216Y1109D01*
X0Y1108D02*
X7Y1108D01*
X2209Y1108D02*
X2216Y1108D01*
X0Y1107D02*
X7Y1107D01*
X2209Y1107D02*
X2216Y1107D01*
X0Y1106D02*
X7Y1106D01*
X2209Y1106D02*
X2216Y1106D01*
X0Y1105D02*
X7Y1105D01*
X2209Y1105D02*
X2216Y1105D01*
X0Y1104D02*
X7Y1104D01*
X2209Y1104D02*
X2216Y1104D01*
X0Y1103D02*
X7Y1103D01*
X2209Y1103D02*
X2216Y1103D01*
X0Y1102D02*
X7Y1102D01*
X2209Y1102D02*
X2216Y1102D01*
X0Y1101D02*
X7Y1101D01*
X2209Y1101D02*
X2216Y1101D01*
X0Y1100D02*
X7Y1100D01*
X2209Y1100D02*
X2216Y1100D01*
X0Y1099D02*
X7Y1099D01*
X2209Y1099D02*
X2216Y1099D01*
X0Y1098D02*
X7Y1098D01*
X2209Y1098D02*
X2216Y1098D01*
X0Y1097D02*
X7Y1097D01*
X2209Y1097D02*
X2216Y1097D01*
X0Y1096D02*
X7Y1096D01*
X2209Y1096D02*
X2216Y1096D01*
X0Y1095D02*
X7Y1095D01*
X2209Y1095D02*
X2216Y1095D01*
X0Y1094D02*
X7Y1094D01*
X2209Y1094D02*
X2216Y1094D01*
X0Y1093D02*
X7Y1093D01*
X2209Y1093D02*
X2216Y1093D01*
X0Y1092D02*
X7Y1092D01*
X2209Y1092D02*
X2216Y1092D01*
X0Y1091D02*
X7Y1091D01*
X2209Y1091D02*
X2216Y1091D01*
X0Y1090D02*
X7Y1090D01*
X2209Y1090D02*
X2216Y1090D01*
X0Y1089D02*
X7Y1089D01*
X2209Y1089D02*
X2216Y1089D01*
X0Y1088D02*
X7Y1088D01*
X2209Y1088D02*
X2216Y1088D01*
X0Y1087D02*
X7Y1087D01*
X2209Y1087D02*
X2216Y1087D01*
X0Y1086D02*
X7Y1086D01*
X2209Y1086D02*
X2216Y1086D01*
X0Y1085D02*
X7Y1085D01*
X2209Y1085D02*
X2216Y1085D01*
X0Y1084D02*
X7Y1084D01*
X2209Y1084D02*
X2216Y1084D01*
X0Y1083D02*
X7Y1083D01*
X2209Y1083D02*
X2216Y1083D01*
X0Y1082D02*
X7Y1082D01*
X2209Y1082D02*
X2216Y1082D01*
X0Y1081D02*
X7Y1081D01*
X2209Y1081D02*
X2216Y1081D01*
X0Y1080D02*
X7Y1080D01*
X2209Y1080D02*
X2216Y1080D01*
X0Y1079D02*
X7Y1079D01*
X2209Y1079D02*
X2216Y1079D01*
X0Y1078D02*
X7Y1078D01*
X2209Y1078D02*
X2216Y1078D01*
X0Y1077D02*
X7Y1077D01*
X2209Y1077D02*
X2216Y1077D01*
X0Y1076D02*
X7Y1076D01*
X2209Y1076D02*
X2216Y1076D01*
X0Y1075D02*
X7Y1075D01*
X2209Y1075D02*
X2216Y1075D01*
X0Y1074D02*
X7Y1074D01*
X2209Y1074D02*
X2216Y1074D01*
X0Y1073D02*
X7Y1073D01*
X2209Y1073D02*
X2216Y1073D01*
X0Y1072D02*
X7Y1072D01*
X2209Y1072D02*
X2216Y1072D01*
X0Y1071D02*
X7Y1071D01*
X2209Y1071D02*
X2216Y1071D01*
X0Y1070D02*
X7Y1070D01*
X2209Y1070D02*
X2216Y1070D01*
X0Y1069D02*
X7Y1069D01*
X2209Y1069D02*
X2216Y1069D01*
X0Y1068D02*
X7Y1068D01*
X2209Y1068D02*
X2216Y1068D01*
X0Y1067D02*
X7Y1067D01*
X2209Y1067D02*
X2216Y1067D01*
X0Y1066D02*
X7Y1066D01*
X2209Y1066D02*
X2216Y1066D01*
X0Y1065D02*
X7Y1065D01*
X2209Y1065D02*
X2216Y1065D01*
X0Y1064D02*
X7Y1064D01*
X2209Y1064D02*
X2216Y1064D01*
X0Y1063D02*
X7Y1063D01*
X2209Y1063D02*
X2216Y1063D01*
X0Y1062D02*
X7Y1062D01*
X2209Y1062D02*
X2216Y1062D01*
X0Y1061D02*
X7Y1061D01*
X2209Y1061D02*
X2216Y1061D01*
X0Y1060D02*
X7Y1060D01*
X2209Y1060D02*
X2216Y1060D01*
X0Y1059D02*
X7Y1059D01*
X2209Y1059D02*
X2216Y1059D01*
X0Y1058D02*
X7Y1058D01*
X2209Y1058D02*
X2216Y1058D01*
X0Y1057D02*
X7Y1057D01*
X2209Y1057D02*
X2216Y1057D01*
X0Y1056D02*
X7Y1056D01*
X2209Y1056D02*
X2216Y1056D01*
X0Y1055D02*
X7Y1055D01*
X2209Y1055D02*
X2216Y1055D01*
X0Y1054D02*
X7Y1054D01*
X2209Y1054D02*
X2216Y1054D01*
X0Y1053D02*
X7Y1053D01*
X2209Y1053D02*
X2216Y1053D01*
X0Y1052D02*
X7Y1052D01*
X2209Y1052D02*
X2216Y1052D01*
X0Y1051D02*
X7Y1051D01*
X2209Y1051D02*
X2216Y1051D01*
X0Y1050D02*
X7Y1050D01*
X2209Y1050D02*
X2216Y1050D01*
X0Y1049D02*
X7Y1049D01*
X2209Y1049D02*
X2216Y1049D01*
X0Y1048D02*
X7Y1048D01*
X2209Y1048D02*
X2216Y1048D01*
X0Y1047D02*
X7Y1047D01*
X2209Y1047D02*
X2216Y1047D01*
X0Y1046D02*
X7Y1046D01*
X2209Y1046D02*
X2216Y1046D01*
X0Y1045D02*
X7Y1045D01*
X2209Y1045D02*
X2216Y1045D01*
X0Y1044D02*
X7Y1044D01*
X2209Y1044D02*
X2216Y1044D01*
X0Y1043D02*
X7Y1043D01*
X2209Y1043D02*
X2216Y1043D01*
X0Y1042D02*
X7Y1042D01*
X2209Y1042D02*
X2216Y1042D01*
X0Y1041D02*
X7Y1041D01*
X2209Y1041D02*
X2216Y1041D01*
X0Y1040D02*
X7Y1040D01*
X2209Y1040D02*
X2216Y1040D01*
X0Y1039D02*
X7Y1039D01*
X2209Y1039D02*
X2216Y1039D01*
X0Y1038D02*
X7Y1038D01*
X2209Y1038D02*
X2216Y1038D01*
X0Y1037D02*
X7Y1037D01*
X2209Y1037D02*
X2216Y1037D01*
X0Y1036D02*
X7Y1036D01*
X2209Y1036D02*
X2216Y1036D01*
X0Y1035D02*
X7Y1035D01*
X2209Y1035D02*
X2216Y1035D01*
X0Y1034D02*
X7Y1034D01*
X2209Y1034D02*
X2216Y1034D01*
X0Y1033D02*
X7Y1033D01*
X2209Y1033D02*
X2216Y1033D01*
X0Y1032D02*
X7Y1032D01*
X2209Y1032D02*
X2216Y1032D01*
X0Y1031D02*
X7Y1031D01*
X2209Y1031D02*
X2216Y1031D01*
X0Y1030D02*
X7Y1030D01*
X2209Y1030D02*
X2216Y1030D01*
X0Y1029D02*
X7Y1029D01*
X2209Y1029D02*
X2216Y1029D01*
X0Y1028D02*
X7Y1028D01*
X2209Y1028D02*
X2216Y1028D01*
X0Y1027D02*
X7Y1027D01*
X2209Y1027D02*
X2216Y1027D01*
X0Y1026D02*
X7Y1026D01*
X2209Y1026D02*
X2216Y1026D01*
X0Y1025D02*
X7Y1025D01*
X2209Y1025D02*
X2216Y1025D01*
X0Y1024D02*
X7Y1024D01*
X2209Y1024D02*
X2216Y1024D01*
X0Y1023D02*
X7Y1023D01*
X2209Y1023D02*
X2216Y1023D01*
X0Y1022D02*
X7Y1022D01*
X2209Y1022D02*
X2216Y1022D01*
X0Y1021D02*
X7Y1021D01*
X2209Y1021D02*
X2216Y1021D01*
X0Y1020D02*
X7Y1020D01*
X2209Y1020D02*
X2216Y1020D01*
X0Y1019D02*
X7Y1019D01*
X2209Y1019D02*
X2216Y1019D01*
X0Y1018D02*
X7Y1018D01*
X2209Y1018D02*
X2216Y1018D01*
X0Y1017D02*
X7Y1017D01*
X2209Y1017D02*
X2216Y1017D01*
X0Y1016D02*
X7Y1016D01*
X2209Y1016D02*
X2216Y1016D01*
X0Y1015D02*
X7Y1015D01*
X2209Y1015D02*
X2216Y1015D01*
X0Y1014D02*
X7Y1014D01*
X2209Y1014D02*
X2216Y1014D01*
X0Y1013D02*
X7Y1013D01*
X2209Y1013D02*
X2216Y1013D01*
X0Y1012D02*
X7Y1012D01*
X2209Y1012D02*
X2216Y1012D01*
X0Y1011D02*
X7Y1011D01*
X2209Y1011D02*
X2216Y1011D01*
X0Y1010D02*
X7Y1010D01*
X2209Y1010D02*
X2216Y1010D01*
X0Y1009D02*
X7Y1009D01*
X2209Y1009D02*
X2216Y1009D01*
X0Y1008D02*
X7Y1008D01*
X2209Y1008D02*
X2216Y1008D01*
X0Y1007D02*
X7Y1007D01*
X2209Y1007D02*
X2216Y1007D01*
X0Y1006D02*
X7Y1006D01*
X2209Y1006D02*
X2216Y1006D01*
X0Y1005D02*
X7Y1005D01*
X2209Y1005D02*
X2216Y1005D01*
X0Y1004D02*
X7Y1004D01*
X2209Y1004D02*
X2216Y1004D01*
X0Y1003D02*
X7Y1003D01*
X2209Y1003D02*
X2216Y1003D01*
X0Y1002D02*
X7Y1002D01*
X2209Y1002D02*
X2216Y1002D01*
X0Y1001D02*
X7Y1001D01*
X2209Y1001D02*
X2216Y1001D01*
X0Y1000D02*
X7Y1000D01*
X2209Y1000D02*
X2216Y1000D01*
X0Y999D02*
X7Y999D01*
X2209Y999D02*
X2216Y999D01*
X0Y998D02*
X7Y998D01*
X2209Y998D02*
X2216Y998D01*
X0Y997D02*
X7Y997D01*
X2209Y997D02*
X2216Y997D01*
X0Y996D02*
X7Y996D01*
X2209Y996D02*
X2216Y996D01*
X0Y995D02*
X7Y995D01*
X2209Y995D02*
X2216Y995D01*
X0Y994D02*
X7Y994D01*
X2209Y994D02*
X2216Y994D01*
X0Y993D02*
X7Y993D01*
X2209Y993D02*
X2216Y993D01*
X0Y992D02*
X7Y992D01*
X2209Y992D02*
X2216Y992D01*
X0Y991D02*
X7Y991D01*
X2209Y991D02*
X2216Y991D01*
X0Y990D02*
X7Y990D01*
X2209Y990D02*
X2216Y990D01*
X0Y989D02*
X7Y989D01*
X2209Y989D02*
X2216Y989D01*
X0Y988D02*
X7Y988D01*
X2209Y988D02*
X2216Y988D01*
X0Y987D02*
X7Y987D01*
X2209Y987D02*
X2216Y987D01*
X0Y986D02*
X7Y986D01*
X2209Y986D02*
X2216Y986D01*
X0Y985D02*
X7Y985D01*
X2209Y985D02*
X2216Y985D01*
X0Y984D02*
X7Y984D01*
X2209Y984D02*
X2216Y984D01*
X0Y983D02*
X7Y983D01*
X2209Y983D02*
X2216Y983D01*
X0Y982D02*
X7Y982D01*
X2209Y982D02*
X2216Y982D01*
X0Y981D02*
X7Y981D01*
X2209Y981D02*
X2216Y981D01*
X0Y980D02*
X7Y980D01*
X2209Y980D02*
X2216Y980D01*
X0Y979D02*
X7Y979D01*
X2209Y979D02*
X2216Y979D01*
X0Y978D02*
X7Y978D01*
X2209Y978D02*
X2216Y978D01*
X0Y977D02*
X7Y977D01*
X2209Y977D02*
X2216Y977D01*
X0Y976D02*
X7Y976D01*
X2209Y976D02*
X2216Y976D01*
X0Y975D02*
X7Y975D01*
X2209Y975D02*
X2216Y975D01*
X0Y974D02*
X7Y974D01*
X2209Y974D02*
X2216Y974D01*
X0Y973D02*
X7Y973D01*
X2209Y973D02*
X2216Y973D01*
X0Y972D02*
X7Y972D01*
X2209Y972D02*
X2216Y972D01*
X0Y971D02*
X7Y971D01*
X2209Y971D02*
X2216Y971D01*
X0Y970D02*
X7Y970D01*
X2209Y970D02*
X2216Y970D01*
X0Y969D02*
X7Y969D01*
X2209Y969D02*
X2216Y969D01*
X0Y968D02*
X7Y968D01*
X2209Y968D02*
X2216Y968D01*
X0Y967D02*
X7Y967D01*
X2209Y967D02*
X2216Y967D01*
X0Y966D02*
X7Y966D01*
X2209Y966D02*
X2216Y966D01*
X0Y965D02*
X7Y965D01*
X2209Y965D02*
X2216Y965D01*
X0Y964D02*
X7Y964D01*
X2209Y964D02*
X2216Y964D01*
X0Y963D02*
X7Y963D01*
X2209Y963D02*
X2216Y963D01*
X0Y962D02*
X7Y962D01*
X2209Y962D02*
X2216Y962D01*
X0Y961D02*
X7Y961D01*
X2209Y961D02*
X2216Y961D01*
X0Y960D02*
X7Y960D01*
X2209Y960D02*
X2216Y960D01*
X0Y959D02*
X7Y959D01*
X2209Y959D02*
X2216Y959D01*
X0Y958D02*
X7Y958D01*
X2209Y958D02*
X2216Y958D01*
X0Y957D02*
X7Y957D01*
X2209Y957D02*
X2216Y957D01*
X0Y956D02*
X7Y956D01*
X2209Y956D02*
X2216Y956D01*
X0Y955D02*
X7Y955D01*
X2209Y955D02*
X2216Y955D01*
X0Y954D02*
X7Y954D01*
X2209Y954D02*
X2216Y954D01*
X0Y953D02*
X7Y953D01*
X2209Y953D02*
X2216Y953D01*
X0Y952D02*
X7Y952D01*
X2209Y952D02*
X2216Y952D01*
X0Y951D02*
X7Y951D01*
X2209Y951D02*
X2216Y951D01*
X0Y950D02*
X7Y950D01*
X2209Y950D02*
X2216Y950D01*
X0Y949D02*
X7Y949D01*
X2209Y949D02*
X2216Y949D01*
X0Y948D02*
X7Y948D01*
X2209Y948D02*
X2216Y948D01*
X0Y947D02*
X7Y947D01*
X2209Y947D02*
X2216Y947D01*
X0Y946D02*
X7Y946D01*
X2209Y946D02*
X2216Y946D01*
X0Y945D02*
X7Y945D01*
X2209Y945D02*
X2216Y945D01*
X0Y944D02*
X7Y944D01*
X2209Y944D02*
X2216Y944D01*
X0Y943D02*
X7Y943D01*
X2209Y943D02*
X2216Y943D01*
X0Y942D02*
X7Y942D01*
X2209Y942D02*
X2216Y942D01*
X0Y941D02*
X7Y941D01*
X2209Y941D02*
X2216Y941D01*
X0Y940D02*
X7Y940D01*
X2209Y940D02*
X2216Y940D01*
X0Y939D02*
X7Y939D01*
X2209Y939D02*
X2216Y939D01*
X0Y938D02*
X7Y938D01*
X2209Y938D02*
X2216Y938D01*
X0Y937D02*
X7Y937D01*
X2209Y937D02*
X2216Y937D01*
X0Y936D02*
X7Y936D01*
X2209Y936D02*
X2216Y936D01*
X0Y935D02*
X7Y935D01*
X2209Y935D02*
X2216Y935D01*
X0Y934D02*
X7Y934D01*
X2209Y934D02*
X2216Y934D01*
X0Y933D02*
X7Y933D01*
X2209Y933D02*
X2216Y933D01*
X0Y932D02*
X7Y932D01*
X2209Y932D02*
X2216Y932D01*
X0Y931D02*
X7Y931D01*
X2209Y931D02*
X2216Y931D01*
X0Y930D02*
X7Y930D01*
X2209Y930D02*
X2216Y930D01*
X0Y929D02*
X7Y929D01*
X2209Y929D02*
X2216Y929D01*
X0Y928D02*
X7Y928D01*
X2209Y928D02*
X2216Y928D01*
X0Y927D02*
X7Y927D01*
X2209Y927D02*
X2216Y927D01*
X0Y926D02*
X7Y926D01*
X2209Y926D02*
X2216Y926D01*
X0Y925D02*
X7Y925D01*
X2209Y925D02*
X2216Y925D01*
X0Y924D02*
X7Y924D01*
X2209Y924D02*
X2216Y924D01*
X0Y923D02*
X7Y923D01*
X2209Y923D02*
X2216Y923D01*
X0Y922D02*
X7Y922D01*
X2209Y922D02*
X2216Y922D01*
X0Y921D02*
X7Y921D01*
X2209Y921D02*
X2216Y921D01*
X0Y920D02*
X7Y920D01*
X2209Y920D02*
X2216Y920D01*
X0Y919D02*
X7Y919D01*
X2209Y919D02*
X2216Y919D01*
X0Y918D02*
X7Y918D01*
X2209Y918D02*
X2216Y918D01*
X0Y917D02*
X7Y917D01*
X2209Y917D02*
X2216Y917D01*
X0Y916D02*
X7Y916D01*
X2209Y916D02*
X2216Y916D01*
X0Y915D02*
X7Y915D01*
X2209Y915D02*
X2216Y915D01*
X0Y914D02*
X7Y914D01*
X2209Y914D02*
X2216Y914D01*
X0Y913D02*
X7Y913D01*
X2209Y913D02*
X2216Y913D01*
X0Y912D02*
X7Y912D01*
X2209Y912D02*
X2216Y912D01*
X0Y911D02*
X7Y911D01*
X2209Y911D02*
X2216Y911D01*
X0Y910D02*
X7Y910D01*
X2209Y910D02*
X2216Y910D01*
X0Y909D02*
X7Y909D01*
X2209Y909D02*
X2216Y909D01*
X0Y908D02*
X7Y908D01*
X2209Y908D02*
X2216Y908D01*
X0Y907D02*
X7Y907D01*
X2209Y907D02*
X2216Y907D01*
X0Y906D02*
X7Y906D01*
X2209Y906D02*
X2216Y906D01*
X0Y905D02*
X7Y905D01*
X2209Y905D02*
X2216Y905D01*
X0Y904D02*
X7Y904D01*
X2209Y904D02*
X2216Y904D01*
X0Y903D02*
X7Y903D01*
X2209Y903D02*
X2216Y903D01*
X0Y902D02*
X7Y902D01*
X2209Y902D02*
X2216Y902D01*
X0Y901D02*
X7Y901D01*
X2209Y901D02*
X2216Y901D01*
X0Y900D02*
X7Y900D01*
X2209Y900D02*
X2216Y900D01*
X0Y899D02*
X7Y899D01*
X2209Y899D02*
X2216Y899D01*
X0Y898D02*
X7Y898D01*
X2209Y898D02*
X2216Y898D01*
X0Y897D02*
X7Y897D01*
X2209Y897D02*
X2216Y897D01*
X0Y896D02*
X7Y896D01*
X2209Y896D02*
X2216Y896D01*
X0Y895D02*
X7Y895D01*
X2209Y895D02*
X2216Y895D01*
X0Y894D02*
X7Y894D01*
X2209Y894D02*
X2216Y894D01*
X0Y893D02*
X7Y893D01*
X2209Y893D02*
X2216Y893D01*
X0Y892D02*
X7Y892D01*
X2209Y892D02*
X2216Y892D01*
X0Y891D02*
X7Y891D01*
X2209Y891D02*
X2216Y891D01*
X0Y890D02*
X7Y890D01*
X2209Y890D02*
X2216Y890D01*
X0Y889D02*
X7Y889D01*
X2209Y889D02*
X2216Y889D01*
X0Y888D02*
X7Y888D01*
X2209Y888D02*
X2216Y888D01*
X0Y887D02*
X7Y887D01*
X2209Y887D02*
X2216Y887D01*
X0Y886D02*
X7Y886D01*
X2209Y886D02*
X2216Y886D01*
X0Y885D02*
X7Y885D01*
X2209Y885D02*
X2216Y885D01*
X0Y884D02*
X7Y884D01*
X2209Y884D02*
X2216Y884D01*
X0Y883D02*
X7Y883D01*
X478Y883D02*
X1264Y883D01*
X2209Y883D02*
X2216Y883D01*
X0Y882D02*
X7Y882D01*
X478Y882D02*
X1264Y882D01*
X2209Y882D02*
X2216Y882D01*
X0Y881D02*
X7Y881D01*
X478Y881D02*
X1264Y881D01*
X2209Y881D02*
X2216Y881D01*
X0Y880D02*
X7Y880D01*
X478Y880D02*
X1264Y880D01*
X2209Y880D02*
X2216Y880D01*
X0Y879D02*
X7Y879D01*
X478Y879D02*
X1264Y879D01*
X2209Y879D02*
X2216Y879D01*
X0Y878D02*
X7Y878D01*
X478Y878D02*
X1264Y878D01*
X2209Y878D02*
X2216Y878D01*
X0Y877D02*
X7Y877D01*
X478Y877D02*
X1264Y877D01*
X2209Y877D02*
X2216Y877D01*
X0Y876D02*
X7Y876D01*
X478Y876D02*
X1264Y876D01*
X2209Y876D02*
X2216Y876D01*
X0Y875D02*
X7Y875D01*
X478Y875D02*
X569Y875D01*
X574Y875D02*
X669Y875D01*
X674Y875D02*
X769Y875D01*
X774Y875D02*
X869Y875D01*
X874Y875D02*
X969Y875D01*
X974Y875D02*
X1069Y875D01*
X1074Y875D02*
X1169Y875D01*
X1174Y875D02*
X1264Y875D01*
X2209Y875D02*
X2216Y875D01*
X0Y874D02*
X7Y874D01*
X478Y874D02*
X562Y874D01*
X582Y874D02*
X662Y874D01*
X682Y874D02*
X762Y874D01*
X782Y874D02*
X862Y874D01*
X882Y874D02*
X962Y874D01*
X982Y874D02*
X1062Y874D01*
X1082Y874D02*
X1162Y874D01*
X1182Y874D02*
X1264Y874D01*
X2209Y874D02*
X2216Y874D01*
X0Y873D02*
X7Y873D01*
X2209Y873D02*
X2216Y873D01*
X0Y872D02*
X7Y872D01*
X2209Y872D02*
X2216Y872D01*
X0Y871D02*
X7Y871D01*
X2209Y871D02*
X2216Y871D01*
X0Y870D02*
X7Y870D01*
X2209Y870D02*
X2216Y870D01*
X0Y869D02*
X7Y869D01*
X2209Y869D02*
X2216Y869D01*
X0Y868D02*
X7Y868D01*
X2209Y868D02*
X2216Y868D01*
X0Y867D02*
X7Y867D01*
X2209Y867D02*
X2216Y867D01*
X0Y866D02*
X7Y866D01*
X2209Y866D02*
X2216Y866D01*
X0Y865D02*
X7Y865D01*
X2209Y865D02*
X2216Y865D01*
X0Y864D02*
X7Y864D01*
X2209Y864D02*
X2216Y864D01*
X0Y863D02*
X7Y863D01*
X2209Y863D02*
X2216Y863D01*
X0Y862D02*
X7Y862D01*
X2209Y862D02*
X2216Y862D01*
X0Y861D02*
X7Y861D01*
X2209Y861D02*
X2216Y861D01*
X0Y860D02*
X7Y860D01*
X2209Y860D02*
X2216Y860D01*
X0Y859D02*
X7Y859D01*
X2209Y859D02*
X2216Y859D01*
X0Y858D02*
X7Y858D01*
X2209Y858D02*
X2216Y858D01*
X0Y857D02*
X7Y857D01*
X2209Y857D02*
X2216Y857D01*
X0Y856D02*
X7Y856D01*
X2209Y856D02*
X2216Y856D01*
X0Y855D02*
X7Y855D01*
X2209Y855D02*
X2216Y855D01*
X0Y854D02*
X7Y854D01*
X2209Y854D02*
X2216Y854D01*
X0Y853D02*
X7Y853D01*
X2209Y853D02*
X2216Y853D01*
X0Y852D02*
X7Y852D01*
X2209Y852D02*
X2216Y852D01*
X0Y851D02*
X7Y851D01*
X2209Y851D02*
X2216Y851D01*
X0Y850D02*
X7Y850D01*
X2209Y850D02*
X2216Y850D01*
X0Y849D02*
X7Y849D01*
X2209Y849D02*
X2216Y849D01*
X0Y848D02*
X7Y848D01*
X2209Y848D02*
X2216Y848D01*
X0Y847D02*
X7Y847D01*
X2209Y847D02*
X2216Y847D01*
X0Y846D02*
X7Y846D01*
X2209Y846D02*
X2216Y846D01*
X0Y845D02*
X7Y845D01*
X2209Y845D02*
X2216Y845D01*
X0Y844D02*
X7Y844D01*
X2209Y844D02*
X2216Y844D01*
X0Y843D02*
X7Y843D01*
X2209Y843D02*
X2216Y843D01*
X0Y842D02*
X7Y842D01*
X2209Y842D02*
X2216Y842D01*
X0Y841D02*
X7Y841D01*
X2209Y841D02*
X2216Y841D01*
X0Y840D02*
X7Y840D01*
X2209Y840D02*
X2216Y840D01*
X0Y839D02*
X7Y839D01*
X2209Y839D02*
X2216Y839D01*
X0Y838D02*
X7Y838D01*
X2209Y838D02*
X2216Y838D01*
X0Y837D02*
X7Y837D01*
X2209Y837D02*
X2216Y837D01*
X0Y836D02*
X7Y836D01*
X2209Y836D02*
X2216Y836D01*
X0Y835D02*
X7Y835D01*
X2209Y835D02*
X2216Y835D01*
X0Y834D02*
X7Y834D01*
X2209Y834D02*
X2216Y834D01*
X0Y833D02*
X7Y833D01*
X2209Y833D02*
X2216Y833D01*
X0Y832D02*
X7Y832D01*
X2209Y832D02*
X2216Y832D01*
X0Y831D02*
X7Y831D01*
X2209Y831D02*
X2216Y831D01*
X0Y830D02*
X7Y830D01*
X2209Y830D02*
X2216Y830D01*
X0Y829D02*
X7Y829D01*
X2209Y829D02*
X2216Y829D01*
X0Y828D02*
X7Y828D01*
X2209Y828D02*
X2216Y828D01*
X0Y827D02*
X7Y827D01*
X2209Y827D02*
X2216Y827D01*
X0Y826D02*
X7Y826D01*
X2209Y826D02*
X2216Y826D01*
X0Y825D02*
X7Y825D01*
X2209Y825D02*
X2216Y825D01*
X0Y824D02*
X7Y824D01*
X2209Y824D02*
X2216Y824D01*
X0Y823D02*
X7Y823D01*
X2209Y823D02*
X2216Y823D01*
X0Y822D02*
X7Y822D01*
X2209Y822D02*
X2216Y822D01*
X0Y821D02*
X7Y821D01*
X2209Y821D02*
X2216Y821D01*
X0Y820D02*
X7Y820D01*
X2209Y820D02*
X2216Y820D01*
X0Y819D02*
X7Y819D01*
X2209Y819D02*
X2216Y819D01*
X0Y818D02*
X7Y818D01*
X2209Y818D02*
X2216Y818D01*
X0Y817D02*
X7Y817D01*
X2209Y817D02*
X2216Y817D01*
X0Y816D02*
X7Y816D01*
X2209Y816D02*
X2216Y816D01*
X0Y815D02*
X7Y815D01*
X2209Y815D02*
X2216Y815D01*
X0Y814D02*
X7Y814D01*
X2209Y814D02*
X2216Y814D01*
X0Y813D02*
X7Y813D01*
X2209Y813D02*
X2216Y813D01*
X0Y812D02*
X7Y812D01*
X2209Y812D02*
X2216Y812D01*
X0Y811D02*
X7Y811D01*
X2209Y811D02*
X2216Y811D01*
X0Y810D02*
X7Y810D01*
X2209Y810D02*
X2216Y810D01*
X0Y809D02*
X7Y809D01*
X2209Y809D02*
X2216Y809D01*
X0Y808D02*
X7Y808D01*
X2209Y808D02*
X2216Y808D01*
X0Y807D02*
X7Y807D01*
X2209Y807D02*
X2216Y807D01*
X0Y806D02*
X7Y806D01*
X2209Y806D02*
X2216Y806D01*
X0Y805D02*
X7Y805D01*
X2209Y805D02*
X2216Y805D01*
X0Y804D02*
X7Y804D01*
X2209Y804D02*
X2216Y804D01*
X0Y803D02*
X7Y803D01*
X2209Y803D02*
X2216Y803D01*
X0Y802D02*
X7Y802D01*
X2209Y802D02*
X2216Y802D01*
X0Y801D02*
X7Y801D01*
X2209Y801D02*
X2216Y801D01*
X0Y800D02*
X7Y800D01*
X2209Y800D02*
X2216Y800D01*
X0Y799D02*
X7Y799D01*
X2209Y799D02*
X2216Y799D01*
X0Y798D02*
X7Y798D01*
X2209Y798D02*
X2216Y798D01*
X0Y797D02*
X7Y797D01*
X2209Y797D02*
X2216Y797D01*
X0Y796D02*
X7Y796D01*
X2209Y796D02*
X2216Y796D01*
X0Y795D02*
X7Y795D01*
X2209Y795D02*
X2216Y795D01*
X0Y794D02*
X7Y794D01*
X2209Y794D02*
X2216Y794D01*
X0Y793D02*
X7Y793D01*
X2209Y793D02*
X2216Y793D01*
X0Y792D02*
X7Y792D01*
X2209Y792D02*
X2216Y792D01*
X0Y791D02*
X7Y791D01*
X2209Y791D02*
X2216Y791D01*
X0Y790D02*
X7Y790D01*
X2209Y790D02*
X2216Y790D01*
X0Y789D02*
X7Y789D01*
X2209Y789D02*
X2216Y789D01*
X0Y788D02*
X7Y788D01*
X2209Y788D02*
X2216Y788D01*
X0Y787D02*
X7Y787D01*
X2209Y787D02*
X2216Y787D01*
X0Y786D02*
X7Y786D01*
X2209Y786D02*
X2216Y786D01*
X0Y785D02*
X7Y785D01*
X2209Y785D02*
X2216Y785D01*
X0Y784D02*
X7Y784D01*
X2209Y784D02*
X2216Y784D01*
X0Y783D02*
X7Y783D01*
X2209Y783D02*
X2216Y783D01*
X0Y782D02*
X7Y782D01*
X2209Y782D02*
X2216Y782D01*
X0Y781D02*
X7Y781D01*
X2209Y781D02*
X2216Y781D01*
X0Y780D02*
X7Y780D01*
X2209Y780D02*
X2216Y780D01*
X0Y779D02*
X7Y779D01*
X2209Y779D02*
X2216Y779D01*
X0Y778D02*
X7Y778D01*
X2209Y778D02*
X2216Y778D01*
X0Y777D02*
X7Y777D01*
X2209Y777D02*
X2216Y777D01*
X0Y776D02*
X7Y776D01*
X2209Y776D02*
X2216Y776D01*
X0Y775D02*
X7Y775D01*
X2209Y775D02*
X2216Y775D01*
X0Y774D02*
X7Y774D01*
X2209Y774D02*
X2216Y774D01*
X0Y773D02*
X7Y773D01*
X2209Y773D02*
X2216Y773D01*
X0Y772D02*
X7Y772D01*
X2209Y772D02*
X2216Y772D01*
X0Y771D02*
X7Y771D01*
X2209Y771D02*
X2216Y771D01*
X0Y770D02*
X7Y770D01*
X2209Y770D02*
X2216Y770D01*
X0Y769D02*
X7Y769D01*
X2209Y769D02*
X2216Y769D01*
X0Y768D02*
X7Y768D01*
X2209Y768D02*
X2216Y768D01*
X0Y767D02*
X7Y767D01*
X2209Y767D02*
X2216Y767D01*
X0Y766D02*
X7Y766D01*
X2209Y766D02*
X2216Y766D01*
X0Y765D02*
X7Y765D01*
X2209Y765D02*
X2216Y765D01*
X0Y764D02*
X7Y764D01*
X2209Y764D02*
X2216Y764D01*
X0Y763D02*
X7Y763D01*
X2209Y763D02*
X2216Y763D01*
X0Y762D02*
X7Y762D01*
X2209Y762D02*
X2216Y762D01*
X0Y761D02*
X7Y761D01*
X2209Y761D02*
X2216Y761D01*
X0Y760D02*
X7Y760D01*
X2209Y760D02*
X2216Y760D01*
X0Y759D02*
X7Y759D01*
X2209Y759D02*
X2216Y759D01*
X0Y758D02*
X7Y758D01*
X2209Y758D02*
X2216Y758D01*
X0Y757D02*
X7Y757D01*
X2209Y757D02*
X2216Y757D01*
X0Y756D02*
X7Y756D01*
X2209Y756D02*
X2216Y756D01*
X0Y755D02*
X7Y755D01*
X2209Y755D02*
X2216Y755D01*
X0Y754D02*
X7Y754D01*
X2209Y754D02*
X2216Y754D01*
X0Y753D02*
X7Y753D01*
X2209Y753D02*
X2216Y753D01*
X0Y752D02*
X7Y752D01*
X2209Y752D02*
X2216Y752D01*
X0Y751D02*
X7Y751D01*
X2209Y751D02*
X2216Y751D01*
X0Y750D02*
X7Y750D01*
X2209Y750D02*
X2216Y750D01*
X0Y749D02*
X7Y749D01*
X2209Y749D02*
X2216Y749D01*
X0Y748D02*
X7Y748D01*
X2209Y748D02*
X2216Y748D01*
X0Y747D02*
X7Y747D01*
X2209Y747D02*
X2216Y747D01*
X0Y746D02*
X7Y746D01*
X2209Y746D02*
X2216Y746D01*
X0Y745D02*
X7Y745D01*
X2209Y745D02*
X2216Y745D01*
X0Y744D02*
X7Y744D01*
X2209Y744D02*
X2216Y744D01*
X0Y743D02*
X7Y743D01*
X2209Y743D02*
X2216Y743D01*
X0Y742D02*
X7Y742D01*
X2209Y742D02*
X2216Y742D01*
X0Y741D02*
X7Y741D01*
X2209Y741D02*
X2216Y741D01*
X0Y740D02*
X7Y740D01*
X2209Y740D02*
X2216Y740D01*
X0Y739D02*
X7Y739D01*
X2209Y739D02*
X2216Y739D01*
X0Y738D02*
X7Y738D01*
X2209Y738D02*
X2216Y738D01*
X0Y737D02*
X7Y737D01*
X2209Y737D02*
X2216Y737D01*
X0Y736D02*
X7Y736D01*
X2209Y736D02*
X2216Y736D01*
X0Y735D02*
X7Y735D01*
X2209Y735D02*
X2216Y735D01*
X0Y734D02*
X7Y734D01*
X2209Y734D02*
X2216Y734D01*
X0Y733D02*
X7Y733D01*
X2209Y733D02*
X2216Y733D01*
X0Y732D02*
X7Y732D01*
X2209Y732D02*
X2216Y732D01*
X0Y731D02*
X7Y731D01*
X2209Y731D02*
X2216Y731D01*
X0Y730D02*
X7Y730D01*
X2209Y730D02*
X2216Y730D01*
X0Y729D02*
X7Y729D01*
X2209Y729D02*
X2216Y729D01*
X0Y728D02*
X7Y728D01*
X2209Y728D02*
X2216Y728D01*
X0Y727D02*
X7Y727D01*
X2209Y727D02*
X2216Y727D01*
X0Y726D02*
X7Y726D01*
X2209Y726D02*
X2216Y726D01*
X0Y725D02*
X7Y725D01*
X2209Y725D02*
X2216Y725D01*
X0Y724D02*
X7Y724D01*
X2209Y724D02*
X2216Y724D01*
X0Y723D02*
X7Y723D01*
X2209Y723D02*
X2216Y723D01*
X0Y722D02*
X7Y722D01*
X2209Y722D02*
X2216Y722D01*
X0Y721D02*
X7Y721D01*
X2209Y721D02*
X2216Y721D01*
X0Y720D02*
X7Y720D01*
X2209Y720D02*
X2216Y720D01*
X0Y719D02*
X7Y719D01*
X2209Y719D02*
X2216Y719D01*
X0Y718D02*
X7Y718D01*
X2209Y718D02*
X2216Y718D01*
X0Y717D02*
X7Y717D01*
X2209Y717D02*
X2216Y717D01*
X0Y716D02*
X7Y716D01*
X2209Y716D02*
X2216Y716D01*
X0Y715D02*
X7Y715D01*
X2209Y715D02*
X2216Y715D01*
X0Y714D02*
X7Y714D01*
X2209Y714D02*
X2216Y714D01*
X0Y713D02*
X7Y713D01*
X2209Y713D02*
X2216Y713D01*
X0Y712D02*
X7Y712D01*
X2209Y712D02*
X2216Y712D01*
X0Y711D02*
X7Y711D01*
X2209Y711D02*
X2216Y711D01*
X0Y710D02*
X7Y710D01*
X2209Y710D02*
X2216Y710D01*
X0Y709D02*
X7Y709D01*
X2209Y709D02*
X2216Y709D01*
X0Y708D02*
X7Y708D01*
X2209Y708D02*
X2216Y708D01*
X0Y707D02*
X7Y707D01*
X2209Y707D02*
X2216Y707D01*
X0Y706D02*
X7Y706D01*
X2209Y706D02*
X2216Y706D01*
X0Y705D02*
X7Y705D01*
X2209Y705D02*
X2216Y705D01*
X0Y704D02*
X7Y704D01*
X2209Y704D02*
X2216Y704D01*
X0Y703D02*
X7Y703D01*
X2209Y703D02*
X2216Y703D01*
X0Y702D02*
X7Y702D01*
X2209Y702D02*
X2216Y702D01*
X0Y701D02*
X7Y701D01*
X2209Y701D02*
X2216Y701D01*
X0Y700D02*
X7Y700D01*
X2209Y700D02*
X2216Y700D01*
X0Y699D02*
X7Y699D01*
X2209Y699D02*
X2216Y699D01*
X0Y698D02*
X7Y698D01*
X2209Y698D02*
X2216Y698D01*
X0Y697D02*
X7Y697D01*
X2209Y697D02*
X2216Y697D01*
X0Y696D02*
X7Y696D01*
X2209Y696D02*
X2216Y696D01*
X0Y695D02*
X7Y695D01*
X2209Y695D02*
X2216Y695D01*
X0Y694D02*
X7Y694D01*
X2209Y694D02*
X2216Y694D01*
X0Y693D02*
X7Y693D01*
X2209Y693D02*
X2216Y693D01*
X0Y692D02*
X7Y692D01*
X2209Y692D02*
X2216Y692D01*
X0Y691D02*
X7Y691D01*
X2209Y691D02*
X2216Y691D01*
X0Y690D02*
X7Y690D01*
X2209Y690D02*
X2216Y690D01*
X0Y689D02*
X7Y689D01*
X2209Y689D02*
X2216Y689D01*
X0Y688D02*
X7Y688D01*
X2209Y688D02*
X2216Y688D01*
X0Y687D02*
X7Y687D01*
X2209Y687D02*
X2216Y687D01*
X0Y686D02*
X7Y686D01*
X2209Y686D02*
X2216Y686D01*
X0Y685D02*
X7Y685D01*
X2209Y685D02*
X2216Y685D01*
X0Y684D02*
X7Y684D01*
X2209Y684D02*
X2216Y684D01*
X0Y683D02*
X7Y683D01*
X2209Y683D02*
X2216Y683D01*
X0Y682D02*
X7Y682D01*
X2209Y682D02*
X2216Y682D01*
X0Y681D02*
X7Y681D01*
X2209Y681D02*
X2216Y681D01*
X0Y680D02*
X7Y680D01*
X2209Y680D02*
X2216Y680D01*
X0Y679D02*
X7Y679D01*
X2209Y679D02*
X2216Y679D01*
X0Y678D02*
X7Y678D01*
X2209Y678D02*
X2216Y678D01*
X0Y677D02*
X7Y677D01*
X2209Y677D02*
X2216Y677D01*
X0Y676D02*
X7Y676D01*
X2209Y676D02*
X2216Y676D01*
X0Y675D02*
X7Y675D01*
X2209Y675D02*
X2216Y675D01*
X0Y674D02*
X7Y674D01*
X2209Y674D02*
X2216Y674D01*
X0Y673D02*
X7Y673D01*
X2209Y673D02*
X2216Y673D01*
X0Y672D02*
X7Y672D01*
X2209Y672D02*
X2216Y672D01*
X0Y671D02*
X7Y671D01*
X2209Y671D02*
X2216Y671D01*
X0Y670D02*
X7Y670D01*
X2209Y670D02*
X2216Y670D01*
X0Y669D02*
X7Y669D01*
X2209Y669D02*
X2216Y669D01*
X0Y668D02*
X7Y668D01*
X2209Y668D02*
X2216Y668D01*
X0Y667D02*
X7Y667D01*
X2209Y667D02*
X2216Y667D01*
X0Y666D02*
X7Y666D01*
X2209Y666D02*
X2216Y666D01*
X0Y665D02*
X7Y665D01*
X2209Y665D02*
X2216Y665D01*
X0Y664D02*
X7Y664D01*
X2209Y664D02*
X2216Y664D01*
X0Y663D02*
X7Y663D01*
X2209Y663D02*
X2216Y663D01*
X0Y662D02*
X7Y662D01*
X2209Y662D02*
X2216Y662D01*
X0Y661D02*
X7Y661D01*
X2209Y661D02*
X2216Y661D01*
X0Y660D02*
X7Y660D01*
X2209Y660D02*
X2216Y660D01*
X0Y659D02*
X7Y659D01*
X2209Y659D02*
X2216Y659D01*
X0Y658D02*
X7Y658D01*
X2209Y658D02*
X2216Y658D01*
X0Y657D02*
X7Y657D01*
X2209Y657D02*
X2216Y657D01*
X0Y656D02*
X7Y656D01*
X2209Y656D02*
X2216Y656D01*
X0Y655D02*
X7Y655D01*
X2209Y655D02*
X2216Y655D01*
X0Y654D02*
X7Y654D01*
X2209Y654D02*
X2216Y654D01*
X0Y653D02*
X7Y653D01*
X2209Y653D02*
X2216Y653D01*
X0Y652D02*
X7Y652D01*
X2209Y652D02*
X2216Y652D01*
X0Y651D02*
X7Y651D01*
X2209Y651D02*
X2216Y651D01*
X0Y650D02*
X7Y650D01*
X2209Y650D02*
X2216Y650D01*
X0Y649D02*
X7Y649D01*
X2209Y649D02*
X2216Y649D01*
X0Y648D02*
X7Y648D01*
X2209Y648D02*
X2216Y648D01*
X0Y647D02*
X7Y647D01*
X2209Y647D02*
X2216Y647D01*
X0Y646D02*
X7Y646D01*
X2209Y646D02*
X2216Y646D01*
X0Y645D02*
X7Y645D01*
X2209Y645D02*
X2216Y645D01*
X0Y644D02*
X7Y644D01*
X2209Y644D02*
X2216Y644D01*
X0Y643D02*
X7Y643D01*
X2209Y643D02*
X2216Y643D01*
X0Y642D02*
X7Y642D01*
X2209Y642D02*
X2216Y642D01*
X0Y641D02*
X7Y641D01*
X2209Y641D02*
X2216Y641D01*
X0Y640D02*
X7Y640D01*
X2209Y640D02*
X2216Y640D01*
X0Y639D02*
X7Y639D01*
X2209Y639D02*
X2216Y639D01*
X0Y638D02*
X7Y638D01*
X2209Y638D02*
X2216Y638D01*
X0Y637D02*
X7Y637D01*
X2209Y637D02*
X2216Y637D01*
X0Y636D02*
X7Y636D01*
X2209Y636D02*
X2216Y636D01*
X0Y635D02*
X7Y635D01*
X2209Y635D02*
X2216Y635D01*
X0Y634D02*
X7Y634D01*
X2209Y634D02*
X2216Y634D01*
X0Y633D02*
X7Y633D01*
X2209Y633D02*
X2216Y633D01*
X0Y632D02*
X7Y632D01*
X2209Y632D02*
X2216Y632D01*
X0Y631D02*
X7Y631D01*
X2209Y631D02*
X2216Y631D01*
X0Y630D02*
X7Y630D01*
X2209Y630D02*
X2216Y630D01*
X0Y629D02*
X7Y629D01*
X2209Y629D02*
X2216Y629D01*
X0Y628D02*
X7Y628D01*
X2209Y628D02*
X2216Y628D01*
X0Y627D02*
X7Y627D01*
X2209Y627D02*
X2216Y627D01*
X0Y626D02*
X7Y626D01*
X2209Y626D02*
X2216Y626D01*
X0Y625D02*
X7Y625D01*
X2209Y625D02*
X2216Y625D01*
X0Y624D02*
X7Y624D01*
X2209Y624D02*
X2216Y624D01*
X0Y623D02*
X7Y623D01*
X2209Y623D02*
X2216Y623D01*
X0Y622D02*
X7Y622D01*
X2209Y622D02*
X2216Y622D01*
X0Y621D02*
X7Y621D01*
X2209Y621D02*
X2216Y621D01*
X0Y620D02*
X7Y620D01*
X2209Y620D02*
X2216Y620D01*
X0Y619D02*
X7Y619D01*
X2209Y619D02*
X2216Y619D01*
X0Y618D02*
X7Y618D01*
X2209Y618D02*
X2216Y618D01*
X0Y617D02*
X7Y617D01*
X2209Y617D02*
X2216Y617D01*
X0Y616D02*
X7Y616D01*
X2209Y616D02*
X2216Y616D01*
X0Y615D02*
X7Y615D01*
X2209Y615D02*
X2216Y615D01*
X0Y614D02*
X7Y614D01*
X2209Y614D02*
X2216Y614D01*
X0Y613D02*
X7Y613D01*
X2209Y613D02*
X2216Y613D01*
X0Y612D02*
X7Y612D01*
X2209Y612D02*
X2216Y612D01*
X0Y611D02*
X7Y611D01*
X2209Y611D02*
X2216Y611D01*
X0Y610D02*
X7Y610D01*
X2209Y610D02*
X2216Y610D01*
X0Y609D02*
X7Y609D01*
X2209Y609D02*
X2216Y609D01*
X0Y608D02*
X7Y608D01*
X2209Y608D02*
X2216Y608D01*
X0Y607D02*
X7Y607D01*
X2209Y607D02*
X2216Y607D01*
X0Y606D02*
X7Y606D01*
X2209Y606D02*
X2216Y606D01*
X0Y605D02*
X7Y605D01*
X2209Y605D02*
X2216Y605D01*
X0Y604D02*
X7Y604D01*
X2209Y604D02*
X2216Y604D01*
X0Y603D02*
X7Y603D01*
X2209Y603D02*
X2216Y603D01*
X0Y602D02*
X7Y602D01*
X2209Y602D02*
X2216Y602D01*
X0Y601D02*
X7Y601D01*
X2209Y601D02*
X2216Y601D01*
X0Y600D02*
X7Y600D01*
X2209Y600D02*
X2216Y600D01*
X0Y599D02*
X7Y599D01*
X2209Y599D02*
X2216Y599D01*
X0Y598D02*
X7Y598D01*
X2209Y598D02*
X2216Y598D01*
X0Y597D02*
X7Y597D01*
X2209Y597D02*
X2216Y597D01*
X0Y596D02*
X7Y596D01*
X2209Y596D02*
X2216Y596D01*
X0Y595D02*
X7Y595D01*
X2209Y595D02*
X2216Y595D01*
X0Y594D02*
X7Y594D01*
X2209Y594D02*
X2216Y594D01*
X0Y593D02*
X7Y593D01*
X2209Y593D02*
X2216Y593D01*
X0Y592D02*
X7Y592D01*
X2209Y592D02*
X2216Y592D01*
X0Y591D02*
X7Y591D01*
X2209Y591D02*
X2216Y591D01*
X0Y590D02*
X7Y590D01*
X2209Y590D02*
X2216Y590D01*
X0Y589D02*
X7Y589D01*
X2209Y589D02*
X2216Y589D01*
X0Y588D02*
X7Y588D01*
X2209Y588D02*
X2216Y588D01*
X0Y587D02*
X7Y587D01*
X2209Y587D02*
X2216Y587D01*
X0Y586D02*
X7Y586D01*
X2209Y586D02*
X2216Y586D01*
X0Y585D02*
X7Y585D01*
X2209Y585D02*
X2216Y585D01*
X0Y584D02*
X7Y584D01*
X2209Y584D02*
X2216Y584D01*
X0Y583D02*
X7Y583D01*
X2209Y583D02*
X2216Y583D01*
X0Y582D02*
X7Y582D01*
X2209Y582D02*
X2216Y582D01*
X0Y581D02*
X7Y581D01*
X2209Y581D02*
X2216Y581D01*
X0Y580D02*
X7Y580D01*
X2209Y580D02*
X2216Y580D01*
X0Y579D02*
X7Y579D01*
X2209Y579D02*
X2216Y579D01*
X0Y578D02*
X7Y578D01*
X2209Y578D02*
X2216Y578D01*
X0Y577D02*
X7Y577D01*
X2209Y577D02*
X2216Y577D01*
X0Y576D02*
X7Y576D01*
X2209Y576D02*
X2216Y576D01*
X0Y575D02*
X7Y575D01*
X2209Y575D02*
X2216Y575D01*
X0Y574D02*
X7Y574D01*
X2209Y574D02*
X2216Y574D01*
X0Y573D02*
X7Y573D01*
X2209Y573D02*
X2216Y573D01*
X0Y572D02*
X7Y572D01*
X2209Y572D02*
X2216Y572D01*
X0Y571D02*
X7Y571D01*
X2209Y571D02*
X2216Y571D01*
X0Y570D02*
X7Y570D01*
X2209Y570D02*
X2216Y570D01*
X0Y569D02*
X7Y569D01*
X2209Y569D02*
X2216Y569D01*
X0Y568D02*
X7Y568D01*
X2209Y568D02*
X2216Y568D01*
X0Y567D02*
X7Y567D01*
X2209Y567D02*
X2216Y567D01*
X0Y566D02*
X7Y566D01*
X2209Y566D02*
X2216Y566D01*
X0Y565D02*
X7Y565D01*
X2209Y565D02*
X2216Y565D01*
X0Y564D02*
X7Y564D01*
X2209Y564D02*
X2216Y564D01*
X0Y563D02*
X7Y563D01*
X2209Y563D02*
X2216Y563D01*
X0Y562D02*
X7Y562D01*
X2209Y562D02*
X2216Y562D01*
X0Y561D02*
X7Y561D01*
X2209Y561D02*
X2216Y561D01*
X0Y560D02*
X7Y560D01*
X2209Y560D02*
X2216Y560D01*
X0Y559D02*
X7Y559D01*
X2209Y559D02*
X2216Y559D01*
X0Y558D02*
X7Y558D01*
X2209Y558D02*
X2216Y558D01*
X0Y557D02*
X7Y557D01*
X2209Y557D02*
X2216Y557D01*
X0Y556D02*
X7Y556D01*
X2209Y556D02*
X2216Y556D01*
X0Y555D02*
X7Y555D01*
X2209Y555D02*
X2216Y555D01*
X0Y554D02*
X7Y554D01*
X2209Y554D02*
X2216Y554D01*
X0Y553D02*
X7Y553D01*
X2209Y553D02*
X2216Y553D01*
X0Y552D02*
X7Y552D01*
X2209Y552D02*
X2216Y552D01*
X0Y551D02*
X7Y551D01*
X2209Y551D02*
X2216Y551D01*
X0Y550D02*
X7Y550D01*
X2209Y550D02*
X2216Y550D01*
X0Y549D02*
X7Y549D01*
X2209Y549D02*
X2216Y549D01*
X0Y548D02*
X7Y548D01*
X2209Y548D02*
X2216Y548D01*
X0Y547D02*
X7Y547D01*
X2209Y547D02*
X2216Y547D01*
X0Y546D02*
X7Y546D01*
X2209Y546D02*
X2216Y546D01*
X0Y545D02*
X7Y545D01*
X2209Y545D02*
X2216Y545D01*
X0Y544D02*
X7Y544D01*
X2209Y544D02*
X2216Y544D01*
X0Y543D02*
X7Y543D01*
X2209Y543D02*
X2216Y543D01*
X0Y542D02*
X7Y542D01*
X2209Y542D02*
X2216Y542D01*
X0Y541D02*
X7Y541D01*
X2209Y541D02*
X2216Y541D01*
X0Y540D02*
X7Y540D01*
X2209Y540D02*
X2216Y540D01*
X0Y539D02*
X7Y539D01*
X2209Y539D02*
X2216Y539D01*
X0Y538D02*
X7Y538D01*
X2209Y538D02*
X2216Y538D01*
X0Y537D02*
X7Y537D01*
X2209Y537D02*
X2216Y537D01*
X0Y536D02*
X7Y536D01*
X2209Y536D02*
X2216Y536D01*
X0Y535D02*
X7Y535D01*
X2209Y535D02*
X2216Y535D01*
X0Y534D02*
X7Y534D01*
X2209Y534D02*
X2216Y534D01*
X0Y533D02*
X7Y533D01*
X2209Y533D02*
X2216Y533D01*
X0Y532D02*
X7Y532D01*
X2209Y532D02*
X2216Y532D01*
X0Y531D02*
X7Y531D01*
X2209Y531D02*
X2216Y531D01*
X0Y530D02*
X7Y530D01*
X2209Y530D02*
X2216Y530D01*
X0Y529D02*
X7Y529D01*
X2209Y529D02*
X2216Y529D01*
X0Y528D02*
X7Y528D01*
X2209Y528D02*
X2216Y528D01*
X0Y527D02*
X7Y527D01*
X2209Y527D02*
X2216Y527D01*
X0Y526D02*
X7Y526D01*
X2209Y526D02*
X2216Y526D01*
X0Y525D02*
X7Y525D01*
X2209Y525D02*
X2216Y525D01*
X0Y524D02*
X7Y524D01*
X2209Y524D02*
X2216Y524D01*
X0Y523D02*
X7Y523D01*
X2209Y523D02*
X2216Y523D01*
X0Y522D02*
X7Y522D01*
X2209Y522D02*
X2216Y522D01*
X0Y521D02*
X7Y521D01*
X2209Y521D02*
X2216Y521D01*
X0Y520D02*
X7Y520D01*
X2209Y520D02*
X2216Y520D01*
X0Y519D02*
X7Y519D01*
X2209Y519D02*
X2216Y519D01*
X0Y518D02*
X7Y518D01*
X2209Y518D02*
X2216Y518D01*
X0Y517D02*
X7Y517D01*
X2209Y517D02*
X2216Y517D01*
X0Y516D02*
X7Y516D01*
X2209Y516D02*
X2216Y516D01*
X0Y515D02*
X7Y515D01*
X2209Y515D02*
X2216Y515D01*
X0Y514D02*
X7Y514D01*
X2209Y514D02*
X2216Y514D01*
X0Y513D02*
X7Y513D01*
X2209Y513D02*
X2216Y513D01*
X0Y512D02*
X7Y512D01*
X2209Y512D02*
X2216Y512D01*
X0Y511D02*
X7Y511D01*
X2209Y511D02*
X2216Y511D01*
X0Y510D02*
X7Y510D01*
X2209Y510D02*
X2216Y510D01*
X0Y509D02*
X7Y509D01*
X2209Y509D02*
X2216Y509D01*
X0Y508D02*
X7Y508D01*
X2209Y508D02*
X2216Y508D01*
X0Y507D02*
X7Y507D01*
X2209Y507D02*
X2216Y507D01*
X0Y506D02*
X7Y506D01*
X2209Y506D02*
X2216Y506D01*
X0Y505D02*
X7Y505D01*
X2209Y505D02*
X2216Y505D01*
X0Y504D02*
X7Y504D01*
X2209Y504D02*
X2216Y504D01*
X0Y503D02*
X7Y503D01*
X2209Y503D02*
X2216Y503D01*
X0Y502D02*
X7Y502D01*
X2209Y502D02*
X2216Y502D01*
X0Y501D02*
X7Y501D01*
X2209Y501D02*
X2216Y501D01*
X0Y500D02*
X7Y500D01*
X2209Y500D02*
X2216Y500D01*
X0Y499D02*
X7Y499D01*
X2209Y499D02*
X2216Y499D01*
X0Y498D02*
X7Y498D01*
X2209Y498D02*
X2216Y498D01*
X0Y497D02*
X7Y497D01*
X2209Y497D02*
X2216Y497D01*
X0Y496D02*
X7Y496D01*
X2209Y496D02*
X2216Y496D01*
X0Y495D02*
X7Y495D01*
X2209Y495D02*
X2216Y495D01*
X0Y494D02*
X7Y494D01*
X2209Y494D02*
X2216Y494D01*
X0Y493D02*
X7Y493D01*
X2209Y493D02*
X2216Y493D01*
X0Y492D02*
X7Y492D01*
X2209Y492D02*
X2216Y492D01*
X0Y491D02*
X7Y491D01*
X2209Y491D02*
X2216Y491D01*
X0Y490D02*
X7Y490D01*
X2209Y490D02*
X2216Y490D01*
X0Y489D02*
X7Y489D01*
X2209Y489D02*
X2216Y489D01*
X0Y488D02*
X7Y488D01*
X2209Y488D02*
X2216Y488D01*
X0Y487D02*
X7Y487D01*
X2209Y487D02*
X2216Y487D01*
X0Y486D02*
X7Y486D01*
X2209Y486D02*
X2216Y486D01*
X0Y485D02*
X7Y485D01*
X2209Y485D02*
X2216Y485D01*
X0Y484D02*
X7Y484D01*
X2209Y484D02*
X2216Y484D01*
X0Y483D02*
X7Y483D01*
X2209Y483D02*
X2216Y483D01*
X0Y482D02*
X7Y482D01*
X2209Y482D02*
X2216Y482D01*
X0Y481D02*
X7Y481D01*
X2209Y481D02*
X2216Y481D01*
X0Y480D02*
X7Y480D01*
X2209Y480D02*
X2216Y480D01*
X0Y479D02*
X7Y479D01*
X2209Y479D02*
X2216Y479D01*
X0Y478D02*
X7Y478D01*
X2209Y478D02*
X2216Y478D01*
X0Y477D02*
X7Y477D01*
X2209Y477D02*
X2216Y477D01*
X0Y476D02*
X7Y476D01*
X2209Y476D02*
X2216Y476D01*
X0Y475D02*
X7Y475D01*
X2209Y475D02*
X2216Y475D01*
X0Y474D02*
X7Y474D01*
X2209Y474D02*
X2216Y474D01*
X0Y473D02*
X7Y473D01*
X2209Y473D02*
X2216Y473D01*
X0Y472D02*
X7Y472D01*
X2209Y472D02*
X2216Y472D01*
X0Y471D02*
X7Y471D01*
X2209Y471D02*
X2216Y471D01*
X0Y470D02*
X7Y470D01*
X2209Y470D02*
X2216Y470D01*
X0Y469D02*
X7Y469D01*
X2209Y469D02*
X2216Y469D01*
X0Y468D02*
X7Y468D01*
X2209Y468D02*
X2216Y468D01*
X0Y467D02*
X7Y467D01*
X2209Y467D02*
X2216Y467D01*
X0Y466D02*
X7Y466D01*
X2209Y466D02*
X2216Y466D01*
X0Y465D02*
X7Y465D01*
X2209Y465D02*
X2216Y465D01*
X0Y464D02*
X7Y464D01*
X2209Y464D02*
X2216Y464D01*
X0Y463D02*
X7Y463D01*
X2209Y463D02*
X2216Y463D01*
X0Y462D02*
X7Y462D01*
X2209Y462D02*
X2216Y462D01*
X0Y461D02*
X7Y461D01*
X2209Y461D02*
X2216Y461D01*
X0Y460D02*
X7Y460D01*
X2209Y460D02*
X2216Y460D01*
X0Y459D02*
X7Y459D01*
X2209Y459D02*
X2216Y459D01*
X0Y458D02*
X7Y458D01*
X2209Y458D02*
X2216Y458D01*
X0Y457D02*
X7Y457D01*
X2209Y457D02*
X2216Y457D01*
X0Y456D02*
X7Y456D01*
X2209Y456D02*
X2216Y456D01*
X0Y455D02*
X7Y455D01*
X2209Y455D02*
X2216Y455D01*
X0Y454D02*
X7Y454D01*
X2209Y454D02*
X2216Y454D01*
X0Y453D02*
X7Y453D01*
X2209Y453D02*
X2216Y453D01*
X0Y452D02*
X7Y452D01*
X2209Y452D02*
X2216Y452D01*
X0Y451D02*
X7Y451D01*
X2209Y451D02*
X2216Y451D01*
X0Y450D02*
X7Y450D01*
X2209Y450D02*
X2216Y450D01*
X0Y449D02*
X7Y449D01*
X2209Y449D02*
X2216Y449D01*
X0Y448D02*
X7Y448D01*
X2209Y448D02*
X2216Y448D01*
X0Y447D02*
X7Y447D01*
X2209Y447D02*
X2216Y447D01*
X0Y446D02*
X7Y446D01*
X2209Y446D02*
X2216Y446D01*
X0Y445D02*
X7Y445D01*
X2209Y445D02*
X2216Y445D01*
X0Y444D02*
X7Y444D01*
X2209Y444D02*
X2216Y444D01*
X0Y443D02*
X7Y443D01*
X2209Y443D02*
X2216Y443D01*
X0Y442D02*
X7Y442D01*
X2209Y442D02*
X2216Y442D01*
X0Y441D02*
X7Y441D01*
X2209Y441D02*
X2216Y441D01*
X0Y440D02*
X7Y440D01*
X2209Y440D02*
X2216Y440D01*
X0Y439D02*
X7Y439D01*
X2209Y439D02*
X2216Y439D01*
X0Y438D02*
X7Y438D01*
X2209Y438D02*
X2216Y438D01*
X0Y437D02*
X7Y437D01*
X2209Y437D02*
X2216Y437D01*
X0Y436D02*
X7Y436D01*
X2209Y436D02*
X2216Y436D01*
X0Y435D02*
X7Y435D01*
X2209Y435D02*
X2216Y435D01*
X0Y434D02*
X7Y434D01*
X2209Y434D02*
X2216Y434D01*
X0Y433D02*
X7Y433D01*
X2209Y433D02*
X2216Y433D01*
X0Y432D02*
X7Y432D01*
X2209Y432D02*
X2216Y432D01*
X0Y431D02*
X7Y431D01*
X2209Y431D02*
X2216Y431D01*
X0Y430D02*
X7Y430D01*
X2209Y430D02*
X2216Y430D01*
X0Y429D02*
X7Y429D01*
X2209Y429D02*
X2216Y429D01*
X0Y428D02*
X7Y428D01*
X2209Y428D02*
X2216Y428D01*
X0Y427D02*
X7Y427D01*
X2209Y427D02*
X2216Y427D01*
X0Y426D02*
X7Y426D01*
X2209Y426D02*
X2216Y426D01*
X0Y425D02*
X7Y425D01*
X2209Y425D02*
X2216Y425D01*
X0Y424D02*
X7Y424D01*
X2209Y424D02*
X2216Y424D01*
X0Y423D02*
X7Y423D01*
X2209Y423D02*
X2216Y423D01*
X0Y422D02*
X7Y422D01*
X2209Y422D02*
X2216Y422D01*
X0Y421D02*
X7Y421D01*
X2209Y421D02*
X2216Y421D01*
X0Y420D02*
X7Y420D01*
X2209Y420D02*
X2216Y420D01*
X0Y419D02*
X7Y419D01*
X2209Y419D02*
X2216Y419D01*
X0Y418D02*
X7Y418D01*
X2209Y418D02*
X2216Y418D01*
X0Y417D02*
X7Y417D01*
X2209Y417D02*
X2216Y417D01*
X0Y416D02*
X7Y416D01*
X2209Y416D02*
X2216Y416D01*
X0Y415D02*
X7Y415D01*
X2209Y415D02*
X2216Y415D01*
X0Y414D02*
X7Y414D01*
X2209Y414D02*
X2216Y414D01*
X0Y413D02*
X7Y413D01*
X2209Y413D02*
X2216Y413D01*
X0Y412D02*
X7Y412D01*
X2209Y412D02*
X2216Y412D01*
X0Y411D02*
X7Y411D01*
X2209Y411D02*
X2216Y411D01*
X0Y410D02*
X7Y410D01*
X2209Y410D02*
X2216Y410D01*
X0Y409D02*
X7Y409D01*
X2209Y409D02*
X2216Y409D01*
X0Y408D02*
X7Y408D01*
X2209Y408D02*
X2216Y408D01*
X0Y407D02*
X7Y407D01*
X2209Y407D02*
X2216Y407D01*
X0Y406D02*
X7Y406D01*
X2209Y406D02*
X2216Y406D01*
X0Y405D02*
X7Y405D01*
X2209Y405D02*
X2216Y405D01*
X0Y404D02*
X7Y404D01*
X2209Y404D02*
X2216Y404D01*
X0Y403D02*
X7Y403D01*
X2209Y403D02*
X2216Y403D01*
X0Y402D02*
X7Y402D01*
X2209Y402D02*
X2216Y402D01*
X0Y401D02*
X7Y401D01*
X2209Y401D02*
X2216Y401D01*
X0Y400D02*
X7Y400D01*
X2209Y400D02*
X2216Y400D01*
X0Y399D02*
X7Y399D01*
X2209Y399D02*
X2216Y399D01*
X0Y398D02*
X7Y398D01*
X2209Y398D02*
X2216Y398D01*
X0Y397D02*
X7Y397D01*
X2209Y397D02*
X2216Y397D01*
X0Y396D02*
X7Y396D01*
X2209Y396D02*
X2216Y396D01*
X0Y395D02*
X7Y395D01*
X2209Y395D02*
X2216Y395D01*
X0Y394D02*
X7Y394D01*
X2209Y394D02*
X2216Y394D01*
X0Y393D02*
X7Y393D01*
X2209Y393D02*
X2216Y393D01*
X0Y392D02*
X7Y392D01*
X2209Y392D02*
X2216Y392D01*
X0Y391D02*
X7Y391D01*
X2209Y391D02*
X2216Y391D01*
X0Y390D02*
X7Y390D01*
X2209Y390D02*
X2216Y390D01*
X0Y389D02*
X7Y389D01*
X2209Y389D02*
X2216Y389D01*
X0Y388D02*
X7Y388D01*
X2209Y388D02*
X2216Y388D01*
X0Y387D02*
X7Y387D01*
X2209Y387D02*
X2216Y387D01*
X0Y386D02*
X7Y386D01*
X2209Y386D02*
X2216Y386D01*
X0Y385D02*
X7Y385D01*
X2209Y385D02*
X2216Y385D01*
X0Y384D02*
X7Y384D01*
X2209Y384D02*
X2216Y384D01*
X0Y383D02*
X7Y383D01*
X2209Y383D02*
X2216Y383D01*
X0Y382D02*
X7Y382D01*
X2209Y382D02*
X2216Y382D01*
X0Y381D02*
X7Y381D01*
X2209Y381D02*
X2216Y381D01*
X0Y380D02*
X7Y380D01*
X2209Y380D02*
X2216Y380D01*
X0Y379D02*
X7Y379D01*
X2209Y379D02*
X2216Y379D01*
X0Y378D02*
X7Y378D01*
X2209Y378D02*
X2216Y378D01*
X0Y377D02*
X7Y377D01*
X2209Y377D02*
X2216Y377D01*
X0Y376D02*
X7Y376D01*
X2209Y376D02*
X2216Y376D01*
X0Y375D02*
X7Y375D01*
X2209Y375D02*
X2216Y375D01*
X0Y374D02*
X7Y374D01*
X2209Y374D02*
X2216Y374D01*
X0Y373D02*
X7Y373D01*
X2209Y373D02*
X2216Y373D01*
X0Y372D02*
X7Y372D01*
X2209Y372D02*
X2216Y372D01*
X0Y371D02*
X7Y371D01*
X2209Y371D02*
X2216Y371D01*
X0Y370D02*
X7Y370D01*
X2209Y370D02*
X2216Y370D01*
X0Y369D02*
X7Y369D01*
X2209Y369D02*
X2216Y369D01*
X0Y368D02*
X7Y368D01*
X2209Y368D02*
X2216Y368D01*
X0Y367D02*
X7Y367D01*
X2209Y367D02*
X2216Y367D01*
X0Y366D02*
X7Y366D01*
X2209Y366D02*
X2216Y366D01*
X0Y365D02*
X7Y365D01*
X2209Y365D02*
X2216Y365D01*
X0Y364D02*
X7Y364D01*
X2209Y364D02*
X2216Y364D01*
X0Y363D02*
X7Y363D01*
X2209Y363D02*
X2216Y363D01*
X0Y362D02*
X7Y362D01*
X2209Y362D02*
X2216Y362D01*
X0Y361D02*
X7Y361D01*
X2209Y361D02*
X2216Y361D01*
X0Y360D02*
X7Y360D01*
X2209Y360D02*
X2216Y360D01*
X0Y359D02*
X7Y359D01*
X2209Y359D02*
X2216Y359D01*
X0Y358D02*
X7Y358D01*
X2209Y358D02*
X2216Y358D01*
X0Y357D02*
X7Y357D01*
X2209Y357D02*
X2216Y357D01*
X0Y356D02*
X7Y356D01*
X2209Y356D02*
X2216Y356D01*
X0Y355D02*
X7Y355D01*
X2209Y355D02*
X2216Y355D01*
X0Y354D02*
X7Y354D01*
X2209Y354D02*
X2216Y354D01*
X0Y353D02*
X7Y353D01*
X2209Y353D02*
X2216Y353D01*
X0Y352D02*
X7Y352D01*
X2209Y352D02*
X2216Y352D01*
X0Y351D02*
X7Y351D01*
X2209Y351D02*
X2216Y351D01*
X0Y350D02*
X7Y350D01*
X2209Y350D02*
X2216Y350D01*
X0Y349D02*
X7Y349D01*
X2209Y349D02*
X2216Y349D01*
X0Y348D02*
X7Y348D01*
X2209Y348D02*
X2216Y348D01*
X0Y347D02*
X7Y347D01*
X2209Y347D02*
X2216Y347D01*
X0Y346D02*
X7Y346D01*
X2209Y346D02*
X2216Y346D01*
X0Y345D02*
X7Y345D01*
X2209Y345D02*
X2216Y345D01*
X0Y344D02*
X7Y344D01*
X2209Y344D02*
X2216Y344D01*
X0Y343D02*
X7Y343D01*
X2209Y343D02*
X2216Y343D01*
X0Y342D02*
X7Y342D01*
X2209Y342D02*
X2216Y342D01*
X0Y341D02*
X7Y341D01*
X2209Y341D02*
X2216Y341D01*
X0Y340D02*
X7Y340D01*
X2209Y340D02*
X2216Y340D01*
X0Y339D02*
X7Y339D01*
X2209Y339D02*
X2216Y339D01*
X0Y338D02*
X7Y338D01*
X2209Y338D02*
X2216Y338D01*
X0Y337D02*
X7Y337D01*
X2209Y337D02*
X2216Y337D01*
X0Y336D02*
X7Y336D01*
X2209Y336D02*
X2216Y336D01*
X0Y335D02*
X7Y335D01*
X2209Y335D02*
X2216Y335D01*
X0Y334D02*
X7Y334D01*
X2209Y334D02*
X2216Y334D01*
X0Y333D02*
X7Y333D01*
X2209Y333D02*
X2216Y333D01*
X0Y332D02*
X7Y332D01*
X2209Y332D02*
X2216Y332D01*
X0Y331D02*
X7Y331D01*
X2209Y331D02*
X2216Y331D01*
X0Y330D02*
X7Y330D01*
X2209Y330D02*
X2216Y330D01*
X0Y329D02*
X7Y329D01*
X2209Y329D02*
X2216Y329D01*
X0Y328D02*
X7Y328D01*
X2209Y328D02*
X2216Y328D01*
X0Y327D02*
X7Y327D01*
X2209Y327D02*
X2216Y327D01*
X0Y326D02*
X7Y326D01*
X2209Y326D02*
X2216Y326D01*
X0Y325D02*
X7Y325D01*
X2209Y325D02*
X2216Y325D01*
X0Y324D02*
X7Y324D01*
X2209Y324D02*
X2216Y324D01*
X0Y323D02*
X7Y323D01*
X2209Y323D02*
X2216Y323D01*
X0Y322D02*
X7Y322D01*
X2209Y322D02*
X2216Y322D01*
X0Y321D02*
X7Y321D01*
X2209Y321D02*
X2216Y321D01*
X0Y320D02*
X7Y320D01*
X2209Y320D02*
X2216Y320D01*
X0Y319D02*
X7Y319D01*
X2209Y319D02*
X2216Y319D01*
X0Y318D02*
X7Y318D01*
X2209Y318D02*
X2216Y318D01*
X0Y317D02*
X7Y317D01*
X2209Y317D02*
X2216Y317D01*
X0Y316D02*
X7Y316D01*
X2209Y316D02*
X2216Y316D01*
X0Y315D02*
X7Y315D01*
X2209Y315D02*
X2216Y315D01*
X0Y314D02*
X7Y314D01*
X2209Y314D02*
X2216Y314D01*
X0Y313D02*
X7Y313D01*
X2209Y313D02*
X2216Y313D01*
X0Y312D02*
X7Y312D01*
X2209Y312D02*
X2216Y312D01*
X0Y311D02*
X7Y311D01*
X2209Y311D02*
X2216Y311D01*
X0Y310D02*
X7Y310D01*
X2209Y310D02*
X2216Y310D01*
X0Y309D02*
X7Y309D01*
X2209Y309D02*
X2216Y309D01*
X0Y308D02*
X7Y308D01*
X2209Y308D02*
X2216Y308D01*
X0Y307D02*
X7Y307D01*
X2209Y307D02*
X2216Y307D01*
X0Y306D02*
X7Y306D01*
X2209Y306D02*
X2216Y306D01*
X0Y305D02*
X7Y305D01*
X2209Y305D02*
X2216Y305D01*
X0Y304D02*
X7Y304D01*
X2209Y304D02*
X2216Y304D01*
X0Y303D02*
X7Y303D01*
X2209Y303D02*
X2216Y303D01*
X0Y302D02*
X7Y302D01*
X2209Y302D02*
X2216Y302D01*
X0Y301D02*
X7Y301D01*
X2209Y301D02*
X2216Y301D01*
X0Y300D02*
X7Y300D01*
X2209Y300D02*
X2216Y300D01*
X0Y299D02*
X7Y299D01*
X2209Y299D02*
X2216Y299D01*
X0Y298D02*
X7Y298D01*
X2209Y298D02*
X2216Y298D01*
X0Y297D02*
X7Y297D01*
X2209Y297D02*
X2216Y297D01*
X0Y296D02*
X7Y296D01*
X2209Y296D02*
X2216Y296D01*
X0Y295D02*
X7Y295D01*
X2209Y295D02*
X2216Y295D01*
X0Y294D02*
X7Y294D01*
X2209Y294D02*
X2216Y294D01*
X0Y293D02*
X7Y293D01*
X2209Y293D02*
X2216Y293D01*
X0Y292D02*
X7Y292D01*
X2209Y292D02*
X2216Y292D01*
X0Y291D02*
X7Y291D01*
X2209Y291D02*
X2216Y291D01*
X0Y290D02*
X7Y290D01*
X2209Y290D02*
X2216Y290D01*
X0Y289D02*
X7Y289D01*
X2209Y289D02*
X2216Y289D01*
X0Y288D02*
X7Y288D01*
X2209Y288D02*
X2216Y288D01*
X0Y287D02*
X7Y287D01*
X2209Y287D02*
X2216Y287D01*
X0Y286D02*
X7Y286D01*
X2209Y286D02*
X2216Y286D01*
X0Y285D02*
X7Y285D01*
X2209Y285D02*
X2216Y285D01*
X0Y284D02*
X7Y284D01*
X2209Y284D02*
X2216Y284D01*
X0Y283D02*
X7Y283D01*
X2209Y283D02*
X2216Y283D01*
X0Y282D02*
X7Y282D01*
X2209Y282D02*
X2216Y282D01*
X0Y281D02*
X7Y281D01*
X2209Y281D02*
X2216Y281D01*
X0Y280D02*
X7Y280D01*
X2209Y280D02*
X2216Y280D01*
X0Y279D02*
X7Y279D01*
X2209Y279D02*
X2216Y279D01*
X0Y278D02*
X7Y278D01*
X2209Y278D02*
X2216Y278D01*
X0Y277D02*
X7Y277D01*
X2209Y277D02*
X2216Y277D01*
X0Y276D02*
X7Y276D01*
X2209Y276D02*
X2216Y276D01*
X0Y275D02*
X7Y275D01*
X2209Y275D02*
X2216Y275D01*
X0Y274D02*
X7Y274D01*
X2209Y274D02*
X2216Y274D01*
X0Y273D02*
X7Y273D01*
X2209Y273D02*
X2216Y273D01*
X0Y272D02*
X7Y272D01*
X2209Y272D02*
X2216Y272D01*
X0Y271D02*
X7Y271D01*
X2209Y271D02*
X2216Y271D01*
X0Y270D02*
X7Y270D01*
X2209Y270D02*
X2216Y270D01*
X0Y269D02*
X7Y269D01*
X2209Y269D02*
X2216Y269D01*
X0Y268D02*
X7Y268D01*
X2209Y268D02*
X2216Y268D01*
X0Y267D02*
X7Y267D01*
X2209Y267D02*
X2216Y267D01*
X0Y266D02*
X7Y266D01*
X2209Y266D02*
X2216Y266D01*
X0Y265D02*
X7Y265D01*
X2209Y265D02*
X2216Y265D01*
X0Y264D02*
X7Y264D01*
X2209Y264D02*
X2216Y264D01*
X0Y263D02*
X7Y263D01*
X2209Y263D02*
X2216Y263D01*
X0Y262D02*
X7Y262D01*
X2209Y262D02*
X2216Y262D01*
X0Y261D02*
X7Y261D01*
X2209Y261D02*
X2216Y261D01*
X0Y260D02*
X7Y260D01*
X2209Y260D02*
X2216Y260D01*
X0Y259D02*
X7Y259D01*
X2209Y259D02*
X2216Y259D01*
X0Y258D02*
X7Y258D01*
X2209Y258D02*
X2216Y258D01*
X0Y257D02*
X7Y257D01*
X2209Y257D02*
X2216Y257D01*
X0Y256D02*
X7Y256D01*
X2209Y256D02*
X2216Y256D01*
X0Y255D02*
X7Y255D01*
X2209Y255D02*
X2216Y255D01*
X0Y254D02*
X7Y254D01*
X2209Y254D02*
X2216Y254D01*
X0Y253D02*
X7Y253D01*
X2209Y253D02*
X2216Y253D01*
X0Y252D02*
X7Y252D01*
X2209Y252D02*
X2216Y252D01*
X0Y251D02*
X7Y251D01*
X2209Y251D02*
X2216Y251D01*
X0Y250D02*
X7Y250D01*
X2209Y250D02*
X2216Y250D01*
X0Y249D02*
X7Y249D01*
X2209Y249D02*
X2216Y249D01*
X0Y248D02*
X7Y248D01*
X2209Y248D02*
X2216Y248D01*
X0Y247D02*
X7Y247D01*
X2209Y247D02*
X2216Y247D01*
X0Y246D02*
X7Y246D01*
X2209Y246D02*
X2216Y246D01*
X0Y245D02*
X7Y245D01*
X2209Y245D02*
X2216Y245D01*
X0Y244D02*
X7Y244D01*
X2209Y244D02*
X2216Y244D01*
X0Y243D02*
X7Y243D01*
X2209Y243D02*
X2216Y243D01*
X0Y242D02*
X7Y242D01*
X2209Y242D02*
X2216Y242D01*
X0Y241D02*
X7Y241D01*
X2209Y241D02*
X2216Y241D01*
X0Y240D02*
X7Y240D01*
X2209Y240D02*
X2216Y240D01*
X0Y239D02*
X7Y239D01*
X2209Y239D02*
X2216Y239D01*
X0Y238D02*
X7Y238D01*
X2209Y238D02*
X2216Y238D01*
X0Y237D02*
X7Y237D01*
X2209Y237D02*
X2216Y237D01*
X0Y236D02*
X7Y236D01*
X2209Y236D02*
X2216Y236D01*
X0Y235D02*
X7Y235D01*
X2209Y235D02*
X2216Y235D01*
X0Y234D02*
X7Y234D01*
X2209Y234D02*
X2216Y234D01*
X0Y233D02*
X7Y233D01*
X2209Y233D02*
X2216Y233D01*
X0Y232D02*
X7Y232D01*
X2209Y232D02*
X2216Y232D01*
X0Y231D02*
X7Y231D01*
X2209Y231D02*
X2216Y231D01*
X0Y230D02*
X7Y230D01*
X2209Y230D02*
X2216Y230D01*
X0Y229D02*
X7Y229D01*
X2209Y229D02*
X2216Y229D01*
X0Y228D02*
X7Y228D01*
X2209Y228D02*
X2216Y228D01*
X0Y227D02*
X7Y227D01*
X2209Y227D02*
X2216Y227D01*
X0Y226D02*
X7Y226D01*
X2209Y226D02*
X2216Y226D01*
X0Y225D02*
X7Y225D01*
X2209Y225D02*
X2216Y225D01*
X0Y224D02*
X7Y224D01*
X2209Y224D02*
X2216Y224D01*
X0Y223D02*
X7Y223D01*
X2209Y223D02*
X2216Y223D01*
X0Y222D02*
X7Y222D01*
X2209Y222D02*
X2216Y222D01*
X0Y221D02*
X7Y221D01*
X2209Y221D02*
X2216Y221D01*
X0Y220D02*
X7Y220D01*
X2209Y220D02*
X2216Y220D01*
X0Y219D02*
X7Y219D01*
X2209Y219D02*
X2216Y219D01*
X0Y218D02*
X7Y218D01*
X2209Y218D02*
X2216Y218D01*
X0Y217D02*
X7Y217D01*
X2209Y217D02*
X2216Y217D01*
X0Y216D02*
X7Y216D01*
X2209Y216D02*
X2216Y216D01*
X0Y215D02*
X7Y215D01*
X2209Y215D02*
X2216Y215D01*
X0Y214D02*
X7Y214D01*
X2209Y214D02*
X2216Y214D01*
X0Y213D02*
X7Y213D01*
X2209Y213D02*
X2216Y213D01*
X0Y212D02*
X7Y212D01*
X2209Y212D02*
X2216Y212D01*
X0Y211D02*
X7Y211D01*
X2209Y211D02*
X2216Y211D01*
X0Y210D02*
X7Y210D01*
X2209Y210D02*
X2216Y210D01*
X0Y209D02*
X7Y209D01*
X2209Y209D02*
X2216Y209D01*
X0Y208D02*
X7Y208D01*
X2209Y208D02*
X2216Y208D01*
X0Y207D02*
X7Y207D01*
X2209Y207D02*
X2216Y207D01*
X0Y206D02*
X7Y206D01*
X2209Y206D02*
X2216Y206D01*
X0Y205D02*
X7Y205D01*
X2209Y205D02*
X2216Y205D01*
X0Y204D02*
X7Y204D01*
X2209Y204D02*
X2216Y204D01*
X0Y203D02*
X7Y203D01*
X2209Y203D02*
X2216Y203D01*
X0Y202D02*
X7Y202D01*
X2209Y202D02*
X2216Y202D01*
X0Y201D02*
X7Y201D01*
X2209Y201D02*
X2216Y201D01*
X0Y200D02*
X7Y200D01*
X2209Y200D02*
X2216Y200D01*
X0Y199D02*
X7Y199D01*
X2209Y199D02*
X2216Y199D01*
X0Y198D02*
X7Y198D01*
X2209Y198D02*
X2216Y198D01*
X0Y197D02*
X7Y197D01*
X2209Y197D02*
X2216Y197D01*
X0Y196D02*
X7Y196D01*
X2209Y196D02*
X2216Y196D01*
X0Y195D02*
X7Y195D01*
X2209Y195D02*
X2216Y195D01*
X0Y194D02*
X7Y194D01*
X2209Y194D02*
X2216Y194D01*
X0Y193D02*
X7Y193D01*
X2209Y193D02*
X2216Y193D01*
X0Y192D02*
X7Y192D01*
X2209Y192D02*
X2216Y192D01*
X0Y191D02*
X7Y191D01*
X2209Y191D02*
X2216Y191D01*
X0Y190D02*
X7Y190D01*
X2209Y190D02*
X2216Y190D01*
X0Y189D02*
X7Y189D01*
X478Y189D02*
X558Y189D01*
X586Y189D02*
X658Y189D01*
X686Y189D02*
X758Y189D01*
X786Y189D02*
X858Y189D01*
X886Y189D02*
X958Y189D01*
X986Y189D02*
X1058Y189D01*
X1086Y189D02*
X1158Y189D01*
X1186Y189D02*
X1265Y189D01*
X2209Y189D02*
X2216Y189D01*
X0Y188D02*
X7Y188D01*
X478Y188D02*
X562Y188D01*
X582Y188D02*
X662Y188D01*
X682Y188D02*
X762Y188D01*
X782Y188D02*
X862Y188D01*
X882Y188D02*
X962Y188D01*
X982Y188D02*
X1062Y188D01*
X1082Y188D02*
X1162Y188D01*
X1182Y188D02*
X1265Y188D01*
X2209Y188D02*
X2216Y188D01*
X0Y187D02*
X7Y187D01*
X478Y187D02*
X569Y187D01*
X574Y187D02*
X669Y187D01*
X674Y187D02*
X769Y187D01*
X774Y187D02*
X869Y187D01*
X874Y187D02*
X969Y187D01*
X974Y187D02*
X1069Y187D01*
X1074Y187D02*
X1169Y187D01*
X1174Y187D02*
X1265Y187D01*
X2209Y187D02*
X2216Y187D01*
X0Y186D02*
X7Y186D01*
X478Y186D02*
X1265Y186D01*
X2209Y186D02*
X2216Y186D01*
X0Y185D02*
X7Y185D01*
X478Y185D02*
X1265Y185D01*
X2209Y185D02*
X2216Y185D01*
X0Y184D02*
X7Y184D01*
X478Y184D02*
X1265Y184D01*
X2209Y184D02*
X2216Y184D01*
X0Y183D02*
X7Y183D01*
X478Y183D02*
X1265Y183D01*
X2209Y183D02*
X2216Y183D01*
X0Y182D02*
X7Y182D01*
X478Y182D02*
X1265Y182D01*
X2209Y182D02*
X2216Y182D01*
X0Y181D02*
X7Y181D01*
X478Y181D02*
X1265Y181D01*
X2209Y181D02*
X2216Y181D01*
X0Y180D02*
X7Y180D01*
X479Y180D02*
X1264Y180D01*
X2209Y180D02*
X2216Y180D01*
X0Y179D02*
X7Y179D01*
X2209Y179D02*
X2216Y179D01*
X0Y178D02*
X7Y178D01*
X2209Y178D02*
X2216Y178D01*
X0Y177D02*
X7Y177D01*
X2209Y177D02*
X2216Y177D01*
X0Y176D02*
X7Y176D01*
X2209Y176D02*
X2216Y176D01*
X0Y175D02*
X7Y175D01*
X2209Y175D02*
X2216Y175D01*
X0Y174D02*
X7Y174D01*
X2209Y174D02*
X2216Y174D01*
X0Y173D02*
X7Y173D01*
X2209Y173D02*
X2216Y173D01*
X0Y172D02*
X7Y172D01*
X2209Y172D02*
X2216Y172D01*
X0Y171D02*
X7Y171D01*
X2209Y171D02*
X2216Y171D01*
X0Y170D02*
X7Y170D01*
X2209Y170D02*
X2216Y170D01*
X0Y169D02*
X7Y169D01*
X2209Y169D02*
X2216Y169D01*
X0Y168D02*
X7Y168D01*
X2209Y168D02*
X2216Y168D01*
X0Y167D02*
X7Y167D01*
X2209Y167D02*
X2216Y167D01*
X0Y166D02*
X7Y166D01*
X2209Y166D02*
X2216Y166D01*
X0Y165D02*
X7Y165D01*
X2209Y165D02*
X2216Y165D01*
X0Y164D02*
X7Y164D01*
X2209Y164D02*
X2216Y164D01*
X0Y163D02*
X7Y163D01*
X2209Y163D02*
X2216Y163D01*
X0Y162D02*
X7Y162D01*
X2209Y162D02*
X2216Y162D01*
X0Y161D02*
X7Y161D01*
X2209Y161D02*
X2216Y161D01*
X0Y160D02*
X7Y160D01*
X2209Y160D02*
X2216Y160D01*
X0Y159D02*
X7Y159D01*
X2209Y159D02*
X2216Y159D01*
X0Y158D02*
X7Y158D01*
X2209Y158D02*
X2216Y158D01*
X0Y157D02*
X7Y157D01*
X2209Y157D02*
X2216Y157D01*
X0Y156D02*
X7Y156D01*
X2209Y156D02*
X2216Y156D01*
X0Y155D02*
X7Y155D01*
X2209Y155D02*
X2216Y155D01*
X0Y154D02*
X7Y154D01*
X2209Y154D02*
X2216Y154D01*
X0Y153D02*
X7Y153D01*
X2209Y153D02*
X2216Y153D01*
X0Y152D02*
X7Y152D01*
X2209Y152D02*
X2216Y152D01*
X0Y151D02*
X7Y151D01*
X2209Y151D02*
X2216Y151D01*
X0Y150D02*
X7Y150D01*
X2209Y150D02*
X2216Y150D01*
X0Y149D02*
X7Y149D01*
X2209Y149D02*
X2216Y149D01*
X0Y148D02*
X7Y148D01*
X2209Y148D02*
X2216Y148D01*
X0Y147D02*
X7Y147D01*
X2209Y147D02*
X2216Y147D01*
X0Y146D02*
X7Y146D01*
X2209Y146D02*
X2216Y146D01*
X0Y145D02*
X7Y145D01*
X2209Y145D02*
X2216Y145D01*
X0Y144D02*
X7Y144D01*
X2209Y144D02*
X2216Y144D01*
X0Y143D02*
X7Y143D01*
X2209Y143D02*
X2216Y143D01*
X0Y142D02*
X7Y142D01*
X2209Y142D02*
X2216Y142D01*
X0Y141D02*
X7Y141D01*
X2209Y141D02*
X2216Y141D01*
X0Y140D02*
X7Y140D01*
X2209Y140D02*
X2216Y140D01*
X0Y139D02*
X7Y139D01*
X2209Y139D02*
X2216Y139D01*
X0Y138D02*
X7Y138D01*
X2209Y138D02*
X2216Y138D01*
X0Y137D02*
X7Y137D01*
X2209Y137D02*
X2216Y137D01*
X0Y136D02*
X7Y136D01*
X2209Y136D02*
X2216Y136D01*
X0Y135D02*
X7Y135D01*
X2209Y135D02*
X2216Y135D01*
X0Y134D02*
X7Y134D01*
X2209Y134D02*
X2216Y134D01*
X0Y133D02*
X7Y133D01*
X2209Y133D02*
X2216Y133D01*
X0Y132D02*
X7Y132D01*
X2209Y132D02*
X2216Y132D01*
X0Y131D02*
X7Y131D01*
X2209Y131D02*
X2216Y131D01*
X0Y130D02*
X7Y130D01*
X2209Y130D02*
X2216Y130D01*
X0Y129D02*
X7Y129D01*
X2209Y129D02*
X2216Y129D01*
X0Y128D02*
X7Y128D01*
X2209Y128D02*
X2216Y128D01*
X0Y127D02*
X7Y127D01*
X2209Y127D02*
X2216Y127D01*
X0Y126D02*
X7Y126D01*
X2209Y126D02*
X2216Y126D01*
X0Y125D02*
X7Y125D01*
X2209Y125D02*
X2216Y125D01*
X0Y124D02*
X7Y124D01*
X2209Y124D02*
X2216Y124D01*
X0Y123D02*
X7Y123D01*
X2209Y123D02*
X2216Y123D01*
X0Y122D02*
X7Y122D01*
X2209Y122D02*
X2216Y122D01*
X0Y121D02*
X7Y121D01*
X2209Y121D02*
X2216Y121D01*
X0Y120D02*
X7Y120D01*
X2209Y120D02*
X2216Y120D01*
X0Y119D02*
X7Y119D01*
X2209Y119D02*
X2216Y119D01*
X0Y118D02*
X7Y118D01*
X2209Y118D02*
X2216Y118D01*
X0Y117D02*
X7Y117D01*
X2209Y117D02*
X2216Y117D01*
X0Y116D02*
X7Y116D01*
X2209Y116D02*
X2216Y116D01*
X0Y115D02*
X7Y115D01*
X2209Y115D02*
X2216Y115D01*
X0Y114D02*
X7Y114D01*
X2209Y114D02*
X2216Y114D01*
X0Y113D02*
X7Y113D01*
X2209Y113D02*
X2216Y113D01*
X0Y112D02*
X7Y112D01*
X2209Y112D02*
X2216Y112D01*
X0Y111D02*
X7Y111D01*
X2209Y111D02*
X2216Y111D01*
X0Y110D02*
X7Y110D01*
X2209Y110D02*
X2216Y110D01*
X0Y109D02*
X7Y109D01*
X2209Y109D02*
X2216Y109D01*
X0Y108D02*
X7Y108D01*
X2209Y108D02*
X2216Y108D01*
X0Y107D02*
X7Y107D01*
X2209Y107D02*
X2216Y107D01*
X0Y106D02*
X7Y106D01*
X2209Y106D02*
X2216Y106D01*
X0Y105D02*
X7Y105D01*
X2209Y105D02*
X2216Y105D01*
X0Y104D02*
X7Y104D01*
X2209Y104D02*
X2216Y104D01*
X0Y103D02*
X7Y103D01*
X2209Y103D02*
X2216Y103D01*
X0Y102D02*
X7Y102D01*
X2209Y102D02*
X2216Y102D01*
X0Y101D02*
X7Y101D01*
X2209Y101D02*
X2216Y101D01*
X0Y100D02*
X7Y100D01*
X2209Y100D02*
X2216Y100D01*
X0Y99D02*
X7Y99D01*
X2209Y99D02*
X2216Y99D01*
X0Y98D02*
X7Y98D01*
X2209Y98D02*
X2216Y98D01*
X0Y97D02*
X7Y97D01*
X2209Y97D02*
X2216Y97D01*
X0Y96D02*
X7Y96D01*
X2209Y96D02*
X2216Y96D01*
X0Y95D02*
X7Y95D01*
X2209Y95D02*
X2216Y95D01*
X0Y94D02*
X7Y94D01*
X2209Y94D02*
X2216Y94D01*
X0Y93D02*
X7Y93D01*
X2209Y93D02*
X2216Y93D01*
X0Y92D02*
X7Y92D01*
X2209Y92D02*
X2216Y92D01*
X0Y91D02*
X7Y91D01*
X2209Y91D02*
X2216Y91D01*
X0Y90D02*
X7Y90D01*
X2209Y90D02*
X2216Y90D01*
X0Y89D02*
X7Y89D01*
X2209Y89D02*
X2216Y89D01*
X0Y88D02*
X7Y88D01*
X2209Y88D02*
X2216Y88D01*
X0Y87D02*
X7Y87D01*
X2209Y87D02*
X2216Y87D01*
X0Y86D02*
X7Y86D01*
X2209Y86D02*
X2216Y86D01*
X0Y85D02*
X7Y85D01*
X2209Y85D02*
X2216Y85D01*
X0Y84D02*
X7Y84D01*
X2209Y84D02*
X2216Y84D01*
X0Y83D02*
X7Y83D01*
X2209Y83D02*
X2216Y83D01*
X0Y82D02*
X7Y82D01*
X2209Y82D02*
X2216Y82D01*
X0Y81D02*
X7Y81D01*
X2209Y81D02*
X2216Y81D01*
X0Y80D02*
X7Y80D01*
X2209Y80D02*
X2216Y80D01*
X0Y79D02*
X7Y79D01*
X2209Y79D02*
X2216Y79D01*
X0Y78D02*
X7Y78D01*
X2209Y78D02*
X2216Y78D01*
X0Y77D02*
X7Y77D01*
X2209Y77D02*
X2216Y77D01*
X0Y76D02*
X7Y76D01*
X2209Y76D02*
X2216Y76D01*
X0Y75D02*
X7Y75D01*
X2209Y75D02*
X2216Y75D01*
X0Y74D02*
X7Y74D01*
X2209Y74D02*
X2216Y74D01*
X0Y73D02*
X7Y73D01*
X2209Y73D02*
X2216Y73D01*
X0Y72D02*
X7Y72D01*
X2209Y72D02*
X2216Y72D01*
X0Y71D02*
X7Y71D01*
X2209Y71D02*
X2216Y71D01*
X0Y70D02*
X7Y70D01*
X2209Y70D02*
X2216Y70D01*
X0Y69D02*
X7Y69D01*
X2209Y69D02*
X2216Y69D01*
X0Y68D02*
X7Y68D01*
X2209Y68D02*
X2216Y68D01*
X0Y67D02*
X7Y67D01*
X2209Y67D02*
X2216Y67D01*
X0Y66D02*
X7Y66D01*
X2209Y66D02*
X2216Y66D01*
X0Y65D02*
X7Y65D01*
X2209Y65D02*
X2216Y65D01*
X0Y64D02*
X7Y64D01*
X2209Y64D02*
X2216Y64D01*
X0Y63D02*
X7Y63D01*
X2209Y63D02*
X2216Y63D01*
X0Y62D02*
X7Y62D01*
X2209Y62D02*
X2216Y62D01*
X0Y61D02*
X7Y61D01*
X2209Y61D02*
X2216Y61D01*
X0Y60D02*
X7Y60D01*
X2209Y60D02*
X2216Y60D01*
X0Y59D02*
X7Y59D01*
X2209Y59D02*
X2216Y59D01*
X0Y58D02*
X7Y58D01*
X2209Y58D02*
X2216Y58D01*
X0Y57D02*
X7Y57D01*
X2209Y57D02*
X2216Y57D01*
X0Y56D02*
X7Y56D01*
X2209Y56D02*
X2216Y56D01*
X0Y55D02*
X7Y55D01*
X2209Y55D02*
X2216Y55D01*
X0Y54D02*
X7Y54D01*
X2209Y54D02*
X2216Y54D01*
X0Y53D02*
X7Y53D01*
X2209Y53D02*
X2216Y53D01*
X0Y52D02*
X7Y52D01*
X2209Y52D02*
X2216Y52D01*
X0Y51D02*
X7Y51D01*
X2209Y51D02*
X2216Y51D01*
X0Y50D02*
X7Y50D01*
X2209Y50D02*
X2216Y50D01*
X0Y49D02*
X7Y49D01*
X2209Y49D02*
X2216Y49D01*
X0Y48D02*
X7Y48D01*
X2209Y48D02*
X2216Y48D01*
X0Y47D02*
X7Y47D01*
X2209Y47D02*
X2216Y47D01*
X0Y46D02*
X7Y46D01*
X2209Y46D02*
X2216Y46D01*
X0Y45D02*
X7Y45D01*
X2209Y45D02*
X2216Y45D01*
X0Y44D02*
X7Y44D01*
X2209Y44D02*
X2216Y44D01*
X0Y43D02*
X7Y43D01*
X2209Y43D02*
X2216Y43D01*
X0Y42D02*
X7Y42D01*
X2209Y42D02*
X2216Y42D01*
X0Y41D02*
X7Y41D01*
X2209Y41D02*
X2216Y41D01*
X0Y40D02*
X7Y40D01*
X2209Y40D02*
X2216Y40D01*
X0Y39D02*
X7Y39D01*
X2209Y39D02*
X2216Y39D01*
X0Y38D02*
X7Y38D01*
X2209Y38D02*
X2216Y38D01*
X0Y37D02*
X7Y37D01*
X2209Y37D02*
X2216Y37D01*
X0Y36D02*
X7Y36D01*
X2209Y36D02*
X2216Y36D01*
X0Y35D02*
X7Y35D01*
X2209Y35D02*
X2216Y35D01*
X0Y34D02*
X7Y34D01*
X2209Y34D02*
X2216Y34D01*
X0Y33D02*
X7Y33D01*
X2209Y33D02*
X2216Y33D01*
X0Y32D02*
X7Y32D01*
X2209Y32D02*
X2216Y32D01*
X0Y31D02*
X7Y31D01*
X2209Y31D02*
X2216Y31D01*
X0Y30D02*
X7Y30D01*
X2209Y30D02*
X2216Y30D01*
X0Y29D02*
X7Y29D01*
X2209Y29D02*
X2216Y29D01*
X0Y28D02*
X7Y28D01*
X2209Y28D02*
X2216Y28D01*
X0Y27D02*
X7Y27D01*
X2209Y27D02*
X2216Y27D01*
X0Y26D02*
X7Y26D01*
X2209Y26D02*
X2216Y26D01*
X0Y25D02*
X7Y25D01*
X2209Y25D02*
X2216Y25D01*
X0Y24D02*
X7Y24D01*
X2209Y24D02*
X2216Y24D01*
X0Y23D02*
X7Y23D01*
X2209Y23D02*
X2216Y23D01*
X0Y22D02*
X7Y22D01*
X2209Y22D02*
X2216Y22D01*
X0Y21D02*
X7Y21D01*
X2209Y21D02*
X2216Y21D01*
X0Y20D02*
X7Y20D01*
X2209Y20D02*
X2216Y20D01*
X0Y19D02*
X7Y19D01*
X2209Y19D02*
X2216Y19D01*
X0Y18D02*
X7Y18D01*
X2209Y18D02*
X2216Y18D01*
X0Y17D02*
X7Y17D01*
X2209Y17D02*
X2216Y17D01*
X0Y16D02*
X7Y16D01*
X2209Y16D02*
X2216Y16D01*
X0Y15D02*
X7Y15D01*
X2209Y15D02*
X2216Y15D01*
X0Y14D02*
X7Y14D01*
X2209Y14D02*
X2216Y14D01*
X0Y13D02*
X7Y13D01*
X2209Y13D02*
X2216Y13D01*
X0Y12D02*
X7Y12D01*
X2209Y12D02*
X2216Y12D01*
X0Y11D02*
X7Y11D01*
X2209Y11D02*
X2216Y11D01*
X0Y10D02*
X7Y10D01*
X2209Y10D02*
X2216Y10D01*
X0Y9D02*
X2216Y9D01*
X0Y8D02*
X2216Y8D01*
X0Y7D02*
X2216Y7D01*
X0Y6D02*
X2216Y6D01*
X0Y5D02*
X2216Y5D01*
X0Y4D02*
X2216Y4D01*
X0Y3D02*
X2216Y3D01*
X0Y2D02*
X2216Y2D01*
D02*
G04 End of Silk1*
M02*