G04 MADE WITH FRITZING*
G04 WWW.FRITZING.ORG*
G04 DOUBLE SIDED*
G04 HOLES PLATED*
G04 CONTOUR ON CENTER OF CONTOUR VECTOR*
%ASAXBY*%
%FSLAX23Y23*%
%MOIN*%
%OFA0B0*%
%SFA1.0B1.0*%
%ADD10C,0.085000*%
%ADD11C,0.084000*%
%ADD12C,0.088000*%
%ADD13C,0.090000*%
%ADD14C,0.041496*%
%ADD15C,0.070000*%
%ADD16R,0.083028X0.081501*%
%ADD17R,0.081756X0.084809*%
%ADD18R,0.083028X0.079550*%
%ADD19R,0.081501X0.081077*%
%ADD20R,0.081756X0.081756*%
%ADD21R,0.010028X0.010028*%
%ADD22R,0.092469X0.089707*%
%ADD23R,0.090184X0.090286*%
%ADD24R,0.088917X0.088056*%
%ADD25R,0.090000X0.090000*%
%ADD26R,0.090184X0.090012*%
%LNMASK1*%
G90*
G70*
G54D10*
X1922Y1329D03*
X1922Y1074D03*
X2100Y1329D03*
X2100Y1074D03*
X1922Y1329D03*
X1922Y1074D03*
X2100Y1329D03*
X2100Y1074D03*
X1611Y1503D03*
X1611Y1247D03*
X1788Y1503D03*
X1788Y1247D03*
X1611Y1503D03*
X1611Y1247D03*
X1788Y1503D03*
X1788Y1247D03*
G54D11*
X1372Y730D03*
X1372Y630D03*
X1372Y530D03*
X1372Y430D03*
X1372Y330D03*
G54D12*
X572Y229D03*
X672Y229D03*
X772Y229D03*
X872Y229D03*
X972Y229D03*
X1072Y229D03*
X1172Y229D03*
X1172Y830D03*
X1072Y830D03*
X972Y830D03*
X872Y830D03*
X772Y830D03*
X672Y830D03*
X572Y830D03*
G54D13*
X272Y1479D03*
X272Y1342D03*
G54D12*
X229Y780D03*
X229Y936D03*
X229Y1092D03*
G54D14*
X1172Y229D03*
X1172Y829D03*
X1072Y829D03*
X972Y829D03*
X872Y829D03*
G54D15*
X822Y1579D03*
X922Y1580D03*
X1022Y1579D03*
X1122Y1579D03*
X822Y1579D03*
X922Y1580D03*
X1022Y1579D03*
X1122Y1579D03*
G54D12*
X1481Y1079D03*
X1481Y1631D03*
X572Y1079D03*
X572Y1180D03*
X572Y1531D03*
X572Y1631D03*
G54D14*
X1372Y529D03*
G54D10*
X1611Y1153D03*
X1611Y897D03*
X1788Y1153D03*
X1788Y897D03*
X1611Y1153D03*
X1611Y897D03*
X1788Y1153D03*
X1788Y897D03*
G54D14*
X772Y829D03*
G54D16*
X1373Y330D03*
G54D17*
X1372Y428D03*
G54D18*
X1371Y529D03*
G54D19*
X1372Y730D03*
G54D20*
X1372Y630D03*
G54D21*
X1372Y730D03*
X1372Y630D03*
G54D19*
X1372Y630D03*
G54D20*
X1372Y730D03*
G54D21*
X1372Y730D03*
X1372Y630D03*
G54D19*
X1372Y630D03*
G54D20*
X1372Y730D03*
G54D21*
X1372Y730D03*
X1372Y630D03*
G54D19*
X1372Y630D03*
G54D20*
X1372Y730D03*
G54D22*
X1372Y329D03*
G54D23*
X1372Y429D03*
G54D24*
X1372Y530D03*
G54D25*
X1372Y629D03*
G54D26*
X1372Y729D03*
G54D16*
X1373Y330D03*
G54D17*
X1372Y428D03*
G54D18*
X1371Y529D03*
G54D19*
X1372Y730D03*
G54D20*
X1372Y630D03*
G54D21*
X1372Y730D03*
X1372Y630D03*
G54D19*
X1372Y630D03*
G54D20*
X1372Y730D03*
G54D21*
X1372Y730D03*
X1372Y630D03*
G54D19*
X1372Y630D03*
G54D20*
X1372Y730D03*
G54D21*
X1372Y730D03*
X1372Y630D03*
G54D19*
X1372Y630D03*
G54D20*
X1372Y730D03*
G54D22*
X1372Y329D03*
G54D23*
X1372Y429D03*
G54D24*
X1372Y530D03*
G54D25*
X1372Y629D03*
G54D26*
X1372Y729D03*
G54D25*
X272Y1479D03*
G04 End of Mask1*
M02*