G04 MADE WITH FRITZING*
G04 WWW.FRITZING.ORG*
G04 DOUBLE SIDED*
G04 HOLES PLATED*
G04 CONTOUR ON CENTER OF CONTOUR VECTOR*
%ASAXBY*%
%FSLAX23Y23*%
%MOIN*%
%OFA0B0*%
%SFA1.0B1.0*%
%ADD10R,2.217250X1.868770X2.201250X1.852770*%
%ADD11C,0.008000*%
%ADD12C,0.010000*%
%ADD13C,0.032808*%
%ADD14R,0.001000X0.001000*%
%LNSILK0*%
G90*
G70*
G54D11*
X4Y1865D02*
X2213Y1865D01*
X2213Y4D01*
X4Y4D01*
X4Y1865D01*
D02*
G54D12*
X2050Y1320D02*
X1972Y1320D01*
D02*
X2129Y1123D02*
X2129Y1290D01*
D02*
X1893Y1123D02*
X1893Y1290D01*
D02*
X2050Y1083D02*
X1972Y1083D01*
D02*
X2031Y1201D02*
X1991Y1201D01*
D02*
X2011Y1221D02*
X2011Y1182D01*
D02*
X1738Y1493D02*
X1660Y1493D01*
D02*
X1817Y1297D02*
X1817Y1464D01*
D02*
X1581Y1297D02*
X1581Y1464D01*
D02*
X1738Y1257D02*
X1660Y1257D01*
D02*
X1719Y1375D02*
X1679Y1375D01*
D02*
X1699Y1395D02*
X1699Y1356D01*
G54D13*
D02*
X1902Y682D02*
X1902Y665D01*
D02*
X1804Y682D02*
X1804Y665D01*
D02*
X1771Y58D02*
X1771Y386D01*
D02*
X1870Y58D02*
X1870Y386D01*
G54D12*
D02*
X1738Y1143D02*
X1660Y1143D01*
D02*
X1817Y947D02*
X1817Y1114D01*
D02*
X1581Y947D02*
X1581Y1114D01*
D02*
X1738Y907D02*
X1660Y907D01*
D02*
X1719Y1025D02*
X1679Y1025D01*
D02*
X1699Y1045D02*
X1699Y1006D01*
G54D13*
X1935Y58D02*
X1935Y567D01*
X2001Y649D01*
X2001Y813D01*
X1886Y747D01*
X1804Y747D01*
X1706Y813D01*
X1706Y649D01*
X1771Y567D01*
X1509Y370D01*
X1443Y173D01*
X1509Y58D01*
X2017Y58D01*
X2099Y140D01*
X2017Y288D01*
X2132Y403D01*
D02*
X1607Y255D02*
X1689Y255D01*
X1771Y124D01*
D02*
X1870Y600D02*
X1853Y616D01*
X1837Y600D01*
D02*
G54D14*
X1599Y1792D02*
X1639Y1792D01*
X2025Y1792D02*
X2037Y1792D01*
X2061Y1792D02*
X2073Y1792D01*
X1597Y1791D02*
X1640Y1791D01*
X2025Y1791D02*
X2038Y1791D01*
X2061Y1791D02*
X2073Y1791D01*
X1596Y1790D02*
X1641Y1790D01*
X2025Y1790D02*
X2038Y1790D01*
X2060Y1790D02*
X2073Y1790D01*
X1595Y1789D02*
X1641Y1789D01*
X2025Y1789D02*
X2039Y1789D01*
X2059Y1789D02*
X2073Y1789D01*
X1594Y1788D02*
X1641Y1788D01*
X2025Y1788D02*
X2040Y1788D01*
X2058Y1788D02*
X2073Y1788D01*
X1594Y1787D02*
X1641Y1787D01*
X2025Y1787D02*
X2040Y1787D01*
X2058Y1787D02*
X2073Y1787D01*
X1593Y1786D02*
X1641Y1786D01*
X2025Y1786D02*
X2041Y1786D01*
X2057Y1786D02*
X2073Y1786D01*
X1593Y1785D02*
X1641Y1785D01*
X2025Y1785D02*
X2042Y1785D01*
X2056Y1785D02*
X2073Y1785D01*
X1593Y1784D02*
X1640Y1784D01*
X2025Y1784D02*
X2042Y1784D01*
X2056Y1784D02*
X2073Y1784D01*
X1593Y1783D02*
X1638Y1783D01*
X2025Y1783D02*
X2043Y1783D01*
X2055Y1783D02*
X2073Y1783D01*
X1593Y1782D02*
X1602Y1782D01*
X2025Y1782D02*
X2044Y1782D01*
X2054Y1782D02*
X2073Y1782D01*
X1593Y1781D02*
X1602Y1781D01*
X2025Y1781D02*
X2045Y1781D01*
X2053Y1781D02*
X2073Y1781D01*
X1593Y1780D02*
X1602Y1780D01*
X1684Y1780D02*
X1694Y1780D01*
X2025Y1780D02*
X2045Y1780D01*
X2053Y1780D02*
X2073Y1780D01*
X1593Y1779D02*
X1602Y1779D01*
X1682Y1779D02*
X1697Y1779D01*
X2025Y1779D02*
X2046Y1779D01*
X2052Y1779D02*
X2073Y1779D01*
X1593Y1778D02*
X1602Y1778D01*
X1681Y1778D02*
X1698Y1778D01*
X2025Y1778D02*
X2047Y1778D01*
X2051Y1778D02*
X2073Y1778D01*
X1593Y1777D02*
X1602Y1777D01*
X1680Y1777D02*
X1698Y1777D01*
X2025Y1777D02*
X2034Y1777D01*
X2036Y1777D02*
X2047Y1777D01*
X2051Y1777D02*
X2062Y1777D01*
X2064Y1777D02*
X2073Y1777D01*
X1593Y1776D02*
X1602Y1776D01*
X1680Y1776D02*
X1698Y1776D01*
X2025Y1776D02*
X2034Y1776D01*
X2037Y1776D02*
X2048Y1776D01*
X2050Y1776D02*
X2061Y1776D01*
X2064Y1776D02*
X2073Y1776D01*
X1593Y1775D02*
X1602Y1775D01*
X1680Y1775D02*
X1699Y1775D01*
X2025Y1775D02*
X2034Y1775D01*
X2037Y1775D02*
X2061Y1775D01*
X2064Y1775D02*
X2073Y1775D01*
X1593Y1774D02*
X1602Y1774D01*
X1680Y1774D02*
X1699Y1774D01*
X2025Y1774D02*
X2034Y1774D01*
X2038Y1774D02*
X2060Y1774D01*
X2064Y1774D02*
X2073Y1774D01*
X1593Y1773D02*
X1602Y1773D01*
X1680Y1773D02*
X1699Y1773D01*
X2025Y1773D02*
X2034Y1773D01*
X2039Y1773D02*
X2059Y1773D01*
X2064Y1773D02*
X2073Y1773D01*
X1593Y1772D02*
X1602Y1772D01*
X1680Y1772D02*
X1699Y1772D01*
X2025Y1772D02*
X2034Y1772D01*
X2040Y1772D02*
X2059Y1772D01*
X2064Y1772D02*
X2073Y1772D01*
X1593Y1771D02*
X1602Y1771D01*
X1680Y1771D02*
X1699Y1771D01*
X1810Y1771D02*
X1814Y1771D01*
X1852Y1771D02*
X1856Y1771D01*
X1895Y1771D02*
X1915Y1771D01*
X1967Y1771D02*
X1987Y1771D01*
X2025Y1771D02*
X2034Y1771D01*
X2040Y1771D02*
X2058Y1771D01*
X2064Y1771D02*
X2073Y1771D01*
X1593Y1770D02*
X1602Y1770D01*
X1680Y1770D02*
X1699Y1770D01*
X1809Y1770D02*
X1815Y1770D01*
X1851Y1770D02*
X1857Y1770D01*
X1893Y1770D02*
X1918Y1770D01*
X1965Y1770D02*
X1990Y1770D01*
X2025Y1770D02*
X2034Y1770D01*
X2041Y1770D02*
X2057Y1770D01*
X2064Y1770D02*
X2073Y1770D01*
X1593Y1769D02*
X1602Y1769D01*
X1680Y1769D02*
X1699Y1769D01*
X1808Y1769D02*
X1816Y1769D01*
X1850Y1769D02*
X1858Y1769D01*
X1891Y1769D02*
X1919Y1769D01*
X1963Y1769D02*
X1991Y1769D01*
X2025Y1769D02*
X2034Y1769D01*
X2042Y1769D02*
X2056Y1769D01*
X2064Y1769D02*
X2073Y1769D01*
X1593Y1768D02*
X1602Y1768D01*
X1680Y1768D02*
X1699Y1768D01*
X1808Y1768D02*
X1816Y1768D01*
X1850Y1768D02*
X1858Y1768D01*
X1890Y1768D02*
X1921Y1768D01*
X1962Y1768D02*
X1993Y1768D01*
X2025Y1768D02*
X2034Y1768D01*
X2042Y1768D02*
X2056Y1768D01*
X2064Y1768D02*
X2073Y1768D01*
X1593Y1767D02*
X1602Y1767D01*
X1680Y1767D02*
X1699Y1767D01*
X1808Y1767D02*
X1817Y1767D01*
X1849Y1767D02*
X1858Y1767D01*
X1888Y1767D02*
X1922Y1767D01*
X1960Y1767D02*
X1994Y1767D01*
X2025Y1767D02*
X2034Y1767D01*
X2043Y1767D02*
X2055Y1767D01*
X2064Y1767D02*
X2073Y1767D01*
X1593Y1766D02*
X1602Y1766D01*
X1680Y1766D02*
X1699Y1766D01*
X1808Y1766D02*
X1817Y1766D01*
X1849Y1766D02*
X1859Y1766D01*
X1887Y1766D02*
X1923Y1766D01*
X1959Y1766D02*
X1995Y1766D01*
X2025Y1766D02*
X2034Y1766D01*
X2044Y1766D02*
X2054Y1766D01*
X2064Y1766D02*
X2073Y1766D01*
X1593Y1765D02*
X1602Y1765D01*
X1680Y1765D02*
X1698Y1765D01*
X1808Y1765D02*
X1817Y1765D01*
X1849Y1765D02*
X1858Y1765D01*
X1886Y1765D02*
X1924Y1765D01*
X1958Y1765D02*
X1996Y1765D01*
X2025Y1765D02*
X2034Y1765D01*
X2044Y1765D02*
X2054Y1765D01*
X2064Y1765D02*
X2073Y1765D01*
X1593Y1764D02*
X1602Y1764D01*
X1680Y1764D02*
X1698Y1764D01*
X1808Y1764D02*
X1817Y1764D01*
X1849Y1764D02*
X1858Y1764D01*
X1885Y1764D02*
X1925Y1764D01*
X1957Y1764D02*
X1997Y1764D01*
X2025Y1764D02*
X2034Y1764D01*
X2044Y1764D02*
X2054Y1764D01*
X2064Y1764D02*
X2073Y1764D01*
X1593Y1763D02*
X1602Y1763D01*
X1681Y1763D02*
X1697Y1763D01*
X1808Y1763D02*
X1817Y1763D01*
X1849Y1763D02*
X1858Y1763D01*
X1884Y1763D02*
X1926Y1763D01*
X1956Y1763D02*
X1998Y1763D01*
X2025Y1763D02*
X2034Y1763D01*
X2044Y1763D02*
X2054Y1763D01*
X2064Y1763D02*
X2073Y1763D01*
X1593Y1762D02*
X1602Y1762D01*
X1683Y1762D02*
X1696Y1762D01*
X1808Y1762D02*
X1817Y1762D01*
X1849Y1762D02*
X1858Y1762D01*
X1883Y1762D02*
X1927Y1762D01*
X1955Y1762D02*
X1999Y1762D01*
X2025Y1762D02*
X2034Y1762D01*
X2045Y1762D02*
X2054Y1762D01*
X2064Y1762D02*
X2073Y1762D01*
X1593Y1761D02*
X1603Y1761D01*
X1808Y1761D02*
X1817Y1761D01*
X1849Y1761D02*
X1858Y1761D01*
X1883Y1761D02*
X1896Y1761D01*
X1914Y1761D02*
X1927Y1761D01*
X1955Y1761D02*
X1968Y1761D01*
X1986Y1761D02*
X1999Y1761D01*
X2025Y1761D02*
X2034Y1761D01*
X2045Y1761D02*
X2053Y1761D01*
X2064Y1761D02*
X2073Y1761D01*
X1593Y1760D02*
X1604Y1760D01*
X1808Y1760D02*
X1817Y1760D01*
X1849Y1760D02*
X1858Y1760D01*
X1882Y1760D02*
X1894Y1760D01*
X1915Y1760D02*
X1928Y1760D01*
X1954Y1760D02*
X1966Y1760D01*
X1987Y1760D02*
X2000Y1760D01*
X2025Y1760D02*
X2034Y1760D01*
X2045Y1760D02*
X2053Y1760D01*
X2064Y1760D02*
X2073Y1760D01*
X1594Y1759D02*
X1607Y1759D01*
X1808Y1759D02*
X1817Y1759D01*
X1849Y1759D02*
X1858Y1759D01*
X1882Y1759D02*
X1893Y1759D01*
X1917Y1759D02*
X1928Y1759D01*
X1954Y1759D02*
X1965Y1759D01*
X1989Y1759D02*
X2000Y1759D01*
X2025Y1759D02*
X2034Y1759D01*
X2046Y1759D02*
X2052Y1759D01*
X2064Y1759D02*
X2073Y1759D01*
X1594Y1758D02*
X1629Y1758D01*
X1808Y1758D02*
X1817Y1758D01*
X1849Y1758D02*
X1858Y1758D01*
X1881Y1758D02*
X1892Y1758D01*
X1918Y1758D02*
X1929Y1758D01*
X1953Y1758D02*
X1964Y1758D01*
X1990Y1758D02*
X2001Y1758D01*
X2025Y1758D02*
X2034Y1758D01*
X2047Y1758D02*
X2051Y1758D01*
X2064Y1758D02*
X2073Y1758D01*
X1594Y1757D02*
X1630Y1757D01*
X1808Y1757D02*
X1817Y1757D01*
X1849Y1757D02*
X1858Y1757D01*
X1881Y1757D02*
X1891Y1757D01*
X1919Y1757D02*
X1929Y1757D01*
X1953Y1757D02*
X1963Y1757D01*
X1991Y1757D02*
X2001Y1757D01*
X2025Y1757D02*
X2034Y1757D01*
X2064Y1757D02*
X2073Y1757D01*
X1595Y1756D02*
X1631Y1756D01*
X1808Y1756D02*
X1817Y1756D01*
X1849Y1756D02*
X1858Y1756D01*
X1881Y1756D02*
X1890Y1756D01*
X1920Y1756D02*
X1929Y1756D01*
X1953Y1756D02*
X1962Y1756D01*
X1992Y1756D02*
X2001Y1756D01*
X2025Y1756D02*
X2034Y1756D01*
X2064Y1756D02*
X2073Y1756D01*
X1596Y1755D02*
X1631Y1755D01*
X1808Y1755D02*
X1817Y1755D01*
X1849Y1755D02*
X1858Y1755D01*
X1881Y1755D02*
X1890Y1755D01*
X1920Y1755D02*
X1929Y1755D01*
X1953Y1755D02*
X1962Y1755D01*
X1992Y1755D02*
X2001Y1755D01*
X2025Y1755D02*
X2034Y1755D01*
X2064Y1755D02*
X2073Y1755D01*
X1596Y1754D02*
X1631Y1754D01*
X1808Y1754D02*
X1817Y1754D01*
X1831Y1754D02*
X1835Y1754D01*
X1849Y1754D02*
X1858Y1754D01*
X1881Y1754D02*
X1890Y1754D01*
X1920Y1754D02*
X1929Y1754D01*
X1953Y1754D02*
X1962Y1754D01*
X1992Y1754D02*
X2001Y1754D01*
X2025Y1754D02*
X2034Y1754D01*
X2064Y1754D02*
X2073Y1754D01*
X1596Y1753D02*
X1631Y1753D01*
X1808Y1753D02*
X1817Y1753D01*
X1830Y1753D02*
X1836Y1753D01*
X1849Y1753D02*
X1858Y1753D01*
X1881Y1753D02*
X1890Y1753D01*
X1920Y1753D02*
X1929Y1753D01*
X1953Y1753D02*
X1962Y1753D01*
X1992Y1753D02*
X2001Y1753D01*
X2025Y1753D02*
X2034Y1753D01*
X2064Y1753D02*
X2073Y1753D01*
X1595Y1752D02*
X1631Y1752D01*
X1808Y1752D02*
X1817Y1752D01*
X1829Y1752D02*
X1837Y1752D01*
X1849Y1752D02*
X1858Y1752D01*
X1881Y1752D02*
X1890Y1752D01*
X1920Y1752D02*
X1929Y1752D01*
X1953Y1752D02*
X1962Y1752D01*
X1992Y1752D02*
X2001Y1752D01*
X2025Y1752D02*
X2034Y1752D01*
X2064Y1752D02*
X2073Y1752D01*
X1595Y1751D02*
X1631Y1751D01*
X1808Y1751D02*
X1817Y1751D01*
X1829Y1751D02*
X1837Y1751D01*
X1849Y1751D02*
X1858Y1751D01*
X1881Y1751D02*
X1890Y1751D01*
X1920Y1751D02*
X1929Y1751D01*
X1953Y1751D02*
X1962Y1751D01*
X1992Y1751D02*
X2001Y1751D01*
X2025Y1751D02*
X2034Y1751D01*
X2064Y1751D02*
X2073Y1751D01*
X1594Y1750D02*
X1630Y1750D01*
X1808Y1750D02*
X1817Y1750D01*
X1829Y1750D02*
X1838Y1750D01*
X1849Y1750D02*
X1858Y1750D01*
X1881Y1750D02*
X1890Y1750D01*
X1920Y1750D02*
X1929Y1750D01*
X1953Y1750D02*
X1962Y1750D01*
X1992Y1750D02*
X2001Y1750D01*
X2025Y1750D02*
X2034Y1750D01*
X2064Y1750D02*
X2073Y1750D01*
X1594Y1749D02*
X1627Y1749D01*
X1808Y1749D02*
X1817Y1749D01*
X1829Y1749D02*
X1838Y1749D01*
X1849Y1749D02*
X1858Y1749D01*
X1881Y1749D02*
X1890Y1749D01*
X1920Y1749D02*
X1929Y1749D01*
X1953Y1749D02*
X1962Y1749D01*
X1992Y1749D02*
X2001Y1749D01*
X2025Y1749D02*
X2034Y1749D01*
X2064Y1749D02*
X2073Y1749D01*
X1593Y1748D02*
X1604Y1748D01*
X1808Y1748D02*
X1817Y1748D01*
X1829Y1748D02*
X1838Y1748D01*
X1849Y1748D02*
X1858Y1748D01*
X1881Y1748D02*
X1890Y1748D01*
X1920Y1748D02*
X1929Y1748D01*
X1953Y1748D02*
X1962Y1748D01*
X1992Y1748D02*
X2001Y1748D01*
X2025Y1748D02*
X2034Y1748D01*
X2064Y1748D02*
X2073Y1748D01*
X1593Y1747D02*
X1603Y1747D01*
X1808Y1747D02*
X1817Y1747D01*
X1829Y1747D02*
X1838Y1747D01*
X1849Y1747D02*
X1858Y1747D01*
X1881Y1747D02*
X1890Y1747D01*
X1920Y1747D02*
X1929Y1747D01*
X1953Y1747D02*
X1962Y1747D01*
X1992Y1747D02*
X2001Y1747D01*
X2025Y1747D02*
X2034Y1747D01*
X2064Y1747D02*
X2073Y1747D01*
X1593Y1746D02*
X1602Y1746D01*
X1684Y1746D02*
X1694Y1746D01*
X1808Y1746D02*
X1817Y1746D01*
X1829Y1746D02*
X1838Y1746D01*
X1849Y1746D02*
X1858Y1746D01*
X1881Y1746D02*
X1890Y1746D01*
X1920Y1746D02*
X1929Y1746D01*
X1953Y1746D02*
X2001Y1746D01*
X2025Y1746D02*
X2034Y1746D01*
X2064Y1746D02*
X2073Y1746D01*
X1593Y1745D02*
X1602Y1745D01*
X1682Y1745D02*
X1697Y1745D01*
X1808Y1745D02*
X1817Y1745D01*
X1829Y1745D02*
X1838Y1745D01*
X1849Y1745D02*
X1858Y1745D01*
X1881Y1745D02*
X1890Y1745D01*
X1920Y1745D02*
X1929Y1745D01*
X1953Y1745D02*
X2001Y1745D01*
X2025Y1745D02*
X2034Y1745D01*
X2064Y1745D02*
X2073Y1745D01*
X1593Y1744D02*
X1602Y1744D01*
X1681Y1744D02*
X1698Y1744D01*
X1808Y1744D02*
X1817Y1744D01*
X1829Y1744D02*
X1838Y1744D01*
X1849Y1744D02*
X1858Y1744D01*
X1881Y1744D02*
X1890Y1744D01*
X1920Y1744D02*
X1929Y1744D01*
X1953Y1744D02*
X2001Y1744D01*
X2025Y1744D02*
X2034Y1744D01*
X2064Y1744D02*
X2073Y1744D01*
X1593Y1743D02*
X1602Y1743D01*
X1680Y1743D02*
X1698Y1743D01*
X1808Y1743D02*
X1818Y1743D01*
X1829Y1743D02*
X1838Y1743D01*
X1849Y1743D02*
X1858Y1743D01*
X1881Y1743D02*
X1890Y1743D01*
X1920Y1743D02*
X1929Y1743D01*
X1953Y1743D02*
X2001Y1743D01*
X2025Y1743D02*
X2034Y1743D01*
X2064Y1743D02*
X2073Y1743D01*
X1593Y1742D02*
X1602Y1742D01*
X1680Y1742D02*
X1698Y1742D01*
X1808Y1742D02*
X1818Y1742D01*
X1829Y1742D02*
X1838Y1742D01*
X1849Y1742D02*
X1858Y1742D01*
X1881Y1742D02*
X1890Y1742D01*
X1920Y1742D02*
X1929Y1742D01*
X1953Y1742D02*
X2001Y1742D01*
X2025Y1742D02*
X2034Y1742D01*
X2064Y1742D02*
X2073Y1742D01*
X1593Y1741D02*
X1602Y1741D01*
X1680Y1741D02*
X1699Y1741D01*
X1809Y1741D02*
X1818Y1741D01*
X1829Y1741D02*
X1838Y1741D01*
X1849Y1741D02*
X1858Y1741D01*
X1881Y1741D02*
X1890Y1741D01*
X1920Y1741D02*
X1929Y1741D01*
X1953Y1741D02*
X2001Y1741D01*
X2025Y1741D02*
X2034Y1741D01*
X2064Y1741D02*
X2073Y1741D01*
X1593Y1740D02*
X1602Y1740D01*
X1680Y1740D02*
X1699Y1740D01*
X1809Y1740D02*
X1818Y1740D01*
X1829Y1740D02*
X1838Y1740D01*
X1849Y1740D02*
X1858Y1740D01*
X1881Y1740D02*
X1890Y1740D01*
X1920Y1740D02*
X1929Y1740D01*
X1953Y1740D02*
X2001Y1740D01*
X2025Y1740D02*
X2034Y1740D01*
X2064Y1740D02*
X2073Y1740D01*
X1593Y1739D02*
X1602Y1739D01*
X1680Y1739D02*
X1699Y1739D01*
X1809Y1739D02*
X1818Y1739D01*
X1829Y1739D02*
X1838Y1739D01*
X1848Y1739D02*
X1858Y1739D01*
X1881Y1739D02*
X1890Y1739D01*
X1920Y1739D02*
X1929Y1739D01*
X1953Y1739D02*
X2001Y1739D01*
X2025Y1739D02*
X2034Y1739D01*
X2064Y1739D02*
X2073Y1739D01*
X1593Y1738D02*
X1602Y1738D01*
X1680Y1738D02*
X1699Y1738D01*
X1809Y1738D02*
X1818Y1738D01*
X1828Y1738D02*
X1838Y1738D01*
X1848Y1738D02*
X1858Y1738D01*
X1881Y1738D02*
X1890Y1738D01*
X1920Y1738D02*
X1929Y1738D01*
X1954Y1738D02*
X2001Y1738D01*
X2025Y1738D02*
X2034Y1738D01*
X2064Y1738D02*
X2073Y1738D01*
X1593Y1737D02*
X1602Y1737D01*
X1680Y1737D02*
X1699Y1737D01*
X1809Y1737D02*
X1818Y1737D01*
X1828Y1737D02*
X1838Y1737D01*
X1848Y1737D02*
X1858Y1737D01*
X1881Y1737D02*
X1890Y1737D01*
X1920Y1737D02*
X1929Y1737D01*
X1955Y1737D02*
X2001Y1737D01*
X2025Y1737D02*
X2034Y1737D01*
X2064Y1737D02*
X2073Y1737D01*
X1593Y1736D02*
X1602Y1736D01*
X1680Y1736D02*
X1699Y1736D01*
X1809Y1736D02*
X1818Y1736D01*
X1827Y1736D02*
X1839Y1736D01*
X1848Y1736D02*
X1857Y1736D01*
X1881Y1736D02*
X1890Y1736D01*
X1920Y1736D02*
X1929Y1736D01*
X1992Y1736D02*
X2001Y1736D01*
X2025Y1736D02*
X2034Y1736D01*
X2064Y1736D02*
X2073Y1736D01*
X1593Y1735D02*
X1602Y1735D01*
X1680Y1735D02*
X1699Y1735D01*
X1809Y1735D02*
X1819Y1735D01*
X1827Y1735D02*
X1839Y1735D01*
X1848Y1735D02*
X1857Y1735D01*
X1881Y1735D02*
X1890Y1735D01*
X1920Y1735D02*
X1929Y1735D01*
X1992Y1735D02*
X2001Y1735D01*
X2025Y1735D02*
X2034Y1735D01*
X2064Y1735D02*
X2073Y1735D01*
X1593Y1734D02*
X1602Y1734D01*
X1680Y1734D02*
X1699Y1734D01*
X1809Y1734D02*
X1819Y1734D01*
X1826Y1734D02*
X1840Y1734D01*
X1847Y1734D02*
X1857Y1734D01*
X1881Y1734D02*
X1890Y1734D01*
X1920Y1734D02*
X1929Y1734D01*
X1992Y1734D02*
X2001Y1734D01*
X2025Y1734D02*
X2034Y1734D01*
X2064Y1734D02*
X2073Y1734D01*
X1593Y1733D02*
X1602Y1733D01*
X1680Y1733D02*
X1699Y1733D01*
X1809Y1733D02*
X1819Y1733D01*
X1825Y1733D02*
X1841Y1733D01*
X1847Y1733D02*
X1856Y1733D01*
X1881Y1733D02*
X1890Y1733D01*
X1920Y1733D02*
X1929Y1733D01*
X1992Y1733D02*
X2001Y1733D01*
X2025Y1733D02*
X2034Y1733D01*
X2064Y1733D02*
X2073Y1733D01*
X1593Y1732D02*
X1602Y1732D01*
X1680Y1732D02*
X1699Y1732D01*
X1810Y1732D02*
X1819Y1732D01*
X1825Y1732D02*
X1841Y1732D01*
X1847Y1732D02*
X1856Y1732D01*
X1881Y1732D02*
X1890Y1732D01*
X1920Y1732D02*
X1929Y1732D01*
X1992Y1732D02*
X2001Y1732D01*
X2025Y1732D02*
X2034Y1732D01*
X2064Y1732D02*
X2073Y1732D01*
X1593Y1731D02*
X1602Y1731D01*
X1680Y1731D02*
X1698Y1731D01*
X1810Y1731D02*
X1820Y1731D01*
X1824Y1731D02*
X1842Y1731D01*
X1846Y1731D02*
X1856Y1731D01*
X1881Y1731D02*
X1890Y1731D01*
X1920Y1731D02*
X1929Y1731D01*
X1992Y1731D02*
X2001Y1731D01*
X2025Y1731D02*
X2034Y1731D01*
X2064Y1731D02*
X2073Y1731D01*
X1593Y1730D02*
X1602Y1730D01*
X1680Y1730D02*
X1698Y1730D01*
X1810Y1730D02*
X1820Y1730D01*
X1824Y1730D02*
X1842Y1730D01*
X1846Y1730D02*
X1856Y1730D01*
X1881Y1730D02*
X1891Y1730D01*
X1919Y1730D02*
X1929Y1730D01*
X1991Y1730D02*
X2001Y1730D01*
X2025Y1730D02*
X2034Y1730D01*
X2064Y1730D02*
X2073Y1730D01*
X1593Y1729D02*
X1602Y1729D01*
X1681Y1729D02*
X1697Y1729D01*
X1811Y1729D02*
X1820Y1729D01*
X1823Y1729D02*
X1843Y1729D01*
X1846Y1729D02*
X1855Y1729D01*
X1881Y1729D02*
X1892Y1729D01*
X1918Y1729D02*
X1929Y1729D01*
X1990Y1729D02*
X2001Y1729D01*
X2025Y1729D02*
X2034Y1729D01*
X2064Y1729D02*
X2073Y1729D01*
X1593Y1728D02*
X1602Y1728D01*
X1683Y1728D02*
X1696Y1728D01*
X1811Y1728D02*
X1821Y1728D01*
X1823Y1728D02*
X1844Y1728D01*
X1846Y1728D02*
X1855Y1728D01*
X1881Y1728D02*
X1893Y1728D01*
X1917Y1728D02*
X1929Y1728D01*
X1989Y1728D02*
X2001Y1728D01*
X2025Y1728D02*
X2034Y1728D01*
X2064Y1728D02*
X2073Y1728D01*
X1593Y1727D02*
X1602Y1727D01*
X1811Y1727D02*
X1855Y1727D01*
X1882Y1727D02*
X1894Y1727D01*
X1916Y1727D02*
X1928Y1727D01*
X1988Y1727D02*
X2000Y1727D01*
X2025Y1727D02*
X2034Y1727D01*
X2064Y1727D02*
X2073Y1727D01*
X1593Y1726D02*
X1602Y1726D01*
X1812Y1726D02*
X1832Y1726D01*
X1834Y1726D02*
X1854Y1726D01*
X1882Y1726D02*
X1895Y1726D01*
X1915Y1726D02*
X1928Y1726D01*
X1987Y1726D02*
X2000Y1726D01*
X2025Y1726D02*
X2034Y1726D01*
X2064Y1726D02*
X2073Y1726D01*
X1593Y1725D02*
X1602Y1725D01*
X1812Y1725D02*
X1831Y1725D01*
X1835Y1725D02*
X1854Y1725D01*
X1883Y1725D02*
X1898Y1725D01*
X1912Y1725D02*
X1927Y1725D01*
X1984Y1725D02*
X1999Y1725D01*
X2025Y1725D02*
X2034Y1725D01*
X2064Y1725D02*
X2073Y1725D01*
X1593Y1724D02*
X1639Y1724D01*
X1812Y1724D02*
X1831Y1724D01*
X1835Y1724D02*
X1854Y1724D01*
X1884Y1724D02*
X1927Y1724D01*
X1955Y1724D02*
X1999Y1724D01*
X2025Y1724D02*
X2034Y1724D01*
X2064Y1724D02*
X2073Y1724D01*
X1593Y1723D02*
X1640Y1723D01*
X1812Y1723D02*
X1830Y1723D01*
X1836Y1723D02*
X1854Y1723D01*
X1885Y1723D02*
X1926Y1723D01*
X1954Y1723D02*
X1998Y1723D01*
X2025Y1723D02*
X2034Y1723D01*
X2064Y1723D02*
X2073Y1723D01*
X1593Y1722D02*
X1641Y1722D01*
X1813Y1722D02*
X1830Y1722D01*
X1836Y1722D02*
X1853Y1722D01*
X1886Y1722D02*
X1925Y1722D01*
X1953Y1722D02*
X1997Y1722D01*
X2025Y1722D02*
X2034Y1722D01*
X2064Y1722D02*
X2073Y1722D01*
X1593Y1721D02*
X1641Y1721D01*
X1813Y1721D02*
X1829Y1721D01*
X1837Y1721D02*
X1853Y1721D01*
X1887Y1721D02*
X1924Y1721D01*
X1953Y1721D02*
X1996Y1721D01*
X2025Y1721D02*
X2034Y1721D01*
X2064Y1721D02*
X2073Y1721D01*
X1594Y1720D02*
X1641Y1720D01*
X1813Y1720D02*
X1829Y1720D01*
X1838Y1720D02*
X1853Y1720D01*
X1888Y1720D02*
X1922Y1720D01*
X1953Y1720D02*
X1994Y1720D01*
X2025Y1720D02*
X2034Y1720D01*
X2064Y1720D02*
X2073Y1720D01*
X1595Y1719D02*
X1641Y1719D01*
X1814Y1719D02*
X1828Y1719D01*
X1838Y1719D02*
X1852Y1719D01*
X1889Y1719D02*
X1921Y1719D01*
X1953Y1719D02*
X1993Y1719D01*
X2025Y1719D02*
X2034Y1719D01*
X2064Y1719D02*
X2073Y1719D01*
X1596Y1718D02*
X1641Y1718D01*
X1814Y1718D02*
X1827Y1718D01*
X1839Y1718D02*
X1852Y1718D01*
X1890Y1718D02*
X1920Y1718D01*
X1953Y1718D02*
X1992Y1718D01*
X2025Y1718D02*
X2033Y1718D01*
X2065Y1718D02*
X2073Y1718D01*
X1597Y1717D02*
X1640Y1717D01*
X1815Y1717D02*
X1827Y1717D01*
X1839Y1717D02*
X1852Y1717D01*
X1892Y1717D02*
X1918Y1717D01*
X1954Y1717D02*
X1991Y1717D01*
X2026Y1717D02*
X2033Y1717D01*
X2065Y1717D02*
X2072Y1717D01*
X1598Y1716D02*
X1640Y1716D01*
X1816Y1716D02*
X1826Y1716D01*
X1840Y1716D02*
X1851Y1716D01*
X1894Y1716D02*
X1916Y1716D01*
X1955Y1716D02*
X1989Y1716D01*
X2027Y1716D02*
X2032Y1716D01*
X2066Y1716D02*
X2071Y1716D01*
X1601Y1715D02*
X1637Y1715D01*
X1818Y1715D02*
X1824Y1715D01*
X1842Y1715D02*
X1848Y1715D01*
X1898Y1715D02*
X1912Y1715D01*
X1957Y1715D02*
X1985Y1715D01*
X2029Y1715D02*
X2030Y1715D01*
X2069Y1715D02*
X2069Y1715D01*
X95Y134D02*
X133Y134D01*
X93Y133D02*
X134Y133D01*
X91Y132D02*
X135Y132D01*
X90Y131D02*
X136Y131D01*
X89Y130D02*
X136Y130D01*
X89Y129D02*
X136Y129D01*
X88Y128D02*
X136Y128D01*
X88Y127D02*
X136Y127D01*
X88Y126D02*
X135Y126D01*
X87Y125D02*
X134Y125D01*
X162Y125D02*
X166Y125D01*
X87Y124D02*
X97Y124D01*
X161Y124D02*
X168Y124D01*
X87Y123D02*
X97Y123D01*
X160Y123D02*
X170Y123D01*
X87Y122D02*
X97Y122D01*
X160Y122D02*
X171Y122D01*
X87Y121D02*
X97Y121D01*
X159Y121D02*
X173Y121D01*
X87Y120D02*
X97Y120D01*
X160Y120D02*
X175Y120D01*
X87Y119D02*
X97Y119D01*
X160Y119D02*
X177Y119D01*
X87Y118D02*
X97Y118D01*
X160Y118D02*
X178Y118D01*
X87Y117D02*
X97Y117D01*
X161Y117D02*
X180Y117D01*
X87Y116D02*
X97Y116D01*
X163Y116D02*
X182Y116D01*
X87Y115D02*
X97Y115D01*
X164Y115D02*
X183Y115D01*
X87Y114D02*
X97Y114D01*
X166Y114D02*
X185Y114D01*
X87Y113D02*
X97Y113D01*
X168Y113D02*
X187Y113D01*
X87Y112D02*
X97Y112D01*
X169Y112D02*
X188Y112D01*
X87Y111D02*
X97Y111D01*
X171Y111D02*
X190Y111D01*
X87Y110D02*
X97Y110D01*
X173Y110D02*
X192Y110D01*
X87Y109D02*
X97Y109D01*
X175Y109D02*
X194Y109D01*
X87Y108D02*
X97Y108D01*
X176Y108D02*
X195Y108D01*
X87Y107D02*
X97Y107D01*
X178Y107D02*
X197Y107D01*
X87Y106D02*
X97Y106D01*
X180Y106D02*
X199Y106D01*
X87Y105D02*
X97Y105D01*
X181Y105D02*
X200Y105D01*
X88Y104D02*
X97Y104D01*
X183Y104D02*
X202Y104D01*
X88Y103D02*
X97Y103D01*
X185Y103D02*
X204Y103D01*
X88Y102D02*
X98Y102D01*
X186Y102D02*
X206Y102D01*
X88Y101D02*
X99Y101D01*
X188Y101D02*
X207Y101D01*
X88Y100D02*
X123Y100D01*
X190Y100D02*
X208Y100D01*
X89Y99D02*
X125Y99D01*
X192Y99D02*
X208Y99D01*
X89Y98D02*
X125Y98D01*
X193Y98D02*
X208Y98D01*
X90Y97D02*
X126Y97D01*
X195Y97D02*
X208Y97D01*
X91Y96D02*
X126Y96D01*
X197Y96D02*
X208Y96D01*
X91Y95D02*
X126Y95D01*
X197Y95D02*
X208Y95D01*
X90Y94D02*
X126Y94D01*
X196Y94D02*
X208Y94D01*
X90Y93D02*
X126Y93D01*
X194Y93D02*
X208Y93D01*
X89Y92D02*
X125Y92D01*
X192Y92D02*
X208Y92D01*
X89Y91D02*
X124Y91D01*
X190Y91D02*
X208Y91D01*
X88Y90D02*
X100Y90D01*
X189Y90D02*
X207Y90D01*
X88Y89D02*
X98Y89D01*
X187Y89D02*
X206Y89D01*
X88Y88D02*
X97Y88D01*
X185Y88D02*
X204Y88D01*
X88Y87D02*
X97Y87D01*
X184Y87D02*
X203Y87D01*
X87Y86D02*
X97Y86D01*
X182Y86D02*
X201Y86D01*
X87Y85D02*
X97Y85D01*
X180Y85D02*
X199Y85D01*
X87Y84D02*
X97Y84D01*
X178Y84D02*
X198Y84D01*
X87Y83D02*
X97Y83D01*
X177Y83D02*
X196Y83D01*
X87Y82D02*
X97Y82D01*
X175Y82D02*
X194Y82D01*
X87Y81D02*
X97Y81D01*
X173Y81D02*
X192Y81D01*
X87Y80D02*
X97Y80D01*
X172Y80D02*
X191Y80D01*
X87Y79D02*
X97Y79D01*
X170Y79D02*
X189Y79D01*
X87Y78D02*
X97Y78D01*
X168Y78D02*
X187Y78D01*
X87Y77D02*
X97Y77D01*
X167Y77D02*
X186Y77D01*
X87Y76D02*
X97Y76D01*
X165Y76D02*
X184Y76D01*
X87Y75D02*
X97Y75D01*
X163Y75D02*
X182Y75D01*
X87Y74D02*
X97Y74D01*
X162Y74D02*
X180Y74D01*
X87Y73D02*
X97Y73D01*
X161Y73D02*
X179Y73D01*
X87Y72D02*
X97Y72D01*
X160Y72D02*
X177Y72D01*
X87Y71D02*
X97Y71D01*
X160Y71D02*
X175Y71D01*
X87Y70D02*
X97Y70D01*
X159Y70D02*
X174Y70D01*
X87Y69D02*
X97Y69D01*
X160Y69D02*
X172Y69D01*
X87Y68D02*
X97Y68D01*
X160Y68D02*
X170Y68D01*
X87Y67D02*
X97Y67D01*
X160Y67D02*
X169Y67D01*
X87Y66D02*
X133Y66D01*
X161Y66D02*
X167Y66D01*
X88Y65D02*
X135Y65D01*
X164Y65D02*
X165Y65D01*
X88Y64D02*
X135Y64D01*
X88Y63D02*
X136Y63D01*
X89Y62D02*
X136Y62D01*
X89Y61D02*
X136Y61D01*
X90Y60D02*
X136Y60D01*
X91Y59D02*
X136Y59D01*
X92Y58D02*
X135Y58D01*
X94Y57D02*
X133Y57D01*
D02*
G04 End of Silk0*
M02*