G04 MADE WITH FRITZING*
G04 WWW.FRITZING.ORG*
G04 DOUBLE SIDED*
G04 HOLES PLATED*
G04 CONTOUR ON CENTER OF CONTOUR VECTOR*
%ASAXBY*%
%FSLAX23Y23*%
%MOIN*%
%OFA0B0*%
%SFA1.0B1.0*%
%ADD10C,0.075000*%
%ADD11C,0.074000*%
%ADD12C,0.078000*%
%ADD13C,0.080000*%
%ADD14C,0.060000*%
%ADD15R,0.073028X0.071501*%
%ADD16R,0.071756X0.074809*%
%ADD17R,0.073028X0.069551*%
%ADD18R,0.071501X0.071077*%
%ADD19R,0.071756X0.071756*%
%ADD20R,0.000028X0.000028*%
%ADD21R,0.082469X0.079707*%
%ADD22R,0.080184X0.080286*%
%ADD23R,0.078917X0.078057*%
%ADD24R,0.080000X0.080000*%
%ADD25R,0.080184X0.080012*%
%ADD26C,0.024000*%
%LNCOPPER0*%
G90*
G70*
G54D10*
X1611Y1153D03*
X1611Y897D03*
X1788Y1153D03*
X1788Y897D03*
X1611Y1153D03*
X1611Y897D03*
X1788Y1153D03*
X1788Y897D03*
X1922Y1329D03*
X1922Y1074D03*
X2100Y1329D03*
X2100Y1074D03*
X1922Y1329D03*
X1922Y1074D03*
X2100Y1329D03*
X2100Y1074D03*
X1611Y1503D03*
X1611Y1247D03*
X1788Y1503D03*
X1788Y1247D03*
X1611Y1503D03*
X1611Y1247D03*
X1788Y1503D03*
X1788Y1247D03*
G54D11*
X1372Y730D03*
X1372Y630D03*
X1372Y530D03*
X1372Y430D03*
X1372Y330D03*
G54D12*
X572Y179D03*
X672Y179D03*
X772Y179D03*
X872Y179D03*
X972Y179D03*
X1072Y179D03*
X1172Y179D03*
X1172Y780D03*
X1072Y780D03*
X972Y780D03*
X872Y780D03*
X772Y780D03*
X672Y780D03*
X572Y780D03*
X1481Y1079D03*
X1481Y1631D03*
X572Y1079D03*
X572Y1180D03*
X572Y1531D03*
X572Y1631D03*
G54D13*
X272Y1479D03*
X272Y1342D03*
G54D12*
X229Y780D03*
X229Y936D03*
X229Y1092D03*
G54D14*
X822Y1579D03*
X922Y1580D03*
X1022Y1579D03*
X1122Y1579D03*
X822Y1579D03*
X922Y1580D03*
X1022Y1579D03*
X1122Y1579D03*
G54D15*
X1373Y330D03*
G54D16*
X1372Y428D03*
G54D17*
X1371Y529D03*
G54D18*
X1372Y730D03*
G54D19*
X1372Y630D03*
G54D20*
X1372Y730D03*
X1372Y630D03*
G54D18*
X1372Y630D03*
G54D19*
X1372Y730D03*
G54D20*
X1372Y730D03*
X1372Y630D03*
G54D18*
X1372Y630D03*
G54D19*
X1372Y730D03*
G54D20*
X1372Y730D03*
X1372Y630D03*
G54D18*
X1372Y630D03*
G54D19*
X1372Y730D03*
G54D21*
X1372Y329D03*
G54D22*
X1372Y429D03*
G54D23*
X1372Y530D03*
G54D24*
X1372Y629D03*
G54D25*
X1372Y729D03*
G54D24*
X272Y1479D03*
G54D26*
X521Y579D02*
X422Y878D01*
D02*
X773Y329D02*
X521Y579D01*
D02*
X773Y210D02*
X773Y329D01*
D02*
X1322Y981D02*
X1894Y1069D01*
D02*
X1173Y880D02*
X1322Y981D01*
D02*
X422Y878D02*
X1173Y880D01*
D02*
X1223Y679D02*
X872Y329D01*
D02*
X1324Y880D02*
X1223Y679D01*
D02*
X1582Y896D02*
X1324Y880D01*
D02*
X872Y329D02*
X872Y210D01*
D02*
X672Y329D02*
X672Y210D01*
D02*
X472Y529D02*
X672Y329D01*
D02*
X1072Y929D02*
X323Y931D01*
D02*
X323Y931D02*
X472Y529D01*
D02*
X1586Y1233D02*
X1072Y929D01*
D02*
X1072Y210D02*
X1072Y329D01*
D02*
X1072Y329D02*
X1342Y599D01*
D02*
X974Y329D02*
X1338Y695D01*
D02*
X973Y210D02*
X974Y329D01*
G04 End of Copper0*
M02*