G04 MADE WITH FRITZING*
G04 WWW.FRITZING.ORG*
G04 DOUBLE SIDED*
G04 HOLES PLATED*
G04 CONTOUR ON CENTER OF CONTOUR VECTOR*
%ASAXBY*%
%FSLAX23Y23*%
%MOIN*%
%OFA0B0*%
%SFA1.0B1.0*%
%ADD10R,2.217250X1.868770X2.201250X1.852770*%
%ADD11C,0.008000*%
%ADD12C,0.010000*%
%ADD13C,0.032808*%
%ADD14R,0.001000X0.001000*%
%LNSILK0*%
G90*
G70*
G54D11*
X4Y1865D02*
X2213Y1865D01*
X2213Y4D01*
X4Y4D01*
X4Y1865D01*
D02*
G54D12*
X1738Y1143D02*
X1660Y1143D01*
D02*
X1817Y947D02*
X1817Y1114D01*
D02*
X1581Y947D02*
X1581Y1114D01*
D02*
X1738Y907D02*
X1660Y907D01*
D02*
X1719Y1025D02*
X1679Y1025D01*
D02*
X1699Y1045D02*
X1699Y1006D01*
D02*
X2050Y1320D02*
X1972Y1320D01*
D02*
X2129Y1123D02*
X2129Y1290D01*
D02*
X1893Y1123D02*
X1893Y1290D01*
D02*
X2050Y1083D02*
X1972Y1083D01*
D02*
X2031Y1201D02*
X1991Y1201D01*
D02*
X2011Y1221D02*
X2011Y1182D01*
D02*
X1738Y1493D02*
X1660Y1493D01*
D02*
X1817Y1297D02*
X1817Y1464D01*
D02*
X1581Y1297D02*
X1581Y1464D01*
D02*
X1738Y1257D02*
X1660Y1257D01*
D02*
X1719Y1375D02*
X1679Y1375D01*
D02*
X1699Y1395D02*
X1699Y1356D01*
G54D13*
D02*
X1902Y682D02*
X1902Y665D01*
D02*
X1804Y682D02*
X1804Y665D01*
D02*
X1771Y58D02*
X1771Y386D01*
D02*
X1870Y58D02*
X1870Y386D01*
X1935Y58D02*
X1935Y567D01*
X2001Y649D01*
X2001Y813D01*
X1886Y747D01*
X1804Y747D01*
X1706Y813D01*
X1706Y649D01*
X1771Y567D01*
X1509Y370D01*
X1443Y173D01*
X1509Y58D01*
X2017Y58D01*
X2099Y140D01*
X2017Y288D01*
X2132Y403D01*
D02*
X1607Y255D02*
X1689Y255D01*
X1771Y124D01*
D02*
X1870Y600D02*
X1853Y616D01*
X1837Y600D01*
D02*
G54D14*
X737Y1784D02*
X776Y1784D01*
X735Y1783D02*
X777Y1783D01*
X734Y1782D02*
X778Y1782D01*
X733Y1781D02*
X779Y1781D01*
X732Y1780D02*
X779Y1780D01*
X731Y1779D02*
X779Y1779D01*
X731Y1778D02*
X779Y1778D01*
X730Y1777D02*
X778Y1777D01*
X730Y1776D02*
X777Y1776D01*
X730Y1775D02*
X776Y1775D01*
X730Y1774D02*
X739Y1774D01*
X730Y1773D02*
X739Y1773D01*
X730Y1772D02*
X739Y1772D01*
X730Y1771D02*
X739Y1771D01*
X819Y1771D02*
X834Y1771D01*
X730Y1770D02*
X739Y1770D01*
X818Y1770D02*
X835Y1770D01*
X730Y1769D02*
X739Y1769D01*
X817Y1769D02*
X835Y1769D01*
X730Y1768D02*
X739Y1768D01*
X817Y1768D02*
X836Y1768D01*
X730Y1767D02*
X739Y1767D01*
X817Y1767D02*
X836Y1767D01*
X730Y1766D02*
X739Y1766D01*
X817Y1766D02*
X836Y1766D01*
X730Y1765D02*
X739Y1765D01*
X817Y1765D02*
X836Y1765D01*
X730Y1764D02*
X739Y1764D01*
X817Y1764D02*
X836Y1764D01*
X730Y1763D02*
X739Y1763D01*
X817Y1763D02*
X836Y1763D01*
X948Y1763D02*
X951Y1763D01*
X990Y1763D02*
X992Y1763D01*
X1033Y1763D02*
X1051Y1763D01*
X1105Y1763D02*
X1123Y1763D01*
X1174Y1763D02*
X1175Y1763D01*
X1191Y1763D02*
X1196Y1763D01*
X1206Y1763D02*
X1208Y1763D01*
X730Y1762D02*
X739Y1762D01*
X817Y1762D02*
X836Y1762D01*
X947Y1762D02*
X952Y1762D01*
X989Y1762D02*
X994Y1762D01*
X1031Y1762D02*
X1054Y1762D01*
X1102Y1762D02*
X1126Y1762D01*
X1170Y1762D02*
X1179Y1762D01*
X1188Y1762D02*
X1198Y1762D01*
X1204Y1762D02*
X1210Y1762D01*
X730Y1761D02*
X739Y1761D01*
X817Y1761D02*
X836Y1761D01*
X946Y1761D02*
X953Y1761D01*
X988Y1761D02*
X995Y1761D01*
X1029Y1761D02*
X1056Y1761D01*
X1101Y1761D02*
X1128Y1761D01*
X1168Y1761D02*
X1180Y1761D01*
X1187Y1761D02*
X1200Y1761D01*
X1203Y1761D02*
X1211Y1761D01*
X730Y1760D02*
X739Y1760D01*
X817Y1760D02*
X836Y1760D01*
X945Y1760D02*
X954Y1760D01*
X987Y1760D02*
X995Y1760D01*
X1027Y1760D02*
X1058Y1760D01*
X1099Y1760D02*
X1130Y1760D01*
X1167Y1760D02*
X1182Y1760D01*
X1186Y1760D02*
X1211Y1760D01*
X730Y1759D02*
X739Y1759D01*
X817Y1759D02*
X836Y1759D01*
X945Y1759D02*
X954Y1759D01*
X987Y1759D02*
X996Y1759D01*
X1026Y1759D02*
X1059Y1759D01*
X1098Y1759D02*
X1131Y1759D01*
X1166Y1759D02*
X1183Y1759D01*
X1185Y1759D02*
X1211Y1759D01*
X730Y1758D02*
X739Y1758D01*
X817Y1758D02*
X836Y1758D01*
X945Y1758D02*
X954Y1758D01*
X987Y1758D02*
X996Y1758D01*
X1025Y1758D02*
X1060Y1758D01*
X1097Y1758D02*
X1132Y1758D01*
X1165Y1758D02*
X1212Y1758D01*
X730Y1757D02*
X739Y1757D01*
X817Y1757D02*
X836Y1757D01*
X945Y1757D02*
X954Y1757D01*
X987Y1757D02*
X996Y1757D01*
X1024Y1757D02*
X1061Y1757D01*
X1096Y1757D02*
X1133Y1757D01*
X1164Y1757D02*
X1212Y1757D01*
X730Y1756D02*
X739Y1756D01*
X817Y1756D02*
X835Y1756D01*
X945Y1756D02*
X954Y1756D01*
X987Y1756D02*
X996Y1756D01*
X1023Y1756D02*
X1062Y1756D01*
X1095Y1756D02*
X1134Y1756D01*
X1164Y1756D02*
X1212Y1756D01*
X730Y1755D02*
X739Y1755D01*
X818Y1755D02*
X835Y1755D01*
X945Y1755D02*
X954Y1755D01*
X987Y1755D02*
X996Y1755D01*
X1022Y1755D02*
X1063Y1755D01*
X1094Y1755D02*
X1135Y1755D01*
X1163Y1755D02*
X1212Y1755D01*
X730Y1754D02*
X739Y1754D01*
X819Y1754D02*
X833Y1754D01*
X945Y1754D02*
X954Y1754D01*
X987Y1754D02*
X996Y1754D01*
X1021Y1754D02*
X1064Y1754D01*
X1093Y1754D02*
X1136Y1754D01*
X1163Y1754D02*
X1212Y1754D01*
X730Y1753D02*
X740Y1753D01*
X945Y1753D02*
X954Y1753D01*
X987Y1753D02*
X996Y1753D01*
X1020Y1753D02*
X1034Y1753D01*
X1051Y1753D02*
X1064Y1753D01*
X1092Y1753D02*
X1106Y1753D01*
X1123Y1753D02*
X1136Y1753D01*
X1163Y1753D02*
X1173Y1753D01*
X1175Y1753D02*
X1192Y1753D01*
X1195Y1753D02*
X1212Y1753D01*
X730Y1752D02*
X741Y1752D01*
X945Y1752D02*
X954Y1752D01*
X987Y1752D02*
X996Y1752D01*
X1020Y1752D02*
X1032Y1752D01*
X1052Y1752D02*
X1065Y1752D01*
X1092Y1752D02*
X1104Y1752D01*
X1124Y1752D02*
X1137Y1752D01*
X1163Y1752D02*
X1172Y1752D01*
X1177Y1752D02*
X1191Y1752D01*
X1196Y1752D02*
X1212Y1752D01*
X731Y1751D02*
X743Y1751D01*
X945Y1751D02*
X954Y1751D01*
X987Y1751D02*
X996Y1751D01*
X1019Y1751D02*
X1031Y1751D01*
X1054Y1751D02*
X1065Y1751D01*
X1091Y1751D02*
X1103Y1751D01*
X1126Y1751D02*
X1137Y1751D01*
X1163Y1751D02*
X1172Y1751D01*
X1178Y1751D02*
X1191Y1751D01*
X1198Y1751D02*
X1212Y1751D01*
X731Y1750D02*
X766Y1750D01*
X945Y1750D02*
X954Y1750D01*
X986Y1750D02*
X996Y1750D01*
X1019Y1750D02*
X1030Y1750D01*
X1055Y1750D02*
X1066Y1750D01*
X1091Y1750D02*
X1102Y1750D01*
X1127Y1750D02*
X1138Y1750D01*
X1163Y1750D02*
X1172Y1750D01*
X1179Y1750D02*
X1191Y1750D01*
X1199Y1750D02*
X1212Y1750D01*
X732Y1749D02*
X768Y1749D01*
X945Y1749D02*
X954Y1749D01*
X986Y1749D02*
X996Y1749D01*
X1018Y1749D02*
X1029Y1749D01*
X1056Y1749D02*
X1066Y1749D01*
X1090Y1749D02*
X1101Y1749D01*
X1128Y1749D02*
X1138Y1749D01*
X1163Y1749D02*
X1172Y1749D01*
X1180Y1749D02*
X1191Y1749D01*
X1200Y1749D02*
X1212Y1749D01*
X732Y1748D02*
X768Y1748D01*
X945Y1748D02*
X954Y1748D01*
X986Y1748D02*
X996Y1748D01*
X1018Y1748D02*
X1028Y1748D01*
X1057Y1748D02*
X1066Y1748D01*
X1090Y1748D02*
X1100Y1748D01*
X1129Y1748D02*
X1138Y1748D01*
X1163Y1748D02*
X1172Y1748D01*
X1181Y1748D02*
X1191Y1748D01*
X1201Y1748D02*
X1212Y1748D01*
X733Y1747D02*
X769Y1747D01*
X945Y1747D02*
X954Y1747D01*
X986Y1747D02*
X995Y1747D01*
X1018Y1747D02*
X1027Y1747D01*
X1057Y1747D02*
X1067Y1747D01*
X1090Y1747D02*
X1099Y1747D01*
X1129Y1747D02*
X1139Y1747D01*
X1163Y1747D02*
X1172Y1747D01*
X1182Y1747D02*
X1191Y1747D01*
X1202Y1747D02*
X1212Y1747D01*
X734Y1746D02*
X769Y1746D01*
X945Y1746D02*
X955Y1746D01*
X969Y1746D02*
X972Y1746D01*
X986Y1746D02*
X995Y1746D01*
X1018Y1746D02*
X1027Y1746D01*
X1058Y1746D02*
X1067Y1746D01*
X1090Y1746D02*
X1099Y1746D01*
X1130Y1746D02*
X1139Y1746D01*
X1163Y1746D02*
X1172Y1746D01*
X1182Y1746D02*
X1191Y1746D01*
X1202Y1746D02*
X1212Y1746D01*
X734Y1745D02*
X769Y1745D01*
X945Y1745D02*
X955Y1745D01*
X968Y1745D02*
X973Y1745D01*
X986Y1745D02*
X995Y1745D01*
X1018Y1745D02*
X1027Y1745D01*
X1058Y1745D02*
X1067Y1745D01*
X1090Y1745D02*
X1099Y1745D01*
X1130Y1745D02*
X1139Y1745D01*
X1162Y1745D02*
X1172Y1745D01*
X1182Y1745D02*
X1191Y1745D01*
X1202Y1745D02*
X1212Y1745D01*
X733Y1744D02*
X769Y1744D01*
X945Y1744D02*
X955Y1744D01*
X967Y1744D02*
X974Y1744D01*
X986Y1744D02*
X995Y1744D01*
X1018Y1744D02*
X1027Y1744D01*
X1058Y1744D02*
X1067Y1744D01*
X1090Y1744D02*
X1099Y1744D01*
X1130Y1744D02*
X1139Y1744D01*
X1162Y1744D02*
X1171Y1744D01*
X1182Y1744D02*
X1191Y1744D01*
X1202Y1744D02*
X1212Y1744D01*
X732Y1743D02*
X768Y1743D01*
X946Y1743D02*
X955Y1743D01*
X966Y1743D02*
X975Y1743D01*
X986Y1743D02*
X995Y1743D01*
X1018Y1743D02*
X1027Y1743D01*
X1058Y1743D02*
X1067Y1743D01*
X1090Y1743D02*
X1099Y1743D01*
X1130Y1743D02*
X1139Y1743D01*
X1162Y1743D02*
X1171Y1743D01*
X1182Y1743D02*
X1191Y1743D01*
X1202Y1743D02*
X1212Y1743D01*
X732Y1742D02*
X767Y1742D01*
X946Y1742D02*
X955Y1742D01*
X966Y1742D02*
X975Y1742D01*
X986Y1742D02*
X995Y1742D01*
X1018Y1742D02*
X1027Y1742D01*
X1058Y1742D02*
X1067Y1742D01*
X1090Y1742D02*
X1099Y1742D01*
X1130Y1742D02*
X1139Y1742D01*
X1162Y1742D02*
X1171Y1742D01*
X1182Y1742D02*
X1191Y1742D01*
X1202Y1742D02*
X1212Y1742D01*
X731Y1741D02*
X766Y1741D01*
X946Y1741D02*
X955Y1741D01*
X966Y1741D02*
X975Y1741D01*
X986Y1741D02*
X995Y1741D01*
X1018Y1741D02*
X1027Y1741D01*
X1058Y1741D02*
X1067Y1741D01*
X1090Y1741D02*
X1099Y1741D01*
X1130Y1741D02*
X1139Y1741D01*
X1162Y1741D02*
X1171Y1741D01*
X1182Y1741D02*
X1191Y1741D01*
X1202Y1741D02*
X1212Y1741D01*
X731Y1740D02*
X742Y1740D01*
X946Y1740D02*
X955Y1740D01*
X966Y1740D02*
X975Y1740D01*
X986Y1740D02*
X995Y1740D01*
X1018Y1740D02*
X1027Y1740D01*
X1058Y1740D02*
X1067Y1740D01*
X1090Y1740D02*
X1099Y1740D01*
X1130Y1740D02*
X1139Y1740D01*
X1162Y1740D02*
X1171Y1740D01*
X1182Y1740D02*
X1191Y1740D01*
X1202Y1740D02*
X1212Y1740D01*
X730Y1739D02*
X741Y1739D01*
X946Y1739D02*
X955Y1739D01*
X966Y1739D02*
X975Y1739D01*
X986Y1739D02*
X995Y1739D01*
X1018Y1739D02*
X1027Y1739D01*
X1058Y1739D02*
X1067Y1739D01*
X1090Y1739D02*
X1099Y1739D01*
X1130Y1739D02*
X1139Y1739D01*
X1162Y1739D02*
X1171Y1739D01*
X1182Y1739D02*
X1191Y1739D01*
X1202Y1739D02*
X1212Y1739D01*
X730Y1738D02*
X740Y1738D01*
X946Y1738D02*
X955Y1738D01*
X966Y1738D02*
X975Y1738D01*
X986Y1738D02*
X995Y1738D01*
X1018Y1738D02*
X1027Y1738D01*
X1058Y1738D02*
X1067Y1738D01*
X1090Y1738D02*
X1099Y1738D01*
X1129Y1738D02*
X1139Y1738D01*
X1162Y1738D02*
X1171Y1738D01*
X1182Y1738D02*
X1191Y1738D01*
X1202Y1738D02*
X1212Y1738D01*
X730Y1737D02*
X739Y1737D01*
X819Y1737D02*
X834Y1737D01*
X946Y1737D02*
X955Y1737D01*
X966Y1737D02*
X975Y1737D01*
X986Y1737D02*
X995Y1737D01*
X1018Y1737D02*
X1027Y1737D01*
X1058Y1737D02*
X1067Y1737D01*
X1090Y1737D02*
X1139Y1737D01*
X1162Y1737D02*
X1171Y1737D01*
X1182Y1737D02*
X1191Y1737D01*
X1202Y1737D02*
X1212Y1737D01*
X730Y1736D02*
X739Y1736D01*
X818Y1736D02*
X835Y1736D01*
X946Y1736D02*
X955Y1736D01*
X966Y1736D02*
X975Y1736D01*
X986Y1736D02*
X995Y1736D01*
X1018Y1736D02*
X1027Y1736D01*
X1058Y1736D02*
X1067Y1736D01*
X1090Y1736D02*
X1139Y1736D01*
X1162Y1736D02*
X1171Y1736D01*
X1182Y1736D02*
X1191Y1736D01*
X1202Y1736D02*
X1212Y1736D01*
X730Y1735D02*
X739Y1735D01*
X817Y1735D02*
X835Y1735D01*
X946Y1735D02*
X955Y1735D01*
X966Y1735D02*
X975Y1735D01*
X986Y1735D02*
X995Y1735D01*
X1018Y1735D02*
X1027Y1735D01*
X1058Y1735D02*
X1067Y1735D01*
X1090Y1735D02*
X1139Y1735D01*
X1162Y1735D02*
X1171Y1735D01*
X1182Y1735D02*
X1191Y1735D01*
X1202Y1735D02*
X1212Y1735D01*
X730Y1734D02*
X739Y1734D01*
X817Y1734D02*
X836Y1734D01*
X946Y1734D02*
X955Y1734D01*
X966Y1734D02*
X975Y1734D01*
X986Y1734D02*
X995Y1734D01*
X1018Y1734D02*
X1027Y1734D01*
X1058Y1734D02*
X1067Y1734D01*
X1090Y1734D02*
X1139Y1734D01*
X1162Y1734D02*
X1171Y1734D01*
X1182Y1734D02*
X1191Y1734D01*
X1202Y1734D02*
X1212Y1734D01*
X730Y1733D02*
X739Y1733D01*
X817Y1733D02*
X836Y1733D01*
X946Y1733D02*
X955Y1733D01*
X966Y1733D02*
X975Y1733D01*
X986Y1733D02*
X995Y1733D01*
X1018Y1733D02*
X1027Y1733D01*
X1058Y1733D02*
X1067Y1733D01*
X1090Y1733D02*
X1139Y1733D01*
X1162Y1733D02*
X1171Y1733D01*
X1182Y1733D02*
X1191Y1733D01*
X1202Y1733D02*
X1212Y1733D01*
X730Y1732D02*
X739Y1732D01*
X817Y1732D02*
X836Y1732D01*
X946Y1732D02*
X955Y1732D01*
X966Y1732D02*
X975Y1732D01*
X986Y1732D02*
X995Y1732D01*
X1018Y1732D02*
X1027Y1732D01*
X1058Y1732D02*
X1067Y1732D01*
X1090Y1732D02*
X1139Y1732D01*
X1162Y1732D02*
X1171Y1732D01*
X1182Y1732D02*
X1191Y1732D01*
X1202Y1732D02*
X1212Y1732D01*
X730Y1731D02*
X739Y1731D01*
X817Y1731D02*
X836Y1731D01*
X946Y1731D02*
X955Y1731D01*
X966Y1731D02*
X975Y1731D01*
X986Y1731D02*
X995Y1731D01*
X1018Y1731D02*
X1027Y1731D01*
X1058Y1731D02*
X1067Y1731D01*
X1090Y1731D02*
X1139Y1731D01*
X1162Y1731D02*
X1171Y1731D01*
X1182Y1731D02*
X1191Y1731D01*
X1202Y1731D02*
X1212Y1731D01*
X730Y1730D02*
X739Y1730D01*
X817Y1730D02*
X836Y1730D01*
X946Y1730D02*
X955Y1730D01*
X966Y1730D02*
X975Y1730D01*
X986Y1730D02*
X995Y1730D01*
X1018Y1730D02*
X1027Y1730D01*
X1058Y1730D02*
X1067Y1730D01*
X1091Y1730D02*
X1139Y1730D01*
X1162Y1730D02*
X1171Y1730D01*
X1182Y1730D02*
X1191Y1730D01*
X1202Y1730D02*
X1212Y1730D01*
X730Y1729D02*
X739Y1729D01*
X817Y1729D02*
X836Y1729D01*
X946Y1729D02*
X955Y1729D01*
X965Y1729D02*
X976Y1729D01*
X986Y1729D02*
X995Y1729D01*
X1018Y1729D02*
X1027Y1729D01*
X1058Y1729D02*
X1067Y1729D01*
X1092Y1729D02*
X1139Y1729D01*
X1162Y1729D02*
X1171Y1729D01*
X1182Y1729D02*
X1191Y1729D01*
X1202Y1729D02*
X1212Y1729D01*
X730Y1728D02*
X739Y1728D01*
X817Y1728D02*
X836Y1728D01*
X946Y1728D02*
X955Y1728D01*
X965Y1728D02*
X976Y1728D01*
X985Y1728D02*
X995Y1728D01*
X1018Y1728D02*
X1027Y1728D01*
X1058Y1728D02*
X1067Y1728D01*
X1094Y1728D02*
X1139Y1728D01*
X1162Y1728D02*
X1171Y1728D01*
X1182Y1728D02*
X1191Y1728D01*
X1202Y1728D02*
X1212Y1728D01*
X730Y1727D02*
X739Y1727D01*
X817Y1727D02*
X836Y1727D01*
X946Y1727D02*
X956Y1727D01*
X964Y1727D02*
X977Y1727D01*
X985Y1727D02*
X994Y1727D01*
X1018Y1727D02*
X1027Y1727D01*
X1058Y1727D02*
X1067Y1727D01*
X1130Y1727D02*
X1139Y1727D01*
X1162Y1727D02*
X1171Y1727D01*
X1182Y1727D02*
X1191Y1727D01*
X1202Y1727D02*
X1212Y1727D01*
X730Y1726D02*
X739Y1726D01*
X817Y1726D02*
X836Y1726D01*
X946Y1726D02*
X956Y1726D01*
X964Y1726D02*
X977Y1726D01*
X985Y1726D02*
X994Y1726D01*
X1018Y1726D02*
X1027Y1726D01*
X1058Y1726D02*
X1067Y1726D01*
X1130Y1726D02*
X1139Y1726D01*
X1162Y1726D02*
X1171Y1726D01*
X1182Y1726D02*
X1191Y1726D01*
X1202Y1726D02*
X1212Y1726D01*
X730Y1725D02*
X739Y1725D01*
X817Y1725D02*
X836Y1725D01*
X947Y1725D02*
X956Y1725D01*
X963Y1725D02*
X978Y1725D01*
X984Y1725D02*
X994Y1725D01*
X1018Y1725D02*
X1027Y1725D01*
X1058Y1725D02*
X1067Y1725D01*
X1130Y1725D02*
X1139Y1725D01*
X1162Y1725D02*
X1171Y1725D01*
X1182Y1725D02*
X1191Y1725D01*
X1202Y1725D02*
X1212Y1725D01*
X730Y1724D02*
X739Y1724D01*
X817Y1724D02*
X836Y1724D01*
X947Y1724D02*
X957Y1724D01*
X962Y1724D02*
X978Y1724D01*
X984Y1724D02*
X994Y1724D01*
X1018Y1724D02*
X1027Y1724D01*
X1058Y1724D02*
X1067Y1724D01*
X1130Y1724D02*
X1139Y1724D01*
X1162Y1724D02*
X1171Y1724D01*
X1182Y1724D02*
X1191Y1724D01*
X1202Y1724D02*
X1212Y1724D01*
X730Y1723D02*
X739Y1723D01*
X817Y1723D02*
X836Y1723D01*
X947Y1723D02*
X957Y1723D01*
X962Y1723D02*
X979Y1723D01*
X984Y1723D02*
X993Y1723D01*
X1018Y1723D02*
X1027Y1723D01*
X1057Y1723D02*
X1067Y1723D01*
X1129Y1723D02*
X1139Y1723D01*
X1162Y1723D02*
X1171Y1723D01*
X1182Y1723D02*
X1191Y1723D01*
X1202Y1723D02*
X1212Y1723D01*
X730Y1722D02*
X739Y1722D01*
X818Y1722D02*
X835Y1722D01*
X948Y1722D02*
X957Y1722D01*
X961Y1722D02*
X980Y1722D01*
X984Y1722D02*
X993Y1722D01*
X1018Y1722D02*
X1028Y1722D01*
X1057Y1722D02*
X1067Y1722D01*
X1129Y1722D02*
X1139Y1722D01*
X1162Y1722D02*
X1171Y1722D01*
X1182Y1722D02*
X1191Y1722D01*
X1202Y1722D02*
X1212Y1722D01*
X730Y1721D02*
X739Y1721D01*
X818Y1721D02*
X835Y1721D01*
X948Y1721D02*
X958Y1721D01*
X961Y1721D02*
X980Y1721D01*
X983Y1721D02*
X993Y1721D01*
X1018Y1721D02*
X1029Y1721D01*
X1056Y1721D02*
X1066Y1721D01*
X1128Y1721D02*
X1138Y1721D01*
X1162Y1721D02*
X1171Y1721D01*
X1182Y1721D02*
X1191Y1721D01*
X1202Y1721D02*
X1212Y1721D01*
X730Y1720D02*
X739Y1720D01*
X820Y1720D02*
X833Y1720D01*
X948Y1720D02*
X958Y1720D01*
X960Y1720D02*
X981Y1720D01*
X983Y1720D02*
X992Y1720D01*
X1019Y1720D02*
X1030Y1720D01*
X1055Y1720D02*
X1066Y1720D01*
X1127Y1720D02*
X1138Y1720D01*
X1162Y1720D02*
X1171Y1720D01*
X1182Y1720D02*
X1191Y1720D01*
X1202Y1720D02*
X1212Y1720D01*
X730Y1719D02*
X739Y1719D01*
X949Y1719D02*
X992Y1719D01*
X1019Y1719D02*
X1031Y1719D01*
X1054Y1719D02*
X1066Y1719D01*
X1126Y1719D02*
X1138Y1719D01*
X1162Y1719D02*
X1171Y1719D01*
X1182Y1719D02*
X1191Y1719D01*
X1202Y1719D02*
X1212Y1719D01*
X730Y1718D02*
X739Y1718D01*
X949Y1718D02*
X992Y1718D01*
X1020Y1718D02*
X1032Y1718D01*
X1053Y1718D02*
X1065Y1718D01*
X1125Y1718D02*
X1137Y1718D01*
X1161Y1718D02*
X1171Y1718D01*
X1182Y1718D02*
X1191Y1718D01*
X1202Y1718D02*
X1212Y1718D01*
X730Y1717D02*
X739Y1717D01*
X949Y1717D02*
X969Y1717D01*
X972Y1717D02*
X992Y1717D01*
X1020Y1717D02*
X1034Y1717D01*
X1051Y1717D02*
X1065Y1717D01*
X1123Y1717D02*
X1137Y1717D01*
X1161Y1717D02*
X1171Y1717D01*
X1182Y1717D02*
X1191Y1717D01*
X1202Y1717D02*
X1212Y1717D01*
X730Y1716D02*
X776Y1716D01*
X949Y1716D02*
X968Y1716D01*
X972Y1716D02*
X991Y1716D01*
X1021Y1716D02*
X1064Y1716D01*
X1093Y1716D02*
X1136Y1716D01*
X1161Y1716D02*
X1171Y1716D01*
X1182Y1716D02*
X1191Y1716D01*
X1202Y1716D02*
X1212Y1716D01*
X730Y1715D02*
X777Y1715D01*
X950Y1715D02*
X968Y1715D01*
X973Y1715D02*
X991Y1715D01*
X1022Y1715D02*
X1063Y1715D01*
X1091Y1715D02*
X1135Y1715D01*
X1161Y1715D02*
X1170Y1715D01*
X1182Y1715D02*
X1191Y1715D01*
X1202Y1715D02*
X1212Y1715D01*
X730Y1714D02*
X778Y1714D01*
X950Y1714D02*
X967Y1714D01*
X974Y1714D02*
X991Y1714D01*
X1023Y1714D02*
X1062Y1714D01*
X1091Y1714D02*
X1134Y1714D01*
X1161Y1714D02*
X1170Y1714D01*
X1182Y1714D02*
X1191Y1714D01*
X1202Y1714D02*
X1212Y1714D01*
X731Y1713D02*
X779Y1713D01*
X950Y1713D02*
X967Y1713D01*
X974Y1713D02*
X990Y1713D01*
X1024Y1713D02*
X1061Y1713D01*
X1090Y1713D02*
X1133Y1713D01*
X1161Y1713D02*
X1170Y1713D01*
X1182Y1713D02*
X1191Y1713D01*
X1202Y1713D02*
X1212Y1713D01*
X731Y1712D02*
X779Y1712D01*
X951Y1712D02*
X966Y1712D01*
X975Y1712D02*
X990Y1712D01*
X1025Y1712D02*
X1060Y1712D01*
X1090Y1712D02*
X1132Y1712D01*
X1161Y1712D02*
X1170Y1712D01*
X1182Y1712D02*
X1191Y1712D01*
X1202Y1712D02*
X1212Y1712D01*
X732Y1711D02*
X779Y1711D01*
X951Y1711D02*
X965Y1711D01*
X975Y1711D02*
X990Y1711D01*
X1026Y1711D02*
X1059Y1711D01*
X1090Y1711D02*
X1131Y1711D01*
X1161Y1711D02*
X1170Y1711D01*
X1182Y1711D02*
X1191Y1711D01*
X1203Y1711D02*
X1211Y1711D01*
X733Y1710D02*
X778Y1710D01*
X951Y1710D02*
X965Y1710D01*
X976Y1710D02*
X990Y1710D01*
X1027Y1710D02*
X1058Y1710D01*
X1090Y1710D02*
X1130Y1710D01*
X1162Y1710D02*
X1170Y1710D01*
X1182Y1710D02*
X1191Y1710D01*
X1203Y1710D02*
X1211Y1710D01*
X734Y1709D02*
X778Y1709D01*
X952Y1709D02*
X964Y1709D01*
X977Y1709D02*
X989Y1709D01*
X1029Y1709D02*
X1056Y1709D01*
X1091Y1709D02*
X1128Y1709D01*
X1162Y1709D02*
X1169Y1709D01*
X1183Y1709D02*
X1190Y1709D01*
X1203Y1709D02*
X1211Y1709D01*
X735Y1708D02*
X777Y1708D01*
X953Y1708D02*
X963Y1708D01*
X977Y1708D02*
X988Y1708D01*
X1030Y1708D02*
X1054Y1708D01*
X1092Y1708D02*
X1127Y1708D01*
X1163Y1708D02*
X1169Y1708D01*
X1184Y1708D02*
X1189Y1708D01*
X1204Y1708D02*
X1210Y1708D01*
X737Y1707D02*
X776Y1707D01*
X954Y1707D02*
X962Y1707D01*
X979Y1707D02*
X987Y1707D01*
X1033Y1707D02*
X1051Y1707D01*
X1093Y1707D02*
X1124Y1707D01*
X1164Y1707D02*
X1167Y1707D01*
X1185Y1707D02*
X1188Y1707D01*
X1206Y1707D02*
X1208Y1707D01*
X734Y1428D02*
X735Y1428D01*
X789Y1428D02*
X790Y1428D01*
X1033Y1428D02*
X1035Y1428D01*
X1088Y1428D02*
X1090Y1428D01*
X1332Y1428D02*
X1334Y1428D01*
X1387Y1428D02*
X1389Y1428D01*
X731Y1427D02*
X738Y1427D01*
X786Y1427D02*
X793Y1427D01*
X1031Y1427D02*
X1037Y1427D01*
X1086Y1427D02*
X1092Y1427D01*
X1330Y1427D02*
X1336Y1427D01*
X1385Y1427D02*
X1391Y1427D01*
X730Y1426D02*
X739Y1426D01*
X785Y1426D02*
X794Y1426D01*
X1029Y1426D02*
X1038Y1426D01*
X1084Y1426D02*
X1093Y1426D01*
X1329Y1426D02*
X1338Y1426D01*
X1384Y1426D02*
X1393Y1426D01*
X729Y1425D02*
X740Y1425D01*
X784Y1425D02*
X795Y1425D01*
X1028Y1425D02*
X1039Y1425D01*
X1084Y1425D02*
X1094Y1425D01*
X1328Y1425D02*
X1338Y1425D01*
X1383Y1425D02*
X1393Y1425D01*
X729Y1424D02*
X740Y1424D01*
X784Y1424D02*
X795Y1424D01*
X1028Y1424D02*
X1040Y1424D01*
X1083Y1424D02*
X1095Y1424D01*
X1327Y1424D02*
X1339Y1424D01*
X1382Y1424D02*
X1394Y1424D01*
X728Y1423D02*
X741Y1423D01*
X783Y1423D02*
X796Y1423D01*
X1028Y1423D02*
X1040Y1423D01*
X1083Y1423D02*
X1095Y1423D01*
X1327Y1423D02*
X1339Y1423D01*
X1382Y1423D02*
X1394Y1423D01*
X728Y1422D02*
X741Y1422D01*
X783Y1422D02*
X796Y1422D01*
X1027Y1422D02*
X1040Y1422D01*
X1082Y1422D02*
X1095Y1422D01*
X1327Y1422D02*
X1340Y1422D01*
X1382Y1422D02*
X1395Y1422D01*
X728Y1421D02*
X741Y1421D01*
X783Y1421D02*
X796Y1421D01*
X1027Y1421D02*
X1040Y1421D01*
X1082Y1421D02*
X1095Y1421D01*
X1327Y1421D02*
X1340Y1421D01*
X1382Y1421D02*
X1395Y1421D01*
X728Y1420D02*
X741Y1420D01*
X783Y1420D02*
X796Y1420D01*
X1027Y1420D02*
X1040Y1420D01*
X1082Y1420D02*
X1095Y1420D01*
X1327Y1420D02*
X1340Y1420D01*
X1382Y1420D02*
X1395Y1420D01*
X728Y1419D02*
X741Y1419D01*
X783Y1419D02*
X796Y1419D01*
X1027Y1419D02*
X1040Y1419D01*
X1082Y1419D02*
X1095Y1419D01*
X1327Y1419D02*
X1340Y1419D01*
X1382Y1419D02*
X1395Y1419D01*
X728Y1418D02*
X741Y1418D01*
X783Y1418D02*
X796Y1418D01*
X1027Y1418D02*
X1040Y1418D01*
X1082Y1418D02*
X1095Y1418D01*
X1327Y1418D02*
X1340Y1418D01*
X1382Y1418D02*
X1395Y1418D01*
X728Y1417D02*
X741Y1417D01*
X783Y1417D02*
X796Y1417D01*
X1027Y1417D02*
X1040Y1417D01*
X1082Y1417D02*
X1095Y1417D01*
X1327Y1417D02*
X1340Y1417D01*
X1382Y1417D02*
X1395Y1417D01*
X728Y1416D02*
X741Y1416D01*
X783Y1416D02*
X796Y1416D01*
X1027Y1416D02*
X1040Y1416D01*
X1082Y1416D02*
X1095Y1416D01*
X1327Y1416D02*
X1340Y1416D01*
X1382Y1416D02*
X1395Y1416D01*
X728Y1415D02*
X741Y1415D01*
X783Y1415D02*
X796Y1415D01*
X1027Y1415D02*
X1040Y1415D01*
X1082Y1415D02*
X1095Y1415D01*
X1327Y1415D02*
X1340Y1415D01*
X1382Y1415D02*
X1395Y1415D01*
X728Y1414D02*
X741Y1414D01*
X783Y1414D02*
X796Y1414D01*
X1027Y1414D02*
X1040Y1414D01*
X1082Y1414D02*
X1095Y1414D01*
X1327Y1414D02*
X1340Y1414D01*
X1382Y1414D02*
X1395Y1414D01*
X728Y1413D02*
X741Y1413D01*
X783Y1413D02*
X796Y1413D01*
X1027Y1413D02*
X1040Y1413D01*
X1082Y1413D02*
X1095Y1413D01*
X1327Y1413D02*
X1340Y1413D01*
X1382Y1413D02*
X1395Y1413D01*
X728Y1412D02*
X741Y1412D01*
X783Y1412D02*
X796Y1412D01*
X1027Y1412D02*
X1040Y1412D01*
X1082Y1412D02*
X1095Y1412D01*
X1327Y1412D02*
X1340Y1412D01*
X1382Y1412D02*
X1395Y1412D01*
X728Y1411D02*
X741Y1411D01*
X783Y1411D02*
X796Y1411D01*
X1027Y1411D02*
X1040Y1411D01*
X1082Y1411D02*
X1095Y1411D01*
X1327Y1411D02*
X1340Y1411D01*
X1382Y1411D02*
X1395Y1411D01*
X728Y1410D02*
X741Y1410D01*
X783Y1410D02*
X796Y1410D01*
X1027Y1410D02*
X1040Y1410D01*
X1082Y1410D02*
X1095Y1410D01*
X1327Y1410D02*
X1340Y1410D01*
X1382Y1410D02*
X1395Y1410D01*
X728Y1409D02*
X741Y1409D01*
X783Y1409D02*
X796Y1409D01*
X1027Y1409D02*
X1040Y1409D01*
X1082Y1409D02*
X1095Y1409D01*
X1327Y1409D02*
X1340Y1409D01*
X1382Y1409D02*
X1395Y1409D01*
X728Y1408D02*
X741Y1408D01*
X783Y1408D02*
X796Y1408D01*
X1027Y1408D02*
X1040Y1408D01*
X1082Y1408D02*
X1095Y1408D01*
X1327Y1408D02*
X1340Y1408D01*
X1382Y1408D02*
X1395Y1408D01*
X728Y1407D02*
X741Y1407D01*
X783Y1407D02*
X796Y1407D01*
X1027Y1407D02*
X1040Y1407D01*
X1082Y1407D02*
X1095Y1407D01*
X1327Y1407D02*
X1340Y1407D01*
X1382Y1407D02*
X1395Y1407D01*
X728Y1406D02*
X741Y1406D01*
X783Y1406D02*
X796Y1406D01*
X1027Y1406D02*
X1040Y1406D01*
X1082Y1406D02*
X1095Y1406D01*
X1327Y1406D02*
X1340Y1406D01*
X1382Y1406D02*
X1395Y1406D01*
X728Y1405D02*
X741Y1405D01*
X783Y1405D02*
X796Y1405D01*
X1027Y1405D02*
X1040Y1405D01*
X1082Y1405D02*
X1095Y1405D01*
X1327Y1405D02*
X1340Y1405D01*
X1382Y1405D02*
X1395Y1405D01*
X728Y1404D02*
X741Y1404D01*
X783Y1404D02*
X796Y1404D01*
X1027Y1404D02*
X1040Y1404D01*
X1082Y1404D02*
X1095Y1404D01*
X1327Y1404D02*
X1340Y1404D01*
X1382Y1404D02*
X1395Y1404D01*
X728Y1403D02*
X741Y1403D01*
X783Y1403D02*
X796Y1403D01*
X1027Y1403D02*
X1040Y1403D01*
X1082Y1403D02*
X1095Y1403D01*
X1327Y1403D02*
X1340Y1403D01*
X1382Y1403D02*
X1395Y1403D01*
X728Y1402D02*
X741Y1402D01*
X783Y1402D02*
X796Y1402D01*
X1027Y1402D02*
X1040Y1402D01*
X1082Y1402D02*
X1095Y1402D01*
X1327Y1402D02*
X1340Y1402D01*
X1382Y1402D02*
X1395Y1402D01*
X728Y1401D02*
X741Y1401D01*
X783Y1401D02*
X796Y1401D01*
X1027Y1401D02*
X1040Y1401D01*
X1082Y1401D02*
X1095Y1401D01*
X1327Y1401D02*
X1340Y1401D01*
X1382Y1401D02*
X1395Y1401D01*
X728Y1400D02*
X741Y1400D01*
X783Y1400D02*
X796Y1400D01*
X1027Y1400D02*
X1040Y1400D01*
X1082Y1400D02*
X1095Y1400D01*
X1327Y1400D02*
X1340Y1400D01*
X1382Y1400D02*
X1395Y1400D01*
X728Y1399D02*
X741Y1399D01*
X783Y1399D02*
X796Y1399D01*
X1027Y1399D02*
X1040Y1399D01*
X1082Y1399D02*
X1095Y1399D01*
X1327Y1399D02*
X1340Y1399D01*
X1382Y1399D02*
X1395Y1399D01*
X532Y1398D02*
X538Y1398D01*
X587Y1398D02*
X593Y1398D01*
X645Y1398D02*
X679Y1398D01*
X728Y1398D02*
X741Y1398D01*
X783Y1398D02*
X796Y1398D01*
X832Y1398D02*
X837Y1398D01*
X887Y1398D02*
X892Y1398D01*
X945Y1398D02*
X978Y1398D01*
X1027Y1398D02*
X1040Y1398D01*
X1082Y1398D02*
X1095Y1398D01*
X1131Y1398D02*
X1136Y1398D01*
X1186Y1398D02*
X1191Y1398D01*
X1244Y1398D02*
X1277Y1398D01*
X1327Y1398D02*
X1340Y1398D01*
X1382Y1398D02*
X1395Y1398D01*
X531Y1397D02*
X539Y1397D01*
X586Y1397D02*
X594Y1397D01*
X642Y1397D02*
X680Y1397D01*
X728Y1397D02*
X741Y1397D01*
X783Y1397D02*
X796Y1397D01*
X830Y1397D02*
X838Y1397D01*
X885Y1397D02*
X893Y1397D01*
X942Y1397D02*
X979Y1397D01*
X1027Y1397D02*
X1040Y1397D01*
X1082Y1397D02*
X1095Y1397D01*
X1129Y1397D02*
X1138Y1397D01*
X1185Y1397D02*
X1193Y1397D01*
X1241Y1397D02*
X1279Y1397D01*
X1327Y1397D02*
X1340Y1397D01*
X1382Y1397D02*
X1395Y1397D01*
X530Y1396D02*
X540Y1396D01*
X585Y1396D02*
X595Y1396D01*
X640Y1396D02*
X681Y1396D01*
X728Y1396D02*
X741Y1396D01*
X783Y1396D02*
X796Y1396D01*
X829Y1396D02*
X839Y1396D01*
X884Y1396D02*
X894Y1396D01*
X940Y1396D02*
X980Y1396D01*
X1027Y1396D02*
X1040Y1396D01*
X1082Y1396D02*
X1095Y1396D01*
X1129Y1396D02*
X1139Y1396D01*
X1184Y1396D02*
X1194Y1396D01*
X1239Y1396D02*
X1280Y1396D01*
X1327Y1396D02*
X1340Y1396D01*
X1382Y1396D02*
X1395Y1396D01*
X529Y1395D02*
X541Y1395D01*
X584Y1395D02*
X596Y1395D01*
X639Y1395D02*
X682Y1395D01*
X728Y1395D02*
X741Y1395D01*
X783Y1395D02*
X796Y1395D01*
X829Y1395D02*
X840Y1395D01*
X884Y1395D02*
X895Y1395D01*
X938Y1395D02*
X981Y1395D01*
X1027Y1395D02*
X1040Y1395D01*
X1082Y1395D02*
X1095Y1395D01*
X1128Y1395D02*
X1139Y1395D01*
X1183Y1395D02*
X1194Y1395D01*
X1238Y1395D02*
X1280Y1395D01*
X1327Y1395D02*
X1340Y1395D01*
X1382Y1395D02*
X1395Y1395D01*
X529Y1394D02*
X541Y1394D01*
X584Y1394D02*
X596Y1394D01*
X638Y1394D02*
X682Y1394D01*
X728Y1394D02*
X741Y1394D01*
X783Y1394D02*
X796Y1394D01*
X828Y1394D02*
X840Y1394D01*
X883Y1394D02*
X895Y1394D01*
X937Y1394D02*
X981Y1394D01*
X1027Y1394D02*
X1040Y1394D01*
X1082Y1394D02*
X1095Y1394D01*
X1127Y1394D02*
X1140Y1394D01*
X1182Y1394D02*
X1195Y1394D01*
X1236Y1394D02*
X1281Y1394D01*
X1327Y1394D02*
X1340Y1394D01*
X1382Y1394D02*
X1395Y1394D01*
X529Y1393D02*
X541Y1393D01*
X584Y1393D02*
X596Y1393D01*
X636Y1393D02*
X682Y1393D01*
X728Y1393D02*
X741Y1393D01*
X783Y1393D02*
X796Y1393D01*
X828Y1393D02*
X841Y1393D01*
X883Y1393D02*
X896Y1393D01*
X936Y1393D02*
X982Y1393D01*
X1027Y1393D02*
X1040Y1393D01*
X1082Y1393D02*
X1095Y1393D01*
X1127Y1393D02*
X1140Y1393D01*
X1182Y1393D02*
X1195Y1393D01*
X1235Y1393D02*
X1281Y1393D01*
X1327Y1393D02*
X1340Y1393D01*
X1382Y1393D02*
X1395Y1393D01*
X528Y1392D02*
X542Y1392D01*
X583Y1392D02*
X596Y1392D01*
X636Y1392D02*
X682Y1392D01*
X728Y1392D02*
X741Y1392D01*
X759Y1392D02*
X765Y1392D01*
X783Y1392D02*
X796Y1392D01*
X828Y1392D02*
X841Y1392D01*
X883Y1392D02*
X896Y1392D01*
X935Y1392D02*
X982Y1392D01*
X1027Y1392D02*
X1040Y1392D01*
X1059Y1392D02*
X1064Y1392D01*
X1082Y1392D02*
X1095Y1392D01*
X1127Y1392D02*
X1140Y1392D01*
X1182Y1392D02*
X1195Y1392D01*
X1234Y1392D02*
X1281Y1392D01*
X1327Y1392D02*
X1340Y1392D01*
X1358Y1392D02*
X1363Y1392D01*
X1382Y1392D02*
X1395Y1392D01*
X528Y1391D02*
X542Y1391D01*
X583Y1391D02*
X596Y1391D01*
X635Y1391D02*
X682Y1391D01*
X728Y1391D02*
X741Y1391D01*
X758Y1391D02*
X766Y1391D01*
X783Y1391D02*
X796Y1391D01*
X828Y1391D02*
X841Y1391D01*
X883Y1391D02*
X896Y1391D01*
X934Y1391D02*
X982Y1391D01*
X1027Y1391D02*
X1040Y1391D01*
X1057Y1391D02*
X1066Y1391D01*
X1082Y1391D02*
X1095Y1391D01*
X1127Y1391D02*
X1140Y1391D01*
X1182Y1391D02*
X1195Y1391D01*
X1233Y1391D02*
X1281Y1391D01*
X1327Y1391D02*
X1340Y1391D01*
X1357Y1391D02*
X1365Y1391D01*
X1382Y1391D02*
X1395Y1391D01*
X528Y1390D02*
X542Y1390D01*
X583Y1390D02*
X596Y1390D01*
X634Y1390D02*
X682Y1390D01*
X728Y1390D02*
X741Y1390D01*
X757Y1390D02*
X767Y1390D01*
X783Y1390D02*
X796Y1390D01*
X828Y1390D02*
X841Y1390D01*
X883Y1390D02*
X896Y1390D01*
X933Y1390D02*
X982Y1390D01*
X1027Y1390D02*
X1040Y1390D01*
X1056Y1390D02*
X1066Y1390D01*
X1082Y1390D02*
X1095Y1390D01*
X1127Y1390D02*
X1140Y1390D01*
X1182Y1390D02*
X1195Y1390D01*
X1232Y1390D02*
X1281Y1390D01*
X1327Y1390D02*
X1340Y1390D01*
X1356Y1390D02*
X1366Y1390D01*
X1382Y1390D02*
X1395Y1390D01*
X528Y1389D02*
X542Y1389D01*
X583Y1389D02*
X596Y1389D01*
X633Y1389D02*
X682Y1389D01*
X728Y1389D02*
X741Y1389D01*
X756Y1389D02*
X768Y1389D01*
X783Y1389D02*
X796Y1389D01*
X828Y1389D02*
X841Y1389D01*
X883Y1389D02*
X896Y1389D01*
X932Y1389D02*
X981Y1389D01*
X1027Y1389D02*
X1040Y1389D01*
X1056Y1389D02*
X1067Y1389D01*
X1082Y1389D02*
X1095Y1389D01*
X1127Y1389D02*
X1140Y1389D01*
X1182Y1389D02*
X1195Y1389D01*
X1232Y1389D02*
X1281Y1389D01*
X1327Y1389D02*
X1340Y1389D01*
X1355Y1389D02*
X1366Y1389D01*
X1382Y1389D02*
X1395Y1389D01*
X528Y1388D02*
X542Y1388D01*
X583Y1388D02*
X596Y1388D01*
X633Y1388D02*
X681Y1388D01*
X728Y1388D02*
X741Y1388D01*
X756Y1388D02*
X768Y1388D01*
X783Y1388D02*
X796Y1388D01*
X828Y1388D02*
X841Y1388D01*
X883Y1388D02*
X896Y1388D01*
X932Y1388D02*
X981Y1388D01*
X1027Y1388D02*
X1040Y1388D01*
X1055Y1388D02*
X1068Y1388D01*
X1082Y1388D02*
X1095Y1388D01*
X1127Y1388D02*
X1140Y1388D01*
X1182Y1388D02*
X1195Y1388D01*
X1231Y1388D02*
X1280Y1388D01*
X1327Y1388D02*
X1340Y1388D01*
X1355Y1388D02*
X1367Y1388D01*
X1382Y1388D02*
X1395Y1388D01*
X528Y1387D02*
X542Y1387D01*
X583Y1387D02*
X596Y1387D01*
X632Y1387D02*
X681Y1387D01*
X728Y1387D02*
X741Y1387D01*
X756Y1387D02*
X768Y1387D01*
X783Y1387D02*
X796Y1387D01*
X828Y1387D02*
X841Y1387D01*
X883Y1387D02*
X896Y1387D01*
X931Y1387D02*
X980Y1387D01*
X1027Y1387D02*
X1040Y1387D01*
X1055Y1387D02*
X1068Y1387D01*
X1082Y1387D02*
X1095Y1387D01*
X1127Y1387D02*
X1140Y1387D01*
X1182Y1387D02*
X1195Y1387D01*
X1231Y1387D02*
X1279Y1387D01*
X1327Y1387D02*
X1340Y1387D01*
X1354Y1387D02*
X1367Y1387D01*
X1382Y1387D02*
X1395Y1387D01*
X528Y1386D02*
X542Y1386D01*
X583Y1386D02*
X596Y1386D01*
X632Y1386D02*
X679Y1386D01*
X728Y1386D02*
X741Y1386D01*
X756Y1386D02*
X769Y1386D01*
X783Y1386D02*
X796Y1386D01*
X828Y1386D02*
X841Y1386D01*
X883Y1386D02*
X896Y1386D01*
X931Y1386D02*
X979Y1386D01*
X1027Y1386D02*
X1040Y1386D01*
X1055Y1386D02*
X1068Y1386D01*
X1082Y1386D02*
X1095Y1386D01*
X1127Y1386D02*
X1140Y1386D01*
X1182Y1386D02*
X1195Y1386D01*
X1230Y1386D02*
X1278Y1386D01*
X1327Y1386D02*
X1340Y1386D01*
X1354Y1386D02*
X1367Y1386D01*
X1382Y1386D02*
X1395Y1386D01*
X528Y1385D02*
X542Y1385D01*
X583Y1385D02*
X596Y1385D01*
X631Y1385D02*
X677Y1385D01*
X728Y1385D02*
X741Y1385D01*
X756Y1385D02*
X769Y1385D01*
X783Y1385D02*
X796Y1385D01*
X828Y1385D02*
X841Y1385D01*
X883Y1385D02*
X896Y1385D01*
X931Y1385D02*
X977Y1385D01*
X1027Y1385D02*
X1040Y1385D01*
X1055Y1385D02*
X1068Y1385D01*
X1082Y1385D02*
X1095Y1385D01*
X1127Y1385D02*
X1140Y1385D01*
X1182Y1385D02*
X1195Y1385D01*
X1230Y1385D02*
X1276Y1385D01*
X1327Y1385D02*
X1340Y1385D01*
X1354Y1385D02*
X1367Y1385D01*
X1382Y1385D02*
X1395Y1385D01*
X528Y1384D02*
X542Y1384D01*
X583Y1384D02*
X596Y1384D01*
X631Y1384D02*
X646Y1384D01*
X728Y1384D02*
X741Y1384D01*
X756Y1384D02*
X769Y1384D01*
X783Y1384D02*
X796Y1384D01*
X828Y1384D02*
X841Y1384D01*
X883Y1384D02*
X896Y1384D01*
X930Y1384D02*
X946Y1384D01*
X1027Y1384D02*
X1040Y1384D01*
X1055Y1384D02*
X1068Y1384D01*
X1082Y1384D02*
X1095Y1384D01*
X1127Y1384D02*
X1140Y1384D01*
X1182Y1384D02*
X1195Y1384D01*
X1230Y1384D02*
X1245Y1384D01*
X1327Y1384D02*
X1340Y1384D01*
X1354Y1384D02*
X1367Y1384D01*
X1382Y1384D02*
X1395Y1384D01*
X528Y1383D02*
X542Y1383D01*
X583Y1383D02*
X596Y1383D01*
X631Y1383D02*
X645Y1383D01*
X728Y1383D02*
X741Y1383D01*
X756Y1383D02*
X769Y1383D01*
X783Y1383D02*
X796Y1383D01*
X828Y1383D02*
X841Y1383D01*
X883Y1383D02*
X896Y1383D01*
X930Y1383D02*
X944Y1383D01*
X1027Y1383D02*
X1040Y1383D01*
X1055Y1383D02*
X1068Y1383D01*
X1082Y1383D02*
X1095Y1383D01*
X1127Y1383D02*
X1140Y1383D01*
X1182Y1383D02*
X1195Y1383D01*
X1229Y1383D02*
X1244Y1383D01*
X1327Y1383D02*
X1340Y1383D01*
X1354Y1383D02*
X1367Y1383D01*
X1382Y1383D02*
X1395Y1383D01*
X528Y1382D02*
X542Y1382D01*
X583Y1382D02*
X596Y1382D01*
X630Y1382D02*
X644Y1382D01*
X728Y1382D02*
X741Y1382D01*
X756Y1382D02*
X769Y1382D01*
X783Y1382D02*
X796Y1382D01*
X828Y1382D02*
X841Y1382D01*
X883Y1382D02*
X896Y1382D01*
X930Y1382D02*
X944Y1382D01*
X1027Y1382D02*
X1040Y1382D01*
X1055Y1382D02*
X1068Y1382D01*
X1082Y1382D02*
X1095Y1382D01*
X1127Y1382D02*
X1140Y1382D01*
X1182Y1382D02*
X1195Y1382D01*
X1229Y1382D02*
X1243Y1382D01*
X1327Y1382D02*
X1340Y1382D01*
X1354Y1382D02*
X1367Y1382D01*
X1382Y1382D02*
X1395Y1382D01*
X528Y1381D02*
X542Y1381D01*
X583Y1381D02*
X596Y1381D01*
X630Y1381D02*
X644Y1381D01*
X728Y1381D02*
X741Y1381D01*
X756Y1381D02*
X769Y1381D01*
X783Y1381D02*
X796Y1381D01*
X828Y1381D02*
X841Y1381D01*
X883Y1381D02*
X896Y1381D01*
X930Y1381D02*
X943Y1381D01*
X1027Y1381D02*
X1040Y1381D01*
X1055Y1381D02*
X1068Y1381D01*
X1082Y1381D02*
X1095Y1381D01*
X1127Y1381D02*
X1140Y1381D01*
X1182Y1381D02*
X1195Y1381D01*
X1229Y1381D02*
X1243Y1381D01*
X1327Y1381D02*
X1340Y1381D01*
X1354Y1381D02*
X1367Y1381D01*
X1382Y1381D02*
X1395Y1381D01*
X528Y1380D02*
X542Y1380D01*
X583Y1380D02*
X596Y1380D01*
X630Y1380D02*
X644Y1380D01*
X728Y1380D02*
X741Y1380D01*
X756Y1380D02*
X769Y1380D01*
X783Y1380D02*
X796Y1380D01*
X828Y1380D02*
X841Y1380D01*
X882Y1380D02*
X896Y1380D01*
X929Y1380D02*
X943Y1380D01*
X1027Y1380D02*
X1040Y1380D01*
X1055Y1380D02*
X1068Y1380D01*
X1082Y1380D02*
X1095Y1380D01*
X1127Y1380D02*
X1141Y1380D01*
X1181Y1380D02*
X1195Y1380D01*
X1229Y1380D02*
X1242Y1380D01*
X1327Y1380D02*
X1340Y1380D01*
X1354Y1380D02*
X1367Y1380D01*
X1382Y1380D02*
X1395Y1380D01*
X529Y1379D02*
X543Y1379D01*
X582Y1379D02*
X596Y1379D01*
X630Y1379D02*
X643Y1379D01*
X728Y1379D02*
X741Y1379D01*
X756Y1379D02*
X769Y1379D01*
X783Y1379D02*
X796Y1379D01*
X828Y1379D02*
X842Y1379D01*
X882Y1379D02*
X896Y1379D01*
X929Y1379D02*
X943Y1379D01*
X1027Y1379D02*
X1040Y1379D01*
X1055Y1379D02*
X1068Y1379D01*
X1082Y1379D02*
X1095Y1379D01*
X1127Y1379D02*
X1141Y1379D01*
X1181Y1379D02*
X1195Y1379D01*
X1229Y1379D02*
X1242Y1379D01*
X1327Y1379D02*
X1340Y1379D01*
X1354Y1379D02*
X1367Y1379D01*
X1382Y1379D02*
X1395Y1379D01*
X529Y1378D02*
X543Y1378D01*
X582Y1378D02*
X596Y1378D01*
X630Y1378D02*
X643Y1378D01*
X728Y1378D02*
X741Y1378D01*
X756Y1378D02*
X769Y1378D01*
X783Y1378D02*
X796Y1378D01*
X828Y1378D02*
X842Y1378D01*
X881Y1378D02*
X895Y1378D01*
X929Y1378D02*
X943Y1378D01*
X1027Y1378D02*
X1040Y1378D01*
X1055Y1378D02*
X1068Y1378D01*
X1082Y1378D02*
X1095Y1378D01*
X1127Y1378D02*
X1142Y1378D01*
X1181Y1378D02*
X1195Y1378D01*
X1229Y1378D02*
X1242Y1378D01*
X1327Y1378D02*
X1340Y1378D01*
X1354Y1378D02*
X1367Y1378D01*
X1382Y1378D02*
X1395Y1378D01*
X529Y1377D02*
X543Y1377D01*
X581Y1377D02*
X596Y1377D01*
X630Y1377D02*
X643Y1377D01*
X728Y1377D02*
X741Y1377D01*
X756Y1377D02*
X769Y1377D01*
X783Y1377D02*
X796Y1377D01*
X828Y1377D02*
X843Y1377D01*
X881Y1377D02*
X895Y1377D01*
X929Y1377D02*
X942Y1377D01*
X1027Y1377D02*
X1040Y1377D01*
X1055Y1377D02*
X1068Y1377D01*
X1082Y1377D02*
X1095Y1377D01*
X1128Y1377D02*
X1142Y1377D01*
X1180Y1377D02*
X1194Y1377D01*
X1229Y1377D02*
X1242Y1377D01*
X1327Y1377D02*
X1340Y1377D01*
X1354Y1377D02*
X1367Y1377D01*
X1382Y1377D02*
X1395Y1377D01*
X530Y1376D02*
X544Y1376D01*
X581Y1376D02*
X595Y1376D01*
X630Y1376D02*
X643Y1376D01*
X728Y1376D02*
X741Y1376D01*
X756Y1376D02*
X769Y1376D01*
X783Y1376D02*
X796Y1376D01*
X829Y1376D02*
X843Y1376D01*
X880Y1376D02*
X895Y1376D01*
X929Y1376D02*
X942Y1376D01*
X1027Y1376D02*
X1040Y1376D01*
X1055Y1376D02*
X1068Y1376D01*
X1082Y1376D02*
X1095Y1376D01*
X1128Y1376D02*
X1143Y1376D01*
X1180Y1376D02*
X1194Y1376D01*
X1229Y1376D02*
X1242Y1376D01*
X1327Y1376D02*
X1340Y1376D01*
X1354Y1376D02*
X1367Y1376D01*
X1382Y1376D02*
X1395Y1376D01*
X530Y1375D02*
X544Y1375D01*
X581Y1375D02*
X595Y1375D01*
X630Y1375D02*
X643Y1375D01*
X728Y1375D02*
X741Y1375D01*
X756Y1375D02*
X769Y1375D01*
X783Y1375D02*
X796Y1375D01*
X829Y1375D02*
X844Y1375D01*
X880Y1375D02*
X894Y1375D01*
X929Y1375D02*
X942Y1375D01*
X1027Y1375D02*
X1040Y1375D01*
X1055Y1375D02*
X1068Y1375D01*
X1082Y1375D02*
X1095Y1375D01*
X1129Y1375D02*
X1143Y1375D01*
X1179Y1375D02*
X1194Y1375D01*
X1228Y1375D02*
X1242Y1375D01*
X1327Y1375D02*
X1340Y1375D01*
X1354Y1375D02*
X1367Y1375D01*
X1382Y1375D02*
X1395Y1375D01*
X530Y1374D02*
X545Y1374D01*
X580Y1374D02*
X594Y1374D01*
X630Y1374D02*
X643Y1374D01*
X728Y1374D02*
X741Y1374D01*
X756Y1374D02*
X769Y1374D01*
X783Y1374D02*
X796Y1374D01*
X830Y1374D02*
X844Y1374D01*
X879Y1374D02*
X894Y1374D01*
X929Y1374D02*
X942Y1374D01*
X1027Y1374D02*
X1040Y1374D01*
X1055Y1374D02*
X1068Y1374D01*
X1082Y1374D02*
X1095Y1374D01*
X1129Y1374D02*
X1143Y1374D01*
X1179Y1374D02*
X1193Y1374D01*
X1228Y1374D02*
X1242Y1374D01*
X1327Y1374D02*
X1340Y1374D01*
X1354Y1374D02*
X1367Y1374D01*
X1382Y1374D02*
X1395Y1374D01*
X531Y1373D02*
X545Y1373D01*
X580Y1373D02*
X594Y1373D01*
X630Y1373D02*
X643Y1373D01*
X728Y1373D02*
X741Y1373D01*
X756Y1373D02*
X769Y1373D01*
X783Y1373D02*
X796Y1373D01*
X830Y1373D02*
X845Y1373D01*
X879Y1373D02*
X893Y1373D01*
X929Y1373D02*
X942Y1373D01*
X1027Y1373D02*
X1040Y1373D01*
X1055Y1373D02*
X1068Y1373D01*
X1082Y1373D02*
X1095Y1373D01*
X1130Y1373D02*
X1144Y1373D01*
X1178Y1373D02*
X1193Y1373D01*
X1228Y1373D02*
X1241Y1373D01*
X1327Y1373D02*
X1340Y1373D01*
X1354Y1373D02*
X1367Y1373D01*
X1382Y1373D02*
X1395Y1373D01*
X531Y1372D02*
X546Y1372D01*
X579Y1372D02*
X594Y1372D01*
X630Y1372D02*
X643Y1372D01*
X728Y1372D02*
X741Y1372D01*
X756Y1372D02*
X769Y1372D01*
X783Y1372D02*
X796Y1372D01*
X831Y1372D02*
X845Y1372D01*
X879Y1372D02*
X893Y1372D01*
X929Y1372D02*
X942Y1372D01*
X1027Y1372D02*
X1040Y1372D01*
X1055Y1372D02*
X1068Y1372D01*
X1082Y1372D02*
X1095Y1372D01*
X1130Y1372D02*
X1144Y1372D01*
X1178Y1372D02*
X1192Y1372D01*
X1228Y1372D02*
X1241Y1372D01*
X1327Y1372D02*
X1340Y1372D01*
X1354Y1372D02*
X1367Y1372D01*
X1382Y1372D02*
X1395Y1372D01*
X532Y1371D02*
X546Y1371D01*
X579Y1371D02*
X593Y1371D01*
X630Y1371D02*
X643Y1371D01*
X728Y1371D02*
X741Y1371D01*
X756Y1371D02*
X769Y1371D01*
X783Y1371D02*
X796Y1371D01*
X831Y1371D02*
X845Y1371D01*
X878Y1371D02*
X892Y1371D01*
X929Y1371D02*
X942Y1371D01*
X1027Y1371D02*
X1040Y1371D01*
X1055Y1371D02*
X1068Y1371D01*
X1082Y1371D02*
X1095Y1371D01*
X1130Y1371D02*
X1145Y1371D01*
X1177Y1371D02*
X1192Y1371D01*
X1228Y1371D02*
X1241Y1371D01*
X1327Y1371D02*
X1340Y1371D01*
X1354Y1371D02*
X1367Y1371D01*
X1382Y1371D02*
X1395Y1371D01*
X532Y1370D02*
X547Y1370D01*
X578Y1370D02*
X593Y1370D01*
X630Y1370D02*
X643Y1370D01*
X728Y1370D02*
X741Y1370D01*
X756Y1370D02*
X769Y1370D01*
X783Y1370D02*
X796Y1370D01*
X832Y1370D02*
X846Y1370D01*
X878Y1370D02*
X892Y1370D01*
X929Y1370D02*
X942Y1370D01*
X1027Y1370D02*
X1040Y1370D01*
X1055Y1370D02*
X1068Y1370D01*
X1082Y1370D02*
X1095Y1370D01*
X1131Y1370D02*
X1145Y1370D01*
X1177Y1370D02*
X1191Y1370D01*
X1228Y1370D02*
X1241Y1370D01*
X1327Y1370D02*
X1340Y1370D01*
X1354Y1370D02*
X1367Y1370D01*
X1382Y1370D02*
X1395Y1370D01*
X533Y1369D02*
X547Y1369D01*
X578Y1369D02*
X592Y1369D01*
X630Y1369D02*
X643Y1369D01*
X646Y1369D02*
X680Y1369D01*
X728Y1369D02*
X741Y1369D01*
X756Y1369D02*
X769Y1369D01*
X783Y1369D02*
X796Y1369D01*
X832Y1369D02*
X846Y1369D01*
X877Y1369D02*
X892Y1369D01*
X929Y1369D02*
X942Y1369D01*
X945Y1369D02*
X979Y1369D01*
X1027Y1369D02*
X1040Y1369D01*
X1055Y1369D02*
X1068Y1369D01*
X1082Y1369D02*
X1095Y1369D01*
X1131Y1369D02*
X1146Y1369D01*
X1177Y1369D02*
X1191Y1369D01*
X1228Y1369D02*
X1241Y1369D01*
X1245Y1369D02*
X1278Y1369D01*
X1327Y1369D02*
X1340Y1369D01*
X1354Y1369D02*
X1367Y1369D01*
X1382Y1369D02*
X1395Y1369D01*
X533Y1368D02*
X547Y1368D01*
X578Y1368D02*
X592Y1368D01*
X630Y1368D02*
X683Y1368D01*
X728Y1368D02*
X741Y1368D01*
X756Y1368D02*
X769Y1368D01*
X783Y1368D02*
X796Y1368D01*
X832Y1368D02*
X847Y1368D01*
X877Y1368D02*
X891Y1368D01*
X929Y1368D02*
X982Y1368D01*
X1027Y1368D02*
X1040Y1368D01*
X1055Y1368D02*
X1068Y1368D01*
X1082Y1368D02*
X1095Y1368D01*
X1132Y1368D02*
X1146Y1368D01*
X1176Y1368D02*
X1190Y1368D01*
X1228Y1368D02*
X1282Y1368D01*
X1327Y1368D02*
X1340Y1368D01*
X1354Y1368D02*
X1367Y1368D01*
X1382Y1368D02*
X1395Y1368D01*
X534Y1367D02*
X548Y1367D01*
X577Y1367D02*
X591Y1367D01*
X630Y1367D02*
X685Y1367D01*
X728Y1367D02*
X741Y1367D01*
X756Y1367D02*
X769Y1367D01*
X783Y1367D02*
X796Y1367D01*
X833Y1367D02*
X847Y1367D01*
X876Y1367D02*
X891Y1367D01*
X929Y1367D02*
X984Y1367D01*
X1027Y1367D02*
X1040Y1367D01*
X1055Y1367D02*
X1068Y1367D01*
X1082Y1367D02*
X1095Y1367D01*
X1132Y1367D02*
X1147Y1367D01*
X1176Y1367D02*
X1190Y1367D01*
X1228Y1367D02*
X1284Y1367D01*
X1327Y1367D02*
X1340Y1367D01*
X1354Y1367D02*
X1367Y1367D01*
X1382Y1367D02*
X1395Y1367D01*
X534Y1366D02*
X548Y1366D01*
X577Y1366D02*
X591Y1366D01*
X630Y1366D02*
X687Y1366D01*
X728Y1366D02*
X741Y1366D01*
X756Y1366D02*
X769Y1366D01*
X783Y1366D02*
X796Y1366D01*
X833Y1366D02*
X848Y1366D01*
X876Y1366D02*
X890Y1366D01*
X929Y1366D02*
X986Y1366D01*
X1027Y1366D02*
X1040Y1366D01*
X1055Y1366D02*
X1068Y1366D01*
X1082Y1366D02*
X1095Y1366D01*
X1133Y1366D02*
X1147Y1366D01*
X1175Y1366D02*
X1190Y1366D01*
X1228Y1366D02*
X1285Y1366D01*
X1327Y1366D02*
X1340Y1366D01*
X1354Y1366D02*
X1367Y1366D01*
X1382Y1366D02*
X1395Y1366D01*
X534Y1365D02*
X549Y1365D01*
X576Y1365D02*
X591Y1365D01*
X630Y1365D02*
X688Y1365D01*
X728Y1365D02*
X741Y1365D01*
X756Y1365D02*
X769Y1365D01*
X783Y1365D02*
X796Y1365D01*
X834Y1365D02*
X848Y1365D01*
X876Y1365D02*
X890Y1365D01*
X929Y1365D02*
X987Y1365D01*
X1027Y1365D02*
X1040Y1365D01*
X1055Y1365D02*
X1068Y1365D01*
X1082Y1365D02*
X1095Y1365D01*
X1133Y1365D02*
X1147Y1365D01*
X1175Y1365D02*
X1189Y1365D01*
X1228Y1365D02*
X1287Y1365D01*
X1327Y1365D02*
X1340Y1365D01*
X1354Y1365D02*
X1367Y1365D01*
X1382Y1365D02*
X1395Y1365D01*
X535Y1364D02*
X549Y1364D01*
X576Y1364D02*
X590Y1364D01*
X629Y1364D02*
X689Y1364D01*
X728Y1364D02*
X741Y1364D01*
X756Y1364D02*
X769Y1364D01*
X783Y1364D02*
X796Y1364D01*
X834Y1364D02*
X849Y1364D01*
X875Y1364D02*
X889Y1364D01*
X929Y1364D02*
X989Y1364D01*
X1027Y1364D02*
X1040Y1364D01*
X1055Y1364D02*
X1068Y1364D01*
X1082Y1364D02*
X1095Y1364D01*
X1134Y1364D02*
X1148Y1364D01*
X1174Y1364D02*
X1189Y1364D01*
X1228Y1364D02*
X1288Y1364D01*
X1327Y1364D02*
X1340Y1364D01*
X1354Y1364D02*
X1367Y1364D01*
X1382Y1364D02*
X1395Y1364D01*
X535Y1363D02*
X550Y1363D01*
X575Y1363D02*
X590Y1363D01*
X629Y1363D02*
X690Y1363D01*
X728Y1363D02*
X741Y1363D01*
X756Y1363D02*
X769Y1363D01*
X783Y1363D02*
X796Y1363D01*
X835Y1363D02*
X849Y1363D01*
X875Y1363D02*
X889Y1363D01*
X929Y1363D02*
X990Y1363D01*
X1027Y1363D02*
X1040Y1363D01*
X1055Y1363D02*
X1068Y1363D01*
X1082Y1363D02*
X1095Y1363D01*
X1134Y1363D02*
X1148Y1363D01*
X1174Y1363D02*
X1188Y1363D01*
X1228Y1363D02*
X1289Y1363D01*
X1327Y1363D02*
X1340Y1363D01*
X1354Y1363D02*
X1367Y1363D01*
X1382Y1363D02*
X1395Y1363D01*
X536Y1362D02*
X550Y1362D01*
X575Y1362D02*
X589Y1362D01*
X629Y1362D02*
X691Y1362D01*
X728Y1362D02*
X741Y1362D01*
X756Y1362D02*
X769Y1362D01*
X783Y1362D02*
X796Y1362D01*
X835Y1362D02*
X849Y1362D01*
X874Y1362D02*
X889Y1362D01*
X929Y1362D02*
X991Y1362D01*
X1027Y1362D02*
X1040Y1362D01*
X1055Y1362D02*
X1068Y1362D01*
X1082Y1362D02*
X1095Y1362D01*
X1134Y1362D02*
X1149Y1362D01*
X1174Y1362D02*
X1188Y1362D01*
X1228Y1362D02*
X1290Y1362D01*
X1327Y1362D02*
X1340Y1362D01*
X1354Y1362D02*
X1367Y1362D01*
X1382Y1362D02*
X1395Y1362D01*
X536Y1361D02*
X551Y1361D01*
X574Y1361D02*
X589Y1361D01*
X629Y1361D02*
X692Y1361D01*
X728Y1361D02*
X741Y1361D01*
X756Y1361D02*
X769Y1361D01*
X783Y1361D02*
X796Y1361D01*
X835Y1361D02*
X850Y1361D01*
X874Y1361D02*
X888Y1361D01*
X929Y1361D02*
X991Y1361D01*
X1027Y1361D02*
X1040Y1361D01*
X1055Y1361D02*
X1068Y1361D01*
X1082Y1361D02*
X1095Y1361D01*
X1135Y1361D02*
X1149Y1361D01*
X1173Y1361D02*
X1187Y1361D01*
X1228Y1361D02*
X1291Y1361D01*
X1327Y1361D02*
X1340Y1361D01*
X1354Y1361D02*
X1367Y1361D01*
X1382Y1361D02*
X1395Y1361D01*
X537Y1360D02*
X551Y1360D01*
X574Y1360D02*
X588Y1360D01*
X629Y1360D02*
X693Y1360D01*
X728Y1360D02*
X741Y1360D01*
X756Y1360D02*
X769Y1360D01*
X783Y1360D02*
X796Y1360D01*
X836Y1360D02*
X850Y1360D01*
X873Y1360D02*
X888Y1360D01*
X929Y1360D02*
X992Y1360D01*
X1027Y1360D02*
X1040Y1360D01*
X1055Y1360D02*
X1068Y1360D01*
X1082Y1360D02*
X1095Y1360D01*
X1135Y1360D02*
X1150Y1360D01*
X1173Y1360D02*
X1187Y1360D01*
X1228Y1360D02*
X1291Y1360D01*
X1327Y1360D02*
X1340Y1360D01*
X1354Y1360D02*
X1367Y1360D01*
X1382Y1360D02*
X1395Y1360D01*
X537Y1359D02*
X551Y1359D01*
X574Y1359D02*
X588Y1359D01*
X629Y1359D02*
X693Y1359D01*
X728Y1359D02*
X741Y1359D01*
X756Y1359D02*
X769Y1359D01*
X783Y1359D02*
X796Y1359D01*
X836Y1359D02*
X851Y1359D01*
X873Y1359D02*
X887Y1359D01*
X929Y1359D02*
X993Y1359D01*
X1027Y1359D02*
X1040Y1359D01*
X1055Y1359D02*
X1068Y1359D01*
X1082Y1359D02*
X1095Y1359D01*
X1136Y1359D02*
X1150Y1359D01*
X1172Y1359D02*
X1187Y1359D01*
X1228Y1359D02*
X1292Y1359D01*
X1327Y1359D02*
X1340Y1359D01*
X1354Y1359D02*
X1367Y1359D01*
X1382Y1359D02*
X1395Y1359D01*
X537Y1358D02*
X552Y1358D01*
X573Y1358D02*
X587Y1358D01*
X629Y1358D02*
X694Y1358D01*
X728Y1358D02*
X741Y1358D01*
X756Y1358D02*
X769Y1358D01*
X783Y1358D02*
X796Y1358D01*
X837Y1358D02*
X851Y1358D01*
X873Y1358D02*
X887Y1358D01*
X929Y1358D02*
X993Y1358D01*
X1027Y1358D02*
X1040Y1358D01*
X1055Y1358D02*
X1068Y1358D01*
X1082Y1358D02*
X1095Y1358D01*
X1136Y1358D02*
X1151Y1358D01*
X1172Y1358D02*
X1186Y1358D01*
X1228Y1358D02*
X1293Y1358D01*
X1327Y1358D02*
X1340Y1358D01*
X1354Y1358D02*
X1367Y1358D01*
X1382Y1358D02*
X1395Y1358D01*
X538Y1357D02*
X552Y1357D01*
X573Y1357D02*
X587Y1357D01*
X629Y1357D02*
X694Y1357D01*
X728Y1357D02*
X741Y1357D01*
X756Y1357D02*
X769Y1357D01*
X783Y1357D02*
X796Y1357D01*
X837Y1357D02*
X852Y1357D01*
X872Y1357D02*
X886Y1357D01*
X929Y1357D02*
X994Y1357D01*
X1027Y1357D02*
X1040Y1357D01*
X1055Y1357D02*
X1068Y1357D01*
X1082Y1357D02*
X1095Y1357D01*
X1137Y1357D02*
X1151Y1357D01*
X1171Y1357D02*
X1186Y1357D01*
X1228Y1357D02*
X1293Y1357D01*
X1327Y1357D02*
X1340Y1357D01*
X1354Y1357D02*
X1367Y1357D01*
X1382Y1357D02*
X1395Y1357D01*
X538Y1356D02*
X553Y1356D01*
X572Y1356D02*
X587Y1356D01*
X629Y1356D02*
X695Y1356D01*
X728Y1356D02*
X741Y1356D01*
X756Y1356D02*
X769Y1356D01*
X783Y1356D02*
X796Y1356D01*
X838Y1356D02*
X852Y1356D01*
X872Y1356D02*
X886Y1356D01*
X929Y1356D02*
X994Y1356D01*
X1027Y1356D02*
X1040Y1356D01*
X1055Y1356D02*
X1068Y1356D01*
X1082Y1356D02*
X1095Y1356D01*
X1137Y1356D02*
X1151Y1356D01*
X1171Y1356D02*
X1185Y1356D01*
X1228Y1356D02*
X1293Y1356D01*
X1327Y1356D02*
X1340Y1356D01*
X1354Y1356D02*
X1367Y1356D01*
X1382Y1356D02*
X1395Y1356D01*
X539Y1355D02*
X553Y1355D01*
X572Y1355D02*
X586Y1355D01*
X629Y1355D02*
X647Y1355D01*
X679Y1355D02*
X695Y1355D01*
X728Y1355D02*
X741Y1355D01*
X756Y1355D02*
X769Y1355D01*
X783Y1355D02*
X796Y1355D01*
X838Y1355D02*
X853Y1355D01*
X871Y1355D02*
X885Y1355D01*
X928Y1355D02*
X946Y1355D01*
X978Y1355D02*
X994Y1355D01*
X1027Y1355D02*
X1040Y1355D01*
X1055Y1355D02*
X1068Y1355D01*
X1082Y1355D02*
X1095Y1355D01*
X1137Y1355D02*
X1152Y1355D01*
X1171Y1355D02*
X1185Y1355D01*
X1228Y1355D02*
X1245Y1355D01*
X1277Y1355D02*
X1294Y1355D01*
X1327Y1355D02*
X1340Y1355D01*
X1354Y1355D02*
X1367Y1355D01*
X1382Y1355D02*
X1395Y1355D01*
X539Y1354D02*
X554Y1354D01*
X571Y1354D02*
X586Y1354D01*
X629Y1354D02*
X645Y1354D01*
X680Y1354D02*
X695Y1354D01*
X728Y1354D02*
X741Y1354D01*
X756Y1354D02*
X769Y1354D01*
X783Y1354D02*
X796Y1354D01*
X839Y1354D02*
X853Y1354D01*
X871Y1354D02*
X885Y1354D01*
X928Y1354D02*
X944Y1354D01*
X980Y1354D02*
X995Y1354D01*
X1027Y1354D02*
X1040Y1354D01*
X1055Y1354D02*
X1068Y1354D01*
X1082Y1354D02*
X1095Y1354D01*
X1138Y1354D02*
X1152Y1354D01*
X1170Y1354D02*
X1184Y1354D01*
X1228Y1354D02*
X1244Y1354D01*
X1279Y1354D02*
X1294Y1354D01*
X1327Y1354D02*
X1340Y1354D01*
X1354Y1354D02*
X1367Y1354D01*
X1382Y1354D02*
X1395Y1354D01*
X540Y1353D02*
X554Y1353D01*
X571Y1353D02*
X585Y1353D01*
X629Y1353D02*
X644Y1353D01*
X682Y1353D02*
X696Y1353D01*
X728Y1353D02*
X741Y1353D01*
X756Y1353D02*
X769Y1353D01*
X783Y1353D02*
X796Y1353D01*
X839Y1353D02*
X853Y1353D01*
X870Y1353D02*
X885Y1353D01*
X928Y1353D02*
X943Y1353D01*
X981Y1353D02*
X995Y1353D01*
X1027Y1353D02*
X1040Y1353D01*
X1055Y1353D02*
X1068Y1353D01*
X1082Y1353D02*
X1095Y1353D01*
X1138Y1353D02*
X1153Y1353D01*
X1170Y1353D02*
X1184Y1353D01*
X1228Y1353D02*
X1242Y1353D01*
X1280Y1353D02*
X1294Y1353D01*
X1327Y1353D02*
X1340Y1353D01*
X1354Y1353D02*
X1367Y1353D01*
X1382Y1353D02*
X1395Y1353D01*
X540Y1352D02*
X554Y1352D01*
X571Y1352D02*
X585Y1352D01*
X629Y1352D02*
X643Y1352D01*
X682Y1352D02*
X696Y1352D01*
X728Y1352D02*
X741Y1352D01*
X756Y1352D02*
X769Y1352D01*
X783Y1352D02*
X796Y1352D01*
X839Y1352D02*
X854Y1352D01*
X870Y1352D02*
X884Y1352D01*
X928Y1352D02*
X942Y1352D01*
X982Y1352D02*
X995Y1352D01*
X1027Y1352D02*
X1040Y1352D01*
X1055Y1352D02*
X1068Y1352D01*
X1082Y1352D02*
X1095Y1352D01*
X1139Y1352D02*
X1153Y1352D01*
X1169Y1352D02*
X1183Y1352D01*
X1228Y1352D02*
X1242Y1352D01*
X1281Y1352D02*
X1295Y1352D01*
X1327Y1352D02*
X1340Y1352D01*
X1354Y1352D02*
X1367Y1352D01*
X1382Y1352D02*
X1395Y1352D01*
X541Y1351D02*
X555Y1351D01*
X570Y1351D02*
X584Y1351D01*
X629Y1351D02*
X642Y1351D01*
X683Y1351D02*
X696Y1351D01*
X728Y1351D02*
X741Y1351D01*
X756Y1351D02*
X769Y1351D01*
X783Y1351D02*
X796Y1351D01*
X840Y1351D02*
X854Y1351D01*
X869Y1351D02*
X884Y1351D01*
X928Y1351D02*
X942Y1351D01*
X982Y1351D02*
X995Y1351D01*
X1027Y1351D02*
X1040Y1351D01*
X1055Y1351D02*
X1068Y1351D01*
X1082Y1351D02*
X1095Y1351D01*
X1139Y1351D02*
X1154Y1351D01*
X1169Y1351D02*
X1183Y1351D01*
X1228Y1351D02*
X1241Y1351D01*
X1281Y1351D02*
X1295Y1351D01*
X1327Y1351D02*
X1340Y1351D01*
X1354Y1351D02*
X1367Y1351D01*
X1382Y1351D02*
X1395Y1351D01*
X541Y1350D02*
X555Y1350D01*
X570Y1350D02*
X584Y1350D01*
X629Y1350D02*
X642Y1350D01*
X683Y1350D02*
X696Y1350D01*
X728Y1350D02*
X741Y1350D01*
X756Y1350D02*
X769Y1350D01*
X783Y1350D02*
X796Y1350D01*
X840Y1350D02*
X855Y1350D01*
X869Y1350D02*
X883Y1350D01*
X928Y1350D02*
X941Y1350D01*
X982Y1350D02*
X995Y1350D01*
X1027Y1350D02*
X1040Y1350D01*
X1055Y1350D02*
X1068Y1350D01*
X1082Y1350D02*
X1095Y1350D01*
X1140Y1350D02*
X1154Y1350D01*
X1168Y1350D02*
X1183Y1350D01*
X1228Y1350D02*
X1241Y1350D01*
X1282Y1350D02*
X1295Y1350D01*
X1327Y1350D02*
X1340Y1350D01*
X1354Y1350D02*
X1367Y1350D01*
X1382Y1350D02*
X1395Y1350D01*
X541Y1349D02*
X556Y1349D01*
X569Y1349D02*
X583Y1349D01*
X629Y1349D02*
X642Y1349D01*
X683Y1349D02*
X696Y1349D01*
X728Y1349D02*
X741Y1349D01*
X756Y1349D02*
X769Y1349D01*
X783Y1349D02*
X796Y1349D01*
X841Y1349D02*
X855Y1349D01*
X869Y1349D02*
X883Y1349D01*
X928Y1349D02*
X941Y1349D01*
X982Y1349D02*
X995Y1349D01*
X1027Y1349D02*
X1040Y1349D01*
X1055Y1349D02*
X1068Y1349D01*
X1082Y1349D02*
X1095Y1349D01*
X1140Y1349D02*
X1154Y1349D01*
X1168Y1349D02*
X1182Y1349D01*
X1228Y1349D02*
X1241Y1349D01*
X1282Y1349D02*
X1295Y1349D01*
X1327Y1349D02*
X1340Y1349D01*
X1354Y1349D02*
X1367Y1349D01*
X1382Y1349D02*
X1395Y1349D01*
X542Y1348D02*
X556Y1348D01*
X569Y1348D02*
X583Y1348D01*
X629Y1348D02*
X642Y1348D01*
X683Y1348D02*
X696Y1348D01*
X728Y1348D02*
X741Y1348D01*
X756Y1348D02*
X769Y1348D01*
X783Y1348D02*
X796Y1348D01*
X841Y1348D02*
X856Y1348D01*
X868Y1348D02*
X882Y1348D01*
X928Y1348D02*
X941Y1348D01*
X983Y1348D02*
X996Y1348D01*
X1027Y1348D02*
X1040Y1348D01*
X1055Y1348D02*
X1068Y1348D01*
X1082Y1348D02*
X1095Y1348D01*
X1141Y1348D02*
X1155Y1348D01*
X1167Y1348D02*
X1182Y1348D01*
X1228Y1348D02*
X1241Y1348D01*
X1282Y1348D02*
X1295Y1348D01*
X1327Y1348D02*
X1340Y1348D01*
X1354Y1348D02*
X1367Y1348D01*
X1382Y1348D02*
X1395Y1348D01*
X542Y1347D02*
X557Y1347D01*
X568Y1347D02*
X583Y1347D01*
X629Y1347D02*
X642Y1347D01*
X683Y1347D02*
X696Y1347D01*
X728Y1347D02*
X741Y1347D01*
X756Y1347D02*
X769Y1347D01*
X783Y1347D02*
X796Y1347D01*
X842Y1347D02*
X856Y1347D01*
X868Y1347D02*
X882Y1347D01*
X928Y1347D02*
X941Y1347D01*
X983Y1347D02*
X996Y1347D01*
X1027Y1347D02*
X1040Y1347D01*
X1055Y1347D02*
X1068Y1347D01*
X1082Y1347D02*
X1095Y1347D01*
X1141Y1347D02*
X1155Y1347D01*
X1167Y1347D02*
X1181Y1347D01*
X1228Y1347D02*
X1241Y1347D01*
X1282Y1347D02*
X1295Y1347D01*
X1327Y1347D02*
X1340Y1347D01*
X1354Y1347D02*
X1367Y1347D01*
X1382Y1347D02*
X1395Y1347D01*
X543Y1346D02*
X557Y1346D01*
X568Y1346D02*
X582Y1346D01*
X629Y1346D02*
X642Y1346D01*
X683Y1346D02*
X696Y1346D01*
X728Y1346D02*
X741Y1346D01*
X756Y1346D02*
X769Y1346D01*
X783Y1346D02*
X796Y1346D01*
X842Y1346D02*
X856Y1346D01*
X867Y1346D02*
X881Y1346D01*
X928Y1346D02*
X941Y1346D01*
X983Y1346D02*
X996Y1346D01*
X1027Y1346D02*
X1040Y1346D01*
X1055Y1346D02*
X1068Y1346D01*
X1082Y1346D02*
X1095Y1346D01*
X1141Y1346D02*
X1156Y1346D01*
X1167Y1346D02*
X1181Y1346D01*
X1227Y1346D02*
X1241Y1346D01*
X1282Y1346D02*
X1295Y1346D01*
X1327Y1346D02*
X1340Y1346D01*
X1354Y1346D02*
X1367Y1346D01*
X1382Y1346D02*
X1395Y1346D01*
X543Y1345D02*
X558Y1345D01*
X567Y1345D02*
X582Y1345D01*
X629Y1345D02*
X642Y1345D01*
X683Y1345D02*
X696Y1345D01*
X728Y1345D02*
X741Y1345D01*
X756Y1345D02*
X769Y1345D01*
X783Y1345D02*
X796Y1345D01*
X842Y1345D02*
X857Y1345D01*
X867Y1345D02*
X881Y1345D01*
X928Y1345D02*
X941Y1345D01*
X983Y1345D02*
X996Y1345D01*
X1027Y1345D02*
X1040Y1345D01*
X1055Y1345D02*
X1068Y1345D01*
X1082Y1345D02*
X1095Y1345D01*
X1142Y1345D02*
X1156Y1345D01*
X1166Y1345D02*
X1180Y1345D01*
X1227Y1345D02*
X1241Y1345D01*
X1282Y1345D02*
X1295Y1345D01*
X1327Y1345D02*
X1340Y1345D01*
X1354Y1345D02*
X1367Y1345D01*
X1382Y1345D02*
X1395Y1345D01*
X544Y1344D02*
X558Y1344D01*
X567Y1344D02*
X581Y1344D01*
X629Y1344D02*
X642Y1344D01*
X683Y1344D02*
X696Y1344D01*
X728Y1344D02*
X741Y1344D01*
X756Y1344D02*
X769Y1344D01*
X783Y1344D02*
X796Y1344D01*
X843Y1344D02*
X857Y1344D01*
X866Y1344D02*
X881Y1344D01*
X928Y1344D02*
X941Y1344D01*
X983Y1344D02*
X996Y1344D01*
X1027Y1344D02*
X1040Y1344D01*
X1055Y1344D02*
X1068Y1344D01*
X1082Y1344D02*
X1095Y1344D01*
X1142Y1344D02*
X1157Y1344D01*
X1166Y1344D02*
X1180Y1344D01*
X1227Y1344D02*
X1241Y1344D01*
X1282Y1344D02*
X1295Y1344D01*
X1327Y1344D02*
X1340Y1344D01*
X1354Y1344D02*
X1367Y1344D01*
X1382Y1344D02*
X1395Y1344D01*
X544Y1343D02*
X558Y1343D01*
X567Y1343D02*
X581Y1343D01*
X629Y1343D02*
X642Y1343D01*
X683Y1343D02*
X696Y1343D01*
X728Y1343D02*
X741Y1343D01*
X756Y1343D02*
X769Y1343D01*
X783Y1343D02*
X796Y1343D01*
X843Y1343D02*
X858Y1343D01*
X866Y1343D02*
X880Y1343D01*
X928Y1343D02*
X941Y1343D01*
X983Y1343D02*
X996Y1343D01*
X1027Y1343D02*
X1040Y1343D01*
X1055Y1343D02*
X1068Y1343D01*
X1082Y1343D02*
X1095Y1343D01*
X1143Y1343D02*
X1157Y1343D01*
X1165Y1343D02*
X1179Y1343D01*
X1227Y1343D02*
X1241Y1343D01*
X1282Y1343D02*
X1295Y1343D01*
X1327Y1343D02*
X1340Y1343D01*
X1354Y1343D02*
X1367Y1343D01*
X1382Y1343D02*
X1395Y1343D01*
X544Y1342D02*
X559Y1342D01*
X566Y1342D02*
X580Y1342D01*
X629Y1342D02*
X643Y1342D01*
X683Y1342D02*
X696Y1342D01*
X728Y1342D02*
X741Y1342D01*
X756Y1342D02*
X769Y1342D01*
X783Y1342D02*
X796Y1342D01*
X844Y1342D02*
X858Y1342D01*
X866Y1342D02*
X880Y1342D01*
X928Y1342D02*
X943Y1342D01*
X983Y1342D02*
X996Y1342D01*
X1027Y1342D02*
X1040Y1342D01*
X1055Y1342D02*
X1068Y1342D01*
X1082Y1342D02*
X1095Y1342D01*
X1143Y1342D02*
X1158Y1342D01*
X1165Y1342D02*
X1179Y1342D01*
X1227Y1342D02*
X1242Y1342D01*
X1282Y1342D02*
X1295Y1342D01*
X1327Y1342D02*
X1340Y1342D01*
X1354Y1342D02*
X1367Y1342D01*
X1382Y1342D02*
X1395Y1342D01*
X545Y1341D02*
X559Y1341D01*
X566Y1341D02*
X580Y1341D01*
X629Y1341D02*
X645Y1341D01*
X683Y1341D02*
X696Y1341D01*
X728Y1341D02*
X741Y1341D01*
X755Y1341D02*
X769Y1341D01*
X783Y1341D02*
X796Y1341D01*
X844Y1341D02*
X859Y1341D01*
X865Y1341D02*
X879Y1341D01*
X928Y1341D02*
X944Y1341D01*
X983Y1341D02*
X996Y1341D01*
X1027Y1341D02*
X1040Y1341D01*
X1055Y1341D02*
X1068Y1341D01*
X1082Y1341D02*
X1095Y1341D01*
X1144Y1341D02*
X1158Y1341D01*
X1164Y1341D02*
X1179Y1341D01*
X1227Y1341D02*
X1244Y1341D01*
X1282Y1341D02*
X1295Y1341D01*
X1327Y1341D02*
X1340Y1341D01*
X1354Y1341D02*
X1367Y1341D01*
X1382Y1341D02*
X1395Y1341D01*
X545Y1340D02*
X560Y1340D01*
X565Y1340D02*
X580Y1340D01*
X629Y1340D02*
X647Y1340D01*
X683Y1340D02*
X696Y1340D01*
X728Y1340D02*
X741Y1340D01*
X755Y1340D02*
X769Y1340D01*
X783Y1340D02*
X796Y1340D01*
X845Y1340D02*
X859Y1340D01*
X864Y1340D02*
X879Y1340D01*
X928Y1340D02*
X946Y1340D01*
X982Y1340D02*
X995Y1340D01*
X1027Y1340D02*
X1041Y1340D01*
X1054Y1340D02*
X1068Y1340D01*
X1082Y1340D02*
X1095Y1340D01*
X1144Y1340D02*
X1159Y1340D01*
X1164Y1340D02*
X1178Y1340D01*
X1227Y1340D02*
X1245Y1340D01*
X1282Y1340D02*
X1295Y1340D01*
X1327Y1340D02*
X1340Y1340D01*
X1354Y1340D02*
X1368Y1340D01*
X1381Y1340D02*
X1395Y1340D01*
X546Y1339D02*
X579Y1339D01*
X629Y1339D02*
X648Y1339D01*
X683Y1339D02*
X696Y1339D01*
X728Y1339D02*
X742Y1339D01*
X754Y1339D02*
X770Y1339D01*
X782Y1339D02*
X796Y1339D01*
X845Y1339D02*
X878Y1339D01*
X928Y1339D02*
X948Y1339D01*
X982Y1339D02*
X995Y1339D01*
X1027Y1339D02*
X1041Y1339D01*
X1054Y1339D02*
X1069Y1339D01*
X1081Y1339D02*
X1095Y1339D01*
X1144Y1339D02*
X1178Y1339D01*
X1227Y1339D02*
X1247Y1339D01*
X1282Y1339D02*
X1295Y1339D01*
X1327Y1339D02*
X1341Y1339D01*
X1353Y1339D02*
X1368Y1339D01*
X1381Y1339D02*
X1395Y1339D01*
X546Y1338D02*
X579Y1338D01*
X629Y1338D02*
X650Y1338D01*
X683Y1338D02*
X696Y1338D01*
X728Y1338D02*
X743Y1338D01*
X754Y1338D02*
X770Y1338D01*
X781Y1338D02*
X796Y1338D01*
X846Y1338D02*
X878Y1338D01*
X928Y1338D02*
X949Y1338D01*
X982Y1338D02*
X995Y1338D01*
X1027Y1338D02*
X1042Y1338D01*
X1053Y1338D02*
X1070Y1338D01*
X1081Y1338D02*
X1095Y1338D01*
X1145Y1338D02*
X1177Y1338D01*
X1227Y1338D02*
X1249Y1338D01*
X1281Y1338D02*
X1295Y1338D01*
X1327Y1338D02*
X1341Y1338D01*
X1352Y1338D02*
X1369Y1338D01*
X1380Y1338D02*
X1395Y1338D01*
X547Y1337D02*
X578Y1337D01*
X629Y1337D02*
X652Y1337D01*
X682Y1337D02*
X696Y1337D01*
X728Y1337D02*
X743Y1337D01*
X753Y1337D02*
X771Y1337D01*
X781Y1337D02*
X796Y1337D01*
X846Y1337D02*
X878Y1337D01*
X928Y1337D02*
X951Y1337D01*
X981Y1337D02*
X995Y1337D01*
X1027Y1337D02*
X1043Y1337D01*
X1053Y1337D02*
X1070Y1337D01*
X1080Y1337D02*
X1095Y1337D01*
X1145Y1337D02*
X1177Y1337D01*
X1227Y1337D02*
X1251Y1337D01*
X1281Y1337D02*
X1294Y1337D01*
X1327Y1337D02*
X1342Y1337D01*
X1352Y1337D02*
X1369Y1337D01*
X1379Y1337D02*
X1395Y1337D01*
X547Y1336D02*
X578Y1336D01*
X628Y1336D02*
X654Y1336D01*
X681Y1336D02*
X696Y1336D01*
X729Y1336D02*
X744Y1336D01*
X753Y1336D02*
X771Y1336D01*
X780Y1336D02*
X795Y1336D01*
X846Y1336D02*
X877Y1336D01*
X928Y1336D02*
X953Y1336D01*
X980Y1336D02*
X995Y1336D01*
X1028Y1336D02*
X1043Y1336D01*
X1052Y1336D02*
X1071Y1336D01*
X1080Y1336D02*
X1095Y1336D01*
X1146Y1336D02*
X1176Y1336D01*
X1227Y1336D02*
X1252Y1336D01*
X1280Y1336D02*
X1294Y1336D01*
X1327Y1336D02*
X1342Y1336D01*
X1351Y1336D02*
X1370Y1336D01*
X1379Y1336D02*
X1394Y1336D01*
X548Y1335D02*
X577Y1335D01*
X628Y1335D02*
X655Y1335D01*
X680Y1335D02*
X695Y1335D01*
X729Y1335D02*
X744Y1335D01*
X752Y1335D02*
X772Y1335D01*
X780Y1335D02*
X795Y1335D01*
X847Y1335D02*
X877Y1335D01*
X928Y1335D02*
X955Y1335D01*
X979Y1335D02*
X995Y1335D01*
X1028Y1335D02*
X1044Y1335D01*
X1051Y1335D02*
X1071Y1335D01*
X1079Y1335D02*
X1094Y1335D01*
X1146Y1335D02*
X1176Y1335D01*
X1227Y1335D02*
X1254Y1335D01*
X1279Y1335D02*
X1294Y1335D01*
X1328Y1335D02*
X1343Y1335D01*
X1351Y1335D02*
X1371Y1335D01*
X1378Y1335D02*
X1393Y1335D01*
X548Y1334D02*
X577Y1334D01*
X628Y1334D02*
X695Y1334D01*
X730Y1334D02*
X794Y1334D01*
X847Y1334D02*
X876Y1334D01*
X928Y1334D02*
X994Y1334D01*
X1029Y1334D02*
X1094Y1334D01*
X1147Y1334D02*
X1176Y1334D01*
X1227Y1334D02*
X1294Y1334D01*
X1328Y1334D02*
X1393Y1334D01*
X548Y1333D02*
X576Y1333D01*
X628Y1333D02*
X695Y1333D01*
X730Y1333D02*
X794Y1333D01*
X848Y1333D02*
X876Y1333D01*
X928Y1333D02*
X994Y1333D01*
X1030Y1333D02*
X1093Y1333D01*
X1147Y1333D02*
X1175Y1333D01*
X1227Y1333D02*
X1293Y1333D01*
X1329Y1333D02*
X1392Y1333D01*
X549Y1332D02*
X576Y1332D01*
X628Y1332D02*
X694Y1332D01*
X731Y1332D02*
X793Y1332D01*
X848Y1332D02*
X875Y1332D01*
X928Y1332D02*
X993Y1332D01*
X1030Y1332D02*
X1092Y1332D01*
X1148Y1332D02*
X1175Y1332D01*
X1227Y1332D02*
X1293Y1332D01*
X1330Y1332D02*
X1392Y1332D01*
X549Y1331D02*
X576Y1331D01*
X628Y1331D02*
X694Y1331D01*
X731Y1331D02*
X793Y1331D01*
X849Y1331D02*
X875Y1331D01*
X928Y1331D02*
X993Y1331D01*
X1031Y1331D02*
X1092Y1331D01*
X1148Y1331D02*
X1174Y1331D01*
X1227Y1331D02*
X1292Y1331D01*
X1330Y1331D02*
X1391Y1331D01*
X550Y1330D02*
X575Y1330D01*
X628Y1330D02*
X693Y1330D01*
X732Y1330D02*
X792Y1330D01*
X849Y1330D02*
X874Y1330D01*
X928Y1330D02*
X992Y1330D01*
X1031Y1330D02*
X1091Y1330D01*
X1148Y1330D02*
X1174Y1330D01*
X1227Y1330D02*
X1292Y1330D01*
X1331Y1330D02*
X1391Y1330D01*
X550Y1329D02*
X575Y1329D01*
X628Y1329D02*
X692Y1329D01*
X733Y1329D02*
X791Y1329D01*
X850Y1329D02*
X874Y1329D01*
X928Y1329D02*
X992Y1329D01*
X1032Y1329D02*
X1091Y1329D01*
X1149Y1329D02*
X1173Y1329D01*
X1227Y1329D02*
X1291Y1329D01*
X1331Y1329D02*
X1390Y1329D01*
X551Y1328D02*
X574Y1328D01*
X628Y1328D02*
X692Y1328D01*
X733Y1328D02*
X791Y1328D01*
X850Y1328D02*
X873Y1328D01*
X928Y1328D02*
X991Y1328D01*
X1033Y1328D02*
X1090Y1328D01*
X1149Y1328D02*
X1173Y1328D01*
X1227Y1328D02*
X1290Y1328D01*
X1332Y1328D02*
X1389Y1328D01*
X551Y1327D02*
X573Y1327D01*
X628Y1327D02*
X691Y1327D01*
X734Y1327D02*
X790Y1327D01*
X850Y1327D02*
X872Y1327D01*
X928Y1327D02*
X990Y1327D01*
X1033Y1327D02*
X1090Y1327D01*
X1150Y1327D02*
X1171Y1327D01*
X1227Y1327D02*
X1289Y1327D01*
X1332Y1327D02*
X1389Y1327D01*
X551Y1326D02*
X570Y1326D01*
X628Y1326D02*
X641Y1326D01*
X644Y1326D02*
X690Y1326D01*
X734Y1326D02*
X790Y1326D01*
X851Y1326D02*
X869Y1326D01*
X928Y1326D02*
X940Y1326D01*
X943Y1326D02*
X989Y1326D01*
X1034Y1326D02*
X1089Y1326D01*
X1150Y1326D02*
X1168Y1326D01*
X1227Y1326D02*
X1240Y1326D01*
X1243Y1326D02*
X1288Y1326D01*
X1333Y1326D02*
X1388Y1326D01*
X552Y1325D02*
X566Y1325D01*
X629Y1325D02*
X641Y1325D01*
X646Y1325D02*
X689Y1325D01*
X735Y1325D02*
X789Y1325D01*
X851Y1325D02*
X866Y1325D01*
X928Y1325D02*
X940Y1325D01*
X945Y1325D02*
X988Y1325D01*
X1034Y1325D02*
X1088Y1325D01*
X1151Y1325D02*
X1165Y1325D01*
X1227Y1325D02*
X1240Y1325D01*
X1244Y1325D02*
X1287Y1325D01*
X1334Y1325D02*
X1388Y1325D01*
X552Y1324D02*
X567Y1324D01*
X629Y1324D02*
X640Y1324D01*
X647Y1324D02*
X687Y1324D01*
X736Y1324D02*
X761Y1324D01*
X763Y1324D02*
X788Y1324D01*
X852Y1324D02*
X866Y1324D01*
X928Y1324D02*
X940Y1324D01*
X947Y1324D02*
X987Y1324D01*
X1035Y1324D02*
X1060Y1324D01*
X1062Y1324D02*
X1088Y1324D01*
X1151Y1324D02*
X1165Y1324D01*
X1228Y1324D02*
X1239Y1324D01*
X1246Y1324D02*
X1286Y1324D01*
X1334Y1324D02*
X1360Y1324D01*
X1362Y1324D02*
X1387Y1324D01*
X553Y1323D02*
X567Y1323D01*
X630Y1323D02*
X640Y1323D01*
X649Y1323D02*
X686Y1323D01*
X736Y1323D02*
X760Y1323D01*
X764Y1323D02*
X788Y1323D01*
X852Y1323D02*
X867Y1323D01*
X929Y1323D02*
X939Y1323D01*
X948Y1323D02*
X985Y1323D01*
X1036Y1323D02*
X1060Y1323D01*
X1063Y1323D02*
X1087Y1323D01*
X1151Y1323D02*
X1166Y1323D01*
X1228Y1323D02*
X1238Y1323D01*
X1248Y1323D02*
X1285Y1323D01*
X1335Y1323D02*
X1359Y1323D01*
X1363Y1323D02*
X1386Y1323D01*
X553Y1322D02*
X568Y1322D01*
X630Y1322D02*
X639Y1322D01*
X651Y1322D02*
X684Y1322D01*
X737Y1322D02*
X759Y1322D01*
X765Y1322D02*
X787Y1322D01*
X853Y1322D02*
X867Y1322D01*
X930Y1322D02*
X938Y1322D01*
X950Y1322D02*
X983Y1322D01*
X1036Y1322D02*
X1059Y1322D01*
X1064Y1322D02*
X1086Y1322D01*
X1152Y1322D02*
X1166Y1322D01*
X1229Y1322D02*
X1238Y1322D01*
X1249Y1322D02*
X1283Y1322D01*
X1336Y1322D02*
X1358Y1322D01*
X1364Y1322D02*
X1386Y1322D01*
X554Y1321D02*
X568Y1321D01*
X632Y1321D02*
X638Y1321D01*
X653Y1321D02*
X681Y1321D01*
X738Y1321D02*
X758Y1321D01*
X766Y1321D02*
X786Y1321D01*
X853Y1321D02*
X867Y1321D01*
X931Y1321D02*
X937Y1321D01*
X952Y1321D02*
X981Y1321D01*
X1038Y1321D02*
X1057Y1321D01*
X1066Y1321D02*
X1085Y1321D01*
X1152Y1321D02*
X1167Y1321D01*
X1231Y1321D02*
X1236Y1321D01*
X1251Y1321D02*
X1280Y1321D01*
X1337Y1321D02*
X1357Y1321D01*
X1365Y1321D02*
X1384Y1321D01*
X554Y1320D02*
X569Y1320D01*
X853Y1320D02*
X868Y1320D01*
X1153Y1320D02*
X1167Y1320D01*
X555Y1319D02*
X569Y1319D01*
X854Y1319D02*
X868Y1319D01*
X1153Y1319D02*
X1168Y1319D01*
X555Y1318D02*
X569Y1318D01*
X854Y1318D02*
X869Y1318D01*
X1154Y1318D02*
X1168Y1318D01*
X555Y1317D02*
X570Y1317D01*
X855Y1317D02*
X869Y1317D01*
X1154Y1317D02*
X1168Y1317D01*
X556Y1316D02*
X570Y1316D01*
X855Y1316D02*
X870Y1316D01*
X1155Y1316D02*
X1169Y1316D01*
X556Y1315D02*
X571Y1315D01*
X856Y1315D02*
X870Y1315D01*
X1155Y1315D02*
X1169Y1315D01*
X557Y1314D02*
X571Y1314D01*
X856Y1314D02*
X870Y1314D01*
X1155Y1314D02*
X1170Y1314D01*
X557Y1313D02*
X572Y1313D01*
X857Y1313D02*
X871Y1313D01*
X1156Y1313D02*
X1170Y1313D01*
X558Y1312D02*
X572Y1312D01*
X857Y1312D02*
X871Y1312D01*
X1156Y1312D02*
X1171Y1312D01*
X558Y1311D02*
X572Y1311D01*
X857Y1311D02*
X872Y1311D01*
X1157Y1311D02*
X1171Y1311D01*
X558Y1310D02*
X573Y1310D01*
X858Y1310D02*
X872Y1310D01*
X1157Y1310D02*
X1172Y1310D01*
X559Y1309D02*
X573Y1309D01*
X858Y1309D02*
X873Y1309D01*
X1158Y1309D02*
X1172Y1309D01*
X559Y1308D02*
X574Y1308D01*
X859Y1308D02*
X873Y1308D01*
X1158Y1308D02*
X1172Y1308D01*
X560Y1307D02*
X574Y1307D01*
X859Y1307D02*
X874Y1307D01*
X1158Y1307D02*
X1173Y1307D01*
X560Y1306D02*
X575Y1306D01*
X860Y1306D02*
X874Y1306D01*
X1159Y1306D02*
X1173Y1306D01*
X561Y1305D02*
X575Y1305D01*
X860Y1305D02*
X874Y1305D01*
X1159Y1305D02*
X1174Y1305D01*
X561Y1304D02*
X593Y1304D01*
X860Y1304D02*
X892Y1304D01*
X1160Y1304D02*
X1191Y1304D01*
X562Y1303D02*
X594Y1303D01*
X861Y1303D02*
X893Y1303D01*
X1160Y1303D02*
X1193Y1303D01*
X562Y1302D02*
X595Y1302D01*
X861Y1302D02*
X894Y1302D01*
X1161Y1302D02*
X1194Y1302D01*
X562Y1301D02*
X596Y1301D01*
X862Y1301D02*
X895Y1301D01*
X1161Y1301D02*
X1194Y1301D01*
X563Y1300D02*
X596Y1300D01*
X862Y1300D02*
X895Y1300D01*
X1162Y1300D02*
X1195Y1300D01*
X563Y1299D02*
X596Y1299D01*
X863Y1299D02*
X896Y1299D01*
X1162Y1299D02*
X1195Y1299D01*
X564Y1298D02*
X596Y1298D01*
X863Y1298D02*
X896Y1298D01*
X1162Y1298D02*
X1195Y1298D01*
X564Y1297D02*
X596Y1297D01*
X864Y1297D02*
X896Y1297D01*
X1163Y1297D02*
X1195Y1297D01*
X565Y1296D02*
X596Y1296D01*
X864Y1296D02*
X896Y1296D01*
X1163Y1296D02*
X1195Y1296D01*
X565Y1295D02*
X596Y1295D01*
X864Y1295D02*
X895Y1295D01*
X1164Y1295D02*
X1195Y1295D01*
X566Y1294D02*
X595Y1294D01*
X865Y1294D02*
X895Y1294D01*
X1164Y1294D02*
X1194Y1294D01*
X566Y1293D02*
X595Y1293D01*
X866Y1293D02*
X894Y1293D01*
X1165Y1293D02*
X1193Y1293D01*
X567Y1292D02*
X594Y1292D01*
X867Y1292D02*
X893Y1292D01*
X1166Y1292D02*
X1192Y1292D01*
X570Y1291D02*
X591Y1291D01*
X869Y1291D02*
X891Y1291D01*
X1168Y1291D02*
X1190Y1291D01*
D02*
G04 End of Silk0*
M02*