G04 MADE WITH FRITZING*
G04 WWW.FRITZING.ORG*
G04 DOUBLE SIDED*
G04 HOLES PLATED*
G04 CONTOUR ON CENTER OF CONTOUR VECTOR*
%ASAXBY*%
%FSLAX23Y23*%
%MOIN*%
%OFA0B0*%
%SFA1.0B1.0*%
%ADD10C,0.075000*%
%ADD11C,0.074000*%
%ADD12C,0.078000*%
%ADD13C,0.080000*%
%ADD14C,0.060000*%
%ADD15R,0.073028X0.071501*%
%ADD16R,0.071756X0.074809*%
%ADD17R,0.073028X0.069551*%
%ADD18R,0.071501X0.071077*%
%ADD19R,0.071756X0.071756*%
%ADD20R,0.000028X0.000028*%
%ADD21R,0.082469X0.079707*%
%ADD22R,0.080184X0.080286*%
%ADD23R,0.078917X0.078057*%
%ADD24R,0.080000X0.080000*%
%ADD25R,0.080184X0.080012*%
%ADD26C,0.024000*%
%LNCOPPER1*%
G90*
G70*
G54D10*
X1611Y1153D03*
X1611Y897D03*
X1788Y1153D03*
X1788Y897D03*
X1611Y1153D03*
X1611Y897D03*
X1788Y1153D03*
X1788Y897D03*
X1922Y1329D03*
X1922Y1074D03*
X2100Y1329D03*
X2100Y1074D03*
X1922Y1329D03*
X1922Y1074D03*
X2100Y1329D03*
X2100Y1074D03*
X1611Y1503D03*
X1611Y1247D03*
X1788Y1503D03*
X1788Y1247D03*
X1611Y1503D03*
X1611Y1247D03*
X1788Y1503D03*
X1788Y1247D03*
G54D11*
X1372Y730D03*
X1372Y630D03*
X1372Y530D03*
X1372Y430D03*
X1372Y330D03*
G54D12*
X572Y179D03*
X672Y179D03*
X772Y179D03*
X872Y179D03*
X972Y179D03*
X1072Y179D03*
X1172Y179D03*
X1172Y780D03*
X1072Y780D03*
X972Y780D03*
X872Y780D03*
X772Y780D03*
X672Y780D03*
X572Y780D03*
G54D13*
X272Y1479D03*
X272Y1342D03*
G54D12*
X229Y780D03*
X229Y936D03*
X229Y1092D03*
G54D14*
X822Y1579D03*
X922Y1580D03*
X1022Y1579D03*
X1122Y1579D03*
X822Y1579D03*
X922Y1580D03*
X1022Y1579D03*
X1122Y1579D03*
G54D12*
X1481Y1079D03*
X1481Y1631D03*
X572Y1079D03*
X572Y1180D03*
X572Y1531D03*
X572Y1631D03*
G54D15*
X1373Y330D03*
G54D16*
X1372Y428D03*
G54D17*
X1371Y529D03*
G54D18*
X1372Y730D03*
G54D19*
X1372Y630D03*
G54D20*
X1372Y730D03*
X1372Y630D03*
G54D18*
X1372Y630D03*
G54D19*
X1372Y730D03*
G54D20*
X1372Y730D03*
X1372Y630D03*
G54D18*
X1372Y630D03*
G54D19*
X1372Y730D03*
G54D20*
X1372Y730D03*
X1372Y630D03*
G54D18*
X1372Y630D03*
G54D19*
X1372Y730D03*
G54D21*
X1372Y329D03*
G54D22*
X1372Y429D03*
G54D23*
X1372Y530D03*
G54D24*
X1372Y629D03*
G54D25*
X1372Y729D03*
G54D15*
X1373Y330D03*
G54D16*
X1372Y428D03*
G54D17*
X1371Y529D03*
G54D18*
X1372Y730D03*
G54D19*
X1372Y630D03*
G54D20*
X1372Y730D03*
X1372Y630D03*
G54D18*
X1372Y630D03*
G54D19*
X1372Y730D03*
G54D20*
X1372Y730D03*
X1372Y630D03*
G54D18*
X1372Y630D03*
G54D19*
X1372Y730D03*
G54D20*
X1372Y730D03*
X1372Y630D03*
G54D18*
X1372Y630D03*
G54D19*
X1372Y730D03*
G54D21*
X1372Y329D03*
G54D22*
X1372Y429D03*
G54D23*
X1372Y530D03*
G54D24*
X1372Y629D03*
G54D25*
X1372Y729D03*
G54D24*
X272Y1479D03*
G54D26*
X572Y810D02*
X572Y1049D01*
D02*
X543Y1526D02*
X303Y1485D01*
D02*
X546Y1194D02*
X300Y1327D01*
D02*
X244Y753D02*
X557Y206D01*
D02*
X542Y1079D02*
X373Y1078D01*
D02*
X373Y1078D02*
X250Y957D01*
D02*
X596Y799D02*
X573Y780D01*
D02*
X573Y780D02*
X573Y680D01*
D02*
X573Y680D02*
X1337Y345D01*
D02*
X79Y673D02*
X521Y80D01*
D02*
X1329Y73D02*
X1623Y79D01*
D02*
X521Y80D02*
X1329Y73D01*
D02*
X1794Y427D02*
X1416Y429D01*
D02*
X1791Y285D02*
X1794Y427D01*
D02*
X1623Y79D02*
X1791Y285D01*
D02*
X65Y1097D02*
X79Y673D01*
D02*
X570Y1709D02*
X572Y1661D01*
D02*
X682Y1775D02*
X570Y1709D01*
D02*
X1060Y1781D02*
X682Y1775D01*
D02*
X1122Y1493D02*
X1213Y1531D01*
D02*
X1215Y1677D02*
X1060Y1781D01*
D02*
X1213Y1531D02*
X1215Y1677D01*
D02*
X1041Y1563D02*
X1122Y1493D01*
D02*
X722Y1029D02*
X722Y1729D01*
D02*
X722Y1729D02*
X1047Y1727D01*
D02*
X1047Y1727D02*
X1111Y1602D01*
D02*
X588Y806D02*
X722Y1029D01*
D02*
X772Y1029D02*
X684Y808D01*
D02*
X772Y1680D02*
X772Y1029D01*
D02*
X1011Y1602D02*
X972Y1680D01*
D02*
X972Y1680D02*
X772Y1680D01*
D02*
X1521Y628D02*
X1521Y680D01*
D02*
X1521Y680D02*
X936Y1559D01*
D02*
X1415Y629D02*
X1521Y628D01*
D02*
X836Y1558D02*
X1350Y764D01*
D02*
X1788Y1219D02*
X1788Y1182D01*
D02*
X2075Y1059D02*
X1813Y911D01*
D02*
X1794Y427D02*
X1788Y869D01*
D02*
X65Y1097D02*
X199Y1093D01*
D02*
X65Y1097D02*
X121Y1480D01*
D02*
X121Y1480D02*
X224Y1581D01*
D02*
X374Y1630D02*
X542Y1631D01*
D02*
X224Y1581D02*
X374Y1630D01*
G04 End of Copper1*
M02*